<?xml version="1.0" encoding="UTF-8" standalone="no"?>
<!-- Created with Inkscape (http://www.inkscape.org/) -->

<svg
   width="140.26601mm"
   height="86.646393mm"
   viewBox="0 0 140.26601 86.646393"
   version="1.1"
   id="svg1"
   xml:space="preserve"
   inkscape:version="1.3.2 (091e20ef0f, 2023-11-25, custom)"
   sodipodi:docname="HiPS_and_the_HEALPix_grid.svg"
   inkscape:export-filename="HiPS_and_the_HEALPix_grid.png"
   inkscape:export-xdpi="96"
   inkscape:export-ydpi="96"
   xmlns:inkscape="http://www.inkscape.org/namespaces/inkscape"
   xmlns:sodipodi="http://sodipodi.sourceforge.net/DTD/sodipodi-0.dtd"
   xmlns:xlink="http://www.w3.org/1999/xlink"
   xmlns="http://www.w3.org/2000/svg"
   xmlns:svg="http://www.w3.org/2000/svg"><sodipodi:namedview
     id="namedview1"
     pagecolor="#505050"
     bordercolor="#ffffff"
     borderopacity="1"
     inkscape:showpageshadow="0"
     inkscape:pageopacity="0"
     inkscape:pagecheckerboard="1"
     inkscape:deskcolor="#d1d1d1"
     inkscape:document-units="mm"
     inkscape:zoom="4"
     inkscape:cx="161"
     inkscape:cy="81.5"
     inkscape:window-width="2560"
     inkscape:window-height="1368"
     inkscape:window-x="2560"
     inkscape:window-y="0"
     inkscape:window-maximized="1"
     inkscape:current-layer="layer1" /><defs
     id="defs1"><rect
       x="405.51505"
       y="461.44818"
       width="318.26517"
       height="51.290012"
       id="rect9" /><symbol
       id="folder"
       viewBox="0 0 20 20"><title
         id="title1">folder_inkscape_duplicate</title><path
         d="M 11.828,6 A 3,3 0 0 1 9.708,5.121 L 8.878,4.293 A 1,1 0 0 0 8.173,4 H 4.5 a 1,1 0 0 0 -1,0.981 L 3.546,6 h -1 L 2.5,5 a 2,2 0 0 1 2,-2 h 3.672 a 2,2 0 0 1 1.414,0.586 l 0.828,0.828 A 2,2 0 0 0 11.828,5 Z"
         id="path766" /><path
         fill-rule="evenodd"
         d="M 15.81,6 H 4.19 A 1,1 0 0 0 3.194,7.09 l 0.637,7 A 1,1 0 0 0 4.826,15 h 10.348 a 1,1 0 0 0 0.995,-0.91 l 0.637,-7 A 1,1 0 0 0 15.81,6 Z M 4.19,5 A 2,2 0 0 0 2.198,7.181 l 0.637,7 A 2,2 0 0 0 4.826,16 h 10.348 a 2,2 0 0 0 1.991,-1.819 l 0.637,-7 A 2,2 0 0 0 15.81,5 Z"
         clip-rule="evenodd"
         id="path768" /></symbol><symbol
       id="gear"
       viewBox="0 0 20 20"><title
         id="title1-9">gear_inkscape_duplicate</title><path
         fill-rule="evenodd"
         d="M 10.837,3.626 C 10.591,2.791 9.409,2.791 9.163,3.626 L 9.069,3.945 A 1.873,1.873 0 0 1 6.377,5.06 L 6.085,4.9 C 5.321,4.485 4.485,5.32 4.901,6.085 L 5.06,6.377 A 1.873,1.873 0 0 1 3.945,9.069 L 3.626,9.163 c -0.835,0.246 -0.835,1.428 0,1.674 l 0.319,0.094 A 1.873,1.873 0 0 1 5.06,13.624 L 4.9,13.915 c -0.415,0.764 0.42,1.6 1.185,1.184 L 6.377,14.94 a 1.873,1.873 0 0 1 2.692,1.115 l 0.094,0.319 c 0.246,0.835 1.428,0.835 1.674,0 l 0.094,-0.319 a 1.873,1.873 0 0 1 2.693,-1.115 l 0.291,0.16 c 0.764,0.415 1.6,-0.42 1.184,-1.185 L 14.94,13.624 a 1.873,1.873 0 0 1 1.115,-2.693 l 0.319,-0.094 c 0.835,-0.246 0.835,-1.428 0,-1.674 L 16.055,9.069 A 1.873,1.873 0 0 1 14.94,6.377 L 15.1,6.085 C 15.515,5.321 14.68,4.485 13.915,4.901 L 13.624,5.06 A 1.873,1.873 0 0 1 10.931,3.945 Z M 8.204,3.343 c 0.527,-1.79 3.064,-1.79 3.592,0 l 0.094,0.319 a 0.873,0.873 0 0 0 1.255,0.52 l 0.292,-0.16 c 1.64,-0.892 3.434,0.901 2.54,2.541 l -0.159,0.292 a 0.873,0.873 0 0 0 0.52,1.255 l 0.319,0.094 c 1.79,0.527 1.79,3.064 0,3.592 l -0.319,0.094 a 0.873,0.873 0 0 0 -0.52,1.255 l 0.16,0.292 c 0.893,1.64 -0.902,3.434 -2.541,2.54 l -0.292,-0.159 a 0.873,0.873 0 0 0 -1.255,0.52 l -0.094,0.319 c -0.527,1.79 -3.065,1.79 -3.592,0 L 8.11,16.338 a 0.873,0.873 0 0 0 -1.255,-0.52 l -0.292,0.16 C 4.923,16.871 3.13,15.076 4.023,13.437 L 4.182,13.145 A 0.873,0.873 0 0 0 3.662,11.89 L 3.343,11.796 c -1.79,-0.527 -1.79,-3.065 0,-3.592 L 3.662,8.11 A 0.873,0.873 0 0 0 4.182,6.855 L 4.022,6.563 C 3.13,4.923 4.923,3.13 6.563,4.023 L 6.855,4.182 A 0.873,0.873 0 0 0 8.11,3.662 Z"
         clip-rule="evenodd"
         id="path791" /><path
         fill-rule="evenodd"
         d="m 10,7.754 a 2.246,2.246 0 1 0 0,4.492 2.246,2.246 0 0 0 0,-4.492 z M 6.754,10 a 3.246,3.246 0 1 1 6.492,0 3.246,3.246 0 0 1 -6.492,0 z"
         clip-rule="evenodd"
         id="path793" /></symbol></defs><g
     inkscape:label="Calque 1"
     inkscape:groupmode="layer"
     id="layer1"
     transform="translate(-56.923008,-53.765629)"><rect
       style="fill:#2e2e2e;fill-opacity:1;stroke-width:0.811;stroke-linecap:round;stroke-linejoin:bevel;stroke-opacity:0.35131"
       id="rect1"
       width="140.26601"
       height="86.646393"
       x="56.923008"
       y="53.765629" /><use
       xlink:href="#folder"
       width="20"
       height="20"
       id="use1"
       transform="matrix(0.42628852,0,0,0.42628852,62.187864,57.019283)"
       style="fill:#ffffff;fill-opacity:1" /><text
       xml:space="preserve"
       style="font-style:normal;font-variant:normal;font-weight:normal;font-stretch:normal;font-size:3.43212px;line-height:100%;font-family:'Agave Nerd Font Mono';-inkscape-font-specification:'Agave Nerd Font Mono, Normal';font-variant-ligatures:normal;font-variant-caps:normal;font-variant-numeric:normal;font-variant-east-asian:normal;text-align:center;letter-spacing:-0.260454px;word-spacing:-0.00803871px;text-anchor:middle;fill:#ffffff;fill-opacity:1;stroke-width:0.191321;stroke-linecap:round;stroke-linejoin:bevel;stroke-opacity:0.35131"
       x="79.45153"
       y="60.418583"
       id="text1"
       transform="scale(0.9640394,1.037302)"><tspan
         sodipodi:role="line"
         id="tspan1"
         style="font-style:normal;font-variant:normal;font-weight:normal;font-stretch:normal;font-size:3.43212px;font-family:'Agave Nerd Font Mono';-inkscape-font-specification:'Agave Nerd Font Mono, Normal';font-variant-ligatures:normal;font-variant-caps:normal;font-variant-numeric:normal;font-variant-east-asian:normal;stroke-width:0.191321"
         x="79.321304"
         y="60.418583">Norder3</tspan></text><path
       style="fill:#ffffff;fill-opacity:1;stroke:#ffffff;stroke-width:0.315;stroke-linecap:butt;stroke-linejoin:bevel;stroke-dasharray:0.315, 0.315;stroke-dashoffset:0;stroke-opacity:1"
       d="M 66.45075,65.337666 V 135"
       id="path1"
       sodipodi:nodetypes="cc" /><image
       width="10"
       height="10"
       preserveAspectRatio="none"
       xlink:href="../../../../../T%C3%A9l%C3%A9chargements/sunHips/Norder0/Dir0/Npix0.png"
       id="image1"
       x="71.014786"
       y="65.892456" /><text
       xml:space="preserve"
       style="font-style:normal;font-variant:normal;font-weight:normal;font-stretch:normal;font-size:3.43212px;line-height:100%;font-family:'Agave Nerd Font Mono';-inkscape-font-specification:'Agave Nerd Font Mono, Normal';font-variant-ligatures:normal;font-variant-caps:normal;font-variant-numeric:normal;font-variant-east-asian:normal;text-align:center;letter-spacing:-0.260454px;word-spacing:-0.00803871px;text-anchor:middle;fill:#ffffff;fill-opacity:1;stroke-width:0.191321;stroke-linecap:round;stroke-linejoin:bevel;stroke-opacity:0.35131"
       x="89.880493"
       y="69.408958"
       id="text2"
       transform="scale(0.9640394,1.037302)"><tspan
         sodipodi:role="line"
         id="tspan2"
         style="font-style:normal;font-variant:normal;font-weight:normal;font-stretch:normal;font-size:3.43212px;font-family:'Agave Nerd Font Mono';-inkscape-font-specification:'Agave Nerd Font Mono, Normal';font-variant-ligatures:normal;font-variant-caps:normal;font-variant-numeric:normal;font-variant-east-asian:normal;stroke-width:0.191321"
         x="89.750267"
         y="69.408958">Npix0</tspan></text><image
       width="10"
       height="10"
       preserveAspectRatio="none"
       xlink:href="../../../../../T%C3%A9l%C3%A9chargements/sunHips/Norder0/Dir0/Npix1.png"
       id="image1-8"
       x="71.014786"
       y="76.968109" /><text
       xml:space="preserve"
       style="font-style:normal;font-variant:normal;font-weight:normal;font-stretch:normal;font-size:3.43212px;line-height:100%;font-family:'Agave Nerd Font Mono';-inkscape-font-specification:'Agave Nerd Font Mono, Normal';font-variant-ligatures:normal;font-variant-caps:normal;font-variant-numeric:normal;font-variant-east-asian:normal;text-align:center;letter-spacing:-0.260454px;word-spacing:-0.00803871px;text-anchor:middle;fill:#ffffff;fill-opacity:1;stroke-width:0.191321;stroke-linecap:round;stroke-linejoin:bevel;stroke-opacity:0.35131"
       x="89.880493"
       y="79.611702"
       id="text3"
       transform="scale(0.9640394,1.037302)"><tspan
         sodipodi:role="line"
         id="tspan3"
         style="font-style:normal;font-variant:normal;font-weight:normal;font-stretch:normal;font-size:3.43212px;font-family:'Agave Nerd Font Mono';-inkscape-font-specification:'Agave Nerd Font Mono, Normal';font-variant-ligatures:normal;font-variant-caps:normal;font-variant-numeric:normal;font-variant-east-asian:normal;stroke-width:0.191321"
         x="89.750267"
         y="79.611702">Npix1</tspan></text><path
       style="fill:#ffffff;fill-opacity:1;stroke:#ffffff;stroke-width:0.315;stroke-linecap:butt;stroke-linejoin:bevel;stroke-dasharray:0.315, 0.315;stroke-dashoffset:0;stroke-opacity:1"
       d="M 76.014786,90.16043 V 88.574088"
       id="path3"
       sodipodi:nodetypes="cc" /><text
       xml:space="preserve"
       style="font-style:normal;font-variant:normal;font-weight:normal;font-stretch:normal;font-size:3.43212px;line-height:100%;font-family:'Agave Nerd Font Mono';-inkscape-font-specification:'Agave Nerd Font Mono, Normal';font-variant-ligatures:normal;font-variant-caps:normal;font-variant-numeric:normal;font-variant-east-asian:normal;text-align:center;letter-spacing:-0.260454px;word-spacing:-0.00803871px;text-anchor:middle;fill:#ffffff;fill-opacity:1;stroke-width:0.191321;stroke-linecap:round;stroke-linejoin:bevel;stroke-opacity:0.35131"
       x="83.268265"
       y="90.219322"
       id="text4"
       transform="scale(0.9640394,1.037302)"><tspan
         sodipodi:role="line"
         id="tspan4"
         style="font-style:normal;font-variant:normal;font-weight:normal;font-stretch:normal;font-size:3.43212px;font-family:'Agave Nerd Font Mono';-inkscape-font-specification:'Agave Nerd Font Mono, Normal';font-variant-ligatures:normal;font-variant-caps:normal;font-variant-numeric:normal;font-variant-east-asian:normal;stroke-width:0.191321"
         x="83.138039"
         y="90.219322">until Npix768</tspan></text><use
       xlink:href="#folder"
       width="20"
       height="20"
       id="use4"
       transform="matrix(0.42628852,0,0,0.42628852,70.081302,95.809959)"
       style="fill:#ffffff;fill-opacity:1" /><text
       xml:space="preserve"
       style="font-style:normal;font-variant:normal;font-weight:normal;font-stretch:normal;font-size:3.43212px;line-height:100%;font-family:'Agave Nerd Font Mono';-inkscape-font-specification:'Agave Nerd Font Mono, Normal';font-variant-ligatures:normal;font-variant-caps:normal;font-variant-numeric:normal;font-variant-east-asian:normal;text-align:center;letter-spacing:-0.260454px;word-spacing:-0.00803871px;text-anchor:middle;fill:#ffffff;fill-opacity:1;stroke-width:0.191321;stroke-linecap:round;stroke-linejoin:bevel;stroke-opacity:0.35131"
       x="88.039444"
       y="97.857773"
       id="text5"
       transform="scale(0.9640394,1.037302)"><tspan
         sodipodi:role="line"
         id="tspan5"
         style="font-style:normal;font-variant:normal;font-weight:normal;font-stretch:normal;font-size:3.43212px;font-family:'Agave Nerd Font Mono';-inkscape-font-specification:'Agave Nerd Font Mono, Normal';font-variant-ligatures:normal;font-variant-caps:normal;font-variant-numeric:normal;font-variant-east-asian:normal;stroke-width:0.191321"
         x="87.909218"
         y="97.857773">Norder4</tspan></text><image
       width="10"
       height="10"
       preserveAspectRatio="none"
       xlink:href="../../../../../T%C3%A9l%C3%A9chargements/sunHips/Norder1/Dir0/Npix0.png"
       id="image1-88"
       x="79.062775"
       y="106.08349" /><path
       style="fill:#ffffff;fill-opacity:1;stroke:#ffffff;stroke-width:0.315;stroke-linecap:butt;stroke-linejoin:bevel;stroke-dasharray:0.315, 0.315;stroke-dashoffset:0;stroke-opacity:1"
       d="M 74.344187,106.08349 V 135"
       id="path5"
       sodipodi:nodetypes="cc" /><text
       xml:space="preserve"
       style="font-style:normal;font-variant:normal;font-weight:normal;font-stretch:normal;font-size:3.43212px;line-height:100%;font-family:'Agave Nerd Font Mono';-inkscape-font-specification:'Agave Nerd Font Mono, Normal';font-variant-ligatures:normal;font-variant-caps:normal;font-variant-numeric:normal;font-variant-east-asian:normal;text-align:center;letter-spacing:-0.260454px;word-spacing:-0.00803871px;text-anchor:middle;fill:#ffffff;fill-opacity:1;stroke-width:0.191321;stroke-linecap:round;stroke-linejoin:bevel;stroke-opacity:0.35131"
       x="98.614685"
       y="108.02566"
       id="text6"
       transform="scale(0.9640394,1.037302)"><tspan
         sodipodi:role="line"
         id="tspan6"
         style="font-style:normal;font-variant:normal;font-weight:normal;font-stretch:normal;font-size:3.43212px;font-family:'Agave Nerd Font Mono';-inkscape-font-specification:'Agave Nerd Font Mono, Normal';font-variant-ligatures:normal;font-variant-caps:normal;font-variant-numeric:normal;font-variant-east-asian:normal;stroke-width:0.191321"
         x="98.484459"
         y="108.02566">Npix0</tspan></text><image
       width="10"
       height="10"
       preserveAspectRatio="none"
       xlink:href="../../../../../T%C3%A9l%C3%A9chargements/sunHips/Norder1/Dir0/Npix1.png"
       id="image1-7"
       x="79.062775"
       y="119.00797" /><text
       xml:space="preserve"
       style="font-style:normal;font-variant:normal;font-weight:normal;font-stretch:normal;font-size:3.43212px;line-height:100%;font-family:'Agave Nerd Font Mono';-inkscape-font-specification:'Agave Nerd Font Mono, Normal';font-variant-ligatures:normal;font-variant-caps:normal;font-variant-numeric:normal;font-variant-east-asian:normal;text-align:center;letter-spacing:-0.260454px;word-spacing:-0.00803871px;text-anchor:middle;fill:#ffffff;fill-opacity:1;stroke-width:0.191321;stroke-linecap:round;stroke-linejoin:bevel;stroke-opacity:0.35131"
       x="98.614685"
       y="120.48537"
       id="text7"
       transform="scale(0.9640394,1.037302)"><tspan
         sodipodi:role="line"
         id="tspan7"
         style="font-style:normal;font-variant:normal;font-weight:normal;font-stretch:normal;font-size:3.43212px;font-family:'Agave Nerd Font Mono';-inkscape-font-specification:'Agave Nerd Font Mono, Normal';font-variant-ligatures:normal;font-variant-caps:normal;font-variant-numeric:normal;font-variant-east-asian:normal;stroke-width:0.191321"
         x="98.484459"
         y="120.48537">Npix1</tspan></text><path
       style="fill:#ffffff;fill-opacity:1;stroke:#ffffff;stroke-width:0.315;stroke-linecap:butt;stroke-linejoin:bevel;stroke-dasharray:0.315, 0.315;stroke-dashoffset:0;stroke-opacity:1"
       d="m 84.062775,131.79271 v -1.58634"
       id="path7"
       sodipodi:nodetypes="cc" /><text
       xml:space="preserve"
       style="font-style:normal;font-variant:normal;font-weight:normal;font-stretch:normal;font-size:3.43212px;line-height:100%;font-family:'Agave Nerd Font Mono';-inkscape-font-specification:'Agave Nerd Font Mono, Normal';font-variant-ligatures:normal;font-variant-caps:normal;font-variant-numeric:normal;font-variant-east-asian:normal;text-align:center;letter-spacing:-0.260454px;word-spacing:-0.00803871px;text-anchor:middle;fill:#ffffff;fill-opacity:1;stroke-width:0.191321;stroke-linecap:round;stroke-linejoin:bevel;stroke-opacity:0.35131"
       x="92.329109"
       y="130.35448"
       id="text8"
       transform="scale(0.9640394,1.037302)"><tspan
         sodipodi:role="line"
         id="tspan8"
         style="font-style:normal;font-variant:normal;font-weight:normal;font-stretch:normal;font-size:3.43212px;font-family:'Agave Nerd Font Mono';-inkscape-font-specification:'Agave Nerd Font Mono, Normal';font-variant-ligatures:normal;font-variant-caps:normal;font-variant-numeric:normal;font-variant-east-asian:normal;stroke-width:0.191321"
         x="92.198883"
         y="130.35448">until Npix3072</tspan></text><image
       width="84.785912"
       height="60.268196"
       preserveAspectRatio="none"
       xlink:href="../../../../../Images/healpix-grid.png"
       id="image1-0"
       x="106.71427"
       y="64.789993" /><text
       xml:space="preserve"
       transform="matrix(0.26458333,0,0,0.26458333,0,5.8208336)"
       id="text9"
       style="font-style:normal;font-variant:normal;font-weight:normal;font-stretch:normal;font-size:12.9718px;line-height:100%;font-family:'Agave Nerd Font Mono';-inkscape-font-specification:'Agave Nerd Font Mono, Normal';font-variant-ligatures:normal;font-variant-caps:normal;font-variant-numeric:normal;font-variant-east-asian:normal;text-align:center;letter-spacing:-1.62px;word-spacing:-0.05px;white-space:pre;shape-inside:url(#rect9);display:inline;fill:#ffffff;fill-opacity:1;stroke:none;stroke-width:1.19055;stroke-linecap:butt;stroke-linejoin:bevel;stroke-dasharray:1.19055, 1.19055;stroke-dashoffset:0;stroke-opacity:1"><tspan
         x="432.70816"
         y="471.17612"
         id="tspan11"><tspan
           dx="0 0 0 0.05000012 -0.050001025 0 0 0 0 0 0 0.050002027 -0.050001025 0 0 0 0.050005842 -0.05000484 0 0 0.049998213 -0.049997211 0 0.049998213 -0.049997211 0 0 0 0 0.050005842 -0.049997211 0 0.050005842 -0.049997211 0 0 0.050005842 -0.050012469 0 0 0 0.050005842 -0.049997211 0 0.050005842 -0.049997211"
           id="tspan10">The HEALPix grid can be added to the view in ipyaladin</tspan></tspan></text><text
       xml:space="preserve"
       style="font-style:normal;font-variant:normal;font-weight:normal;font-stretch:normal;font-size:3.43212px;line-height:100%;font-family:'Agave Nerd Font Mono';-inkscape-font-specification:'Agave Nerd Font Mono, Normal';font-variant-ligatures:normal;font-variant-caps:normal;font-variant-numeric:normal;font-variant-east-asian:normal;text-align:center;letter-spacing:-0.428625px;word-spacing:-0.0132292px;text-anchor:middle;fill:#ffffff;fill-opacity:1;stroke:none;stroke-width:0.315;stroke-linecap:butt;stroke-linejoin:bevel;stroke-dasharray:0.315, 0.315;stroke-dashoffset:0;stroke-opacity:1"
       x="58.874306"
       y="60.706329"
       id="text13"><tspan
         sodipodi:role="line"
         id="tspan13"
         style="stroke-width:0.315"
         x="58.659992"
         y="60.706329">(a)</tspan></text><text
       xml:space="preserve"
       style="font-style:normal;font-variant:normal;font-weight:normal;font-stretch:normal;font-size:3.43212px;line-height:100%;font-family:'Agave Nerd Font Mono';-inkscape-font-specification:'Agave Nerd Font Mono, Normal';font-variant-ligatures:normal;font-variant-caps:normal;font-variant-numeric:normal;font-variant-east-asian:normal;text-align:center;letter-spacing:-0.428625px;word-spacing:-0.0132292px;text-anchor:middle;fill:#ffffff;fill-opacity:1;stroke:none;stroke-width:0.315;stroke-linecap:butt;stroke-linejoin:bevel;stroke-dasharray:0.315, 0.315;stroke-dashoffset:0;stroke-opacity:1"
       x="101.20762"
       y="60.706329"
       id="text14"><tspan
         sodipodi:role="line"
         id="tspan14"
         style="stroke-width:0.315"
         x="100.99331"
         y="60.706329">(b)</tspan></text></g></svg>
