<?xml version="1.0" encoding="UTF-8" standalone="no"?>
<!-- Created with Inkscape (http://www.inkscape.org/) -->

<svg
   width="240.25197mm"
   height="80.464676mm"
   viewBox="0 0 240.25198 80.464676"
   version="1.1"
   id="svg1"
   xml:space="preserve"
   inkscape:version="1.3.2 (091e20ef0f, 2023-11-25, custom)"
   sodipodi:docname="HiPS_and_the_HEALPix_grid.svg"
   inkscape:export-filename="HiPS_and_the_HEALPix_grid.png"
   inkscape:export-xdpi="150"
   inkscape:export-ydpi="150"
   xmlns:inkscape="http://www.inkscape.org/namespaces/inkscape"
   xmlns:sodipodi="http://sodipodi.sourceforge.net/DTD/sodipodi-0.dtd"
   xmlns:xlink="http://www.w3.org/1999/xlink"
   xmlns="http://www.w3.org/2000/svg"
   xmlns:svg="http://www.w3.org/2000/svg"><sodipodi:namedview
     id="namedview1"
     pagecolor="#505050"
     bordercolor="#ffffff"
     borderopacity="1"
     inkscape:showpageshadow="0"
     inkscape:pageopacity="0"
     inkscape:pagecheckerboard="1"
     inkscape:deskcolor="#d1d1d1"
     inkscape:document-units="mm"
     inkscape:zoom="1"
     inkscape:cx="303.49999"
     inkscape:cy="378.99999"
     inkscape:window-width="2560"
     inkscape:window-height="1412"
     inkscape:window-x="0"
     inkscape:window-y="0"
     inkscape:window-maximized="1"
     inkscape:current-layer="layer1" /><defs
     id="defs1"><rect
       x="405.51505"
       y="461.44818"
       width="318.26517"
       height="51.290012"
       id="rect9" /><symbol
       id="folder"
       viewBox="0 0 20 20"><title
         id="title1">folder_inkscape_duplicate</title><path
         d="M 11.828,6 A 3,3 0 0 1 9.708,5.121 L 8.878,4.293 A 1,1 0 0 0 8.173,4 H 4.5 a 1,1 0 0 0 -1,0.981 L 3.546,6 h -1 L 2.5,5 a 2,2 0 0 1 2,-2 h 3.672 a 2,2 0 0 1 1.414,0.586 l 0.828,0.828 A 2,2 0 0 0 11.828,5 Z"
         id="path766" /><path
         fill-rule="evenodd"
         d="M 15.81,6 H 4.19 A 1,1 0 0 0 3.194,7.09 l 0.637,7 A 1,1 0 0 0 4.826,15 h 10.348 a 1,1 0 0 0 0.995,-0.91 l 0.637,-7 A 1,1 0 0 0 15.81,6 Z M 4.19,5 A 2,2 0 0 0 2.198,7.181 l 0.637,7 A 2,2 0 0 0 4.826,16 h 10.348 a 2,2 0 0 0 1.991,-1.819 l 0.637,-7 A 2,2 0 0 0 15.81,5 Z"
         clip-rule="evenodd"
         id="path768" /></symbol><symbol
       id="gear"
       viewBox="0 0 20 20"><title
         id="title1-9">gear_inkscape_duplicate</title><path
         fill-rule="evenodd"
         d="M 10.837,3.626 C 10.591,2.791 9.409,2.791 9.163,3.626 L 9.069,3.945 A 1.873,1.873 0 0 1 6.377,5.06 L 6.085,4.9 C 5.321,4.485 4.485,5.32 4.901,6.085 L 5.06,6.377 A 1.873,1.873 0 0 1 3.945,9.069 L 3.626,9.163 c -0.835,0.246 -0.835,1.428 0,1.674 l 0.319,0.094 A 1.873,1.873 0 0 1 5.06,13.624 L 4.9,13.915 c -0.415,0.764 0.42,1.6 1.185,1.184 L 6.377,14.94 a 1.873,1.873 0 0 1 2.692,1.115 l 0.094,0.319 c 0.246,0.835 1.428,0.835 1.674,0 l 0.094,-0.319 a 1.873,1.873 0 0 1 2.693,-1.115 l 0.291,0.16 c 0.764,0.415 1.6,-0.42 1.184,-1.185 L 14.94,13.624 a 1.873,1.873 0 0 1 1.115,-2.693 l 0.319,-0.094 c 0.835,-0.246 0.835,-1.428 0,-1.674 L 16.055,9.069 A 1.873,1.873 0 0 1 14.94,6.377 L 15.1,6.085 C 15.515,5.321 14.68,4.485 13.915,4.901 L 13.624,5.06 A 1.873,1.873 0 0 1 10.931,3.945 Z M 8.204,3.343 c 0.527,-1.79 3.064,-1.79 3.592,0 l 0.094,0.319 a 0.873,0.873 0 0 0 1.255,0.52 l 0.292,-0.16 c 1.64,-0.892 3.434,0.901 2.54,2.541 l -0.159,0.292 a 0.873,0.873 0 0 0 0.52,1.255 l 0.319,0.094 c 1.79,0.527 1.79,3.064 0,3.592 l -0.319,0.094 a 0.873,0.873 0 0 0 -0.52,1.255 l 0.16,0.292 c 0.893,1.64 -0.902,3.434 -2.541,2.54 l -0.292,-0.159 a 0.873,0.873 0 0 0 -1.255,0.52 l -0.094,0.319 c -0.527,1.79 -3.065,1.79 -3.592,0 L 8.11,16.338 a 0.873,0.873 0 0 0 -1.255,-0.52 l -0.292,0.16 C 4.923,16.871 3.13,15.076 4.023,13.437 L 4.182,13.145 A 0.873,0.873 0 0 0 3.662,11.89 L 3.343,11.796 c -1.79,-0.527 -1.79,-3.065 0,-3.592 L 3.662,8.11 A 0.873,0.873 0 0 0 4.182,6.855 L 4.022,6.563 C 3.13,4.923 4.923,3.13 6.563,4.023 L 6.855,4.182 A 0.873,0.873 0 0 0 8.11,3.662 Z"
         clip-rule="evenodd"
         id="path791" /><path
         fill-rule="evenodd"
         d="m 10,7.754 a 2.246,2.246 0 1 0 0,4.492 2.246,2.246 0 0 0 0,-4.492 z M 6.754,10 a 3.246,3.246 0 1 1 6.492,0 3.246,3.246 0 0 1 -6.492,0 z"
         clip-rule="evenodd"
         id="path793" /></symbol><clipPath
       clipPathUnits="userSpaceOnUse"
       id="clipPath17"><ellipse
         style="fill:none;fill-opacity:1;stroke:#000000;stroke-width:0.0948542;stroke-linecap:butt;stroke-linejoin:bevel;stroke-dasharray:none;stroke-dashoffset:0;stroke-opacity:1"
         id="ellipse17"
         cx="-0.3388311"
         cy="129.68048"
         rx="15.835439"
         ry="15.850399" /></clipPath><clipPath
       clipPathUnits="userSpaceOnUse"
       id="clipPath18"><ellipse
         style="fill:none;fill-opacity:1;stroke:#000000;stroke-width:0.094442;stroke-linecap:butt;stroke-linejoin:bevel;stroke-dasharray:none;stroke-dashoffset:0;stroke-opacity:1"
         id="ellipse18"
         cx="36.080002"
         cy="108.38046"
         rx="15.807996"
         ry="15.740219" /></clipPath><clipPath
       id="p6faa9b3562"
       style="stroke-linecap:butt;stroke-linejoin:round"><path
         id="path120132"
         d="m 90,640.8 h 558 v 0 -554.4 0 H 90 v 0 554.4"
         style="stroke-linecap:butt;stroke-linejoin:round" /></clipPath><clipPath
       clipPathUnits="userSpaceOnUse"
       id="clipPath93428"
       style="stroke-linecap:butt;stroke-linejoin:round"><path
         style="fill:none;stroke:#000000;stroke-width:11.0931px;stroke-linecap:butt;stroke-linejoin:miter;stroke-opacity:1"
         d="m 360.7526,385.65248 c -133.40519,-2.81453 -120.1962,26.2135 -120.4967,127.86674 l 23.44043,129.56206 315.25735,-1.84336 -7.02749,-481.35932 -83.20938,58.49875 c 2.22163,153.9549 5.44098,170.08965 -127.96421,167.27623 z"
         id="path93430" /></clipPath><clipPath
       id="clipPath13015"
       style="stroke-linecap:butt;stroke-linejoin:round"><path
         id="path13013"
         d="m 90,640.8 h 558 v 0 -554.4 0 H 90 v 0 554.4"
         style="stroke-linecap:butt;stroke-linejoin:round" /></clipPath><rect
       x="405.51505"
       y="461.44818"
       width="180.51212"
       height="73.875801"
       id="rect22" /><rect
       x="405.51505"
       y="461.44818"
       width="318.26517"
       height="51.290012"
       id="rect32" /><rect
       x="405.51505"
       y="461.44818"
       width="318.26517"
       height="51.290012"
       id="rect33" /><clipPath
       clipPathUnits="userSpaceOnUse"
       id="clipPath34"><rect
         style="fill:none;stroke:#ffffff;stroke-width:0.076;stroke-linejoin:bevel"
         id="rect35"
         width="96.308334"
         height="26.19375"
         x="107.05362"
         y="190.6875" /></clipPath></defs><g
     inkscape:label="Calque 1"
     inkscape:groupmode="layer"
     id="layer1"
     transform="translate(-18.682785,-56.279171)"><rect
       style="fill:#2e2e2e;fill-opacity:1;stroke-width:0.81969;stroke-linecap:round;stroke-linejoin:bevel;stroke-opacity:0.35131"
       id="rect2"
       width="193.42072"
       height="64.187965"
       x="18.682785"
       y="162.51422"
       inkscape:export-filename="finding_hips_with_ipyaladin.png"
       inkscape:export-xdpi="150"
       inkscape:export-ydpi="150" /><rect
       style="fill:#2e2e2e;fill-opacity:1;stroke-width:1.02284;stroke-linecap:round;stroke-linejoin:bevel;stroke-opacity:0.35131"
       id="rect1"
       width="240.25197"
       height="80.464676"
       x="18.682785"
       y="56.279171" /><use
       xlink:href="#folder"
       width="20"
       height="20"
       id="use1"
       transform="matrix(0.42628852,0,0,0.42628852,62.187864,57.019283)"
       style="fill:#ffffff;fill-opacity:1" /><text
       xml:space="preserve"
       style="font-style:normal;font-variant:normal;font-weight:normal;font-stretch:normal;font-size:3.43212px;line-height:100%;font-family:'DejaVu Sans Mono';-inkscape-font-specification:'DejaVu Sans Mono, Normal';font-variant-ligatures:normal;font-variant-caps:normal;font-variant-numeric:normal;font-variant-east-asian:normal;text-align:center;letter-spacing:-0.260454px;word-spacing:-0.00803871px;text-anchor:middle;fill:#ffffff;fill-opacity:1;stroke-width:0.191321;stroke-linecap:round;stroke-linejoin:bevel;stroke-opacity:0.35131"
       x="79.45153"
       y="60.418583"
       id="text1"
       transform="scale(0.9640394,1.037302)"><tspan
         sodipodi:role="line"
         id="tspan1"
         style="font-style:normal;font-variant:normal;font-weight:normal;font-stretch:normal;font-size:3.43212px;font-family:'DejaVu Sans Mono';-inkscape-font-specification:'DejaVu Sans Mono, Normal';font-variant-ligatures:normal;font-variant-caps:normal;font-variant-numeric:normal;font-variant-east-asian:normal;stroke-width:0.191321"
         x="79.321304"
         y="60.418583">Norder3</tspan></text><path
       style="fill:#ffffff;fill-opacity:1;stroke:#ffffff;stroke-width:0.315;stroke-linecap:butt;stroke-linejoin:bevel;stroke-dasharray:0.315, 0.315;stroke-dashoffset:0;stroke-opacity:1"
       d="M 66.45075,65.337666 V 135"
       id="path1"
       sodipodi:nodetypes="cc" /><image
       width="10"
       height="10"
       preserveAspectRatio="none"
       xlink:href="../../../../../T%C3%A9l%C3%A9chargements/sunHips/Norder0/Dir0/Npix0.png"
       id="image1"
       x="71.014786"
       y="65.892456" /><text
       xml:space="preserve"
       style="font-style:normal;font-variant:normal;font-weight:normal;font-stretch:normal;font-size:3.43212px;line-height:100%;font-family:'DejaVu Sans Mono';-inkscape-font-specification:'DejaVu Sans Mono, Normal';font-variant-ligatures:normal;font-variant-caps:normal;font-variant-numeric:normal;font-variant-east-asian:normal;text-align:center;letter-spacing:-0.260454px;word-spacing:-0.00803871px;text-anchor:middle;fill:#ffffff;fill-opacity:1;stroke-width:0.191321;stroke-linecap:round;stroke-linejoin:bevel;stroke-opacity:0.35131"
       x="89.880493"
       y="69.408958"
       id="text2"
       transform="scale(0.9640394,1.037302)"><tspan
         sodipodi:role="line"
         id="tspan2"
         style="font-style:normal;font-variant:normal;font-weight:normal;font-stretch:normal;font-size:3.43212px;font-family:'DejaVu Sans Mono';-inkscape-font-specification:'DejaVu Sans Mono, Normal';font-variant-ligatures:normal;font-variant-caps:normal;font-variant-numeric:normal;font-variant-east-asian:normal;stroke-width:0.191321"
         x="89.750267"
         y="69.408958">Npix0</tspan></text><image
       width="10"
       height="10"
       preserveAspectRatio="none"
       xlink:href="../../../../../T%C3%A9l%C3%A9chargements/sunHips/Norder0/Dir0/Npix1.png"
       id="image1-8"
       x="71.014786"
       y="76.968109" /><text
       xml:space="preserve"
       style="font-style:normal;font-variant:normal;font-weight:normal;font-stretch:normal;font-size:3.43212px;line-height:100%;font-family:'DejaVu Sans Mono';-inkscape-font-specification:'DejaVu Sans Mono, Normal';font-variant-ligatures:normal;font-variant-caps:normal;font-variant-numeric:normal;font-variant-east-asian:normal;text-align:center;letter-spacing:-0.260454px;word-spacing:-0.00803871px;text-anchor:middle;fill:#ffffff;fill-opacity:1;stroke-width:0.191321;stroke-linecap:round;stroke-linejoin:bevel;stroke-opacity:0.35131"
       x="89.880493"
       y="79.611702"
       id="text3"
       transform="scale(0.9640394,1.037302)"><tspan
         sodipodi:role="line"
         id="tspan3"
         style="font-style:normal;font-variant:normal;font-weight:normal;font-stretch:normal;font-size:3.43212px;font-family:'DejaVu Sans Mono';-inkscape-font-specification:'DejaVu Sans Mono, Normal';font-variant-ligatures:normal;font-variant-caps:normal;font-variant-numeric:normal;font-variant-east-asian:normal;stroke-width:0.191321"
         x="89.750267"
         y="79.611702">Npix1</tspan></text><path
       style="fill:#ffffff;fill-opacity:1;stroke:#ffffff;stroke-width:0.315;stroke-linecap:butt;stroke-linejoin:bevel;stroke-dasharray:0.315, 0.315;stroke-dashoffset:0;stroke-opacity:1"
       d="M 76.014786,90.16043 V 88.574088"
       id="path3"
       sodipodi:nodetypes="cc" /><text
       xml:space="preserve"
       style="font-style:normal;font-variant:normal;font-weight:normal;font-stretch:normal;font-size:3.43212px;line-height:100%;font-family:'DejaVu Sans Mono';-inkscape-font-specification:'DejaVu Sans Mono, Normal';font-variant-ligatures:normal;font-variant-caps:normal;font-variant-numeric:normal;font-variant-east-asian:normal;text-align:center;letter-spacing:-0.260454px;word-spacing:-0.00803871px;text-anchor:middle;fill:#ffffff;fill-opacity:1;stroke-width:0.191321;stroke-linecap:round;stroke-linejoin:bevel;stroke-opacity:0.35131"
       x="84.238571"
       y="90.219322"
       id="text4"
       transform="scale(0.9640394,1.037302)"><tspan
         sodipodi:role="line"
         id="tspan4"
         style="font-style:normal;font-variant:normal;font-weight:normal;font-stretch:normal;font-size:3.43212px;font-family:'DejaVu Sans Mono';-inkscape-font-specification:'DejaVu Sans Mono, Normal';font-variant-ligatures:normal;font-variant-caps:normal;font-variant-numeric:normal;font-variant-east-asian:normal;stroke-width:0.191321"
         x="84.108345"
         y="90.219322">until Npix767</tspan></text><use
       xlink:href="#folder"
       width="20"
       height="20"
       id="use4"
       transform="matrix(0.42628852,0,0,0.42628852,35.218076,95.809959)"
       style="fill:#ffffff;fill-opacity:1" /><text
       xml:space="preserve"
       style="font-style:normal;font-variant:normal;font-weight:normal;font-stretch:normal;font-size:3.43212px;line-height:100%;font-family:'DejaVu Sans Mono';-inkscape-font-specification:'DejaVu Sans Mono, Normal';font-variant-ligatures:normal;font-variant-caps:normal;font-variant-numeric:normal;font-variant-east-asian:normal;text-align:center;letter-spacing:-0.260454px;word-spacing:-0.00803871px;text-anchor:middle;fill:#ffffff;fill-opacity:1;stroke-width:0.191321;stroke-linecap:round;stroke-linejoin:bevel;stroke-opacity:0.35131"
       x="88.039444"
       y="97.857773"
       id="text5"
       transform="scale(0.9640394,1.037302)"><tspan
         sodipodi:role="line"
         id="tspan5"
         style="font-style:normal;font-variant:normal;font-weight:normal;font-stretch:normal;font-size:3.43212px;font-family:'DejaVu Sans Mono';-inkscape-font-specification:'DejaVu Sans Mono, Normal';font-variant-ligatures:normal;font-variant-caps:normal;font-variant-numeric:normal;font-variant-east-asian:normal;stroke-width:0.191321"
         x="87.909218"
         y="97.857773">Norder4</tspan></text><image
       width="10"
       height="10"
       preserveAspectRatio="none"
       xlink:href="../../../../../T%C3%A9l%C3%A9chargements/sunHips/Norder1/Dir0/Npix0.png"
       id="image1-88"
       x="79.062775"
       y="106.08349" /><path
       style="fill:#ffffff;fill-opacity:1;stroke:#ffffff;stroke-width:0.315;stroke-linecap:butt;stroke-linejoin:bevel;stroke-dasharray:0.315, 0.315;stroke-dashoffset:0;stroke-opacity:1"
       d="M 74.344187,106.08349 V 135"
       id="path5"
       sodipodi:nodetypes="cc" /><text
       xml:space="preserve"
       style="font-style:normal;font-variant:normal;font-weight:normal;font-stretch:normal;font-size:3.43212px;line-height:100%;font-family:'DejaVu Sans Mono';-inkscape-font-specification:'DejaVu Sans Mono, Normal';font-variant-ligatures:normal;font-variant-caps:normal;font-variant-numeric:normal;font-variant-east-asian:normal;text-align:center;letter-spacing:-0.260454px;word-spacing:-0.00803871px;text-anchor:middle;fill:#ffffff;fill-opacity:1;stroke-width:0.191321;stroke-linecap:round;stroke-linejoin:bevel;stroke-opacity:0.35131"
       x="98.614685"
       y="108.02566"
       id="text6"
       transform="scale(0.9640394,1.037302)"><tspan
         sodipodi:role="line"
         id="tspan6"
         style="font-style:normal;font-variant:normal;font-weight:normal;font-stretch:normal;font-size:3.43212px;font-family:'DejaVu Sans Mono';-inkscape-font-specification:'DejaVu Sans Mono, Normal';font-variant-ligatures:normal;font-variant-caps:normal;font-variant-numeric:normal;font-variant-east-asian:normal;stroke-width:0.191321"
         x="98.484459"
         y="108.02566">Npix0</tspan></text><image
       width="10"
       height="10"
       preserveAspectRatio="none"
       xlink:href="../../../../../T%C3%A9l%C3%A9chargements/sunHips/Norder1/Dir0/Npix1.png"
       id="image1-7"
       x="79.062775"
       y="119.00797" /><text
       xml:space="preserve"
       style="font-style:normal;font-variant:normal;font-weight:normal;font-stretch:normal;font-size:3.43212px;line-height:100%;font-family:'DejaVu Sans Mono';-inkscape-font-specification:'DejaVu Sans Mono, Normal';font-variant-ligatures:normal;font-variant-caps:normal;font-variant-numeric:normal;font-variant-east-asian:normal;text-align:center;letter-spacing:-0.260454px;word-spacing:-0.00803871px;text-anchor:middle;fill:#ffffff;fill-opacity:1;stroke-width:0.191321;stroke-linecap:round;stroke-linejoin:bevel;stroke-opacity:0.35131"
       x="98.614685"
       y="120.48537"
       id="text7"
       transform="scale(0.9640394,1.037302)"><tspan
         sodipodi:role="line"
         id="tspan7"
         style="font-style:normal;font-variant:normal;font-weight:normal;font-stretch:normal;font-size:3.43212px;font-family:'DejaVu Sans Mono';-inkscape-font-specification:'DejaVu Sans Mono, Normal';font-variant-ligatures:normal;font-variant-caps:normal;font-variant-numeric:normal;font-variant-east-asian:normal;stroke-width:0.191321"
         x="98.484459"
         y="120.48537">Npix1</tspan></text><path
       style="fill:#ffffff;fill-opacity:1;stroke:#ffffff;stroke-width:0.315;stroke-linecap:butt;stroke-linejoin:bevel;stroke-dasharray:0.315, 0.315;stroke-dashoffset:0;stroke-opacity:1"
       d="m 84.062775,131.79271 v -1.58634"
       id="path7"
       sodipodi:nodetypes="cc" /><text
       xml:space="preserve"
       style="font-style:normal;font-variant:normal;font-weight:normal;font-stretch:normal;font-size:3.43212px;line-height:100%;font-family:'DejaVu Sans Mono';-inkscape-font-specification:'DejaVu Sans Mono, Normal';font-variant-ligatures:normal;font-variant-caps:normal;font-variant-numeric:normal;font-variant-east-asian:normal;text-align:center;letter-spacing:-0.260454px;word-spacing:-0.00803871px;text-anchor:middle;fill:#ffffff;fill-opacity:1;stroke-width:0.191321;stroke-linecap:round;stroke-linejoin:bevel;stroke-opacity:0.35131"
       x="93.487572"
       y="130.35448"
       id="text8"
       transform="scale(0.9640394,1.037302)"><tspan
         sodipodi:role="line"
         id="tspan8"
         style="font-style:normal;font-variant:normal;font-weight:normal;font-stretch:normal;font-size:3.43212px;font-family:'DejaVu Sans Mono';-inkscape-font-specification:'DejaVu Sans Mono, Normal';font-variant-ligatures:normal;font-variant-caps:normal;font-variant-numeric:normal;font-variant-east-asian:normal;stroke-width:0.191321"
         x="93.357346"
         y="130.35448">until Npix3071</tspan></text><image
       width="100.3394"
       height="66.859818"
       preserveAspectRatio="none"
       xlink:href="../../../../../Images/healpix-grid.png"
       id="image1-0"
       x="106.71427"
       y="58.198376" /><text
       xml:space="preserve"
       transform="matrix(0.26458333,0,0,0.26458333,7.6007868,5.8208336)"
       id="text9"
       style="font-style:normal;font-variant:normal;font-weight:normal;font-stretch:normal;font-size:12.9718px;line-height:100%;font-family:'DejaVu Sans Mono';-inkscape-font-specification:'DejaVu Sans Mono, Normal';font-variant-ligatures:normal;font-variant-caps:normal;font-variant-numeric:normal;font-variant-east-asian:normal;text-align:center;letter-spacing:-1.62px;word-spacing:-0.05px;white-space:pre;shape-inside:url(#rect9);display:inline;fill:#ffffff;fill-opacity:1;stroke:none;stroke-width:1.19055;stroke-linecap:butt;stroke-linejoin:bevel;stroke-dasharray:1.19055, 1.19055;stroke-dashoffset:0;stroke-opacity:1"><tspan
         x="427.88945"
         y="471.30279"
         id="tspan30"><tspan
           dx="0 0 0 0.050000597 -0.050001502 0 0 0 0 0 0 0.049999643 -0.050003409 0 0 0 0.049999643 -0.050003409 0 0 0.049999643 -0.050003409 0 0.049999643 -0.049988151 0 0 0 0 0.049999643 -0.050003409 0 0.049999643 -0.050003409 0 0 0.049999643 -0.050003409 0 0 0 0.049999643 -0.050003409 0 0.050014902"
           id="tspan29">The HEALPix grid can be added to the view in </tspan></tspan><tspan
         x="535.98389"
         y="484.2746"
         id="tspan33">ipyaladin</tspan></text><text
       xml:space="preserve"
       style="font-style:normal;font-variant:normal;font-weight:normal;font-stretch:normal;font-size:3.43212px;line-height:100%;font-family:'DejaVu Sans Mono';-inkscape-font-specification:'DejaVu Sans Mono, Normal';font-variant-ligatures:normal;font-variant-caps:normal;font-variant-numeric:normal;font-variant-east-asian:normal;text-align:center;letter-spacing:-0.428625px;word-spacing:-0.0132292px;text-anchor:middle;fill:#ffffff;fill-opacity:1;stroke:none;stroke-width:0.315;stroke-linecap:butt;stroke-linejoin:bevel;stroke-dasharray:0.315, 0.315;stroke-dashoffset:0;stroke-opacity:1"
       x="22.361801"
       y="60.706329"
       id="text13"><tspan
         sodipodi:role="line"
         id="tspan13"
         style="font-style:normal;font-variant:normal;font-weight:normal;font-stretch:normal;font-size:3.43212px;font-family:'DejaVu Sans Mono';-inkscape-font-specification:'DejaVu Sans Mono, Normal';font-variant-ligatures:normal;font-variant-caps:normal;font-variant-numeric:normal;font-variant-east-asian:normal;stroke-width:0.315"
         x="22.14749"
         y="60.706329">(a)</tspan></text><text
       xml:space="preserve"
       style="font-style:normal;font-variant:normal;font-weight:normal;font-stretch:normal;font-size:3.43212px;line-height:100%;font-family:'DejaVu Sans Mono';-inkscape-font-specification:'DejaVu Sans Mono, Normal';font-variant-ligatures:normal;font-variant-caps:normal;font-variant-numeric:normal;font-variant-east-asian:normal;text-align:center;letter-spacing:-0.428625px;word-spacing:-0.0132292px;text-anchor:middle;fill:#ffffff;fill-opacity:1;stroke:none;stroke-width:0.315;stroke-linecap:butt;stroke-linejoin:bevel;stroke-dasharray:0.315, 0.315;stroke-dashoffset:0;stroke-opacity:1"
       x="56.757633"
       y="60.706329"
       id="text14"><tspan
         sodipodi:role="line"
         id="tspan14"
         style="font-style:normal;font-variant:normal;font-weight:normal;font-stretch:normal;font-size:3.43212px;font-family:'DejaVu Sans Mono';-inkscape-font-specification:'DejaVu Sans Mono, Normal';font-variant-ligatures:normal;font-variant-caps:normal;font-variant-numeric:normal;font-variant-east-asian:normal;stroke-width:0.315"
         x="56.54332"
         y="60.706329">(b)</tspan></text><ellipse
       style="fill:none;fill-opacity:1;stroke:#006e62;stroke-width:0.650583;stroke-linecap:butt;stroke-linejoin:bevel;stroke-dasharray:0.650583, 0.650583;stroke-dashoffset:0;stroke-opacity:1"
       id="path14"
       cx="109.82644"
       cy="68.365967"
       rx="4.8028479"
       ry="3.8702509" /><image
       width="67.449722"
       height="66.860001"
       preserveAspectRatio="none"
       xlink:href="../../../../../Images/healpix_grid.png"
       id="image1-1"
       x="-14.943206"
       y="58.198376"
       clip-path="url(#clipPath18)"
       transform="translate(3.4009586,4.448581)" /><image
       width="67.449722"
       height="66.860001"
       preserveAspectRatio="none"
       xlink:href="../../../../../Images/healpix_grid.png"
       id="image14"
       x="-17.075974"
       y="113.0849"
       clip-path="url(#clipPath17)"
       transform="translate(39.819792,-55.531933)" /><text
       xml:space="preserve"
       style="font-style:normal;font-variant:normal;font-weight:normal;font-stretch:normal;font-size:3.43212px;line-height:100%;font-family:'DejaVu Sans Mono';-inkscape-font-specification:'DejaVu Sans Mono, Normal';font-variant-ligatures:normal;font-variant-caps:normal;font-variant-numeric:normal;font-variant-east-asian:normal;text-align:center;letter-spacing:-0.260454px;word-spacing:-0.00803871px;text-anchor:middle;fill:#ffffff;fill-opacity:1;stroke-width:0.191321;stroke-linecap:round;stroke-linejoin:bevel;stroke-opacity:0.35131"
       x="40.966248"
       y="128.39441"
       id="text18"
       transform="scale(0.9640394,1.037302)"><tspan
         sodipodi:role="line"
         id="tspan18"
         style="font-style:normal;font-variant:normal;font-weight:normal;font-stretch:normal;font-size:3.43212px;font-family:'DejaVu Sans Mono';-inkscape-font-specification:'DejaVu Sans Mono, Normal';font-variant-ligatures:normal;font-variant-caps:normal;font-variant-numeric:normal;font-variant-east-asian:normal;stroke-width:0.191321"
         x="40.836021"
         y="128.39441">Norder3</tspan></text><text
       xml:space="preserve"
       style="font-style:normal;font-variant:normal;font-weight:normal;font-stretch:normal;font-size:3.43212px;line-height:100%;font-family:'DejaVu Sans Mono';-inkscape-font-specification:'DejaVu Sans Mono, Normal';font-variant-ligatures:normal;font-variant-caps:normal;font-variant-numeric:normal;font-variant-east-asian:normal;text-align:center;letter-spacing:-0.260454px;word-spacing:-0.00803871px;text-anchor:middle;fill:#ffffff;fill-opacity:1;stroke-width:0.191321;stroke-linecap:round;stroke-linejoin:bevel;stroke-opacity:0.35131"
       x="40.966248"
       y="91.154396"
       id="text19"
       transform="scale(0.9640394,1.037302)"><tspan
         sodipodi:role="line"
         id="tspan19"
         style="font-style:normal;font-variant:normal;font-weight:normal;font-stretch:normal;font-size:3.43212px;font-family:'DejaVu Sans Mono';-inkscape-font-specification:'DejaVu Sans Mono, Normal';font-variant-ligatures:normal;font-variant-caps:normal;font-variant-numeric:normal;font-variant-east-asian:normal;stroke-width:0.191321"
         x="40.836021"
         y="91.154396">Norder0</tspan></text><text
       xml:space="preserve"
       style="font-style:normal;font-variant:normal;font-weight:normal;font-stretch:normal;font-size:3.43212px;line-height:100%;font-family:'DejaVu Sans Mono';-inkscape-font-specification:'DejaVu Sans Mono, Normal';font-variant-ligatures:normal;font-variant-caps:normal;font-variant-numeric:normal;font-variant-east-asian:normal;text-align:center;letter-spacing:-0.428625px;word-spacing:-0.0132292px;text-anchor:middle;fill:#ffffff;fill-opacity:1;stroke:none;stroke-width:0.315;stroke-linecap:butt;stroke-linejoin:bevel;stroke-dasharray:0.315, 0.315;stroke-dashoffset:0;stroke-opacity:1"
       x="100.14929"
       y="60.706329"
       id="text20"><tspan
         sodipodi:role="line"
         id="tspan20"
         style="font-style:normal;font-variant:normal;font-weight:normal;font-stretch:normal;font-size:3.43212px;font-family:'DejaVu Sans Mono';-inkscape-font-specification:'DejaVu Sans Mono, Normal';font-variant-ligatures:normal;font-variant-caps:normal;font-variant-numeric:normal;font-variant-east-asian:normal;stroke-width:0.315"
         x="99.934982"
         y="60.706329">(c)</tspan></text><g
       transform="matrix(0.13203685,0,0,0.13274198,184.43881,39.135619)"
       style="fill:none;fill-opacity:1;stroke:#ffffff;stroke-width:3.67451;stroke-linecap:butt;stroke-linejoin:round;stroke-miterlimit:4;stroke-dasharray:none;stroke-opacity:1"
       id="g87054"><path
         d="m 333.92652,369.94526 78.4498,66.43449 -78.70442,66.58973 -78.61726,-66.73213 z m 78.13128,-66.68153 78.65812,66.32713 -78.3396,66.78889 -78.4498,-66.43449 z m -77.87502,-67.19778 77.87502,67.19778 -78.13128,66.68153 -78.04078,-67.10545 z m 38.91039,233.58195 39.44249,33.32158 -39.42652,33.44329 -39.43724,-33.44329 z m 39.28315,-33.26815 39.49491,33.22358 -39.33557,33.36615 -39.44249,-33.32158 z m 39.19219,-33.31798 39.59451,33.14883 -39.29179,33.39273 -39.49491,-33.22358 z m 39.14741,-33.47091 39.74152,33.09698 -39.29442,33.52276 -39.59451,-33.14883 z m -235.24638,0.0533 39.13734,33.44427 -39.55224,33.14896 -39.27371,-33.49595 z m 39.40823,-33.11589 39.04875,33.41703 -39.31964,33.14313 -39.13734,-33.44427 z m -38.99203,-33.68842 38.99203,33.68842 -39.40823,33.11589 -39.12769,-33.69199 z m 234.38166,-0.0797 39.59654,33.10305 -39.14802,33.72765 -39.45029,-33.10683 z m -39.30642,-33.24256 39.30642,33.24256 -39.00177,33.72387 -39.20783,-33.2203 z m -39.06406,-33.48686 39.06406,33.48686 -38.90318,33.74613 -39.01243,-33.43766 z m -38.86773,-33.83737 38.86773,33.83737 -38.85155,33.79533 -38.86259,-33.76012 z m -39.35729,300.77611 19.70294,16.70437 -19.76697,16.74677 -19.71346,-16.73782 z m -19.67759,-16.68287 19.67759,16.68287 -19.77749,16.71332 -19.69401,-16.71332 z m -19.65816,-16.67436 19.65816,16.67436 -19.79391,16.68287 -19.68051,-16.70186 z m -19.64461,-16.67878 19.64461,16.67878 -19.81626,16.65537 -19.67288,-16.70338 z m -19.6369,-16.69612 19.6369,16.69612 -19.84453,16.63077 -19.67111,-16.71783 z m -19.63495,-16.72637 19.63495,16.72637 -19.87874,16.60906 -19.67514,-16.74525 z m 196.79215,66.77228 19.81119,16.68622 -19.69526,16.71668 -19.79211,-16.71668 z m 19.65939,-16.67993 19.83617,16.65869 -19.68437,16.70746 -19.81119,-16.68622 z m 19.64845,-16.68658 19.8671,16.63407 -19.67938,16.7112 -19.83617,-16.65869 z m 19.64334,-16.70615 19.90398,16.61232 -19.68022,16.7279 -19.8671,-16.63407 z m 19.64401,-16.73865 19.94685,16.59341 -19.68688,16.75756 -19.90398,-16.61232 z m -294.74586,-50.09893 19.60221,16.81559 -19.88245,16.55279 -19.64828,-16.82578 z m 19.84613,-16.5374 19.56224,16.8085 -19.80616,16.54449 -19.60221,-16.81559 z m -19.56545,-16.88349 19.56545,16.88349 -19.84613,16.5374 -19.6114,-16.88771 z m 0.28149,-33.51777 19.52842,16.97361 -19.80991,16.54416 -19.57425,-16.97168 z m 19.77376,-16.57341 19.48864,16.97886 -19.73398,16.56816 -19.52842,-16.97361 z m 19.69793,-16.61381 19.45487,16.98748 -19.66416,16.60519 -19.48864,-16.97886 z m 19.62817,-16.66735 19.42703,16.99956 -19.60033,16.65527 -19.45487,-16.98748 z m -19.4177,-17.11359 19.4177,17.11359 -19.62817,16.66735 -19.45139,-17.09824 z m 38.98202,0.37952 19.40508,17.01514 -19.54237,16.71849 -19.42703,-16.99956 z m -19.38993,-17.1326 19.38993,17.1326 -19.56432,16.73407 -19.4177,-17.11359 z m 38.89621,0.31849 19.38898,17.03434 -19.49018,16.79491 -19.40508,-17.01514 z m 195.49324,133.73406 19.87388,16.53609 -19.61377,16.83234 -19.83123,-16.54324 z m -0.52232,-67.00551 19.80138,16.56763 -19.53976,16.99481 -19.75894,-16.56244 z m -19.72286,-16.60587 19.72286,16.60587 -19.49732,17 -19.68645,-16.59732 z m -19.65043,-16.65727 19.65043,16.65727 -19.46091,17.00855 -19.61997,-16.64524 z m -19.58396,-16.72184 19.58396,16.72184 -19.43045,17.02058 -19.55941,-16.7063 z m -19.52333,-16.79973 19.52333,16.79973 -19.4059,17.03612 -19.50465,-16.78056 z m -19.46845,-16.89101 19.46845,16.89101 -19.38722,17.05529 -19.45559,-16.86816 z m -77.56794,0.0396 19.3787,17.05722 -19.44367,16.88467 -19.38898,-17.03434 z m 19.12709,317.54979 9.86285,8.36432 -9.87687,8.376 -9.864,-8.37306 z m -59.17444,-16.70437 9.84495,8.35441 -9.91301,8.36718 -9.85054,-8.36242 z m -9.84157,-8.35155 9.84157,8.35155 -9.9186,8.35917 -9.84791,-8.35917 z m -9.83894,-8.35031 9.83894,8.35031 -9.92494,8.35155 -9.84601,-8.35757 z m -9.83703,-8.35069 9.83703,8.35069 -9.93201,8.34429 -9.84486,-8.35758 z m -9.83585,-8.35269 9.83585,8.35269 -9.93984,8.3374 -9.84442,-8.35922 z m -9.83542,-8.3563 9.83542,8.3563 -9.94841,8.33087 -9.84473,-8.36247 z m -9.83569,-8.36153 9.83569,8.36153 -9.95772,8.3247 -9.84576,-8.36735 z m -9.8367,-8.36839 9.8367,8.36839 -9.96779,8.31888 -9.84752,-8.37385 z m -9.69834,-25.05839 9.82933,8.38258 -9.96943,8.29895 -9.84089,-8.38696 z m 9.96028,-8.28723 9.81855,8.37858 -9.9495,8.29123 -9.82933,-8.38258 z m -9.82021,-8.391 9.82021,8.391 -9.96028,8.28723 -9.83175,-8.39465 z m -9.8226,-8.40505 9.8226,8.40505 -9.97182,8.28358 -9.83489,-8.40835 z m 186.87842,125.33862 9.88368,8.36866 -9.86165,8.37279 -9.88187,-8.37741 z m 9.85267,-8.35597 9.88622,8.3603 -9.85521,8.36433 -9.88368,-8.36866 z m 19.73575,0.003 9.9026,8.36436 -9.85355,8.36588 -9.89858,-8.37274 z m -9.88951,-8.35232 9.88951,8.35232 -9.84953,8.3575 -9.88622,-8.3603 z m 59.17174,-16.70746 9.943,8.34681 -9.84895,8.36065 -9.93525,-8.35407 z m 9.83995,-8.35432 9.95149,8.33991 -9.84844,8.36122 -9.943,-8.34681 z m 9.83943,-8.35688 9.96073,8.33337 -9.84867,8.36342 -9.95149,-8.33991 z m 29.24429,-58.46443 9.97458,8.28855 -9.83551,8.38957 -9.96311,-8.29256 z m 9.82637,-8.39855 9.98679,8.28489 -9.83858,8.40221 -9.97458,-8.28855 z M 206.25697,360.939 l 9.8042,8.43402 -9.95357,8.26983 -9.81645,-8.43584 z m 0.2992,-33.46086 9.78568,8.47399 -9.93538,8.26715 -9.7979,-8.4743 z m 10.20834,-41.85308 9.75557,8.52683 -9.89674,8.28247 -9.767,-8.52515 z m 9.8877,-8.29304 9.74489,8.52893 -9.87702,8.29094 -9.75557,-8.52683 z m 9.86799,-8.30356 9.73496,8.53145 -9.85806,8.30104 -9.74489,-8.52893 z m 9.84904,-8.31575 9.72579,8.53443 -9.83987,8.31277 -9.73496,-8.53145 z m -9.7256,-8.56381 9.7256,8.56381 -9.84904,8.31575 -9.73552,-8.56044 z m 58.71287,-33.25538 9.69104,8.55598 -9.76003,8.39622 -9.69652,-8.55076 z m -9.68721,-8.58751 9.68721,8.58751 -9.76551,8.40144 -9.69341,-8.58184 z m 19.4382,0.16392 9.6863,8.56168 -9.74625,8.41789 -9.69104,-8.55598 z m 225.20172,175.52867 9.97762,8.27607 -9.8294,8.41317 -9.96542,-8.279 z m -9.9563,-8.27219 9.9563,8.27219 -9.8172,8.41024 -9.94487,-8.27474 z m 9.808,-8.42465 9.96849,8.27 -9.82019,8.42684 -9.9563,-8.27219 z m -0.1484,-16.70996 9.95935,8.26671 -9.81095,8.44325 -9.94718,-8.26816 z m -9.9381,-8.26688 9.9381,8.26688 -9.79878,8.4418 -9.9267,-8.26793 z m 9.78952,-8.46171 9.95025,8.26618 -9.80167,8.46241 -9.9381,-8.26688 z m -0.14879,-16.7528 9.94116,8.26846 -9.79237,8.48434 -9.92902,-8.26839 z m -9.91995,-8.2727 9.91995,8.2727 -9.78023,8.48441 -9.90858,-8.27222 z m -0.2803,-33.6179 9.90183,8.28985 -9.76152,8.53828 -9.89049,-8.28778 z m -9.88145,-8.29985 9.88145,8.29985 -9.75018,8.54035 -9.87086,-8.29733 z m -9.86184,-8.31149 9.86184,8.31149 -9.73959,8.54287 -9.852,-8.30854 z m -9.84298,-8.32478 9.84298,8.32478 -9.72975,8.54582 -9.8339,-8.32139 z m -9.82487,-8.33972 9.82487,8.33972 -9.72067,8.54921 -9.81653,-8.33588 z m -9.80752,-8.35632 9.80752,8.35632 -9.71233,8.55305 -9.79992,-8.35202 z m -9.7909,-8.37457 9.7909,8.37457 -9.70473,8.55735 -9.78404,-8.36982 z m -9.77501,-8.39451 9.77501,8.39451 -9.69787,8.5621 -9.76888,-8.3893 z m -9.75984,-8.41612 9.75984,8.41612 -9.69174,8.56731 -9.75445,-8.41043 z m -48.55153,-8.24126 9.71292,8.47732 -9.69055,8.52407 -9.71116,-8.47112 z m -9.70203,-8.50475 9.70203,8.50475 -9.68879,8.53027 -9.70098,-8.49809 z m 19.38335,-0.056 9.71541,8.48398 -9.68381,8.55407 -9.71292,-8.47732 z m 29.12482,8.36258 9.74539,8.43941 -9.68635,8.573 -9.74073,-8.43325 z m -116.38042,0.0595 9.68228,8.56785 -9.73316,8.44125 -9.6863,-8.56168 z m 9.72407,-8.47295 9.679,8.5745 -9.72079,8.4663 -9.68228,-8.56785 z m 29.07193,8.63144 9.69191,8.52008 -9.70614,8.4802 -9.69303,-8.51389 z m -9.68383,-8.55 9.68383,8.55 -9.70726,8.48639 -9.68567,-8.54333 z m 19.38083,0.0356 9.69151,8.52675 -9.6966,8.50771 -9.69191,-8.52008 z"
         clip-path="url(#p6faa9b3562)"
         style="fill:none;fill-opacity:1;stroke:#ffffff;stroke-width:3.67451;stroke-linecap:butt;stroke-linejoin:miter;stroke-miterlimit:4;stroke-dasharray:none;stroke-opacity:1"
         id="path87052" /></g><text
       xml:space="preserve"
       style="font-style:normal;font-variant:normal;font-weight:normal;font-stretch:normal;font-size:3.43212px;line-height:100%;font-family:'DejaVu Sans Mono';-inkscape-font-specification:'DejaVu Sans Mono, Normal';font-variant-ligatures:normal;font-variant-caps:normal;font-variant-numeric:normal;font-variant-east-asian:normal;text-align:center;letter-spacing:-0.428625px;word-spacing:-0.0132292px;text-anchor:middle;fill:#ffffff;fill-opacity:1;stroke:none;stroke-width:0.315;stroke-linecap:butt;stroke-linejoin:bevel;stroke-dasharray:0.315, 0.315;stroke-dashoffset:0;stroke-opacity:1"
       x="213.39101"
       y="60.706329"
       id="text21"><tspan
         sodipodi:role="line"
         id="tspan21"
         style="font-style:normal;font-variant:normal;font-weight:normal;font-stretch:normal;font-size:3.43212px;font-family:'DejaVu Sans Mono';-inkscape-font-specification:'DejaVu Sans Mono, Normal';font-variant-ligatures:normal;font-variant-caps:normal;font-variant-numeric:normal;font-variant-east-asian:normal;stroke-width:0.315"
         x="213.1767"
         y="60.706329">(d)</tspan></text><text
       xml:space="preserve"
       transform="matrix(0.26458333,0,0,0.26458333,101.95356,-6.837653)"
       id="text22"
       style="font-style:normal;font-variant:normal;font-weight:normal;font-stretch:normal;font-size:12.9718px;line-height:100%;font-family:'DejaVu Sans Mono';-inkscape-font-specification:'DejaVu Sans Mono, Normal';font-variant-ligatures:normal;font-variant-caps:normal;font-variant-numeric:normal;font-variant-east-asian:normal;text-align:center;letter-spacing:-1.62px;word-spacing:-0.05px;white-space:pre;shape-inside:url(#rect22);display:inline;fill:#ffffff;fill-opacity:1;stroke:none;stroke-width:1.19055;stroke-linecap:butt;stroke-linejoin:bevel;stroke-dasharray:1.19055, 1.19055;stroke-dashoffset:0;stroke-opacity:1"><tspan
         x="414.62062"
         y="471.30279"
         id="tspan35"><tspan
           dx="0 0.05000012 -0.050000072 0 0 0 0 0.049999643 -0.049999595 0 0 0.049995828 -0.04999578 0 0.049999643 -0.050003409 0 0.049999643 -0.04999578 0 0 0 0 0 0 0 0.049999643"
           id="tspan34">A Space MOC is an ensemble </tspan></tspan><tspan
         x="436.2345"
         y="484.2746"
         id="tspan37"><tspan
           dx="0 0 0.05000012 -0.050000548 0 0 0 0 0 0 0.049999643 -0.050003409 0 0 0 0 0.049999643 -0.050003409 0 0.049999643"
           id="tspan36">of HEALPix cells of </tspan></tspan><tspan
         x="430.01982"
         y="497.2464"
         id="tspan39"><tspan
           dx="0 0 0 0 0 0 0 0 0 0.049999643 -0.049999595 0 0 0 0 0 0.049999643 -0.04999578 0 0 0 0.049999643"
           id="tspan38">different orders that </tspan></tspan><tspan
         x="417.69046"
         y="510.2182"
         id="tspan41"><tspan
           dx="0 0 0 0 0 0 0 0 0 0.049999643 -0.049999595 0.049999643 -0.050003409 0 0 0 0 0 0.049999643 -0.050003409 0 0.049999643 -0.050003409 0 0 0.049999643"
           id="tspan40">represent a region of the </tspan></tspan><tspan
         x="485.67696"
         y="523.19"
         id="tspan42">sky</tspan></text><image
       width="107.0847"
       height="38.889385"
       preserveAspectRatio="none"
       xlink:href="../../../../seafile/Seafile/IAU_School/tutos-cds/screenshots/ipyaladin/looking_for_meerkat.png"
       id="image1-2"
       x="102.06209"
       y="185.85754"
       clip-path="url(#clipPath34)"
       transform="translate(5.8208334,-13.441177)" /><image
       width="76.389862"
       height="47.500607"
       preserveAspectRatio="none"
       xlink:href="../../../../seafile/Seafile/IAU_School/tutos-cds/screenshots/ipyaladin/browse_hips.png"
       id="image1-70"
       x="26.291359"
       y="177.24632" /><text
       xml:space="preserve"
       style="font-style:normal;font-variant:normal;font-weight:normal;font-stretch:normal;font-size:3.43212px;line-height:100%;font-family:'DejaVu Sans Mono';-inkscape-font-specification:'DejaVu Sans Mono, Normal';font-variant-ligatures:normal;font-variant-caps:normal;font-variant-numeric:normal;font-variant-east-asian:normal;text-align:center;letter-spacing:-0.428625px;word-spacing:-0.0132292px;text-anchor:middle;fill:#ffffff;fill-opacity:1;stroke:none;stroke-width:0.315;stroke-linecap:butt;stroke-linejoin:bevel;stroke-dasharray:0.315, 0.315;stroke-dashoffset:0;stroke-opacity:1"
       x="22.361801"
       y="169.71446"
       id="text10"><tspan
         sodipodi:role="line"
         id="tspan9"
         style="font-style:normal;font-variant:normal;font-weight:normal;font-stretch:normal;font-size:3.43212px;font-family:'DejaVu Sans Mono';-inkscape-font-specification:'DejaVu Sans Mono, Normal';font-variant-ligatures:normal;font-variant-caps:normal;font-variant-numeric:normal;font-variant-east-asian:normal;stroke-width:0.315"
         x="22.14749"
         y="169.71446">(a)</tspan></text><text
       xml:space="preserve"
       style="font-style:normal;font-variant:normal;font-weight:normal;font-stretch:normal;font-size:3.43212px;line-height:100%;font-family:'DejaVu Sans Mono';-inkscape-font-specification:'DejaVu Sans Mono, Normal';font-variant-ligatures:normal;font-variant-caps:normal;font-variant-numeric:normal;font-variant-east-asian:normal;text-align:center;letter-spacing:-0.428625px;word-spacing:-0.0132292px;text-anchor:middle;fill:#ffffff;fill-opacity:1;stroke:none;stroke-width:0.315;stroke-linecap:butt;stroke-linejoin:bevel;stroke-dasharray:0.315, 0.315;stroke-dashoffset:0;stroke-opacity:1"
       x="107.55758"
       y="169.71446"
       id="text23"><tspan
         sodipodi:role="line"
         id="tspan22"
         style="font-style:normal;font-variant:normal;font-weight:normal;font-stretch:normal;font-size:3.43212px;font-family:'DejaVu Sans Mono';-inkscape-font-specification:'DejaVu Sans Mono, Normal';font-variant-ligatures:normal;font-variant-caps:normal;font-variant-numeric:normal;font-variant-east-asian:normal;stroke-width:0.315"
         x="107.34327"
         y="169.71446">(b)</tspan></text><text
       xml:space="preserve"
       transform="matrix(0.26458333,0,0,0.26458333,-81.080081,45.435016)"
       id="text32"
       style="font-style:normal;font-variant:normal;font-weight:normal;font-stretch:normal;font-size:12.9718px;line-height:100%;font-family:'DejaVu Sans Mono';-inkscape-font-specification:'DejaVu Sans Mono, Normal';font-variant-ligatures:normal;font-variant-caps:normal;font-variant-numeric:normal;font-variant-east-asian:normal;text-align:start;letter-spacing:-1.62px;word-spacing:-0.05px;white-space:pre;shape-inside:url(#rect32);display:inline;fill:#ffffff;fill-opacity:1;stroke:none;stroke-width:1.19055;stroke-linecap:butt;stroke-linejoin:bevel;stroke-dasharray:1.19055, 1.19055;stroke-dashoffset:0;stroke-opacity:1"
       x="-136.03279"
       y="0"><tspan
         x="405.51562"
         y="471.30279"
         id="tspan44"><tspan
           dx="0 0 0 0 0 0.049999643 -0.050001502 0 0.050003458 -0.050003409 0 0 0.049999643 -0.04999578 0 0 0 0 0.049999643 -0.050003409 0 0 0 0.049999643 -0.049988151 0 0.049999643 -0.050003409 0 0 0 0 0 0 0 0 0 0 0.049999643 -0.050003409 0 0 0 0 0.050014902"
           id="tspan43">Click on the first icon in ipyaladin's menu,
</tspan></tspan><tspan
         x="405.51562"
         y="484.2746"
         id="tspan46"><tspan
           dx="0 0 0 0 0.049999643 -0.049999595 0 0 0 0 0 0.049999643 -0.050003409 0 0 0 0 0 0 0 0 0 0.049999643 -0.050003409 0 0 0.049999643 -0.050003409 0 0 0 0.049999643 -0.050003409 0 0 0 0 0 0 0.049999643 -0.050003409"
           id="tspan45">then select &quot;Surveys&quot;, and then &quot;Browse HiPS&quot;</tspan></tspan></text><text
       xml:space="preserve"
       transform="matrix(0.26458333,0,0,0.26458333,5.5197722,45.435016)"
       id="text33"
       style="font-style:normal;font-variant:normal;font-weight:normal;font-stretch:normal;font-size:12.9718px;line-height:100%;font-family:'DejaVu Sans Mono';-inkscape-font-specification:'DejaVu Sans Mono, Normal';font-variant-ligatures:normal;font-variant-caps:normal;font-variant-numeric:normal;font-variant-east-asian:normal;text-align:start;letter-spacing:-1.62px;word-spacing:-0.05px;white-space:pre;shape-inside:url(#rect33);display:inline;fill:#ffffff;fill-opacity:1;stroke:none;stroke-width:1.19055;stroke-linecap:butt;stroke-linejoin:bevel;stroke-dasharray:1.19055, 1.19055;stroke-dashoffset:0;stroke-opacity:1"
       x="-136.03279"
       y="0"><tspan
         x="405.51562"
         y="471.30279"
         id="tspan48"><tspan
           dx="0 0.05000012 -0.050000072 0 0 0 0 0 0.050003458 -0.050003409 0 0 0 0.049999643 -0.04999578 0 0 0 0 0 0 0.049999643 -0.050003409 0 0.049999643 -0.049988151 0 0 0.049999643 -0.050003409 0 0 0 0 0 0.049999643 -0.050003409 0 0.049999643 -0.049988151 0 0 0.049984384 -0.050003409 0 0 0 0 0 0 0.050014902"
           id="tspan47">A search menu appears in the middle of the widget.
</tspan></tspan><tspan
         x="405.51562"
         y="484.2746"
         id="tspan50"><tspan
           dx="0 0 0 0 0 0.049999643 -0.050001502 0 0 0 0.049999643 -0.050003409 0 0 0.049999643 -0.04999578 0 0 0 0 0 0 0.049999643 -0.050003409"
           id="tspan49">Let's look for MeerKAT surveys</tspan></tspan></text></g></svg>
