<?xml version="1.0" encoding="UTF-8" standalone="no"?>
<!-- Generator: Adobe Illustrator 16.0.0, SVG Export Plug-In . SVG Version: 6.00 Build 0)  -->

<svg
   xmlns:dc="http://purl.org/dc/elements/1.1/"
   xmlns:cc="http://creativecommons.org/ns#"
   xmlns:rdf="http://www.w3.org/1999/02/22-rdf-syntax-ns#"
   xmlns:svg="http://www.w3.org/2000/svg"
   xmlns="http://www.w3.org/2000/svg"
   xmlns:sodipodi="http://sodipodi.sourceforge.net/DTD/sodipodi-0.dtd"
   xmlns:inkscape="http://www.inkscape.org/namespaces/inkscape"
   version="1.1"
   id="Calque_1"
   x="0px"
   y="0px"
   width="292.09622"
   height="156.59563"
   viewBox="0 0 292.09622 156.59563"
   enable-background="new 0 0 420 245"
   xml:space="preserve"
   sodipodi:docname="aladin.svg"
   inkscape:version="0.92.5 (2060ec1f9f, 2020-04-08)"><metadata
   id="metadata261"><rdf:RDF><cc:Work
       rdf:about=""><dc:format>image/svg+xml</dc:format><dc:type
         rdf:resource="http://purl.org/dc/dcmitype/StillImage" /><dc:title></dc:title></cc:Work></rdf:RDF></metadata><defs
   id="defs259">
	
	
	
	
	
		
	
	
	
	
	
	
	
	
	
	
	
	
	
	
	
	
	
	
	
	
	
	
	
	
	
	
	
	
	
	
	
	
	
	
	
		
	
	
	
	
	
	
	
	
	
	
	
	
	
	
	
	
	
	
	
	
	
	
	
	
	
	
	
	
	
	
	
	
	
	
	
	
	
	
	
	
	
	
	
	
	
	
	
	
	
	
	
	
	
	
	
	
	
	
	
	
	
	
	
	
	
	
	
	
	
	
	
	
	
	
	
	
	
	
</defs><sodipodi:namedview
   pagecolor="#ffffff"
   bordercolor="#666666"
   borderopacity="1"
   objecttolerance="10"
   gridtolerance="10"
   guidetolerance="10"
   inkscape:pageopacity="0"
   inkscape:pageshadow="2"
   inkscape:window-width="2488"
   inkscape:window-height="1376"
   id="namedview257"
   showgrid="false"
   fit-margin-top="0"
   fit-margin-left="0"
   fit-margin-right="0"
   fit-margin-bottom="0"
   inkscape:zoom="1.9265306"
   inkscape:cx="143.12869"
   inkscape:cy="35.249613"
   inkscape:window-x="1992"
   inkscape:window-y="27"
   inkscape:window-maximized="1"
   inkscape:current-layer="Calque_1" />
<path
   style="fill:#522552;stroke:#522552;stroke-width:0.0938;stroke-miterlimit:10"
   inkscape:connector-curvature="0"
   id="path2"
   d="M 105.27324,35.792346"
   stroke-miterlimit="10" /><path
   style="fill:#522552;stroke:#522552;stroke-width:0.0938;stroke-miterlimit:10"
   inkscape:connector-curvature="0"
   id="path4"
   d="m 85.729245,42.340346 c 2.669,-1.31 5.239,-3.072 8.261,-3.425 1.964,-0.705 3.979,0.353 5.995,0.102 1.459995,-0.706 2.769995,-1.663 4.128995,-2.418"
   stroke-miterlimit="10" /><path
   style="fill:#522552;stroke:#522552;stroke-width:0.0938;stroke-miterlimit:10"
   inkscape:connector-curvature="0"
   id="path6"
   d="m 107.13724,34.584346 c 2.115,-1.159 3.576,-3.225 5.742,-4.282 2.317,-1.461 4.886,-3.123 7.757,-2.921 1.561,0.15 3.072,-0.252 4.583,-0.403 0.302,-1.058 -0.151,-2.77 1.208,-3.022 1.311,-0.403 2.569,0.856 3.93,0.555 1.913,-0.404 3.726,-1.259 5.591,-1.813 2.92,-1.209 5.943,-2.016 8.865,-3.274 1.309,-0.504 2.215,-1.562 2.971,-2.67 0.705,0.051 1.361,0.101 2.016,0.151 1.309,0.051 2.064,-1.36 3.072,-1.915 2.115,-1.007 4.281,-1.812 6.6,-2.014 2.77,-1.359 5.791,-1.512 8.762,-1.713 0.957,-0.102 1.865,-0.201 2.771,-0.353 -1.26,0.906 -2.771,1.36 -4.18,1.914 3.223,0.201 6.145,-1.36 9.117,-2.317 3.979,-0.15 7.605,-1.6619999 11.482,-2.2159999 1.311,-1.814 3.426,-2.267 5.492,-2.367 1.41,-0.151 2.82,-0.202 4.23,-0.404 4.23,-0.604 8.916,0.354 12.592,-2.316 0.455,-0.202 0.908,-0.202 1.412,0 1.008,0.253 2.014,0.555 3.021,0.504 4.432,-0.302 8.865,-1.31 13.297,-0.504 2.318,0.403 4.686,-0.504 7.002,-0.1 2.268,0.402 4.584,0.402 6.85,0.201 -1.561,-0.655 -3.172,-1.41 -3.979,-2.97199997 l -0.252,-0.303 v 0 c 0.555,0.654 1.107,1.30999997 1.713,1.91399997 1.461,0.504 3.174,0.402 4.635,-0.201 -0.404,0.403 -0.756,0.756 -1.16,1.158 1.563,0.403 3.578,0.252 4.535,1.713 0.553,1.158 -0.705,1.862 -1.361,2.569 1.863,-0.604 3.729,-1.512 5.744,-1.411 1.107,0.554 1.912,1.461 2.768,2.266 1.613,-0.654 3.123,-1.459 4.586,-2.416 0.15,0.05 0.451,0.201 0.604,0.251 -0.152,0.403 -0.303,0.806 -0.453,1.209 2.67,0.504 5.439,0.856 8.16,0.956 -1.209,-0.654 -2.367,-1.359 -3.576,-2.063 1.662,0.251 3.375,0.452 5.037,0.251 0.805,-0.102 1.662,0.051 2.115,0.756 0.354,0.402 0.656,0.755 1.008,1.159 1.359,0 2.77,0 4.18,0 0,2.4159999 1.209,4.5319999 3.023,6.0939999 0.604,-1.259 1.008,-2.568 1.258,-3.929 0.959,0.101 1.916,0.251 2.822,0.453 l 0.352,0.151 c 0.656,0.251 1.311,0.554 1.965,0.856 0.402,1.511 1.057,2.972 1.863,4.332 0.15,1.007 0.201,1.964 0.252,2.972 -0.957,-1.209 -1.713,-2.569 -2.316,-4.029 -0.201,0.655 -0.453,1.26 -0.705,1.863 -1.311,-1.208 -2.268,-2.67 -2.922,-4.331 -0.1,1.209 -0.201,2.416 -0.303,3.575 -0.654,0.05 -1.258,0.101 -1.863,0.202 0.252,3.375 0.555,6.799 1.107,10.175 0.707,-0.202 1.412,-0.454 2.166,-0.705 -0.604,1.409 -1.008,2.871 -1.26,4.383 -0.25,-0.605 -0.553,-1.21 -0.805,-1.814 -1.41,0.857 -3.072,1.512 -4.029,2.871 -0.402,1.359 -0.1,2.821 -0.1,4.181 -0.705,0.252 -1.412,0.454 -2.117,0.655 -0.1,1.41 -0.504,2.77 -1.107,4.079 -0.504,0.756 0,1.612 0.15,2.368 0.705,0.05 1.459,0.101 2.166,0.15 -1.813,1.562 -3.225,3.577 -5.188,4.987 -1.361,0.807 -2.619,1.914 -4.082,2.568 -0.854,-0.05 -1.711,-0.452 -2.617,-0.353 -0.908,0.555 -1.563,1.41 -2.268,2.166 -2.166,2.569 -17.832,14.909 -18.738,18.385 -1.359,-1.511 -9.873,-1.51 -11.686,-2.366 1.26,-1.461 21.357,-14.809 22.012,-16.673 1.965,-0.102 3.426,-1.359 4.584,-2.771 0.402,0.202 0.807,0.454 1.209,0.705 -0.102,-2.115 0.504,-4.131 1.26,-6.095 0.354,-0.05 0.756,-0.101 1.158,-0.151 0.152,-1.108 0.354,-2.267 0.504,-3.374 0.705,-0.505 1.41,-1.008 2.115,-1.512 -1.713,-2.669 -2.721,-6.446 -0.604,-9.218 -1.613,-2.216 -2.973,-4.635 -3.93,-7.203 0.756,-0.05 1.512,-0.05 2.268,-0.1 0.352,2.063 2.164,3.223 3.273,4.835 0.756,2.166 0.15,4.533 -1.209,6.346 0.502,0.455 0.957,0.957 1.41,1.462 0.604,-0.555 1.209,-1.159 1.813,-1.714 0.354,1.109 0.957,2.368 0.203,3.426 -1.008,1.713 -1.512,3.577 -1.412,5.592 0.906,0.05 1.814,0.1 2.771,0.1 1.057,-3.021 2.418,-6.094 2.215,-9.419 0.404,-2.619 -1.107,-4.886 -2.617,-6.85 -1.311,-1.612 -3.174,-2.569 -4.535,-4.08 -1.209,-1.209 -2.215,-2.771 -3.826,-3.426 -1.26,-0.604 -2.973,-0.807 -3.477,-2.316 -0.756,-1.764 -2.064,-3.174 -3.525,-4.332 -0.252,0.402 -0.453,0.805 -0.656,1.208 0.303,0.504 0.555,1.059 0.857,1.613 -3.123,-1.06 -6.146,-2.217 -9.066,-3.729 -0.957,0.605 -1.865,1.21 -2.82,1.813 0.1,-0.806 0.201,-1.611 0.301,-2.4179999 -2.316,1.7119999 -5.086,0.5039999 -7.605,0.101 l -0.453,-0.101 c -1.461,-0.906 -2.57,-2.317 -4.08,-3.123 -1.361,-0.302 -2.721,-0.15 -4.08,-0.302 -2.166,-0.101 -4.281,-0.806 -6.498,-0.504 -4.08,0.604 -8.109,1.763 -12.24,1.863 -3.072,-0.2 -5.139,2.3179999 -7.705,3.5259999 0.1,-0.402 0.199,-0.806 0.352,-1.208 -1.813,0.704 -3.777,1.309 -5.641,0.604 0.199,-0.253 0.553,-0.8069999 0.754,-1.0589999 -4.533,-0.403 -8.814,1.3099999 -13.197,2.1659999 -0.553,0.151 -1.158,0.252 -1.762,0.453 -1.713,0.201 -3.426,0.302 -5.088,0.705 -3.627,0.755 -6.75,3.224 -10.578,3.273 -1.863,0.103 -3.828,0.807 -4.834,2.469 0.754,1.964 3.324,1.411 4.986,1.813 -1.764,0.605 -3.627,0.957 -5.492,0.957 -2.014,0 -3.826,1.159 -5.842,1.26 -2.115,0.1 -4.232,-0.453 -6.297,0.05 -1.863,0.453 -3.576,1.462 -5.289,2.316 0.857,0.303 1.713,0.555 2.57,0.807 -1.713,0.353 -3.93,0.453 -4.434,2.519 -1.965,0.604 -4.029,0.907 -5.995,1.461 -1.058,0.201 -1.51,1.31 -2.165,2.064 -1.159,-0.05 -2.267,0.303 -3.375,0.655 -0.504,0.152 -0.957,0.252 -1.46,0.353 -0.504,0.807 -0.957,1.663 -1.36,2.468 -3.022,-0.252 -5.642,1.562 -7.958,3.325 0.151,0.201 0.403,0.605 0.504,0.806 0.101,0.15 0.352,0.454 0.453,0.604 -1.158,-0.101 -2.418,-0.705 -3.626,-0.201 -0.957,0.353 -1.864,0.756 -2.771,1.209 0.856,0.049 1.712,0.101 2.619,0.151 0.051,0.402 0.151,1.209 0.202,1.611 -2.015,1.007 -4.231,1.512 -6.447,1.813 -0.151,0.503 -0.303,1.008 -0.504,1.511 -1.108,0.151 -2.217,0.303 -3.375,0.453 -1.662,1.864 -4.028995,2.821 -5.691995,4.634 -3.324,3.477 -8.21,4.686 -11.988,7.607 -2.771,2.014 -5.541,4.13 -8.261,6.296 -2.368,1.914 -20.281,19.759 -18.486,17.227 -3.022,4.264 -1.41,-4.608 -0.705,-10.931 0.213,-1.908 -2.317,8.16 0.654,-6.246 0.367,-1.776 9.521,-8.715 7.707,-8.462 0.05,-0.604 0.101,-1.209 0.151,-1.864 1.36,-0.604 2.72,-0.302 3.929,0.454 1.964,-1.361 3.274,-3.375 4.885,-5.139 -0.503,-0.604 -1.007,-1.208 -1.46,-1.813 h 0.403 c 0.806,0.051 1.562,0.051 2.368,0.101 0.353,-0.403 0.655,-0.807 1.007,-1.259 1.411,0.855 2.317,-0.705 3.274,-1.512 1.159,-1.31 3.022,-1.813 3.979,-3.273"
   stroke-miterlimit="10" /><path
   style="fill:#846688;stroke:#846688;stroke-width:0.0938;stroke-miterlimit:10"
   inkscape:connector-curvature="0"
   id="path8"
   d="m 211.15324,3.2023461 c 2.014,-1.259 4.281,-2.36699997 6.699,-2.51899997 2.418,-0.452 4.834,0.151 7.203,0.151 1.863,0 3.727,0.40299997 5.541,0.55399997 2.266,-0.201 4.432,-1.00699997 6.748,-1.05699997 0.807,1.56199997 2.418,2.31599997 3.979,2.97199997 -2.266,0.201 -4.582,0.201 -6.85,-0.201 -2.316,-0.404 -4.684,0.503 -7.002,0.1 -4.432,-0.806 -8.865,0.202 -13.297,0.504 -1.008,0.051 -2.013,-0.251 -3.021,-0.504 z"
   stroke-miterlimit="10" /><line
   style="fill:#1062a1;stroke:#1062a1;stroke-width:0.0938;stroke-miterlimit:10"
   id="line10"
   y2="0.93734628"
   x2="292.09622"
   y1="0.93734628"
   x1="292.09622"
   stroke-miterlimit="10" /><path
   style="fill:#846688;stroke:#846688;stroke-width:0.0938;stroke-miterlimit:10"
   inkscape:connector-curvature="0"
   id="path12"
   d="m 200.82524,2.8513461 c 1.16,-0.403 2.168,-1.108 3.275,-1.563 1.914,0.353 3.777,1.21 5.641,1.914 -3.676,2.67 -8.361,1.713 -12.592,2.316 0.605,-1.561 2.316,-2.013 3.676,-2.667 z"
   stroke-miterlimit="10" /><path
   style="fill:#846688;stroke:#846688;stroke-width:0.0938;stroke-miterlimit:10"
   inkscape:connector-curvature="0"
   id="path14"
   d="m 265.45224,5.2693461 c 0.957,0.2 2.064,0.2 2.871,0.956 -1.662,0.201 -3.375,0 -5.037,-0.251 1.209,0.704 2.367,1.409 3.576,2.063 -2.721,-0.1 -5.49,-0.452 -8.16,-0.956 0.15,-0.403 0.301,-0.806 0.453,-1.209 -0.152,-0.05 -0.453,-0.201 -0.604,-0.251 -1.463,0.957 -2.973,1.762 -4.586,2.416 -0.855,-0.805 -1.66,-1.712 -2.768,-2.266 -2.016,-0.101 -3.881,0.807 -5.744,1.411 0.656,-0.707 1.914,-1.411 1.361,-2.569 -0.957,-1.461 -2.973,-1.31 -4.535,-1.713 0.404,-0.402 0.756,-0.755 1.16,-1.158 v 0 c 1.359,-0.85599997 3.324,-0.304 4.734,0.403 2.771,1.611 6.045,1.057 9.117,1.46 1.965,0.051 3.879,0.504 5.842,0.906"
   stroke-miterlimit="10" /><path
   style="fill:#611641;stroke:#611641;stroke-width:0.0938;stroke-miterlimit:10"
   inkscape:connector-curvature="0"
   id="path16"
   d="m 252.45524,47.076346 c 1.51,-3.979 0.504,-8.261 0.957,-12.391 0.102,-1.26 -0.354,-2.519 -0.807,-3.678 1.008,0 2.066,0.051 3.123,0.101 0.254,-0.957 0.504,-1.862 0.756,-2.819 -1.713,-0.757 -3.475,-1.562 -5.188,-2.318 0.051,-0.453 0.1,-0.907 0.15,-1.31 -0.502,-0.201 -1.008,-0.353 -1.51,-0.504 -0.455,0.354 -0.857,0.706 -1.311,1.059 -1.41,-1.611 -2.719,-3.325 -4.482,-4.585 -2.67,-1.459 -5.592,-2.468 -8.361,-3.676 -1.26,-0.555 -2.621,-0.454 -3.879,-0.654 -1.461,-0.604 -2.619,-1.764 -3.779,-2.771 -3.021,1.863 -6.445,-0.202 -9.67,0.452 -2.064,0.454 -4.18,0.505 -6.195,-0.15 -1.813,-0.403 -3.424,-1.461 -5.289,-1.764 -1.611,0.654 -2.971,1.864 -4.734,2.318 -1.965,0.503 -3.979,0.906 -6.045,0.854 -1.41,0 -2.971,-0.2 -4.281,0.505 -0.705,0.555 -1.41,1.107 -2.115,1.611 0.15,-0.554 0.252,-1.108 0.402,-1.661 -1.158,0.251 -2.316,0.553 -3.475,0.654 -0.605,-0.856 -0.807,-2.368 -2.066,-2.469 -2.064,-0.1 -3.777,1.159 -5.59,1.965 -2.268,0.402 -4.584,0.807 -6.752,1.511 -0.754,0.202 -1.207,0.907 -1.66,1.462 3.375,0.704 6.346,-1.612 9.67,-1.612 1.965,-0.202 3.879,-0.303 5.844,-0.554 -0.705,0.755 -1.26,1.712 -2.115,2.266 -1.512,0.555 -2.871,-0.504 -4.332,-0.756 -1.863,0.353 -3.475,1.612 -5.34,2.016 -1.813,0.402 -3.576,0.806 -5.389,1.107 -1.514,0.303 -3.074,0.102 -4.535,0.604 -2.266,1.209 -3.625,3.476 -5.59,5.037 -2.066,1.361 -4.635,1.008 -6.951,1.511 -1.764,0.353 -3.576,0.403 -5.338,0.505 -2.771,1.26 -3.932,4.433 -6.701,5.642 -1.711,1.007 -3.727,-0.354 -5.389,0.654 -2.67,1.511 -5.995,2.821 -8.916,1.26 0.856,-0.354 1.712,-0.757 2.569,-1.059 0.201,-0.051 0.654,-0.15 0.906,-0.15 0.555,-0.102 1.108,-0.202 1.663,-0.252 0.101,-0.453 0.352,-1.26 0.503,-1.662 1.008,-0.353 1.964,-0.856 2.921,-1.26 2.822,-1.209 5.643,-2.519 8.563,-3.476 1.26,-0.302 2.166,-1.209 2.973,-2.115 -2.469,0.402 -4.787,1.259 -7.203,1.863 0.504,-2.065 2.721,-2.166 4.434,-2.519 -0.857,-0.252 -1.713,-0.504 -2.57,-0.807 1.713,-0.854 3.426,-1.863 5.289,-2.316 2.064,-0.503 4.182,0.05 6.297,-0.05 2.016,-0.101 3.828,-1.26 5.842,-1.26 1.865,0 3.729,-0.352 5.492,-0.957 -1.662,-0.402 -4.232,0.15 -4.986,-1.813 1.006,-1.662 2.971,-2.366 4.834,-2.469 0.303,0.757 0.555,1.562 0.857,2.369 1.309,-1.109 2.619,-2.369 4.332,-2.871 2.77,-0.757 5.59,-1.31 8.211,-2.569 -0.959,-0.102 -1.916,-0.151 -2.822,-0.202 1.662,-0.403 3.375,-0.504 5.088,-0.705 0.201,1.41 2.568,0.958 1.762,-0.453 4.383,-0.856 8.664,-2.5689999 13.197,-2.1659999 -0.201,0.252 -0.555,0.8059999 -0.754,1.0589999 1.863,0.704 3.828,0.1 5.641,-0.604 -0.152,0.402 -0.252,0.806 -0.352,1.208 2.566,-1.208 4.633,-3.7269999 7.705,-3.5259999 v 0 c 4.131,-0.101 8.16,-1.26 12.24,-1.863 2.217,-0.302 4.332,0.403 6.498,0.504 1.359,0.151 2.719,0 4.08,0.302 1.51,0.806 2.619,2.217 4.08,3.123 -0.656,0.151 -1.311,0.3029999 -1.965,0.5039999 -0.051,0.555 -0.1,1.108 -0.1,1.663 1.057,0.1 2.166,0.201 3.273,0.302 -0.252,-0.757 -0.504,-1.562 -0.756,-2.3679999 2.52,0.4029999 5.289,1.6109999 7.605,-0.101 -0.1,0.8069999 -0.201,1.6119999 -0.301,2.4179999 0.955,-0.604 1.863,-1.208 2.82,-1.813 2.92,1.512 5.943,2.669 9.066,3.729 -0.303,-0.555 -0.555,-1.109 -0.857,-1.613 0.203,-0.403 0.404,-0.806 0.656,-1.208 1.461,1.158 2.77,2.568 3.525,4.332 0.504,1.51 2.217,1.712 3.477,2.316 1.611,0.655 2.617,2.217 3.826,3.426 1.361,1.511 3.225,2.468 4.535,4.08 1.51,1.964 3.021,4.23 2.617,6.85 0.203,3.325 -1.158,6.397 -2.215,9.419 -0.957,0 -1.865,-0.05 -2.771,-0.1 -0.1,-2.015 0.404,-3.879 1.412,-5.592 0.754,-1.058 0.15,-2.316 -0.203,-3.426 -0.604,0.555 -1.209,1.159 -1.813,1.714 -0.453,-0.505 -0.908,-1.007 -1.41,-1.462 1.359,-1.813 1.965,-4.18 1.209,-6.346 -1.109,-1.612 -2.922,-2.771 -3.273,-4.835 -0.756,0.05 -1.512,0.05 -2.268,0.1 0.957,2.568 2.316,4.987 3.93,7.203 -2.117,2.771 -1.109,6.549 0.604,9.218 -0.705,0.504 -1.41,1.007 -2.115,1.512 -0.15,1.107 -0.352,2.266 -0.504,3.374 -0.402,0.051 -0.805,0.102 -1.158,0.151 -0.756,1.964 -1.361,3.979 -1.26,6.095 -0.402,-0.251 -0.807,-0.503 -1.209,-0.705 -1.158,1.411 -2.619,2.669 -4.584,2.771 -0.654,1.864 -1.762,3.476 -3.021,4.936"
   stroke-miterlimit="10" /><path
   style="fill:#611641;stroke:#611641;stroke-width:0.0938;stroke-miterlimit:10"
   inkscape:connector-curvature="0"
   id="path18"
   d="M 251.29724,49.291346"
   stroke-miterlimit="10" /><path
   style="fill:#1062a1;stroke:#1062a1;stroke-width:0.0938;stroke-miterlimit:10"
   inkscape:connector-curvature="0"
   id="path20"
   d="m 270.43824,6.9813461 c 2.871,-0.252 5.842,-0.453 8.563,0.555 1.512,0.755 3.021,1.611 3.729,3.2229999 -0.906,-0.202 -1.863,-0.353 -2.822,-0.453 -0.25,1.36 -0.654,2.67 -1.258,3.929 -1.814,-1.562 -3.023,-3.678 -3.023,-6.0939999 -1.41,0 -2.82,0 -4.18,0 -0.353,-0.405 -0.656,-0.758 -1.009,-1.16 z"
   stroke-miterlimit="10" /><path
   style="fill:#b41736;stroke:#b41736;stroke-width:0.0938;stroke-miterlimit:10"
   inkscape:connector-curvature="0"
   id="path22"
   d="m 215.83624,8.6423461 c 2.467,0.555 5.037,0.202 7.203,-1.158 2.469,0.958 5.893,0.756 7.152,3.5769999 -1.814,0.252 -3.576,-0.555 -5.389,-0.453 -0.453,-0.303 -0.857,-0.6549999 -1.311,-0.9569999 -2.568,0.251 -5.139,0.251 -7.656,0.251 0.001,-0.403 0.001,-0.857 0.001,-1.26 z"
   stroke-miterlimit="10" /><path
   style="fill:#1062a1;stroke:#1062a1;stroke-width:0.0938;stroke-miterlimit:10"
   inkscape:connector-curvature="0"
   id="path24"
   d="m 171.66324,10.456346 c 0.652,-0.151 1.309,-0.303 1.963,-0.402 0.807,0.15 1.561,0.302 2.318,0.452 -2.973,0.957 -5.895,2.519 -9.117,2.317 1.408,-0.554 2.92,-1.008 4.18,-1.914 0.15,-0.1 0.503,-0.353 0.656,-0.453 z"
   stroke-miterlimit="10" /><path
   style="fill:#b41736;stroke:#b41736;stroke-width:0.0938;stroke-miterlimit:10"
   inkscape:connector-curvature="0"
   id="path26"
   d="m 230.89724,10.305346 c 0.654,-0.201 1.309,-0.3529999 1.965,-0.5039999 l 0.453,0.101 c 0.252,0.8069999 0.504,1.6109999 0.756,2.3679999 -1.107,-0.101 -2.217,-0.202 -3.273,-0.302 -0.001,-0.555 0.048,-1.108 0.099,-1.663 z"
   stroke-miterlimit="10" /><path
   style="fill:#846688;stroke:#846688;stroke-width:0.0938;stroke-miterlimit:10"
   inkscape:connector-curvature="0"
   id="path28"
   d="m 178.76424,12.219346 c 0.604,-0.201 1.209,-0.302 1.762,-0.453 0.806,1.411 -1.561,1.863 -1.762,0.453 z"
   stroke-miterlimit="10" /><path
   style="fill:#1062a1;stroke:#1062a1;stroke-width:0.0938;stroke-miterlimit:10"
   inkscape:connector-curvature="0"
   id="path30"
   d="m 281.21724,12.573346 c 0.654,1.661 1.611,3.123 2.922,4.331 -0.303,0.806 -0.654,1.611 -0.957,2.367 -0.807,-1.007 -1.563,-2.064 -2.268,-3.123 0.102,-1.159 0.204,-2.366 0.303,-3.575 z"
   stroke-miterlimit="10" /><path
   style="fill:#846688;stroke:#846688;stroke-width:0.0938;stroke-miterlimit:10"
   inkscape:connector-curvature="0"
   id="path32"
   d="m 163.09824,16.198346 c 3.828,-0.05 6.951,-2.519 10.578,-3.273 0.906,0.051 1.863,0.101 2.822,0.202 -2.621,1.26 -5.441,1.813 -8.211,2.569 -1.713,0.502 -3.023,1.762 -4.332,2.871 -0.302,-0.808 -0.554,-1.613 -0.857,-2.369 z"
   stroke-miterlimit="10" /><path
   style="fill:#522552;stroke:#522552;stroke-width:0.0938;stroke-miterlimit:10"
   inkscape:connector-curvature="0"
   id="path34"
   d="m 179.06724,15.846346 c 1.813,-0.806 3.525,-2.064 5.59,-1.965 1.26,0.101 1.461,1.612 2.066,2.469 -0.15,0.05 -0.402,0.201 -0.555,0.303 -1.965,0.251 -3.879,0.352 -5.844,0.554 0.051,-0.354 0.15,-0.958 0.252,-1.26 -0.402,0 -1.107,-0.051 -1.509,-0.101 z"
   stroke-miterlimit="10" /><path
   style="fill:#846688;stroke:#846688;stroke-width:0.0938;stroke-miterlimit:10"
   inkscape:connector-curvature="0"
   id="path36"
   d="m 284.13924,16.904346 c 0.252,-0.604 0.504,-1.208 0.705,-1.863 0.604,1.46 1.359,2.82 2.316,4.029 -0.051,-1.008 -0.102,-1.965 -0.252,-2.972 1.008,1.007 1.965,2.267 1.914,3.777 0.051,2.519 -0.402,4.987 -0.906,7.455 -0.352,2.217 -2.266,3.576 -3.625,5.138 -1.764,1.461 -0.857,4.08 -2.066,5.843 -0.203,-1.208 -0.504,-2.417 -0.756,-3.576 -0.301,0.957 -0.604,1.914 -0.908,2.871 -0.451,-0.15 -0.955,-0.303 -1.41,-0.402 -0.855,1.813 -1.711,3.777 -3.424,5.037 0.553,-1.914 1.209,-3.778 2.418,-5.29 1.662,-2.166 2.367,-4.885 4.383,-6.748 1.107,-1.109 2.266,-2.268 2.619,-3.88 0.451,-2.064 0.354,-4.131 0.402,-6.245 -0.201,0.453 -0.402,0.906 -0.605,1.359 -0.604,-0.704 -1.207,-1.411 -1.762,-2.166 0.303,-0.756 0.654,-1.562 0.957,-2.367 z"
   stroke-miterlimit="10" /><path
   style="fill:#1062a1;stroke:#1062a1;stroke-width:0.0938;stroke-miterlimit:10"
   inkscape:connector-curvature="0"
   id="path40"
   d="m 172.31524,17.357346 c 2.168,-0.704 4.484,-1.108 6.752,-1.511 0.402,0.05 1.107,0.101 1.51,0.101 -0.102,0.302 -0.201,0.906 -0.252,1.26 -3.324,0 -6.295,2.316 -9.67,1.612 0.453,-0.555 0.906,-1.26 1.66,-1.462 z"
   stroke-miterlimit="10" /><path
   style="fill:#611641;stroke:#611641;stroke-width:0.0938;stroke-miterlimit:10"
   inkscape:connector-curvature="0"
   id="path42"
   d="m 279.05124,16.350346 c 0.605,-0.102 1.209,-0.152 1.863,-0.202 0.705,1.059 1.461,2.116 2.268,3.123 0.555,0.755 1.158,1.462 1.762,2.166 0.203,-0.453 0.404,-0.906 0.605,-1.359 -0.049,2.114 0.049,4.181 -0.402,6.245 -0.354,1.612 -1.512,2.771 -2.619,3.88 -2.016,1.863 -2.721,4.582 -4.383,6.748 -1.209,1.512 -1.865,3.376 -2.418,5.29 -0.102,0.1 -0.404,0.352 -0.504,0.452 -0.707,-0.05 -1.461,-0.101 -2.166,-0.15 -0.15,-0.756 -0.654,-1.612 -0.15,-2.368 0.604,-1.31 1.008,-2.669 1.107,-4.079 0.705,-0.201 1.412,-0.403 2.117,-0.655 0,-1.359 -0.303,-2.821 0.1,-4.181 0.957,-1.359 2.619,-2.014 4.029,-2.871 0.252,0.604 0.555,1.209 0.805,1.814 0.252,-1.512 0.656,-2.974 1.26,-4.383 -0.754,0.251 -1.459,0.503 -2.166,0.705 -0.553,-3.376 -0.856,-6.8 -1.108,-10.175 z"
   stroke-miterlimit="10" /><path
   style="fill:#846688;stroke:#846688;stroke-width:0.0938;stroke-miterlimit:10"
   inkscape:connector-curvature="0"
   id="path44"
   d="m 140.43224,19.371346 c 1.611,-1.157 3.525,-1.864 5.488,-1.964 -1.509,1.36 -3.574,1.663 -5.488,1.964 z"
   stroke-miterlimit="10" /><path
   style="fill:#b41736;stroke:#b41736;stroke-width:0.0938;stroke-miterlimit:10"
   inkscape:connector-curvature="0"
   id="path46"
   d="m 137.40924,19.976346 c 0.908,-0.201 1.814,-0.453 2.771,-0.554 -0.453,0.303 -0.908,0.604 -1.311,0.906 -0.501,-0.1 -1.007,-0.251 -1.46,-0.352 z"
   stroke-miterlimit="10" /><path
   style="fill:#b41736;stroke:#b41736;stroke-width:0.0938;stroke-miterlimit:10"
   inkscape:connector-curvature="0"
   id="path48"
   d="m 153.57924,23.552346 c 1.26,-0.503 2.266,0.454 3.273,1.059 -3.373,1.813 -7.354,2.921 -11.131,2.166 2.115,-2.015 5.137,-2.469 7.858,-3.225 z"
   stroke-miterlimit="10" /><path
   style="fill:#b41736;stroke:#b41736;stroke-width:0.0938;stroke-miterlimit:10"
   inkscape:connector-curvature="0"
   id="path50"
   d="m 248.62724,25.215346 c 0.453,-0.353 0.855,-0.705 1.311,-1.059 0.502,0.151 1.008,0.303 1.51,0.504 -0.051,0.402 -0.1,0.856 -0.15,1.31 1.713,0.757 3.475,1.562 5.188,2.318 -0.252,0.957 -0.502,1.862 -0.756,2.819 -1.057,-0.05 -2.115,-0.101 -3.123,-0.101 -1.159,-2.063 -2.519,-3.977 -3.98,-5.791 z"
   stroke-miterlimit="10" /><path
   style="fill:#b41736;stroke:#b41736;stroke-width:0.0938;stroke-miterlimit:10"
   inkscape:connector-curvature="0"
   id="path52"
   d="m 138.46724,28.388346 c 2.416,-0.604 4.734,-1.461 7.203,-1.863 -0.807,0.906 -1.713,1.813 -2.973,2.115 -2.92,0.957 -5.74,2.267 -8.563,3.476 -1.259,0 -2.569,-0.151 -3.828,-0.202 0.655,-0.755 1.107,-1.863 2.165,-2.064 1.967,-0.555 4.031,-0.857 5.996,-1.462 z"
   stroke-miterlimit="10" /><path
   style="fill:#b41736;stroke:#b41736;stroke-width:0.0938;stroke-miterlimit:10"
   inkscape:connector-curvature="0"
   id="path56"
   d="M 175.33824,32.116346"
   stroke-miterlimit="10" /><path
   style="fill:#b41736;stroke:#b41736;stroke-width:0.0938;stroke-miterlimit:10"
   inkscape:connector-curvature="0"
   id="path58"
   d="m 178.86424,34.231346 c 3.477,0.303 7.002,0.354 10.477,0.354 1.965,0.05 3.629,-1.209 5.543,-1.311 1.51,0.102 2.518,1.511 4.029,1.863 1.209,-0.1 2.316,-0.654 3.475,-1.007 0.555,0.152 1.107,0.252 1.613,0.403 0.604,0.453 1.158,0.855 1.711,1.311 -1.711,0.2 -3.424,0.604 -4.986,1.309 -2.619,1.21 -5.541,1.008 -8.311,1.662 -0.15,0.353 -0.303,0.705 -0.453,1.058 0.756,0.302 1.459,0.655 2.215,0.957 -0.855,0.554 -1.813,1.009 -2.518,1.713 -0.152,0.655 -0.152,1.41 0.15,2.015 0.758,0.654 1.662,1.058 2.568,1.461 -0.553,1.159 -4.783,-1.471 -6.445,-1.673 -1.916,0.052 2.166,2.075 1.762,0.766 -3.475,0 -6.949,-0.956 -10.428,-0.452 -2.316,0.452 -4.633,0.755 -6.848,1.46 -1.262,-0.806 -2.52,-2.064 -4.131,-1.712 -1.008,0.1 -1.563,1.057 -2.268,1.712 1.713,0.202 3.475,0.353 5.238,0.302 -4.938,0.303 -9.771,1.411 -14.658,2.016 -1.914,0.906 -3.979,1.41 -6.045,0.705 -2.316,2.217 -5.238,3.525 -8.26,4.482 -0.051,0.201 -0.15,0.555 -0.252,0.756 -0.502,0.201 -1.008,0.454 -1.512,0.655 -0.754,-0.504 -1.51,-1.009 -2.316,-1.511 -0.354,0.402 -0.756,0.805 -1.158,1.208 0.402,0.504 0.805,1.008 1.26,1.511 -2.52,0.353 -4.785,1.562 -7.254,1.915 -1.813,0.201 -14.607,7.706 -16.219,8.563 -0.303,-1.208 -1.713,-2.871 -2.065,-4.029 -1.915,-0.051 0.302,-2.562 -1.562,-2.512 1.662,-1.359 11.384,-6.605 13.298,-7.613 4.08,-2.216 8.663,-3.475 12.29,-6.347 1.158,-0.855 2.115,-2.115 3.576,-2.468 2.064,-0.504 4.18,-1.259 6.346,-1.36 1.512,1.31 3.326,-0.051 4.988,-0.15 2.217,-0.152 4.482,-0.353 6.195,-1.814 l 0.453,-0.201 c 3.627,-1.563 7.756,-0.705 11.586,-1.36 2.115,-1.209 4.08,-2.669 6.195,-3.827"
   stroke-miterlimit="10" /><path
   style="fill:#846688;stroke:#846688;stroke-width:0.0938;stroke-miterlimit:10"
   inkscape:connector-curvature="0"
   id="path60"
   d="m 125.47224,32.921346 c 0.503,-0.101 0.957,-0.2 1.46,-0.353 l -0.303,0.353 c -0.503,0.756 -1.007,1.562 -1.46,2.368 0.957,0.05 1.964,0.1 2.972,0.15 -0.856,0.302 -1.713,0.705 -2.569,1.059 -0.605,-0.051 -1.158,0 -1.713,0 0.051,-0.303 0.202,-0.807 0.252,-1.109 0.404,-0.805 0.857,-1.661 1.361,-2.468 z"
   stroke-miterlimit="10" /><path
   style="fill:#611641;stroke:#611641;stroke-width:0.0938;stroke-miterlimit:10"
   inkscape:connector-curvature="0"
   id="path62"
   d="m 215.48524,62.942346 c -2.117,1.411 -4.332,2.62 -6.498,3.979 0.855,-3.576 0.049,-7.253 0.15,-10.879 0.201,1.208 0.352,2.468 0.504,3.676 1.158,-1.511 2.568,-2.871 4.131,-3.979 -0.102,-0.957 -0.455,-1.915 -0.203,-2.871 0.756,-0.807 1.814,-1.259 2.621,-2.016 0.303,-0.805 0.402,-1.662 0.604,-2.469 -0.857,0.354 -1.662,0.757 -2.469,1.159 -2.268,-2.871 -5.793,-3.979 -9.268,-4.482 -1.41,0.604 -1.311,2.217 -1.209,3.476 -2.52,-0.756 -5.037,-2.568 -7.756,-1.662 -0.605,-0.302 -1.16,-0.554 -1.715,-0.856 -0.906,-0.403 -1.811,-0.807 -2.568,-1.461 -0.303,-0.604 -0.303,-1.359 -0.15,-2.015 0.705,-0.704 1.662,-1.159 2.518,-1.713 -0.756,-0.302 -1.459,-0.655 -2.215,-0.957 0.15,-0.353 0.303,-0.705 0.453,-1.058 2.77,-0.654 5.691,-0.452 8.311,-1.662 1.563,-0.705 3.275,-1.108 4.986,-1.309 -0.553,-0.455 -1.107,-0.857 -1.711,-1.311 1.359,-0.604 2.77,-1.208 4.23,-1.511 v 0 c 4.18,-0.202 8.361,0.755 12.492,-0.051 2.469,-0.251 4.885,0.654 7.354,0.855 1.662,0.102 2.115,1.965 2.721,3.225 0.555,1.562 1.813,2.67 3.123,3.627 -0.303,0.1 -0.908,0.251 -1.209,0.352 0.555,1.109 1.107,2.217 1.66,3.325 -1.963,0.906 -3.727,2.519 -4.08,4.785 -0.604,0.101 -1.309,0.05 -1.711,0.555 -2.014,1.359 -2.166,3.979 -1.611,6.145"
   stroke-miterlimit="10" /><path
   style="fill:#1062a1;stroke:#1062a1;stroke-width:0.0938;stroke-miterlimit:10"
   inkscape:connector-curvature="0"
   id="path64"
   d="m 125.17024,35.289346 c 0.453,-0.807 0.957,-1.612 1.46,-2.368 0.504,0.404 1.008,0.756 1.512,1.159 0.252,0.302 0.705,0.906 0.906,1.209 -0.252,0 -0.705,0.1 -0.906,0.15 -1.008,-0.05 -2.015,-0.1 -2.972,-0.15 z"
   stroke-miterlimit="10" /><path
   style="fill:#522552;stroke:#522552;stroke-width:0.0938;stroke-miterlimit:10"
   inkscape:connector-curvature="0"
   id="path66"
   d="m 128.14224,34.080346 c 1.007,-0.253 2.065,-0.454 3.072,-0.705 -0.151,0.402 -0.402,1.209 -0.503,1.662 -0.555,0.05 -1.108,0.15 -1.663,0.252 -0.201,-0.302 -0.655,-0.907 -0.906,-1.209 z"
   stroke-miterlimit="10" /><path
   style="fill:#1062a1;stroke:#1062a1;stroke-width:0.0938;stroke-miterlimit:10"
   inkscape:connector-curvature="0"
   id="path68"
   d="m 262.07724,60.020346 c -2.115,0.706 -3.98,1.965 -6.146,2.469 -0.402,-0.957 -0.855,-1.864 -1.359,-2.72 1.662,-0.403 3.477,-0.706 4.938,-1.663 2.871,-1.763 4.684,-4.784 7.453,-6.648 1.412,-0.906 2.621,-2.115 3.074,-3.777 1.963,-1.41 3.375,-3.426 5.188,-4.987 0.1,-0.101 0.402,-0.353 0.504,-0.452 1.713,-1.26 2.568,-3.224 3.424,-5.037 0.455,0.1 0.959,0.252 1.41,0.402 0.305,-0.957 0.607,-1.914 0.908,-2.871 v 0 c 0.252,1.159 0.553,2.368 0.756,3.576 -1.16,3.022 -1.664,6.448 -3.729,9.017 -1.057,1.512 -3.021,0.504 -4.533,0.453 -2.869,1.663 -4.381,4.735 -6.498,7.152 -1.359,1.662 -3.426,2.821 -4.08,4.987"
   stroke-miterlimit="10" /><path
   style="fill:#611641;stroke:#611641;stroke-width:0.0938;stroke-miterlimit:10"
   inkscape:connector-curvature="0"
   id="path70"
   d="m 116.15324,38.714346 c 2.317,-1.764 4.937,-3.577 7.958,-3.325 -0.05,0.303 -0.201,0.807 -0.252,1.109 -0.957,0.05 -1.914,0.05 -2.871,0 0.454,0.2 0.907,0.402 1.411,0.604 -0.655,1.359 -0.957,3.071 -2.317,3.928 -1.915,1.512 -4.635,1.36 -6.397,3.174 -2.871,1.914 -6.246,3.073 -9.268,4.836 -2.065,1.41 -4.684995,1.158 -6.900995,2.266 1.663,-1.813 4.029995,-2.77 5.691995,-4.634 1.158,-0.15 2.267,-0.302 3.375,-0.453 0.201,-0.503 0.353,-1.008 0.504,-1.511 2.216,-0.302 4.433,-0.807 6.447,-1.813 -0.05,-0.402 -0.151,-1.209 -0.202,-1.611 -0.907,-0.051 -1.763,-0.103 -2.619,-0.151 0.907,-0.453 1.813,-0.856 2.771,-1.209 1.208,-0.504 2.468,0.101 3.626,0.201 0.856,0.101 1.713,0 2.569,-0.051 0,-0.754 -0.05,-1.562 -0.05,-2.316 -1.007,0.605 -1.964,1.158 -2.972,1.763 -0.1,-0.201 -0.352,-0.606 -0.504,-0.807 z"
   stroke-miterlimit="10" /><path
   style="fill:#846688;stroke:#846688;stroke-width:0.0938;stroke-miterlimit:10"
   inkscape:connector-curvature="0"
   id="path72"
   d="m 116.65724,39.520346 c 1.007,-0.604 1.964,-1.157 2.972,-1.763 0,0.755 0.05,1.563 0.05,2.316 -0.856,0.051 -1.713,0.151 -2.569,0.051 -0.101,-0.15 -0.352,-0.454 -0.453,-0.604 z"
   stroke-miterlimit="10" /><path
   style="fill:#522552;stroke:#522552;stroke-width:0.0938;stroke-miterlimit:10"
   inkscape:connector-curvature="0"
   id="path74"
   d="m 153.27624,39.067346 c 0.957,-0.302 1.863,-0.756 2.822,-0.756 1.158,-0.101 1.611,1.209 2.266,1.914 l -0.453,0.201 c -1.41,0.353 -2.82,0.655 -4.332,0.655 -0.1,-0.655 -0.202,-1.309 -0.303,-2.014 z"
   stroke-miterlimit="10" /><path
   style="fill:#611641;stroke:#611641;stroke-width:0.0938;stroke-miterlimit:10"
   inkscape:connector-curvature="0"
   id="path76"
   d="m 153.57924,41.081346 c 1.512,0 2.922,-0.303 4.332,-0.655 -1.713,1.462 -3.979,1.662 -6.195,1.814 -1.662,0.1 -3.477,1.46 -4.988,0.15 2.167,-1.057 4.483,-1.611 6.851,-1.309 z"
   stroke-miterlimit="10" /><path
   style="fill:#611641;stroke:#611641;stroke-width:0.0938;stroke-miterlimit:10"
   inkscape:connector-curvature="0"
   id="path78"
   d="m 166.02024,46.118346 c 0.705,-0.655 1.26,-1.612 2.268,-1.712 1.611,-0.353 2.869,0.906 4.131,1.712 -0.305,0.101 -0.908,0.252 -1.16,0.302 -1.764,0.051 -3.526,-0.099 -5.239,-0.302 z"
   stroke-miterlimit="10" /><line
   style="fill:#1062a1;stroke:#1062a1;stroke-width:0.0938;stroke-miterlimit:10"
   id="line80"
   y2="46.37035"
   x2="291.59424"
   y1="46.37035"
   x1="291.59424"
   stroke-miterlimit="10" /><path
   style="fill:#b41736;stroke:#b41736;stroke-width:0.0938;stroke-miterlimit:10"
   inkscape:connector-curvature="0"
   id="path82"
   d="m 196.24324,55.789346 c 0.906,-2.015 2.266,-3.827 3.375,-5.741 -1.26,-0.957 -2.52,-1.965 -3.525,-3.174 2.719,-0.906 5.236,0.906 7.756,1.662 -0.102,-1.259 -0.201,-2.871 1.209,-3.476 v 0 c 3.475,0.504 7,1.611 9.268,4.482 0.807,-0.402 1.611,-0.806 2.469,-1.159 -0.201,0.807 -0.301,1.664 -0.604,2.469 -0.807,0.757 -1.865,1.209 -2.621,2.016 -0.252,0.956 0.701,2.048 0.203,2.871 -1.412,2.327 -14.256,13.621 -18.145,15.333"
   stroke-miterlimit="10" /><path
   style="fill:#b41736;stroke:#b41736;stroke-width:0.0938;stroke-miterlimit:10"
   inkscape:connector-curvature="0"
   id="path84"
   d="m 75.706245,46.420346 c 0.806,-0.15 1.41,0.454 2.015,0.857 -0.352,0.452 -0.654,0.855 -1.007,1.259 -0.806,-0.05 -1.562,-0.05 -2.368,-0.101 0.302,-0.755 0.453,-1.763 1.36,-2.015 z"
   stroke-miterlimit="10" /><path
   style="fill:#846688;stroke:#846688;stroke-width:0.0938;stroke-miterlimit:10"
   inkscape:connector-curvature="0"
   id="path86"
   d="m 265.95424,50.248346 c 1.463,-0.654 2.721,-1.762 4.082,-2.568 -0.453,1.662 -1.662,2.871 -3.074,3.777 -2.77,1.864 -4.582,4.886 -7.453,6.648 -1.461,0.957 -3.275,1.26 -4.938,1.663 0.906,-3.476 4.332,-5.138 6.498,-7.707 0.705,-0.756 1.359,-1.611 2.268,-2.166 0.906,-0.099 1.763,0.304 2.617,0.353 z"
   stroke-miterlimit="10" /><path
   style="fill:#846688;stroke:#846688;stroke-width:0.0938;stroke-miterlimit:10"
   inkscape:connector-curvature="0"
   id="path88"
   d="m 228.58024,49.696346 c 0.402,-0.505 1.107,-0.454 1.711,-0.555 -0.199,0.555 -0.402,1.107 -0.604,1.712 -0.301,-0.201 -0.957,-0.604 -1.26,-0.755 z"
   stroke-miterlimit="10" /><path
   style="fill:#cabcc7;stroke:#cabcc7;stroke-width:0.0938;stroke-miterlimit:10"
   inkscape:connector-curvature="0"
   id="path90"
   d="m 231.14924,49.493346 c 0.756,0 0.654,1.209 -0.051,1.209 -0.754,0 -0.654,-1.258 0.051,-1.209 z"
   stroke-miterlimit="10" /><path
   style="fill:#b41736;stroke:#b41736;stroke-width:0.0938;stroke-miterlimit:10"
   inkscape:connector-curvature="0"
   id="path92"
   d="m 226.96924,55.840346 c -0.555,-2.166 -0.402,-4.785 1.611,-6.145 l -0.152,0.402 c -0.252,0.755 -0.553,1.562 -0.855,2.366 1.311,0.757 2.619,1.714 2.771,3.376 -1.16,-0.05 -2.267,-0.05 -3.375,10e-4 z"
   stroke-miterlimit="10" /><path
   style="fill:#1062a1;stroke:#1062a1;stroke-width:0.0938;stroke-miterlimit:10"
   inkscape:connector-curvature="0"
   id="path94"
   d="m 89.004245,52.817346 c 0.705,-0.502 1.511,-0.05 2.216,0.052 -1.662,0.806 -3.273,1.763 -4.433,3.224 -2.619,2.267 -5.54,4.181 -8.11,6.446 -0.855,1.009 -2.115,0.555 -3.173,0.253 1.662,-2.419 4.584,-3.376 6.85,-5.088 2.469,-1.309 4.031,-3.778 6.65,-4.887 z"
   stroke-miterlimit="10" /><path
   style="fill:#611641;stroke:#611641;stroke-width:0.0938;stroke-miterlimit:10"
   inkscape:connector-curvature="0"
   id="path96"
   d="m 137.05724,54.732346 c 0.402,-0.403 0.805,-0.806 1.158,-1.208 0.807,0.502 1.563,1.007 2.316,1.511 0.504,-0.201 1.01,-0.454 1.512,-0.655 -0.252,1.158 -0.502,2.268 -0.855,3.375 -1.16,-0.051 -2.268,-0.453 -2.871,-1.512 -0.455,-0.503 -0.858,-1.007 -1.26,-1.511 z"
   stroke-miterlimit="10" /><path
   style="fill:#cabcc7;stroke:#cabcc7;stroke-width:0.0938;stroke-miterlimit:10"
   inkscape:connector-curvature="0"
   id="path98"
   d="m 224.19824,55.890346 c 0.201,-0.806 1.311,-0.855 1.459,0 -0.35,0 -1.106,0 -1.459,0 z"
   stroke-miterlimit="10" /><path
   style="fill:#b41736;stroke:#b41736;stroke-width:0.0938;stroke-miterlimit:10"
   inkscape:connector-curvature="0"
   id="path100"
   d="m 193.72324,64.302346 c 1.914,-2.216 1.965,-5.289 2.469,-8.06 0.402,4.13 -0.402,8.362 0.605,12.442 0.15,0.554 0.352,1.107 0.553,1.611 -2.316,1.007 -4.533,2.166 -6.949,2.972 -0.455,-1.561 -0.908,-3.174 -1.311,-4.735 1.713,-1.207 3.223,-2.718 4.633,-4.23 z"
   stroke-miterlimit="10" /><path
   style="fill:#b41736;stroke:#b41736;stroke-width:0.0938;stroke-miterlimit:10"
   inkscape:connector-curvature="0"
   id="path102"
   d="m 107.18724,62.338346 c 1.863,-0.906 3.778,-1.764 5.339,-3.173 v 0 c 0.755,2.518 1.46,5.036 2.317,7.555 -1.007,0.906 -1.864,2.015 -2.871,2.972 -1.31,1.058 -2.871,1.611 -4.231,2.568 -0.554,-1.007 -0.705,-2.771 -2.116,-2.87 -1.359,-0.253 -1.914,1.259 -2.77,2.014 -1.562,1.411 -3.575995,2.318 -5.137995,3.829 1.209,0.655 2.568995,1.058 3.827995,1.612 0.353,1.259 0.302,2.568 0.302,3.878 -0.151,0.654 -0.353,1.31 -0.554,1.964 -0.251,-0.1 -0.755,-0.301 -1.007,-0.402 -0.754995,3.073 -2.417995,5.842 -3.122995,8.966 -0.302,1.713 -2.216,2.468 -2.619,4.132 0.101,2.165 0.705,4.28 0.151,6.396004 -0.654,2.167 -1.712,4.181 -2.015,6.397 l -0.05,0.453 c 4.634,0.201 9.317995,0.654 13.901995,-0.151 1.965,0.101 3.929,0.252 5.894,0.403 -1.561,0.856 -3.123,1.663 -4.735,2.367 0.957,0.604 1.864,1.157 2.821,1.764 -3.425,2.114 -7.556,1.359 -11.383995,1.763 -3.173,-0.353 -6.246,1.712 -9.369,0.352 0.353,1.814 0.353,3.678 0.152,5.492 -6.044,0.957 -12.14,2.971 -18.285,1.913 -2.216,-0.403 -4.483,-0.454 -6.598,-1.108 -1.31,-0.805 -2.115,-2.217 -2.67,-3.627 0.051,-1.107 0.454,-2.215 0.806,-3.274 -0.403,-0.201 -0.806,-0.402 -1.208,-0.604 0,-1.563 -1.378,-4.976 -1.562,-4.735 10.125,-13.272004 11.736,-14.960004 11.938,-15.614004 2.82,-4.181 6.648,-7.505 9.973,-11.233 2.316,-2.568 5.188,-4.634 7.203,-7.454 1.562,-1.311 3.224,-2.519 4.987,-3.526 2.015,-1.107 3.526,-2.821 5.491,-4.029 1.207995,-0.806 2.567995,-1.36 3.524995,-2.418"
   stroke-miterlimit="10" /><path
   style="fill:#b41736;stroke:#b41736;stroke-width:0.0938;stroke-miterlimit:10"
   inkscape:connector-curvature="0"
   id="path104"
   d="m 141.13724,64.050346 c 1.059,-0.907 10.93,-4.265 12.24,-4.517 -0.051,2.116 14.924,1.46 15.027,3.626 1.51,0.05 2.107,7.617 3.609,7.439 -3.828,0.453 -24.742,0.017 -27.301,2.166 -1.391,1.168 -1.309,3.273 -1.713,4.986 0.604,0.051 1.26,0.101 1.914,0.201 0,2.972 0,5.994 0.051,9.017 -1.914,0.353 -3.879,0.755 -5.742,1.359 -1.41,0.253 -2.914,0.086 -4.383,0.103 -24.379,0.25 -17.075,-8.766 -5.389,-17.178 1.895,-1.363 3.778,-2.871 5.944,-3.828 2.015,-0.955 4.03,-1.964 5.743,-3.374 z"
   stroke-miterlimit="10" /><path
   style="fill:#611641;stroke:#611641;stroke-width:0.0938;stroke-miterlimit:10"
   inkscape:connector-curvature="0"
   id="path106"
   d="m 57.371245,66.368346 c 0.353,-0.504 0.856,-0.806 1.36,-1.108 -0.503,5.692 -0.604,11.484 0.05,17.177 -1.057,0.958 -2.166,1.965 -3.425,2.618 -1.511,0.807 -3.274,1.311 -4.332,2.72 -0.756,1.06 -8.916,9.723 -9.772,10.68 -0.906,-3.778 -5.742,-5.943 -6.447,-9.772 1.712,-2.568 14.557,-14.405 17.277,-16.018 0.857,-0.705 1.763,-1.36 2.669,-2.064 -0.201,-0.403 -0.352,-0.756 -0.553,-1.109 1.158,-0.909 2.216,-2.016 3.173,-3.124 z"
   stroke-miterlimit="10" /><path
   style="fill:#522552;stroke:#522552;stroke-width:0.0938;stroke-miterlimit:10"
   inkscape:connector-curvature="0"
   id="path108"
   d="m 53.089245,68.583346 c 1.209,-1.107 2.771,-1.662 4.282,-2.216 -0.957,1.108 -2.015,2.216 -3.173,3.122 0.201,0.354 0.352,0.706 0.553,1.109 -0.906,0.704 -1.813,1.359 -2.669,2.064 0.202,-1.409 0.454,-2.819 1.007,-4.079 z"
   stroke-miterlimit="10" /><path
   style="fill:#522552;stroke:#522552;stroke-width:0.0938;stroke-miterlimit:10"
   inkscape:connector-curvature="0"
   id="path110"
   d="m 230.64524,68.080346 c 3.275,0.452 6.699,-0.454 9.924,0.503 0.957,0.202 1.459,1.009 1.762,1.863 l -0.201,-0.15 c -0.604,-0.252 -1.209,-0.555 -1.764,-0.807 -2.467,3.325 -6.697,4.383 -9.77,7.053 -0.051,-2.82 -0.051,-5.641 0.049,-8.462 z"
   stroke-miterlimit="10" /><path
   style="fill:#1062a1;stroke:#1062a1;stroke-width:0.0938;stroke-miterlimit:10"
   inkscape:connector-curvature="0"
   id="path112"
   d="m 49.110245,70.800346 c 1.007,-1.26 2.619,-1.511 3.979,-2.217 -0.554,1.26 -0.806,2.67 -1.007,4.08 -2.72,1.612 -4.433,4.332 -6.145,6.9 -0.403,-0.2 -0.755,-0.402 -1.159,-0.554 -0.101,-0.403 -0.201,-0.806 -0.302,-1.208 2.216,-1.863 2.468,-5.087 4.634,-7.001 z"
   stroke-miterlimit="10" /><path
   style="fill:#611641;stroke:#611641;stroke-width:0.0938;stroke-miterlimit:10"
   inkscape:connector-curvature="0"
   id="path114"
   d="m 187.93224,69.239346 c 0.352,-0.252 0.754,-0.504 1.158,-0.706 0.402,1.562 0.855,3.175 1.311,4.735 2.416,-0.806 4.633,-1.965 6.949,-2.972 -0.201,-0.504 -0.402,-1.058 -0.553,-1.611 3.727,0.503 7.453,0 11.182,-0.252 -1.662,0.353 -2.873,1.511 -4.232,2.367 -3.324,2.166 -7,3.777 -10.477,5.691 -1.209,0.656 -1.863,1.864 -2.215,3.123 0.201,-3.726 -1.412,-7.203 -3.123,-10.375 z"
   stroke-miterlimit="10" /><path
   style="fill:#b41736;stroke:#b41736;stroke-width:0.0938;stroke-miterlimit:10"
   inkscape:connector-curvature="0"
   id="path116"
   d="m 144.96524,86.969346 c -0.078,-1.031 -2.828,-9.354 -0.051,-9.017 5.66,0.685 12.654,-0.295 12.594,-1.964 -2.52,-0.101 -4.986,-0.202 -7.506,-0.101 1.561,-0.604 3.225,-1.311 4.182,-2.771 0.805,-1.26 1.309,-2.671 1.963,-3.98 v 0 c 3.678,0.051 7.355,-0.201 11.031,0 1.713,0.051 3.324,0.655 4.836,1.462 -0.553,1.409 -1.297,2.738 -2.268,3.979 -2.166,2.771 -2.518,4.231 -3.727,4.986"
   stroke-miterlimit="10" /><path
   style="fill:#611641;stroke:#611641;stroke-width:0.0938;stroke-miterlimit:10"
   inkscape:connector-curvature="0"
   id="path118"
   d="m 102.85524,71.404346 c 0.856,-0.755 1.411,-2.267 2.77,-2.014 1.411,0.1 1.562,1.863 2.116,2.87 -1.109,0.957 -1.612,2.317 -1.31,3.729 -1.158,-0.051 -2.317,-0.151 -3.476,-0.303 -0.302,1.713 -0.654,3.375 -1.108,5.037 0,-1.31 0.051,-2.619 -0.302,-3.878 -1.259,-0.555 -2.618995,-0.957 -3.827995,-1.612 1.562,-1.511 3.576995,-2.418 5.137995,-3.829 z"
   stroke-miterlimit="10" /><path
   style="fill:#1062a1;stroke:#1062a1;stroke-width:0.0938;stroke-miterlimit:10"
   inkscape:connector-curvature="0"
   id="path120"
   d="m 230.59624,76.542346 c 3.072,-2.67 7.303,-3.728 9.77,-7.053 0.555,0.252 1.16,0.555 1.764,0.807 -1.209,2.015 -2.973,3.576 -5.086,4.584 -1.664,1.763 -3.326,3.526 -4.938,5.339 -0.453,0.151 -0.957,0.252 -1.41,0.403 -0.051,-1.36 -0.051,-2.719 -0.1,-4.08 z"
   stroke-miterlimit="10" /><path
   style="fill:#611641;stroke:#611641;stroke-width:0.0938;stroke-miterlimit:10"
   inkscape:connector-curvature="0"
   id="path122"
   d="m 84.974245,77.952346 c 1.461,-1.107 3.022,-2.064 4.534,-3.072 -2.015,2.82 -4.886,4.886 -7.203,7.454 -3.325,3.729 -7.153,7.053 -9.973,11.233 -0.152,-0.757 -0.302,-1.512 -0.454,-2.267 2.82,-2.771 5.491,-5.742 8.412,-8.412 1.712,-1.511 2.82,-3.575 4.684,-4.936 z"
   stroke-miterlimit="10" /><path
   style="fill:#b41736;stroke:#b41736;stroke-width:0.0938;stroke-miterlimit:10"
   inkscape:connector-curvature="0"
   id="path124"
   d="m 209.18824,81.730346 c 2.619,-1.511 5.137,-3.223 7.404,-5.188 -0.1,1.965 -0.201,3.979 -0.1,5.994 -0.455,0.252 -0.857,0.554 -1.313,0.807 -0.904,-1.108 -2.215,-1.713 -3.525,-2.167 -0.451,1.26 -1.057,2.468 -2.166,3.225 -0.099,-0.908 -0.2,-1.764 -0.3,-2.671 z"
   stroke-miterlimit="10" /><path
   style="fill:#b41736;stroke:#b41736;stroke-width:0.0938;stroke-miterlimit:10"
   inkscape:connector-curvature="0"
   id="path126"
   d="m 189.74524,68.080346 c 0.805,3.324 3.176,1.545 1.814,4.769 -1.158,0.654 -16.473,16.285 -17.076,17.496 -1.613,-0.305 -3.477,-1.008 -4.938,0.049 -2.164,1.46 -4.23,3.124 -6.699,3.98 -1.561,0.553 -20.508,9.806004 -22.07,9.755004 -0.102,-1.813 3.383,-6.885004 3.334,-8.698004 4.936,-1.963 23.523,-10.628 28.105,-13.398 2.064,-1.26 3.828,-3.022 5.742,-4.482 z"
   stroke-miterlimit="10" /><path
   style="fill:#611641;stroke:#611641;stroke-width:0.0938;stroke-miterlimit:10"
   inkscape:connector-curvature="0"
   id="path128"
   d="m 211.65524,81.176346 c 1.311,0.454 2.621,1.059 3.525,2.167 0.455,-0.253 15.012,-15.012 15.465,-15.263 0.051,1.007 0.49,6.973 0.539,7.979 -2.418,1.762 -18.824,13.125 -22.197,14.285 1.906,-0.656 0.252,-3.98 0.502,-5.944 1.109,-0.756 1.715,-1.964 2.166,-3.224 z"
   stroke-miterlimit="10" /><path
   style="fill:#b41736;stroke:#b41736;stroke-width:0.0938;stroke-miterlimit:10"
   inkscape:connector-curvature="0"
   id="path132"
   d="m 31.531245,88.681346 c 0.957,-0.402 1.964,-0.755 2.921,-1.208 0.101,0.301 0.252,0.906 0.353,1.208 -1.209,2.267 -2.518,4.533 -4.181,6.499 -0.856,1.007 -2.065,-0.103 -2.921,-0.555 0.554,-0.604 1.058,-1.159 1.562,-1.763 0.957,-1.108 1.763,-2.317 2.115,-3.729 z"
   stroke-miterlimit="10" /><path
   style="fill:#ffffff;stroke:#ffffff;stroke-width:0.0938;stroke-miterlimit:10"
   inkscape:connector-curvature="0"
   id="path134"
   d="m 174.48324,90.345346 c 0.604,-1.211 1.711,-2.017 2.869,-2.671 -0.451,1.058 -1.006,2.166 -1.914,2.922 -0.252,-0.051 -0.703,-0.202 -0.955,-0.251 z"
   stroke-miterlimit="10" /><path
   style="fill:#611641;stroke:#611641;stroke-width:0.0938;stroke-miterlimit:10"
   inkscape:connector-curvature="0"
   id="path136"
   d="m 34.805245,88.681346 c 0.655,2.267 13.721,-1.007 14.325,1.26 -1.455,0.189 -13.721,14.759004 -14.929,19.191004 -5.917,3.834 -19.811,0.093 -21.861,0.15 0.554,-0.604 14.859,-14.103004 15.363,-14.657004 0.856,0.452 2.065,1.562 2.921,0.555 1.663,-1.966 2.972,-4.232 4.181,-6.499 z"
   stroke-miterlimit="10" /><path
   style="fill:#1062a1;stroke:#1062a1;stroke-width:0.0938;stroke-miterlimit:10"
   inkscape:connector-curvature="0"
   id="path138"
   d="m 26.847245,91.604346 c 0.907,-1.714 2.72,-2.217 4.533,-2.47 -0.352,1.411 -1.158,2.62 -2.115,3.729 -0.655,0.05 -1.31,0.05 -1.965,0.101 -0.101,-0.353 -0.353,-1.009 -0.453,-1.36 z"
   stroke-miterlimit="10" /><path
   style="fill:#611641;stroke:#611641;stroke-width:0.0938;stroke-miterlimit:10"
   inkscape:connector-curvature="0"
   id="path140"
   d="m 157.40724,89.387346 0.453,-0.202 c 0.051,1.813 0.102,3.678 0.201,5.49 1.563,0.051 3.225,0.252 4.785,-0.301 2.469,-0.856 4.535,-2.521 6.699,-3.98 1.461,-1.057 3.324,-0.354 4.938,-0.049 0.252,0.049 0.703,0.2 0.955,0.251 -2.416,2.468 -5.691,3.979 -9.014,4.733 -2.922,0.304 -5.844,-0.1 -8.766,0.152 -0.05,-2.015 -0.15,-4.079 -0.251,-6.094 z"
   stroke-miterlimit="10" /><path
   style="fill:#611641;stroke:#611641;stroke-width:0.0938;stroke-miterlimit:10"
   inkscape:connector-curvature="0"
   id="path142"
   d="m 193.42024,92.206346 c 1.008,-0.402 16.471,-7.453 17.43,-7.806 0,2.469 0.59,3.476 0.541,5.944 -2.873,-0.051 -20.035,10.224004 -21.646,12.391004 l -0.354,0.201 c -1.26,0.051 -2.518,0 -3.727,-0.151 -0.756,1.058 -1.512,2.166 -2.268,3.223 -0.352,0.253 -0.705,0.505 -1.057,0.807 -1.359,-0.151 -2.771,-0.554 -4.08,-0.151 -0.957,0.856 -1.41,2.065 -1.965,3.124 -2.367,-0.958 -3.98,1.61 -6.195,1.813 -0.402,0.101 -0.855,0.152 -1.26,0.252 0.152,-0.302 0.555,-0.807 0.756,-1.057 -0.201,0 -0.604,-0.051 -0.807,-0.051 1.059,-1.059 -0.703,-1.411 -1.107,-0.403 -0.102,0.1 -0.354,0.302 -0.453,0.403 -2.719,0.956 -5.088,2.618 -7.656,3.828 -0.604,0.251 -1.158,0.503 -1.764,0.755 0.252,0.655 0.455,1.36 0.705,2.015 2.016,-1.409 4.281,-2.619 6.699,-3.224 -0.301,0.555 -0.604,1.158 -0.906,1.712 3.576,-1.712 7.203,-3.525 10.93,-4.935 -0.502,0.553 -1.057,1.158 -1.611,1.711 -3.223,3.073 -7.605,4.484 -11.182,7.104 -2.367,1.107 -4.836,2.114 -7.102,3.374 -9.672,5.339 -20.553,8.109 -29.971,13.902 -1.864,1.059 -3.979,1.41 -5.994,2.065 -0.958,-0.454 -1.864,-1.512 -3.022,-1.108 -5.49,1.31 -10.981,3.072 -16.722995,2.972 0.855995,-0.402 1.661995,-0.856 2.518995,-1.309 -2.266995,-0.354 -4.582995,-1.009 -6.850995,-0.253 1.008,-0.704 1.813,-1.661 2.317,-2.771 -0.453,0.202 -0.906,0.454 -1.41,0.705 0.201,-0.907 0.353,-1.813 0.503,-2.719 1.712,-0.705 3.274,0.2 4.784995,0.906 0.907,0.554 1.511,1.813 2.72,1.612 2.468,-0.253 4.583,-1.764 6.901,-2.519 2.166,-0.705 4.181,-1.713 6.195,-2.67 0.907,0.604 1.813,1.259 2.72,1.914 -0.252,-0.454 -0.504,-0.957 -0.705,-1.41 0.302,-0.353 0.604,-0.655 0.957,-1.008 1.662,-0.202 3.022,-1.159 4.281,-2.166 1.964,-1.611 4.282,-2.721 6.296,-4.181 1.663,0.252 3.375,0.101 4.786,-0.856 4.18,-2.469 9.268,-3.123 12.945,-6.397 0.957,-0.352 1.914,-0.655 2.871,-0.906 -0.252,-0.403 -0.506,-0.756 -0.756,-1.108 0.908,-0.15 1.764,-0.251 2.619,-0.402 0.152,-1.059 -0.303,-2.418 0.705,-3.174 0.957,-1.058 2.217,-0.05 3.275,0.15 3.877,0.202 7.705,-1.661 10.225,-4.532 1.51,-0.101 3.072,0 4.582,-0.303 4.08,-1.057 7.254,-3.928 10.68,-6.195 0.553,0.201 1.209,0.453 1.713,0.102 1.963,-1.008 3.678,-2.469004 5.691,-3.426004 1.662,-0.807 3.525,-1.159 5.188,-1.965 0.404,-1.108 0.354,-2.317 0.354,-3.475 -0.754,-0.151 -1.51,-0.251 -2.317,-0.354 z"
   stroke-miterlimit="10" /><path
   style="fill:#846688;stroke:#846688;stroke-width:0.0938;stroke-miterlimit:10"
   inkscape:connector-curvature="0"
   id="path144"
   d="m 23.976245,95.834346 c 1.259,-1.159 2.317,-2.568 2.871,-4.23 0.101,0.352 0.353,1.007 0.453,1.359 0.655,-0.051 1.31,-0.051 1.965,-0.101 -0.504,0.604 -1.007,1.158 -1.562,1.763 -0.504,0.555 -1.008,1.108 -1.562,1.712 -0.806,0.052 -1.612,0.203 -2.417,0.304 0.05,-0.202 0.201,-0.606 0.252,-0.807 z"
   stroke-miterlimit="10" /><path
   style="fill:#ffffff;stroke:#ffffff;stroke-width:0.0938;stroke-miterlimit:10"
   inkscape:connector-curvature="0"
   id="path146"
   d="m 187.32724,95.834346 c 0.654,-1.26 1.311,-2.568 1.914,-3.828 0.555,0.504 1.107,1.007 1.713,1.562 -1.209,0.755 -2.368,1.561 -3.627,2.266 z"
   stroke-miterlimit="10" /><path
   style="fill:#b41736;stroke:#b41736;stroke-width:0.0938;stroke-miterlimit:10"
   inkscape:connector-curvature="0"
   id="path148"
   d="m 193.12024,92.309346 0.301,-0.103 c 0.807,0.103 1.563,0.202 2.318,0.354 0,1.157 0.051,2.366 -0.354,3.475 -1.662,0.806 -3.525,1.158 -5.188,1.965 -2.014,0.957 -3.729,2.418004 -5.691,3.426004 -0.504,0.352 -1.16,0.1 -1.713,-0.102 l 0.402,-0.303 c 1.41,-0.755 2.52,-1.964004 3.125,-3.425004 0.352,-0.604 0.703,-1.158 1.006,-1.763 1.26,-0.705 2.418,-1.512 3.627,-2.267 0.706,-0.451 1.411,-0.905 2.167,-1.257 z"
   stroke-miterlimit="10" /><path
   style="fill:#ffffff;stroke:#ffffff;stroke-width:0.0938;stroke-miterlimit:10"
   inkscape:connector-curvature="0"
   id="path150"
   d="m 95.955245,94.122346 c 0.504,-0.102 1.058,-0.152 1.562,-0.202 -0.453,1.359 -1.007,2.669 -1.562,3.979 -0.051,-1.258 -0.202,-2.57 0,-3.777 z"
   stroke-miterlimit="10" /><path
   style="fill:#611641;stroke:#611641;stroke-width:0.0938;stroke-miterlimit:10"
   inkscape:connector-curvature="0"
   id="path152"
   d="m 144.11024,95.431346 c 0.199,-0.102 0.654,-0.251 0.906,-0.354 0.252,3.526 -0.504,7.003004 -0.102,10.528004 -1.311,0.554 -2.619,1.159 -3.879,1.864 -0.855,-2.216 -1.512,-4.482 -2.115,-6.8 0.756,1.31 1.512,2.617 2.115,4.029 1.209,-1.059 2.721,-2.065 3.225,-3.729 0.604,-1.811004 0.201,-3.726004 -0.15,-5.538004 z"
   stroke-miterlimit="10" /><path
   style="fill:#b41736;stroke:#b41736;stroke-width:0.0938;stroke-miterlimit:10"
   inkscape:connector-curvature="0"
   id="path154"
   d="m 115.44824,108.17535 c 2.217,-0.604 26.544,-11.938004 28.662,-12.744004 0.352,1.813 0.754,3.727 0.15,5.540004 -0.504,1.663 -1.52,3.158 -3.225,3.729 2.738,-0.916 -19.997,6.094 -20.752,4.784 -0.353,-0.806 -3.021,-0.314 -3.375,-1.171 z"
   stroke-miterlimit="10" /><path
   style="fill:#611641;stroke:#611641;stroke-width:0.0938;stroke-miterlimit:10"
   inkscape:connector-curvature="0"
   id="path156"
   d="m 183.19624,101.02235 c 0.957,-1.208004 2.016,-2.316004 3.125,-3.425004 -0.606,1.461 -1.715,2.670004 -3.125,3.425004 z"
   stroke-miterlimit="10" /><path
   style="fill:#846688;stroke:#846688;stroke-width:0.0938;stroke-miterlimit:10"
   inkscape:connector-curvature="0"
   id="path158"
   d="m 189.74524,102.73635 c 1.611,-2.167 3.727,-4.333004 6.598,-4.282004 0,0.806 0,1.662004 0,2.468004 -1.309,0.957 -2.014,2.469 -3.223,3.525 0.102,-0.604 0.352,-1.106 0.453,-1.711 -0.201,-0.354 -0.504,-0.706 -0.807,-1.008 -1.057,0.302 -2.064,0.654 -3.021,1.008 z"
   stroke-miterlimit="10" /><path
   style="fill:#1062a1;stroke:#1062a1;stroke-width:0.0938;stroke-miterlimit:10"
   inkscape:connector-curvature="0"
   id="path160"
   d="m 182.39124,111.37335 c -2.117,0.604 -4.133,1.411 -5.945,2.568 -0.654,-0.302 -1.309,-0.654 -1.963,-0.956 2.568,-2.065 5.137,-4.182 7.756,-6.196 0.352,-0.302 0.705,-0.554 1.057,-0.806 2.117,-0.806 4.08,-1.864 5.996,-3.072 l 0.354,-0.201 v 0 c 0.957,-0.354 1.963,-0.706 3.02,-1.007 0.303,0.301 0.605,0.653 0.807,1.007 -0.102,0.604 -0.352,1.108 -0.453,1.712"
   stroke-miterlimit="10" /><path
   style="fill:#846688;stroke:#846688;stroke-width:0.0938;stroke-miterlimit:10"
   inkscape:connector-curvature="0"
   id="path162"
   d="m 185.66424,102.78535 c 1.209,0.151 2.467,0.202 3.727,0.151 -1.914,1.208 -3.879,2.266 -5.994,3.071 0.756,-1.056 1.512,-2.164 2.267,-3.222 z"
   stroke-miterlimit="10" /><path
   style="fill:#522552;stroke:#522552;stroke-width:0.0938;stroke-miterlimit:10"
   inkscape:connector-curvature="0"
   id="path164"
   d="m 178.26024,106.66335 c 1.309,-0.402 2.721,0 4.08,0.151 -2.619,2.015 -5.188,4.131 -7.758,6.196 -0.252,-0.102 -0.705,-0.303 -0.957,-0.404 0.555,-0.553 1.109,-1.158 1.611,-1.711 -3.727,1.409 -7.354,3.223 -10.93,4.935 0.303,-0.554 0.605,-1.157 0.906,-1.712 -2.418,0.604 -4.684,1.814 -6.699,3.224 -0.25,-0.654 -0.453,-1.359 -0.705,-2.015 0.605,-0.252 1.16,-0.504 1.764,-0.755 0.051,0.15 0.15,0.503 0.201,0.704 2.57,-1.41 5.289,-2.568 7.455,-4.532 0.1,-0.102 0.352,-0.304 0.453,-0.403 0.303,0.1 0.857,0.302 1.107,0.403 0.203,0 0.605,0.051 0.807,0.051 -0.201,0.25 -0.604,0.755 -0.756,1.057 0.404,-0.1 0.857,-0.151 1.26,-0.252 2.215,-0.202 3.828,-2.771 6.195,-1.813 0.556,-1.058 1.009,-2.267 1.966,-3.124 z"
   stroke-miterlimit="10" /><path
   style="fill:#611641;stroke:#611641;stroke-width:0.0938;stroke-miterlimit:10"
   inkscape:connector-curvature="0"
   id="path166"
   d="m 106.93524,108.42735 c 1.914,-0.252 3.778,-0.453 5.692,-0.453 3.325,0.051 6.699,-0.403 10.074,-0.102 3.224,0.756 6.598,0.402 9.872,-0.05 1.31,-0.051 2.57,-0.051 3.878,0 -0.15,0.554 -0.301,1.107 -0.402,1.661 -1.662,0.304 -3.375,0.555 -5.037,0.455 -3.678,-0.505 -7.354,0.554 -10.88,1.409 -0.706,-0.201 -1.36,-0.353 -2.065,-0.452 0,0.502 0.051,0.956 0.051,1.409 0.402,0.202 0.806,0.403 1.158,0.555 -0.403,0.101 -0.756,0.252 -1.158,0.353 -1.562,-1.108 -3.426,-1.26 -5.138,-0.504 0.302,0.554 0.655,1.108 1.007,1.662 -0.403,0.303 -0.806,0.604 -1.208,0.856 -2.771,1.158 -5.541,2.367 -8.413,3.173 -1.611,0.454 -2.77,1.713 -4.18,2.468 -2.568995,0.654 -5.237995,0.051 -7.807995,0.707 -0.604,0.553 -1.058,1.208 -1.612,1.812 -1.259,-0.353 -2.417,-1.007 -3.677,-1.259 -2.972,1.209 -6.347,1.259 -9.017,3.224 -4.181,1.512 -8.814,0.252 -12.895,-1.158 -1.259,-0.504 -2.922,-0.654 -3.577,-2.016 -1.46,-1.964 -0.756,-4.482 -0.302,-6.647 0.504,-2.065 0.252,-4.231 0.302,-6.348 0.302,1.563 0.353,3.173 0.353,4.735 0.402,0.201 0.806,0.402 1.208,0.604 -0.353,1.06 -0.755,2.167 -0.806,3.274 0.555,1.41 1.36,2.822 2.67,3.627 2.115,0.654 4.382,0.705 6.598,1.108 6.146,1.058 12.241,-0.956 18.285,-1.913 0.201,-1.814 0.201,-3.678 -0.152,-5.492 3.124,1.36 6.196,-0.704 9.369,-0.352 3.827995,-0.403 7.958995,0.352 11.383995,-1.763 -0.957,-0.606 -1.864,-1.159 -2.821,-1.764 1.612,-0.704 3.174,-1.511 4.735,-2.367 -1.964,-0.151 -3.929,-0.303 -5.894,-0.403 z"
   stroke-miterlimit="10" /><path
   style="fill:#846688;stroke:#846688;stroke-width:0.0938;stroke-miterlimit:10"
   inkscape:connector-curvature="0"
   id="path168"
   d="m 122.70224,107.87235 c 3.274,-0.15 6.548,-0.15 9.872,-0.05 -3.274,0.453 -6.648,0.806 -9.872,0.05 z"
   stroke-miterlimit="10" /><path
   style="fill:#846688;stroke:#846688;stroke-width:0.0938;stroke-miterlimit:10"
   inkscape:connector-curvature="0"
   id="path170"
   d="m 136.45224,107.82335 c 1.209,0 2.418,0.101 3.678,0.101 -1.26,0.755 -2.619,1.461 -4.08,1.561 0.101,-0.555 0.251,-1.109 0.402,-1.662 z"
   stroke-miterlimit="10" /><path
   style="fill:#522552;stroke:#522552;stroke-width:0.0938;stroke-miterlimit:10"
   inkscape:connector-curvature="0"
   id="path172"
   d="m 92.681245,108.17535 c 4.734,0.15 9.519995,0.05 14.254995,0.252 l -0.403,0.05 c -4.583,0.806 -9.267995,0.353 -13.901995,0.151 z"
   stroke-miterlimit="10" /><path
   style="fill:#611641;stroke:#611641;stroke-width:0.0938;stroke-miterlimit:10"
   inkscape:connector-curvature="0"
   id="path174"
   d="m 22.666245,109.78735 c 2.417,0.251 4.785,-0.806 7.253,-0.505 1.411,0.102 2.871,0.151 4.282,-0.15 -0.101,1.612 -1.007,2.87 -1.612,4.332 -0.403,1.914 -0.554,3.979 -1.813,5.592 0.05,-1.412 0.151,-2.821 0.252,-4.232 -2.066,-0.303 -3.375,-1.914 -4.887,-3.173 -0.755,0.302 -1.461,0.704 -2.115,1.108 0.755,1.762 0.554,3.626 -0.05,5.389 -1.108,2.922 0.906,5.843 0.252,8.815 -0.101,1.41 -0.856,3.021 0.101,4.281 0.806,1.108 1.763,2.065 2.871,2.82 1.058,-0.402 1.965,-1.007 2.871,-1.562 1.763,1.311 3.274,2.821 4.634,4.585 -0.151,1.157 -0.555,2.367 -0.252,3.575 1.007,1.512 2.972,2.771 4.735,1.813 0.554,0.201 1.108,0.453 1.662,0.705 2.216,-0.2 4.433,0.05 6.649,0.252 0.353,0.403 0.655,0.755 1.007,1.157 2.619,-0.754 5.39,-0.904 8.11,-0.754 0.403,-0.403 0.806,-0.855 1.259,-1.31 1.108,0.202 2.216,0.555 3.375,0.353 1.259,-0.303 2.317,-1.108 3.375,-1.813 0.756,0.05 1.562,0.05 2.368,0.102 0.15,0.654 0.352,1.309 0.604,1.914 1.36,0.502 2.871,-0.101 4.282,0.2 0.906,0.353 1.662,0.958 2.418,1.511 -0.756,0.202 -1.512,0.403 -2.317,0.605 -3.274,0.201 -6.599,0.604 -9.621,2.064 2.62,0.252 5.239,0.151 7.858,-0.151 1.007,0.051 2.065,0.151 3.123,0.303 -1.208,0.353 -2.468,0.654 -3.727,0.756 -3.022,-0.655 -6.296,-0.806 -9.067,0.855 0.302,-0.704 0.655,-1.459 0.957,-2.165 -0.856,0 -1.763,0 -2.669,0 0.755,-0.403 1.46,-0.806 2.216,-1.158 -0.957,0.2 -1.964,0.353 -2.921,0.553 -0.705,-0.452 -1.46,-0.955 -2.216,-1.409 0.101,0.756 0.151,1.562 0.202,2.316 -0.605,-0.051 -1.259,-0.15 -1.864,-0.253 0.101,0.657 0.252,1.261 0.353,1.916 -1.108,-0.757 -2.216,-1.411 -3.375,-2.015 0.252,-0.656 0.503,-1.311 0.756,-2.016 -1.512,0.856 -3.022,1.712 -4.533,2.569 -0.05,-0.857 -0.151,-1.713 -0.202,-2.569 -2.216,1.612 -4.534,3.174 -7.102,4.03 -3.173,0.906 -6.095,-1.007 -8.765,-2.519 0.404,-0.454 0.807,-0.856 1.209,-1.311 -2.972,-0.05 -5.793,-0.855 -8.664,-1.51 0,1.409 0.05,2.87 0.05,4.332 -0.252,0.05 -0.756,0.15 -1.058,0.2 0.302,-2.719 -0.403,-5.339 -1.51,-7.808 1.359,0 2.72,0 4.029,0 -0.353,-0.453 -0.705,-0.956 -1.108,-1.46 0.151,-0.604 0.352,-1.209 0.504,-1.813 -0.705,0.202 -1.311,0.504 -1.964,0.705 -0.706,-0.252 -1.411,-0.403 -2.066,-0.705 -0.05,0.251 -0.15,0.705 -0.201,0.957 0.503,0.05 0.957,0.101 1.46,0.15 0.051,0.555 0.152,1.059 0.201,1.613 -0.201,-0.103 -0.654,-0.354 -0.855,-0.454 -1.109,1.007 -2.317,2.065 -2.872,3.476 -0.655,1.309 -0.856,2.771 -1.662,3.979 -1.109,1.159 -2.62,1.712 -3.929,2.468 -2.116,-0.906 -4.2310001,-1.813 -6.0440001,-3.274 -0.806,-1.209 -1.007,-2.669 -1.209,-4.079 -0.453,0.301 -0.856,0.604 -1.31,0.906 0.403,-3.375 0.907,-6.749 1.561,-10.074 0.504,-2.519 0.454,-5.188 1.461,-7.556 0.806,-1.914 3.0730001,-2.519 4.1810001,-4.131 0.856,-1.209 1.612,-2.519 2.267,-3.827 0.05,1.764 0.554,3.425 2.166,4.382 1.31,-1.964 2.317,-4.03 3.022,-6.246 -0.503,-0.201 -1.007,-0.353 -1.511,-0.555 -1.209,0.807 -2.417,1.612 -3.677,2.419 0.907,-2.67 2.065,-5.238 2.972,-7.858 1.962,0.054 3.875,0.206 5.84,0.357 z"
   stroke-miterlimit="10" /><path
   style="fill:#b41736;stroke:#b41736;stroke-width:0.0938;stroke-miterlimit:10"
   inkscape:connector-curvature="0"
   id="path176"
   d="m 34.201245,109.13235 c 0.151,-0.051 0.655,7.857 -0.755,11.636 -0.403,1.409 -1.461,2.921 -0.706,4.432 1.158,3.376 3.425,6.247 4.634,9.57 -0.302,0.604 -0.554,1.209 -0.856,1.863 1.511,0.604 2.871,1.412 4.13,2.419 2.317,1.863 5.39,1.863 8.11,2.468 1.964,0.504 3.929,0.252 5.843,-0.302 2.669,-0.705 5.39,-0.353 8.109,-0.252 0.504,0 1.411,0.05 1.914,0.101 -1.058,0.705 -2.115,1.511 -3.375,1.813 -1.159,0.202 -2.266,-0.15 -3.375,-0.353 -0.454,0.454 -0.856,0.906 -1.259,1.31 -2.72,-0.15 -5.491,0 -8.11,0.754 -0.353,-0.402 -0.655,-0.754 -1.007,-1.157 -2.216,-0.202 -4.433,-0.452 -6.649,-0.252 -0.554,-0.252 -1.108,-0.504 -1.662,-0.705 -1.763,0.957 -3.728,-0.302 -4.735,-1.813 -0.303,-1.208 0.101,-2.418 0.252,-3.575 -1.36,-1.764 -2.872,-3.274 -4.634,-4.585 -0.906,0.555 -1.813,1.159 -2.871,1.562 -1.108,-0.755 -2.065,-1.712 -2.871,-2.82 -0.957,-1.26 -0.201,-2.871 -0.101,-4.281 0.654,-2.973 -1.36,-5.894 -0.252,-8.815 0.604,-1.763 0.805,-3.627 0.05,-5.389 0.654,-0.404 1.36,-0.807 2.115,-1.108 1.511,1.259 2.821,2.87 4.887,3.173 -0.101,1.411 -0.202,2.82 -0.252,4.232 1.259,-1.612 1.41,-3.678 1.813,-5.592 0.605,-1.464 1.512,-2.722 1.613,-4.334 z"
   stroke-miterlimit="10" /><path
   style="fill:#522552;stroke:#522552;stroke-width:0.0938;stroke-miterlimit:10"
   inkscape:connector-curvature="0"
   id="path178"
   d="m 12.340245,109.28335 c 1.511,0 3.022,0.051 4.483,0.151 -0.906,2.62 -2.065,5.188 -2.972,7.858 -0.655,1.309 -1.411,2.618 -2.267,3.827 -1.108,1.612 -3.3750001,2.217 -4.1810001,4.131 -1.007,2.368 -0.957,5.037 -1.461,7.556 -0.654,3.325 -1.158,6.699 -1.561,10.074 0.454,-0.303 0.856,-0.605 1.31,-0.906 0.202,1.41 0.403,2.87 1.209,4.079 -0.302,0.152 -0.906,0.454 -1.209,0.604 -0.655,-0.452 -1.36,-0.855 -1.813,-1.461 -1.763,-3.273 -1.763,-7.102 -2.92099996,-10.627 -0.302,0.452 -0.554,0.855 -0.857,1.309 0.504,-2.266 1.35999996,-4.432 2.41799996,-6.447 l 0.151,0.554 c 0.201,1.008 0.403,1.965 0.655,2.973 1.31,-2.166 2.115,-4.584 2.82,-7.002 0.655,-2.317 2.872,-3.879 3.526,-6.245 0.7050001,-2.267 1.6620001,-4.434 2.5690001,-6.648 -0.403,-0.102 -1.31,-0.354 -1.713,-0.455 0.756,-1.008 1.562,-2.065 1.814,-3.325 z"
   stroke-miterlimit="10" /><path
   style="fill:#b41736;stroke:#b41736;stroke-width:0.0938;stroke-miterlimit:10"
   inkscape:connector-curvature="0"
   id="path180"
   d="m 120.13324,111.34835 c 3.526,-0.855 7.202,-1.914 10.88,-1.409 -3.828,1.409 -7.757,2.115 -11.736,2.921 -0.353,-0.151 -0.756,-0.353 -1.158,-0.555 0,-0.453 -0.051,-0.907 -0.051,-1.409 0.704,0.099 1.359,0.251 2.065,0.452 z"
   stroke-miterlimit="10" /><path
   style="fill:#b41736;stroke:#b41736;stroke-width:0.0938;stroke-miterlimit:10"
   inkscape:connector-curvature="0"
   id="path186"
   d="m 112.98024,112.70835 c 1.712,-0.756 3.577,-0.604 5.138,0.504 -1.713,0.856 -3.476,1.562 -5.339,2.015 0.402,-0.252 0.806,-0.554 1.208,-0.856 -0.352,-0.554 -0.705,-1.109 -1.007,-1.663 z"
   stroke-miterlimit="10" /><path
   style="fill:#1062a1;stroke:#1062a1;stroke-width:0.0938;stroke-miterlimit:10"
   inkscape:connector-curvature="0"
   id="path188"
   d="m 8.0082449,118.40035 c 0.303,-2.115 1.411,-4.029 2.5190001,-5.793 0.403,0.102 1.31,0.354 1.713,0.455 -0.907,2.215 -1.864,4.382 -2.5690001,6.648 -0.655,2.366 -2.871,3.928 -3.526,6.245 -0.705,2.418 -1.511,4.836 -2.82,7.002 -0.252,-1.008 -0.454,-1.965 -0.655,-2.973 -0.051,-1.863 1.36,-3.224 1.964,-4.885 0.855,-2.418 3.173,-4.079 3.374,-6.699 z"
   stroke-miterlimit="10" /><path
   style="fill:#846688;stroke:#846688;stroke-width:0.0938;stroke-miterlimit:10"
   inkscape:connector-curvature="0"
   id="path190"
   d="m 162.44424,119.71035 c 3.576,-2.619 7.959,-4.03 11.182,-7.104 0.252,0.102 0.705,0.303 0.957,0.404 0.654,0.301 1.311,0.654 1.965,0.956 -2.973,2.469 -6.648,3.93 -9.672,6.347 -0.201,-0.554 -0.451,-1.108 -0.654,-1.713 -1.261,0.354 -2.518,0.706 -3.778,1.11 z"
   stroke-miterlimit="10" /><path
   style="fill:#b41736;stroke:#b41736;stroke-width:0.0938;stroke-miterlimit:10"
   inkscape:connector-curvature="0"
   id="path192"
   d="m 13.851245,117.29235 c 1.26,-0.807 2.468,-1.612 3.677,-2.419 0.503,0.202 1.007,0.354 1.511,0.555 -0.705,2.216 -1.712,4.282 -3.022,6.246 -1.612,-0.957 -2.116,-2.618 -2.166,-4.382 z"
   stroke-miterlimit="10" /><path
   style="fill:#611641;stroke:#611641;stroke-width:0.0938;stroke-miterlimit:10"
   inkscape:connector-curvature="0"
   id="path194"
   d="m 70.266245,118.19935 c 0.907,-0.403 1.813,-1.159 2.872,-0.807 2.871,0.756 5.893,0.907 8.865,1.159 -1.31,0.555 -2.267,1.562 -3.224,2.619 -1.158,0.404 -2.468,0.404 -3.677,0.352 -1.461,0 -2.519,-1.106 -3.577,-1.964 -0.101,0.303 -0.302,0.857 -0.403,1.159 -1.964,-0.453 -4.08,-0.705 -5.792,-1.863 1.611,-0.202 3.425,0.202 4.936,-0.655 z"
   stroke-miterlimit="10" /><path
   style="fill:#846688;stroke:#846688;stroke-width:0.0938;stroke-miterlimit:10"
   inkscape:connector-curvature="0"
   id="path198"
   d="m 144.15924,119.00435 c 1.41,-0.655 2.922,-0.957 4.434,-1.209 -3.678,3.274 -8.766,3.929 -12.945,6.397 -1.41,0.957 -3.123,1.108 -4.786,0.856 0.604,-0.655 1.108,-1.259 1.712,-1.864 0.806,-0.504 1.664,-0.906 2.519,-1.259 3.023,-0.905 6.095,-1.763 9.066,-2.921 z"
   stroke-miterlimit="10" /><path
   style="fill:#1062a1;stroke:#1062a1;stroke-width:0.0938;stroke-miterlimit:10"
   inkscape:connector-curvature="0"
   id="path200"
   d="m 131.01324,137.08835 c -2.67,0.855 -5.238,2.063 -7.857,3.173 -3.022,1.007 -6.196,1.562 -9.067,3.072 -0.554,0.655 -0.957,1.41 -1.561,2.015 -1.914,0.101 -3.879,-0.252 -5.793,0 -3.676,0.655 -7.303995,2.115 -11.080995,1.914 -1.763,-0.05 -3.627,0.303 -5.34,-0.152 -0.957,-0.301 -1.863,-0.956 -2.921,-0.654 -2.367,0.605 -4.685,1.563 -6.952,2.57 -3.022,1.359 -6.346,1.359 -9.57,1.914 0.957,1.611 0.553,-1.763 0,0 -1.31,-0.553 -1.763,1.412 -1.31,-0.553 0.655,-0.856 -0.403,1.51 0.403,0.805 -2.871,-0.252 -5.389,1.208 -8.109,1.864 -3.425,0.955 -6.951,1.662 -10.226,3.173 -5.792,-0.052 -11.635,0.402 -17.428,0.251 -1.461,-0.15 -2.771,-0.806 -4.231,-1.058 0,0.303 -0.051,0.857 -0.051,1.107 -2.568,-0.906 -5.39,-0.15 -7.958,-1.157 -1.964,-0.856 -4.281,-1.008 -6.044,-2.316 0.151,-0.505 0.302,-1.059 0.454,-1.613 0.604,-0.2 1.259,-0.453 1.863,-0.705 -0.806,-0.604 -1.562,-1.158 -2.368,-1.764 1.965,0.052 3.929,0.354 5.692,1.26 4.08,2.016 8.815,1.864 13.197,1.158 1.813,-0.302 3.274,1.21 4.987,1.562 0.755,-0.251 1.511,-0.654 2.266,-1.007 1.209,0.402 2.519,1.209 3.829,0.705 1.964,-0.604 3.878,-1.662 5.944,-1.763 2.971,-0.151 5.994,0.354 8.916,-0.554 2.921,-0.856 5.893,-1.512 8.916,-1.965 1.259,-0.102 2.519,-0.403 3.727,-0.756 -1.058,-0.151 -2.116,-0.252 -3.123,-0.303 l -0.453,-0.1 c 3.123,-0.05 6.146,-0.857 9.268,-1.007 2.569,-0.303 5.239,-0.303 7.808,-0.807 3.375,-0.705 6.548,-2.367 10.074,-2.267 0.403,0.503 0.806,0.957 1.259,1.41 2.971995,0 5.942995,-0.201 8.865995,-0.806 -0.101,-0.202 -0.303,-0.705 -0.404,-0.907 2.368,-0.755 4.685,-1.661 7.153,-1.914 2.015,-0.151 3.778,-1.008 5.591,-1.863 2.015,-0.655 4.13,-1.007 5.994,-2.065 9.418,-5.793 20.299,-8.563 29.971,-13.902 2.266,-1.26 4.734,-2.267 7.102,-3.374 v 0 c 1.26,-0.404 2.518,-0.756 3.777,-1.109 0.203,0.604 0.453,1.159 0.654,1.713 -3.525,2.418 -7.303,4.382 -11.08,6.348"
   stroke-miterlimit="10" /><path
   style="fill:#1062a1;stroke:#1062a1;stroke-width:0.0938;stroke-miterlimit:10"
   inkscape:connector-curvature="0"
   id="path202"
   d="m 152.77224,127.86935 c -2.719,0.756 -5.539,1.261 -7.807,3.022 -3.324,1.512 -6.85,2.468 -10.326,3.728"
   stroke-miterlimit="10" /><path
   style="fill:#b41736;stroke:#b41736;stroke-width:0.0938;stroke-miterlimit:10"
   inkscape:connector-curvature="0"
   id="path204"
   d="m 111.82124,131.04335 c 4.231,-0.705 8.412,-3.627 12.744,-1.813 -1.259,1.007 -2.619,1.964 -4.281,2.166 -1.007,0.2 -2.015,0.302 -2.972,0.504 -2.015,0.957 -4.03,1.965 -6.195,2.67 -2.317,0.755 -4.433,2.266 -6.901,2.519 -1.209,0.2 -1.813,-1.059 -2.72,-1.612 -0.604,-0.555 -1.41,-0.906 -2.114995,-1.309 1.359995,-0.605 2.719995,-1.109 4.180995,-1.261 2.72,-0.302 5.289,-1.209 7.908,-1.813 z"
   stroke-miterlimit="10" /><path
   style="fill:#846688;stroke:#846688;stroke-width:0.0938;stroke-miterlimit:10"
   inkscape:connector-curvature="0"
   id="path208"
   d="m 124.11224,131.79835 c 0.806,-1.108 2.065,-1.712 3.476,-1.41 -0.857,1.008 -2.217,1.261 -3.476,1.41 z"
   stroke-miterlimit="10" /><path
   style="fill:#cabcc7;stroke:#cabcc7;stroke-width:0.0938;stroke-miterlimit:10"
   inkscape:connector-curvature="0"
   id="path212"
   d="m 115.80124,134.92135 c 0.604,-0.856 1.562,-1.259 2.569,-1.461 -0.806,0.555 -1.663,1.059 -2.569,1.461 z"
   stroke-miterlimit="10" /><path
   style="fill:#522552;stroke:#522552;stroke-width:0.0938;stroke-miterlimit:10"
   inkscape:connector-curvature="0"
   id="path214"
   d="m 93.184245,135.07235 c 1.108,-0.553 2.367,-0.352 3.526,-0.502 -0.151,0.906 -0.302,1.812 -0.503,2.719 0.503,-0.251 0.957,-0.503 1.41,-0.705 -0.503,1.109 -1.309,2.066 -2.317,2.771 2.267,-0.756 4.584,-0.101 6.850995,0.253 -0.856,0.452 -1.662,0.906 -2.518995,1.309 -0.705,0.253 -1.36,0.503 -2.065,0.807 2.618995,2.064 6.043995,1.208 9.065995,1.107 0.101,0.202 0.303,0.705 0.404,0.907 -2.922,0.604 -5.894,0.806 -8.865995,0.806 -0.453,-0.453 -0.856,-0.907 -1.259,-1.41 -3.525,-0.101 -6.699,1.562 -10.074,2.267 0,-0.856 0.101,-2.519 -1.209,-2.116 -3.627,1.26 -7.606,0.555 -11.333,1.511 -0.756,-0.553 -1.512,-1.158 -2.418,-1.511 -1.411,-0.301 -2.922,0.302 -4.282,-0.2 -0.252,-0.605 -0.454,-1.26 -0.604,-1.914 -0.806,-0.052 -1.612,-0.052 -2.368,-0.102 -0.503,-0.051 -1.41,-0.101 -1.914,-0.101 0.151,-0.253 0.403,-0.655 0.554,-0.907 2.569,-0.907 5.29,-0.252 7.958,-0.503 2.267,-0.252 4.634,-0.604 6.75,-1.612 2.216,-0.957 4.685,-0.504 7.001,-1.058 2.721,-0.606 5.643,-0.657 8.211,-1.816 z"
   stroke-miterlimit="10" /><path
   style="fill:#611641;stroke:#611641;stroke-width:0.0938;stroke-miterlimit:10"
   inkscape:connector-curvature="0"
   id="path216"
   d="m 37.374245,134.77035 c 1.662,1.512 2.921,3.627 5.087,4.584 3.627,0.202 7.102,1.512 10.779,1.41 2.266,-0.301 4.533,-0.553 6.75,-0.2 1.159,0.251 2.216,-0.152 3.274,-0.505 -0.151,0.252 -0.403,0.654 -0.554,0.907 -2.72,-0.101 -5.44,-0.453 -8.109,0.252 -1.914,0.554 -3.878,0.806 -5.843,0.302 -2.72,-0.604 -5.792,-0.604 -8.11,-2.468 -1.259,-1.007 -2.619,-1.814 -4.13,-2.419 0.302,-0.654 0.554,-1.259 0.856,-1.863 z"
   stroke-miterlimit="10" /><path
   style="fill:#1062a1;stroke:#1062a1;stroke-width:0.0938;stroke-miterlimit:10"
   inkscape:connector-curvature="0"
   id="path218"
   d="m 8.5122449,137.13835 c 0.806,0 1.6620001,0 2.4680001,0 -0.151,1.007 -0.302,1.964 -0.454,2.972 -1.0070001,-0.705 -1.6120001,-1.814 -2.0140001,-2.972 z"
   stroke-miterlimit="10" /><path
   style="fill:#522552;stroke:#522552;stroke-width:0.0938;stroke-miterlimit:10"
   inkscape:connector-curvature="0"
   id="path220"
   d="m 12.189245,151.19235 c 0.755,-0.102 1.461,-0.151 2.166,-0.252 -0.454,-0.555 -0.907,-1.109 -1.411,-1.612 1.31,-0.756 2.82,-1.309 3.929,-2.468 0.806,-1.209 1.007,-2.671 1.662,-3.979 0.554,-1.41 1.763,-2.469 2.872,-3.476 0.201,0.101 0.654,0.352 0.855,0.454 -0.049,-0.555 -0.15,-1.059 -0.201,-1.613 -0.503,-0.05 -0.957,-0.101 -1.46,-0.15 0.051,-0.252 0.151,-0.706 0.201,-0.957 v 0 c 0.655,0.302 1.36,0.453 2.066,0.705 0.654,-0.201 1.259,-0.503 1.964,-0.705 -0.152,0.604 -0.353,1.209 -0.504,1.813 0.403,0.504 0.755,1.007 1.108,1.46 -1.309,0 -2.669,0 -4.029,0 1.107,2.469 1.813,5.089 1.51,7.808 0.302,-0.05 0.806,-0.15 1.058,-0.2 0,-1.462 -0.05,-2.923 -0.05,-4.332 2.871,0.654 5.692,1.46 8.664,1.51 -0.403,0.454 -0.806,0.856 -1.209,1.311 2.67,1.512 5.592,3.425 8.765,2.519 2.568,-0.856 4.886,-2.418 7.102,-4.03 0.05,0.856 0.151,1.712 0.202,2.569 1.511,-0.857 3.021,-1.713 4.533,-2.569 -0.252,0.705 -0.504,1.359 -0.756,2.016 1.159,0.604 2.267,1.258 3.375,2.015 -0.101,-0.655 -0.252,-1.259 -0.353,-1.916 0.605,0.103 1.259,0.202 1.864,0.253 -0.05,-0.755 -0.101,-1.561 -0.202,-2.316 0.756,0.454 1.511,0.957 2.216,1.409 0.957,-0.2 1.964,-0.353 2.921,-0.553 -0.755,0.353 -1.461,0.755 -2.216,1.158 0.907,0 1.813,0 2.669,0 -0.302,0.706 -0.655,1.461 -0.957,2.165 2.771,-1.661 6.044,-1.511 9.067,-0.855 -3.022,0.453 -5.995,1.108 -8.916,1.965 -2.922,0.907 -5.944,0.402 -8.916,0.554 -2.065,0.101 -3.979,1.159 -5.944,1.763 -1.31,0.504 -2.62,-0.303 -3.829,-0.705 -0.755,0.353 -1.511,0.756 -2.266,1.007 -1.713,-0.352 -3.173,-1.863 -4.987,-1.562 -4.382,0.706 -9.117,0.857 -13.197,-1.158 -1.763,-0.906 -3.727,-1.208 -5.692,-1.26 0.806,0.605 1.562,1.159 2.368,1.764 -0.604,0.252 -1.259,0.505 -1.863,0.705 -0.152,0.555 -0.303,1.108 -0.454,1.613 -0.403,-0.152 -0.857,-0.304 -1.259,-0.404"
   stroke-miterlimit="10" /><path
   style="fill:#846688;stroke:#846688;stroke-width:0.0938;stroke-miterlimit:10"
   inkscape:connector-curvature="0"
   id="path222"
   d="m 79.936245,138.24535 c 1.311,-0.101 2.62,-0.2 3.98,-0.2 0.151,0.2 0.453,0.604 0.604,0.854 -1.51,-0.099 -3.072,-0.249 -4.584,-0.654 z"
   stroke-miterlimit="10" /><path
   style="fill:#b41736;stroke:#b41736;stroke-width:0.0938;stroke-miterlimit:10"
   inkscape:connector-curvature="0"
   id="path224"
   d="m 99.632245,140.91535 c 5.741995,0.101 11.232995,-1.662 16.722995,-2.972 1.158,-0.403 2.065,0.654 3.022,1.108 -1.813,0.855 -3.577,1.712 -5.591,1.863 -2.468,0.253 -4.785,1.159 -7.153,1.914 -3.022,0.101 -6.447,0.957 -9.065995,-1.107 0.705,-0.303 1.36,-0.553 2.065,-0.806 z"
   stroke-miterlimit="10" /><path
   style="fill:#cabcc7;stroke:#cabcc7;stroke-width:0.0938;stroke-miterlimit:10"
   inkscape:connector-curvature="0"
   id="path228"
   d="m 87.946245,143.68735 c 0.251,-0.555 1.511,-0.404 1.309,0.352 -0.302,0.503 -1.51,0.352 -1.309,-0.352 z"
   stroke-miterlimit="10" /><path
   style="fill:#b41736;stroke:#b41736;stroke-width:0.0938;stroke-miterlimit:10"
   inkscape:connector-curvature="0"
   id="path230"
   d="m 62.357245,147.46335 c 3.022,-1.46 6.347,-1.863 9.621,-2.064 -1.259,0.403 -2.519,0.906 -3.778,1.461 0.403,0.101 1.209,0.25 1.562,0.353 l 0.453,0.1 c -2.619,0.302 -5.238,0.402 -7.858,0.15 z"
   stroke-miterlimit="10" /><path
   style="fill:#1062a1;stroke:#1062a1;stroke-width:0.0938;stroke-miterlimit:10"
   inkscape:connector-curvature="0"
   id="path232"
   d="m 5.6912449,146.65835 c 0.303,-0.15 0.907,-0.452 1.209,-0.604 1.813,1.461 3.9290001,2.368 6.0440001,3.274 0.504,0.503 0.957,1.058 1.411,1.612 -0.705,0.101 -1.411,0.15 -2.166,0.252 -2.9220001,0.051 -4.6340001,-2.721 -6.4980001,-4.534 z"
   stroke-miterlimit="10" /><path
   style="fill:#846688;stroke:#846688;stroke-width:0.0938;stroke-miterlimit:10"
   inkscape:connector-curvature="0"
   id="path234"
   d="m 87.392245,146.45535 c 1.058,-0.302 1.964,0.354 2.921,0.654 -1.813,0.455 -3.576,1.159 -5.389,1.664 -1.461,0.2 -2.972,0.15 -4.483,0.252 2.266,-1.006 4.584,-1.964 6.951,-2.57 z"
   stroke-miterlimit="10" /><path
   style="fill:#1062a1;stroke:#1062a1;stroke-width:0.0938;stroke-miterlimit:10"
   inkscape:connector-curvature="0"
   id="path236"
   d="m 195.50824,97.597346 c 2.869,-1.008 32.67,-19.292 35.088,-21.055 0.051,1.511 0.15,2.569 0.1,4.08 -2.568,1.26 -31.48,19.645004 -34.354,20.299004 -0.051,-1.310004 -0.834,-1.108004 -0.834,-2.418004 z"
   stroke-miterlimit="10" />

</svg>