<?xml version="1.0" encoding="UTF-8" standalone="no"?>
<svg
   xmlns:dc="http://purl.org/dc/elements/1.1/"
   xmlns:cc="http://creativecommons.org/ns#"
   xmlns:rdf="http://www.w3.org/1999/02/22-rdf-syntax-ns#"
   xmlns:svg="http://www.w3.org/2000/svg"
   xmlns="http://www.w3.org/2000/svg"
   xmlns:sodipodi="http://sodipodi.sourceforge.net/DTD/sodipodi-0.dtd"
   xmlns:inkscape="http://www.inkscape.org/namespaces/inkscape"
   width="3.24444in"
   height="1.74444in"
   viewBox="0 0 292 157"
   version="1.1"
   id="svg3"
   sodipodi:docname="aladin.svg"
   inkscape:version="0.92.5 (2060ec1f9f, 2020-04-08)">
  <metadata
     id="metadata9">
    <rdf:RDF>
      <cc:Work
         rdf:about="">
        <dc:format>image/svg+xml</dc:format>
        <dc:type
           rdf:resource="http://purl.org/dc/dcmitype/StillImage" />
        <dc:title></dc:title>
      </cc:Work>
    </rdf:RDF>
  </metadata>
  <defs
     id="defs7" />
  <sodipodi:namedview
     pagecolor="#ffffff"
     bordercolor="#666666"
     borderopacity="1"
     objecttolerance="10"
     gridtolerance="10"
     guidetolerance="10"
     inkscape:pageopacity="0"
     inkscape:pageshadow="2"
     inkscape:window-width="2488"
     inkscape:window-height="1376"
     id="namedview5"
     showgrid="false"
     inkscape:zoom="2.8184786"
     inkscape:cx="129.19486"
     inkscape:cy="56.884023"
     inkscape:window-x="1992"
     inkscape:window-y="27"
     inkscape:window-maximized="1"
     inkscape:current-layer="svg3" />
  <path
     style="fill:#666666;fill-opacity:1;stroke:none;stroke-width:0.66582793;stroke-miterlimit:4;stroke-dasharray:none;stroke-dashoffset:0;stroke-opacity:1"
     d="M 26.915003,156.08801 C 14.872801,154.03192 3.0553858,142.70433 5.2365944,129.36094 8.7067776,108.13234 24.691815,91.51139 40.25445,77.967185 59.416946,61.290011 80.062394,46.001074 103.12051,34.915352 147.80393,13.432768 196.96695,0.03329798 246.16972,-0.67374988 259.08202,-0.85930067 277.13546,19.313818 276.099,36.404805 274.25385,66.830571 114.65952,171.06954 26.915003,156.08801 Z M 228.50735,72.658966 C 238.48796,65.628972 249.07664,56.09992 250.18425,43.139279 250.73769,26.995224 234.48101,15.499326 220.40012,14.199276 158.88306,8.5195719 77.857334,54.872847 44.971901,95.382816 36.54197,104.92502 19.254297,122.13917 30.198114,131.81397 68.081686,165.30468 172.11151,112.38225 228.50735,72.658966 Z"
     id="path819"
     inkscape:connector-curvature="0"
     sodipodi:nodetypes="sssssssacscsa" />
  <path
     style="fill:#666666;fill-opacity:1;stroke:none;stroke-width:0.66582793;stroke-miterlimit:4;stroke-dasharray:none;stroke-dashoffset:0;stroke-opacity:1"
     d="M 70.206122,125.63015 C 61.666371,124.73918 59.591948,113.47823 62.69991,106.66986 69.497123,91.779744 82.22035,80.539844 95.261819,71.171147 114.30926,57.487895 135.78674,47.315495 157.87606,39.605172 c 21.79568,-7.607824 44.8698,-13.993495 65.88258,-3.403811 12.14495,6.120617 -13.45541,29.478329 -24.03398,36.533389 -15.21778,10.149043 -30.66055,20.015369 -47.31694,27.7698 -23.03878,10.72577 -47.08285,19.602 -72.111151,24.07469 -3.33017,0.59512 -6.725265,1.40201 -10.090447,1.05091 z m 42.417598,-17.36764 c 27.64789,-7.94573 54.28989,-20.417971 76.94851,-38.152086 6.42948,-5.032134 9.80966,-16.835114 3.19062,-22.922795 -6.84627,-6.296668 -16.81486,-1.542637 -24.88183,-0.07665 -24.67747,4.484565 -50.40016,13.93808 -66.55876,34.186984 -4.801034,6.016344 -9.007244,13.710796 -7.741438,21.460067 1.384542,8.47618 12.707338,7.32526 19.042898,5.50448 z"
     id="path821"
     inkscape:connector-curvature="0"
     sodipodi:nodetypes="ssssssssssssssss" />
  <path
     style="fill:#666666;fill-opacity:1;stroke:none;stroke-width:0.66582793;stroke-miterlimit:4;stroke-dasharray:none;stroke-dashoffset:0;stroke-opacity:1"
     d="m 127.73997,88.122978 c -16.40921,-5.227071 26.53902,-31.350202 36.42443,-25.899607 16.01039,8.82777 -24.92546,29.562546 -36.42443,25.899607 z m 24.06488,-16.867567 c -6.20813,-1.787916 -12.59599,9.563608 -2.96153,6.892252 2.86152,-0.793416 9.28772,-5.070335 2.96153,-6.892252 z"
     id="path823"
     inkscape:connector-curvature="0"
     sodipodi:nodetypes="ssssss" />
</svg>
