<?xml version="1.0" encoding="UTF-8" standalone="no"?>
<!-- Generator: Adobe Illustrator 16.0.0, SVG Export Plug-In . SVG Version: 6.00 Build 0)  -->

<svg
   xmlns:dc="http://purl.org/dc/elements/1.1/"
   xmlns:cc="http://creativecommons.org/ns#"
   xmlns:rdf="http://www.w3.org/1999/02/22-rdf-syntax-ns#"
   xmlns:svg="http://www.w3.org/2000/svg"
   xmlns="http://www.w3.org/2000/svg"
   xmlns:sodipodi="http://sodipodi.sourceforge.net/DTD/sodipodi-0.dtd"
   xmlns:inkscape="http://www.inkscape.org/namespaces/inkscape"
   version="1.1"
   id="Calque_1"
   x="0px"
   y="0px"
   width="303.31042"
   height="158.74796"
   viewBox="0 0 303.31042 158.74796"
   enable-background="new 0 0 420 245"
   xml:space="preserve"
   sodipodi:docname="simbad.svg"
   inkscape:version="0.92.5 (2060ec1f9f, 2020-04-08)"><metadata
   id="metadata273"><rdf:RDF><cc:Work
       rdf:about=""><dc:format>image/svg+xml</dc:format><dc:type
         rdf:resource="http://purl.org/dc/dcmitype/StillImage" /><dc:title></dc:title></cc:Work></rdf:RDF></metadata><defs
   id="defs271">
	
	
	
	
	
	
	
	
	
	
	
	
	
	
	
	
	
	
	
	
	
	
	
	
	
	
	
	
	
	
	
	
	
	
	
	
	
	
	
	
	
	
	
	
	
	
	
	
	
	
	
	
	
	
	
	
	
	
	
	
	
		
	
	
	
	
	
	
		
	
	
	
	
	
	
	
	
	
	
	
	
	
	
	
	
	
	
	
	
	
	
	
	
	
	
	
	
	
	
	
	
	
	
	
	
	
	
	
	
	
	
	
	
	
	
	
	
	
	
	
	
	
	
	
	
	
</defs><sodipodi:namedview
   pagecolor="#ffffff"
   bordercolor="#666666"
   borderopacity="1"
   objecttolerance="10"
   gridtolerance="10"
   guidetolerance="10"
   inkscape:pageopacity="0"
   inkscape:pageshadow="2"
   inkscape:window-width="2488"
   inkscape:window-height="1376"
   id="namedview269"
   showgrid="false"
   fit-margin-top="0"
   fit-margin-left="0"
   fit-margin-right="0"
   fit-margin-bottom="0"
   inkscape:zoom="2.7245257"
   inkscape:cx="269.78263"
   inkscape:cy="149.44867"
   inkscape:window-x="1992"
   inkscape:window-y="27"
   inkscape:window-maximized="1"
   inkscape:current-layer="Calque_1" />
<path
   style="fill:#c5dde2;stroke:#c5dde2;stroke-width:0.0938;stroke-miterlimit:10"
   inkscape:connector-curvature="0"
   id="path2"
   d="m 199.84292,9.236525 c 0.509,-0.322 1.006,-0.721 1.573,-0.932 1.196,-0.031 2.434,0.452 3.635,-0.06 2.077,-0.773 4.278,-1.285 6.496,-1.439 0.632,-0.06 1.241,0.243 1.832,0.428 -0.347,0.096 -1.01,0.202 -1.322,0.252 l -0.358,0.017 c -1.708,-0.167 -3.482,-0.244 -5.041,0.525 -1.637,0.782 -3.356,1.297 -5.189,1.109 -0.559,0.01 -1.073,0.052 -1.626,0.1 z"
   stroke-miterlimit="10" /><path
   style="fill:#c5dde2;stroke:#c5dde2;stroke-width:0.0938;stroke-miterlimit:10"
   inkscape:connector-curvature="0"
   id="path4"
   d="m 225.47392,4.741525 c 2.494,-0.679 5.012,-0.961 7.531,-1.484 1.054,-0.168 2.173,-0.428 3.213,-0.193 0.603,0.264 0.948,0.93 1.382,1.381 -2.74,0.397 -5.467,0.874 -8.11,1.617 -1.733,0.437 -3.477,0.795 -5.235,1.076 -0.44,-0.25 -0.919,-0.494 -1.359,-0.744 0.184,-0.11 0.516,-0.283 0.698,-0.392 1.693,0.57 3.487,0.523 5.182,-0.148 -1.033,0.045 -2.028,0.084 -3.018,0.163 -0.051,-0.313 -0.195,-0.971 -0.284,-1.276 z"
   stroke-miterlimit="10" /><path
   style="fill:#69ac78;stroke:#69ac78;stroke-width:0.0938;stroke-miterlimit:10"
   inkscape:connector-curvature="0"
   id="path6"
   d="m 201.46792,9.137525 c 1.833,0.188 3.553,-0.328 5.189,-1.109 1.559,-0.769 3.333,-0.692 5.041,-0.525 -1.82,0.131 -3.637,0.541 -5.204,1.512 -1.251,0.44 -2.501,0.881 -3.735,1.438 -0.149,0.064 -0.449,0.192 -0.638,0.262 -1.032,0.565 -2.056,1.17 -3.151,1.585 -0.245,-0.281 -0.489,-0.563 -0.773,-0.837 -1.436,0.79 -2.884,1.501 -4.442,2.031 -0.14,-0.378 -0.241,-0.763 -0.337,-1.108 1.651,-0.704 3.3,-1.408 4.943,-2.151 1.159,-0.265 2.342,-0.374 3.52,-0.522 -0.103,-0.145 -0.309,-0.432 -0.413,-0.576 z"
   stroke-miterlimit="10" /><path
   style="fill:#69ac78;stroke:#69ac78;stroke-width:0.0938;stroke-miterlimit:10"
   inkscape:connector-curvature="0"
   id="path8"
   d="m 242.38992,2.598525 c 1.332,-0.693 2.777,-1.164 4.313,-1.33 2.857,-0.41600003 5.685,-1.26800002664 8.616,-1.21600003 1.384,-0.101 2.188,1.17200003 2.943,2.13300003 -0.813,0.17 -1.595,0.294 -2.369,0.459 -0.31,0.57 -0.574,1.173 -0.93,1.71 -0.898,0.384 -1.881,0.501 -2.812,0.689 -0.187,-0.411 -0.371,-0.822 -0.551,-1.194 -2.973,0.195 -5.892,0.221 -8.848,0.013 -0.108,-0.423 -0.254,-0.841 -0.362,-1.264 z"
   stroke-miterlimit="10" /><path
   style="fill:#0791a0;stroke:#0791a0;stroke-width:0.0938;stroke-miterlimit:10"
   inkscape:connector-curvature="0"
   id="path10"
   d="m 198.36092,10.234525 c 0.508,-0.321 1.019,-0.643 1.482,-0.998 0.553,-0.048 1.066,-0.09 1.625,-0.1 0.104,0.144 0.31,0.431 0.412,0.575 -1.178,0.149 -2.36,0.258 -3.519,0.523 z"
   stroke-miterlimit="10" /><path
   style="fill:#39a186;stroke:#39a186;stroke-width:0.0938;stroke-miterlimit:10"
   inkscape:connector-curvature="0"
   id="path12"
   d="m 206.49392,9.014525 c 1.567,-0.971 3.384,-1.381 5.204,-1.512 l 0.358,-0.017 c 3.658,0.336 7.378,-0.939 11.02,0.041 -1.272,0.564 -2.733,0.437 -4.063,0.649 -1.52,0.763 -2.923,1.749 -4.578,2.173 -0.002,-0.521 0.028,-1.085 0.058,-1.651 -2.696,-0.33 -5.364,0.016 -7.999,0.317 z"
   stroke-miterlimit="10" /><path
   style="fill:#69ac78;stroke:#69ac78;stroke-width:0.0938;stroke-miterlimit:10"
   inkscape:connector-curvature="0"
   id="path14"
   d="m 212.05692,7.485525 c 0.313,-0.05 0.976,-0.156 1.322,-0.252 1.638,-0.262 3.325,-0.491 4.971,-0.713 1.522,-0.244 3.04,0.234 4.545,-0.126 0.44,0.25 0.919,0.494 1.359,0.744 -0.378,0.141 -0.762,0.242 -1.178,0.389 -3.641,-0.981 -7.361,0.294 -11.019,-0.042 z"
   stroke-miterlimit="10" /><path
   style="fill:#8ac5e1;stroke:#8ac5e1;stroke-width:0.0938;stroke-miterlimit:10"
   inkscape:connector-curvature="0"
   id="path16"
   d="m 239.17592,4.033525 c 1.101,-0.375 2.178,-0.909 3.214,-1.435 0.108,0.423 0.254,0.841 0.363,1.264 2.956,0.208 5.875,0.183 8.848,-0.013 0.18,0.372 0.364,0.783 0.551,1.194 -2.142,0.382 -4.304,0.887 -6.526,0.763 -2.028,-0.157 -4.063,0.129 -6.055,0.447 -0.158,-0.737 -0.277,-1.479 -0.395,-2.22 z"
   stroke-miterlimit="10" /><path
   style="fill:#8ac5e1;stroke:#8ac5e1;stroke-width:0.0938;stroke-miterlimit:10"
   inkscape:connector-curvature="0"
   id="path18"
   d="m 202.75892,10.452525 c 1.234,-0.557 2.484,-0.998 3.735,-1.438 2.635,-0.301 5.303,-0.647 7.999,-0.317 -0.029,0.566 -0.06,1.131 -0.058,1.651 -0.521,0.003 -1,0 -1.521,0.003 -1.534,0.165 -3.051,0.447 -4.522,0.763 0.041,-0.247 0.096,-0.656 0.142,-0.864 0.932,-0.189 1.856,-0.417 2.774,-0.683 -2.896,-0.579 -5.681,0.787 -8.549,0.885 z"
   stroke-miterlimit="10" /><path
   style="fill:#6bb6bd;stroke:#6bb6bd;stroke-width:0.0938;stroke-miterlimit:10"
   inkscape:connector-curvature="0"
   id="path20"
   d="m 229.48992,6.061525 c 2.644,-0.743 5.37,-1.219 8.11,-1.617 0.508,-0.081 1.041,-0.247 1.576,-0.412 0.118,0.742 0.237,1.484 0.395,2.22 -0.275,0.284 -0.551,0.568 -0.778,0.885 -1.127,0.221 -2.305,0.368 -3.457,0.433 0.643,-0.743 1.55,-1.088 2.461,-1.395 -0.031,-0.195 -0.14,-0.618 -0.21,-0.807 -1.449,-0.049 -2.952,0.071 -4.389,0.341 -1.264,0.121 -2.492,0.198 -3.708,0.352 z"
   stroke-miterlimit="10" /><path
   style="fill:#ffffff;stroke:#ffffff;stroke-width:0.0938;stroke-miterlimit:10"
   inkscape:connector-curvature="0"
   id="path22"
   d="m 202.75892,10.452525 c 2.868,-0.098 5.653,-1.464 8.549,-0.885 -0.918,0.267 -1.843,0.494 -2.774,0.683 -0.657,0.145 -1.27,0.323 -1.927,0.468 -1.617,0.658 -3.285,1.246 -5.009,1.48 0.165,-0.466 0.364,-0.979 0.523,-1.484 0.189,-0.07 0.489,-0.198 0.638,-0.262 z"
   stroke-miterlimit="10" /><path
   style="fill:#39a186;stroke:#39a186;stroke-width:0.0938;stroke-miterlimit:10"
   inkscape:connector-curvature="0"
   id="path24"
   d="m 198.19692,11.462525 c 0.284,0.274 0.528,0.556 0.773,0.837 -1.271,0.563 -2.484,1.237 -3.66,1.906 -1.105,0.096 -2.179,0.148 -3.257,0.16 l -0.306,-0.151 c 0.641,-0.263 1.324,-0.492 2.007,-0.722 1.559,-0.529 3.007,-1.241 4.443,-2.03 z"
   stroke-miterlimit="10" /><path
   style="fill:#8ac5e1;stroke:#8ac5e1;stroke-width:0.0938;stroke-miterlimit:10"
   inkscape:connector-curvature="0"
   id="path26"
   d="m 198.96992,12.299525 c 1.096,-0.415 2.119,-1.02 3.151,-1.585 -0.159,0.505 -0.358,1.019 -0.523,1.484 1.724,-0.234 3.392,-0.822 5.009,-1.48 0.278,0.235 0.55,0.433 0.829,0.668 -2.592,1.335 -5.505,1.641 -8.342,1.934 -0.037,-0.234 -0.08,-0.747 -0.124,-1.021 z"
   stroke-miterlimit="10" /><path
   style="fill:#0791a0;stroke:#0791a0;stroke-width:0.0938;stroke-miterlimit:10"
   inkscape:connector-curvature="0"
   id="path28"
   d="m 88.865923,102.87652 c -0.707,0.594 -1.406,1.225 -2.105,1.857 -1.355,1.297 -2.186,3.113 -3.682,4.273 -0.325,-0.027 -0.93,-0.055 -1.248,-0.041 0.381,-0.623 0.756,-1.281 1.137,-1.904 -1.318,0.771 -2.573,1.691 -3.975,2.438 -1.997,1.039 -4.558,2.051 -5.211,4.477 -0.118,0.018 -0.28,0.006 -0.443,-0.01 -0.931,1.189 -2.364,1.74 -3.747,2.361 -2.294,1.93 -4.893,3.465 -7.136,5.465 -0.424,0.348 -0.883,0.742 -1.308,1.092 -0.242,-0.764 -0.529,-1.559 -0.777,-2.359 -0.066,0.09 -0.275,0.283 -0.341,0.373 -1.246,0.721 -2.441,1.512 -3.861,1.898 -0.239,-0.24 -0.472,-0.445 -0.71,-0.686 0.188,-0.832 0.375,-1.662 0.518,-2.525 -2.439,1.029 -5.04,2.045 -6.465,4.395 -2.892,1.705 -5.358,4.061 -8.198,5.836 -0.177,0.146 -0.575,0.412 -0.751,0.561 -2.56,1.77 -4.573,4.213 -6.888,6.266 -1.764,1.244 -3.281,2.766 -4.949,4.113 0.057,-0.646 0.119,-1.26 0.221,-1.877 -1.131,0.943 -2.255,1.924 -3.142,3.145 -1.02,-0.117 -2.067,-0.148 -3.119,-0.223 0.421,-0.625 0.802,-1.248 1.183,-1.867 -0.58,0.131 -1.192,0.309 -1.771,0.441 -0.117,-0.982 -0.233,-1.967 -0.357,-2.984 -1.089,0.453 -2.223,0.873 -3.33,1.211 0.362,-0.738 0.771,-1.443 1.178,-2.15 -0.979,-0.363 -1.925,-0.773 -2.904,-1.137 0.002,-0.482 -0.033,-0.957 -0.069,-1.432 2.905,-0.865 5.148,-2.865 7.668,-4.389 -0.125,-0.781 -0.25,-1.563 -0.375,-2.342 -2.082,1.252 -4.499,1.92 -6.568,3.25 -1.909,1.588 -3.766,3.244 -5.204,5.277 -0.304,-0.152 -0.842,-0.508 -1.152,-0.697 0.564,-0.73 1.089,-1.455 1.659,-2.148 0.916,-0.785 1.774,-1.684 2.638,-2.543 4.156,-4.068 9.046,-7.291 13.543,-10.973 1.026,-0.844 2.316,-1.291 3.586,-1.615 0.997,-0.277 2.044,-0.486 2.913,-1.064 1.104,-0.859 2.215,-1.676 3.422,-2.391 1.75,-1.078 3.712,-1.834 5.403,-3.025 1.248,-0.961 2.399,-2.025 3.551,-3.09 1.67,-1.83 4.279,-3.047 4.959,-5.557 1.209,-2.956995 3.816,-4.935995 5.705,-7.399995 1.765,-1.482 3.8,-2.529 5.681,-3.789 1.267,-0.846 11.582,-11.102 12.989,-11.566 1.377,1.1 5.393,10.365 6.214,11.998 0.18,1.373 1.518,2.219 1.736,3.586 l 1.183,1.033 c -0.604,0.977 -0.909,-0.697 -1.559,0.248 -0.746,0.6 2.68,0.756 1.75,0.945 -3.151,0.584 -6.02,12.108995 -9.119,12.765995 l -17.4,1.779 c 0.245,2.285 -0.903,-4.398 -0.971,-2.064 -0.352,1.059 -1.673,1.311 -2.612,1.701 -1.454,0.674 -3.291,0.205 -4.604,1.254 -1.966,1.477 -3.882,3.023 -5.57,4.736 l -0.209,0.193 c -2.745,2.121 -5.206,4.516 -7.905,6.668 -0.928,0.709 -1.817,1.412 -2.557,2.291 -1.139,0.143 -2.284,0.244 -3.389,0.342 0.812,-0.932 1.669,-1.83 2.579,-2.654 1.656,-1.666 2.892,-3.707 4.315,-5.576 -2.254,0.68 -3.956,2.314 -5.534,3.967 -1.857,1.658 -3.657,3.428 -5.611,4.982 -1.313,1.051 -2.434,2.313 -3.062,3.893 0.407,0.293 0.776,0.598 1.184,0.893 -1.047,0.967 -1.997,2.041 -2.85,3.217 2.332,-0.691 4.248,-2.24 5.619,-4.18 0.71,-1.074 1.748,-1.842 3.023,-2.127 0.089,0.307 0.268,0.918 0.356,1.227 -1.522,2.004 -3.567,3.492 -5.566,5.014 -0.764,0.482 -0.698,1.393 -0.814,2.174 1.029,-0.328 2.214,-0.436 3.018,-1.164 1.067,-1.094 1.584,-2.617 2.748,-3.602 1.413,-1.188 3.404,-1.506 4.764,-2.766 1.321,-1.252 2.553,-2.57 3.926,-3.75 2.248,-1.721 4.689,-3.232 7.316,-4.332 2.861,-1.139 5.358,-3.059 7.485,-5.281 3.188,-0.35 4.621,-3.66 7.444,-4.793 3.74,-1.4 7.835,-1.33 11.666,-2.426 1.948,-0.59 3.878,-1.539 5.235,-3.076 2.227,-2.602 3.582,-5.898 3.793,-9.337995 0.309,-1.33 0.09,-2.697 -0.618,-3.865 -1.734,-4.088 -4.362,-7.752 -7.802,-10.486 -0.003,-0.52 -0.232,-1.203 0.271,-1.564 3.08,-2.535 5.752,-5.605 9.264,-7.686 0.124,1.02 -4.189,3.135 0,0 2.659,-1.992 6.388,-4.604 9.086,-6.539 2.559,-1.835 0.425,2.656 0,0 1.86,-1.139 3.509,-2.602 5.118,-4.061 2.433997,-2.312 5.203997,-4.275 7.778997,-6.449 3.491,-2.96 7.51,-5.124 11.169,-7.791 1.809,-1.209 3.515,-2.563 5.381,-3.663 4.652,-2.464 9.239,-5.08 13.956,-7.396 1.441,-0.751 3.106,-0.856 4.446,-1.751 3.116,-2.3 6.772,-3.725 10.338,-5.216 0.334,0.587 0.629,1.182 0.918,1.736 3.109,-1.338 6.129,-2.741 9.13,-4.262 -0.427,-0.413 -0.858,-0.864 -1.284,-1.276 1.301,-1.129 2.871,-1.821 4.449,-2.472 1.174,-0.428 1.027,-2.087 2.099,-2.659 2.504,-1.361 5.202,-2.272 7.836,-3.334 1.394,-0.302 2.896,-0.422 4.198,0.21 -0.582,0.373 -1.156,0.785 -1.686,1.23 0.967,0.286 1.921,0.494 2.914,0.695 -0.124,-0.781 -0.287,-1.555 -0.412,-2.337 2.346,-1.096 4.943,-1.63 7.351,-2.615 1.015,-0.403 2.026,-0.845 3.056,-1.169 0.684,-0.229 1.335,-0.414 2.025,-0.604 1.078,-0.012 2.152,-0.063 3.259,-0.16 -0.842,0.495 -1.677,1.028 -2.475,1.557 0.916,0.214 1.89,0.298 2.762,-10e-4 0.545,0.394 1.05,0.793 1.651,1.057 1.515,-0.041 2.957,-0.552 4.427,-0.867 0.031,0.195 0.1,0.624 0.131,0.819 -1.777,0.404 -3.589,1.095 -4.848,2.496 1.015,0.079 2.016,0.079 2.979,-0.155 3.126,-0.74 6.358,-1.056 9.33,-2.251 1.84,-0.775 3.818,-1.171 5.49,-2.239 0.312,-0.81 0.413,-1.667 0.563,-2.492 0.392,-0.303 0.789,-0.567 1.188,-0.831 -0.692,-0.33 -1.386,-0.66 -2.073,-0.95 v 0 c 1.653,-0.425 3.059,-1.41 4.578,-2.174 1.328,-0.212 2.789,-0.085 4.062,-0.648 0.417,-0.147 0.801,-0.248 1.179,-0.389 0.829,0.428 1.677,0.973 2.596,0.707 2.2,-0.512 4.351,-1.096 6.347,-2.135 1.438,-0.27 2.941,-0.39 4.39,-0.341 0.071,0.189 0.179,0.612 0.209,0.808 -0.911,0.306 -1.817,0.651 -2.459,1.394 1.15,-0.063 2.328,-0.212 3.455,-0.432 1.119,-0.259 2.228,-0.596 3.404,-0.745 1.932,-0.188 3.858,0.585 5.74,0.084 2.154,-0.544 4.317,-1.05 6.502,-1.159 -0.487,0.718 -0.973,1.437 -1.419,2.149 1.389,0.418 2.807,0.272 4.213,0.047 0.272,-0.044 0.826,-0.092 1.06,-0.129 1.503,0.881 3.354,1.186 5.034,0.677 0.959,-0.514 1.454,-1.674 2.574,-1.933 0.496,-0.159 0.997,-0.279 1.536,-0.406 0.424,-0.108 0.887,-0.222 1.342,-0.374 1.305,1.393 3.178,1.333 4.907,1.137 0.636,0.219 1.234,0.444 1.868,0.664 2.411,1.057 5.062,1.354 7.672,0.896 2.672,0.934 5.574,1.553 8.08,2.954 -1.412,0.186 -2.805,0.487 -4.109,1.097 0.912,0.695 1.851,1.306 2.696,2.091 -0.375,0.661 -1.072,1.053 -1.635,1.543 1.31,0.431 2.763,0.759 3.737,1.845 1.163,1.256 2.291,2.558 3.624,3.626 0.201,-0.232 0.563,-0.73 0.767,-0.963 0.837,1.228 1.869,2.424 3.092,3.311 0.13,-0.942 0.526,-1.967 -0.092,-2.83 -1.24,-2.003 -2.423,-4.137 -4.023,-5.884 0.137,-0.143 0.412,-0.427 0.551,-0.569 2.301,1.875 3.615,4.589 5.95,6.418 l 1.403,8.786 c -0.583,-0.146 -1.129,-0.3 -1.713,-0.447 -0.111,2.06 -0.626,4.104 -0.372,6.186 0.534,2.598 -1.494,4.684 -2.957,6.56 -1.325,0.732 -2.448,1.712 -3.575,2.692 -0.908,0.826 -2.187,1.351 -2.766,2.485 0.004,1.28 1.436,1.973 2.145,2.899 -0.061,0.371 -0.122,0.741 -0.143,1.104 0.435,-0.029 0.877,-0.02 1.357,-0.018 -0.791,0.809 -1.635,1.544 -2.479,2.279 -1.347,1.096 -2.125,2.742 -3.51,3.845 -2.047,1.729 -3.933,3.712 -6.223,5.158 0.257,-0.642 0.554,-1.288 0.889,-1.943 -0.362,-0.263 -0.73,-0.563 -1.093,-0.826 -0.556,0.528 -1.123,0.98 -1.59,1.575 -0.229,1.077 0.063,2.152 0.154,3.219 -0.816,0.411 -1.624,0.86 -2.382,1.381 -2.097,1.416 -3.988,3.119 -6.089,4.498 -2.175,1.428 -4.047,3.25 -5.925,5.031 -0.26,-0.119 -0.771,-0.316 -1.024,-0.396 1.04,-1.008 1.933,-2.191 2.617,-3.422 -1.898,0.904 -3.429,2.35 -5.28,3.285 -2.486,1.24 -4.114,3.582 -6.554,4.852 -1.586,0.855 -3.12,1.781 -4.487,3.002 -1.261,1.119 -2.835,2.053 -3.579,3.654 -0.292,-0.316 -0.574,-0.59 -0.858,-0.865 1.218,-1.635 2.626,-3.104 4.383,-4.145 1.397,-1.023 3.416,-1.668 3.839,-3.535 -1.624,-0.143 -2.645,1.744 -4.334,1.691 0.882,-1.742 2.839,-2.533 4.096,-3.936 1.723,-1.998 4.124,-3.262 5.938,-5.193 1.058,-0.65 1.83,-1.574 2.078,-2.775 -0.724,0.234 -1.452,0.431 -2.053,0.927 -0.107,0.578 -0.048,1.211 -0.025,1.848 -2.386,0.861 -4.075,2.813 -6.081,4.295 -0.526,-0.275 -1.089,-0.547 -1.614,-0.824 1.998,-1.281 4.256,-2.441 5.213,-4.717 -1.064,0.611 -2.082,1.254 -3.146,1.863 -0.031,-0.193 -0.049,-0.551 -0.08,-0.746 0.061,-0.131 0.14,-0.383 0.198,-0.514 1.538,-1.406 2.752,-3.083 3.79,-4.851 -0.803,0.489 -1.572,0.934 -2.381,1.384 -0.068,-0.67 -0.14,-1.381 -0.168,-2.057 0.002,-0.48 0.051,-0.929 0.06,-1.371 1.909,-1.345 3.888,-2.743 5.452,-4.476 1.967,-0.475 3.614,-1.698 5.29,-2.728 1.346,-0.855 2.756,0.201 3.941,0.853 -0.063,0.611 -0.119,1.26 -0.176,1.91 0.79,-0.566 1.672,-1.067 2.224,-1.877 0.54,-1.128 0.496,-2.402 0.745,-3.603 0.302,-2.371 2.886,-3.746 2.934,-6.195 -0.324,-1.79 -1.784,-3.159 -2.346,-4.911 0.57,0.309 1.141,0.619 1.672,0.934 -0.271,-1.198 -0.498,-2.363 -0.77,-3.561 0.932,-0.43 1.896,-0.663 2.899,-0.903 0.459,-1.636 0.704,-3.356 0.358,-5.023 -0.266,-1.159 -0.112,-2.705 -1.337,-3.351 -1.197,-0.73 -2.342,-1.628 -3.441,-2.493 -0.472,-0.446 -1.154,-0.457 -1.797,-0.474 -2.819,0.411 -5.245,-1.243 -7.629,-2.385 -0.947,-0.41 -1.385,0.862 -1.947,1.353 -0.648,-0.297 -1.296,-0.595 -1.945,-0.891 0.467,-0.596 0.926,-1.229 1.341,-1.896 -2.111,-0.184 -4.195,-0.692 -6.32,-0.953 -2.956,-0.209 -5.74,1.157 -8.674,1.105 -3.808,-0.032 -7.525,0.763 -11.253,1.238 -3.026,0.364 -5.803,1.528 -8.58,2.692 -2.021,0.883 -4.24,1.038 -6.299,1.687 0.383,0.14 0.76,0.24 1.142,0.378 -2.672,0.308 -5.144,1.383 -7.576,2.452 -2.49,0.958 -5.082,1.772 -7.502,2.921 -2.199,0.271 -4.398,0.542 -6.466,1.393 -1.954,0.793 -4.052,1.208 -5.931,2.229 2.18,-0.147 4.327,-0.49 6.487,-0.755 -3.045,0.486 -6.234,0.835 -8.993,2.357 -0.908,0.586 -1.383,1.623 -1.921,2.51 -1.087,-0.027 -2.184,-0.132 -3.149,0.342 -2.483,0.998 -4.93,2.23 -7.125,3.782 -1.058,0.649 -0.905,2.106 -1.425,3.11 -0.575,1.413 -2.164,1.748 -3.389,2.344 -1.839,0.774 -3.453,1.953 -5.355,2.578 -1.031,-0.437 -2.121,-0.742 -3.181,-0.854 0.028,-0.326 0.099,-0.896 0.132,-1.183 0.893,-0.182 1.816,-0.41 2.709,-0.593 -0.066,-0.67 -0.129,-1.302 -0.189,-1.932 -2.133,-0.061 -4.336,0.172 -6.133,1.46 1.068,0.671 2.203,1.25 3.361,1.746 -1.482,0.236 -2.948,0.591 -4.375,0.938 -2.669,0.587 -5.362,1.018 -8.07,1.37 -0.877,0.02 -1.723,-0.006 -2.605,-0.023 0.713,-0.796 1.414,-1.668 1.98,-2.64 -3.547,0.606 -6.326,3.013 -9.38,4.702 -0.563,0.73 -0.369,1.7 -0.349,2.579 1.05,-0.448 2.093,-0.937 3.097,-1.417 0.319,1.991 0.676,3.978 1,6.008 -2.108,0.336 -4.071,1.091 -5.75,2.36"
   stroke-miterlimit="10" /><path
   style="fill:#0791a0;stroke:#0791a0;stroke-width:0.0938;stroke-miterlimit:10"
   inkscape:connector-curvature="0"
   id="path30"
   d="m 102.71192,86.528525 c 0.031,0.195 0.081,0.506 0.106,0.664 0.196,1.73 0.465,3.408 0.739,5.127 -1.983,1.119 -3.870997,2.34 -5.848997,3.498 -0.759,-5.006 -1.636,-9.99 -2.552,-14.971 l -0.056,-0.352"
   stroke-miterlimit="10" /><path
   style="fill:#39a186;stroke:#39a186;stroke-width:0.0938;stroke-miterlimit:10"
   inkscape:connector-curvature="0"
   id="path32"
   d="m 224.25392,7.138525 c 1.759,-0.281 3.502,-0.64 5.235,-1.076 1.217,-0.154 2.444,-0.231 3.708,-0.353 -1.998,1.04 -4.147,1.624 -6.348,2.136 -0.917,0.266 -1.765,-0.279 -2.595,-0.707 z"
   stroke-miterlimit="10" /><path
   style="fill:#39a186;stroke:#39a186;stroke-width:0.0938;stroke-miterlimit:10"
   inkscape:connector-curvature="0"
   id="path34"
   d="m 255.89292,2.643525 c 0.774,-0.165 1.556,-0.289 2.369,-0.459 0.664,-0.106 1.334,-0.173 2.05,-0.207 1.281,0.756 2.682,2.254 4.332,1.55 0.188,-0.071 0.533,-0.166 0.684,-0.229 0.115,0.222 0.313,0.71 0.43,0.932 0.746,0.161 1.484,0.284 2.188,0.411 -0.178,0.389 -0.361,0.74 -0.509,1.083 -0.539,0.127 -1.041,0.246 -1.536,0.406 -1.119,0.259 -1.615,1.419 -2.574,1.933 -1.68,0.508 -3.532,0.204 -5.033,-0.678 1.606,-0.216 3.464,0.127 4.85,-0.974 -0.212,-0.328 -0.523,-0.518 -0.861,-0.625 -1.679,-0.492 -3.41,-0.296 -5.081,-0.229 0.021,0.637 0.01,1.32 0.032,1.958 -1.405,0.224 -2.825,0.371 -4.212,-0.048 0.446,-0.712 0.932,-1.431 1.418,-2.149 -2.186,0.109 -4.347,0.615 -6.502,1.159 -1.882,0.502 -3.809,-0.272 -5.74,-0.083 -1.178,0.148 -2.284,0.485 -3.403,0.744 0.228,-0.316 0.503,-0.601 0.778,-0.885 1.991,-0.318 4.026,-0.604 6.055,-0.447 2.223,0.125 4.385,-0.38 6.526,-0.763 0.931,-0.188 1.913,-0.306 2.812,-0.689 0.353,-0.538 0.617,-1.141 0.927,-1.711 z"
   stroke-miterlimit="10" /><path
   style="fill:#c5dde2;stroke:#c5dde2;stroke-width:0.0938;stroke-miterlimit:10"
   inkscape:connector-curvature="0"
   id="path36"
   d="m 186.95192,14.019525 c 1.577,-0.653 3.374,-0.94 4.795,0.195 l 0.306,0.151 c -0.69,0.19 -1.342,0.375 -2.026,0.604 -0.19,-0.45 -0.424,-0.894 -0.621,-1.382 -0.82,0.131 -1.634,0.301 -2.454,0.432 z"
   stroke-miterlimit="10" /><path
   style="fill:#6bb6bd;stroke:#6bb6bd;stroke-width:0.0938;stroke-miterlimit:10"
   inkscape:connector-curvature="0"
   id="path38"
   d="m 206.60692,10.719525 c 0.657,-0.146 1.27,-0.323 1.927,-0.468 -0.046,0.208 -0.101,0.617 -0.142,0.864 1.472,-0.315 2.988,-0.598 4.522,-0.763 0.188,1.412 0.326,2.791 0.356,4.228 -0.488,-1.043 -0.78,-2.118 -1.078,-3.231 -0.354,0.537 -0.708,1.074 -1.069,1.573 -0.297,-0.354 -0.593,-0.707 -0.846,-1.027 -0.893,0.423 -1.74,0.879 -2.646,1.224 -1.284,0.485 -2.699,0.151 -3.997,0.558 -1.139,0.383 -2.139,1.144 -3.336,1.415 -0.873,0.06 -1.67,-0.173 -2.509,-0.16 -0.782,0.125 -1.474,0.556 -2.19,0.831 -0.872,0.3 -1.846,0.215 -2.762,0 0.797,-0.528 1.632,-1.062 2.473,-1.556 1.176,-0.669 2.389,-1.343 3.66,-1.906 0.044,0.273 0.087,0.787 0.124,1.021 2.837,-0.293 5.75,-0.598 8.342,-1.934 -0.279,-0.237 -0.551,-0.434 -0.829,-0.669 z"
   stroke-miterlimit="10" /><path
   style="fill:#69ac78;stroke:#69ac78;stroke-width:0.0938;stroke-miterlimit:10"
   inkscape:connector-curvature="0"
   id="path40"
   d="m 260.31192,1.977525 c 1.11,-0.058 2.262,-0.122 3.373,-0.179 0.336,0.588 0.63,1.181 0.959,1.729 -1.651,0.705 -3.051,-0.793 -4.332,-1.55 z"
   stroke-miterlimit="10" /><path
   style="fill:#39a186;stroke:#39a186;stroke-width:0.0938;stroke-miterlimit:10"
   inkscape:connector-curvature="0"
   id="path42"
   d="m 179.32492,17.159525 c 2.427,-1.349 5.054,-2.209 7.628,-3.14 0.819,-0.131 1.634,-0.302 2.453,-0.433 0.197,0.489 0.431,0.933 0.621,1.382 -1.029,0.325 -2.04,0.766 -3.057,1.168 0.086,-0.213 0.265,-0.602 0.396,-0.784 -2.79,0.088 -5.277,1.566 -8.041,1.807 z"
   stroke-miterlimit="10" /><path
   style="fill:#39a186;stroke:#39a186;stroke-width:0.0938;stroke-miterlimit:10"
   inkscape:connector-curvature="0"
   id="path44"
   d="m 212.91392,10.351525 c 0.521,-0.003 1.001,0 1.521,-0.003 0.688,0.29 1.381,0.62 2.074,0.95 -0.397,0.264 -0.796,0.528 -1.188,0.831 -0.149,0.824 -0.253,1.682 -0.563,2.492 -1.671,1.068 -3.65,1.465 -5.489,2.239 -2.972,1.195 -6.205,1.512 -9.331,2.251 -0.964,0.234 -1.966,0.234 -2.979,0.156 1.257,-1.403 3.07,-2.092 4.847,-2.496 -0.031,-0.196 -0.099,-0.625 -0.131,-0.821 -1.47,0.316 -2.911,0.825 -4.426,0.868 -0.603,-0.264 -1.107,-0.664 -1.651,-1.057 0.717,-0.275 1.408,-0.706 2.19,-0.831 0.839,-0.014 1.636,0.219 2.509,0.16 1.197,-0.271 2.197,-1.032 3.336,-1.415 1.298,-0.407 2.713,-0.072 3.997,-0.558 0.906,-0.345 1.754,-0.801 2.646,-1.224 0.253,0.32 0.549,0.673 0.846,1.027 0.361,-0.499 0.715,-1.036 1.069,-1.573 0.298,1.114 0.59,2.188 1.078,3.231 -0.028,-1.436 -0.167,-2.815 -0.355,-4.227 z"
   stroke-miterlimit="10" /><path
   style="fill:#69ac78;stroke:#69ac78;stroke-width:0.0938;stroke-miterlimit:10"
   inkscape:connector-curvature="0"
   id="path46"
   d="m 179.32492,17.159525 c 2.765,-0.242 5.251,-1.72 8.041,-1.806 -0.131,0.182 -0.31,0.571 -0.396,0.784 -2.405,0.986 -5.003,1.521 -7.351,2.617 -0.188,0.07 -0.594,0.294 -0.814,0.411 -1.303,-0.633 -2.806,-0.513 -4.199,-0.21 1.532,-0.686 3.109,-1.338 4.719,-1.796 z"
   stroke-miterlimit="10" /><path
   style="fill:#69ac78;stroke:#69ac78;stroke-width:0.0938;stroke-miterlimit:10"
   inkscape:connector-curvature="0"
   id="path48"
   d="m 265.32692,3.298525 c 2.989,-0.838 6.133,-0.459 9.126,0.224 -1.992,0.318 -3.882,1.021 -5.675,1.827 -0.456,0.154 -0.919,0.267 -1.343,0.375 0.147,-0.343 0.331,-0.694 0.509,-1.083 -0.703,-0.127 -1.441,-0.25 -2.188,-0.411 -0.115,-0.221 -0.313,-0.71 -0.429,-0.932 z"
   stroke-miterlimit="10" /><path
   style="fill:#69ac78;stroke:#69ac78;stroke-width:0.0938;stroke-miterlimit:10"
   inkscape:connector-curvature="0"
   id="path50"
   d="m 257.19992,5.558525 c 1.671,-0.067 3.402,-0.263 5.081,0.229 0.338,0.106 0.649,0.297 0.861,0.625 -1.386,1.102 -3.243,0.758 -4.85,0.974 -0.234,0.038 -0.787,0.086 -1.061,0.13 -0.022,-0.638 -0.011,-1.321 -0.031,-1.958 z"
   stroke-miterlimit="10" /><path
   style="fill:#39a186;stroke:#39a186;stroke-width:0.0938;stroke-miterlimit:10"
   inkscape:connector-curvature="0"
   id="path52"
   d="m 178.80492,19.165525 c 0.221,-0.116 0.626,-0.34 0.814,-0.411 0.125,0.781 0.289,1.556 0.414,2.336 -0.994,-0.201 -1.948,-0.409 -2.916,-0.695 0.531,-0.444 1.106,-0.857 1.688,-1.23 z"
   stroke-miterlimit="10" /><path
   style="fill:#c5dde2;stroke:#c5dde2;stroke-width:0.0938;stroke-miterlimit:10"
   inkscape:connector-curvature="0"
   id="path54"
   d="m 273.68592,6.488525 c 1.329,-0.453 2.686,-0.99 4.114,-0.817 -0.776,0.404 -1.535,0.926 -2.246,1.48 -0.636,-0.22 -1.234,-0.444 -1.868,-0.663 z"
   stroke-miterlimit="10" /><path
   style="fill:#69ac78;stroke:#69ac78;stroke-width:0.0938;stroke-miterlimit:10"
   inkscape:connector-curvature="0"
   id="path56"
   d="m 228.17192,14.120525 c 4.981,-1.917 10.39,-1.901 15.635,-1.657 3.621,-0.138 7.135,-1.46 10.8,-1.325 2.124,0.261 4.311,-0.088 6.38,0.583 1.39,0.178 2.767,0.279 4.138,0.58 -1.472,0.316 -2.943,0.631 -4.389,1.102 -2.495,-0.322 -5.031,-0.157 -7.567,0.007 -2.939,-0.091 -5.918,0.305 -8.808,0.767 -1.295,0.167 -2.437,0.79 -3.579,1.412 -1.934,0.43 -4.083,1.013 -5.94,-0.092 0.517,-0.522 1.073,-1.052 1.603,-1.498 0.354,-0.296 0.712,-0.554 1.033,-0.805 -2.576,0.171 -5.146,0.622 -7.667,1.144 -0.534,0.167 -1.086,-0.026 -1.639,-0.218 z"
   stroke-miterlimit="10" /><path
   style="fill:#69ac78;stroke:#69ac78;stroke-width:0.0938;stroke-miterlimit:10"
   inkscape:connector-curvature="0"
   id="path58"
   d="m 275.55392,7.150525 c 0.711,-0.554 1.47,-1.076 2.246,-1.48 1.902,0.376 4.358,0.465 5.424,2.376 -2.609,0.458 -5.26,0.16 -7.67,-0.896 z"
   stroke-miterlimit="10" /><path
   style="fill:#39a186;stroke:#39a186;stroke-width:0.0938;stroke-miterlimit:10"
   inkscape:connector-curvature="0"
   id="path60"
   d="m 233.60692,14.292525 c 0.938,-0.15 1.881,-0.26 2.837,-0.293 -0.529,0.445 -1.086,0.975 -1.603,1.498 1.857,1.104 4.007,0.522 5.94,0.092 1.164,0.015 2.34,0.107 3.497,0.082 -2.564,0.491 -5.124,1.26 -7.733,1.476 -1.612,0.178 -3.303,0.128 -4.803,0.768 -0.756,0.281 -1.028,1.086 -1.369,1.7 -1.721,0.516 -3.489,0.718 -5.171,1.227 -3.055,0.929 -6.379,0.419 -9.339,1.693 -1.345,0.615 -2.796,0.807 -4.23,0.596 0.433,-0.549 0.705,-1.354 1.486,-1.479 1.783,-0.366 3.638,-0.541 5.326,-1.252 2.659,-1.146 5.777,-0.923 8.228,-2.636 -1.718,-0.727 -3.516,0.802 -5.192,-0.172 2.772,-1.684 6.238,-1.557 9.287,-0.763 1.006,0.28 2.028,0.157 3.037,-0.044 -0.053,-0.834 -0.105,-1.666 -0.198,-2.493 z"
   stroke-miterlimit="10" /><path
   style="fill:#39a186;stroke:#39a186;stroke-width:0.0938;stroke-miterlimit:10"
   inkscape:connector-curvature="0"
   id="path62"
   d="m 209.40392,19.201525 c 2.18,-0.389 4.713,-1.834 6.776,-0.442 -1.374,1.421 -3.449,1.472 -5.275,1.563 -0.809,0.21 -1.101,-0.624 -1.501,-1.121 z"
   stroke-miterlimit="10" /><path
   style="fill:#0791a0;stroke:#0791a0;stroke-width:0.0938;stroke-miterlimit:10"
   inkscape:connector-curvature="0"
   id="path64"
   d="m 240.78192,15.589525 c 1.143,-0.623 2.284,-1.245 3.579,-1.412 2.89,-0.462 5.868,-0.858 8.808,-0.767 2.536,-0.165 5.072,-0.33 7.567,-0.007 -1.861,1.138 -4.063,0.889 -6.164,1.025 -3.429,0.347 -6.862,0.656 -10.293,1.244 -1.158,0.024 -2.333,-0.068 -3.497,-0.083 z"
   stroke-miterlimit="10" /><path
   style="fill:#39a186;stroke:#39a186;stroke-width:0.0938;stroke-miterlimit:10"
   inkscape:connector-curvature="0"
   id="path66"
   d="m 260.98692,11.720525 c 0.964,-0.234 1.915,-0.546 2.91,-0.584 1.398,-0.023 2.646,0.778 3.8,1.476 -1.84,1.015 -3.999,1.038 -6.017,1.441 -0.112,0.298 -0.22,0.635 -0.332,0.934 0.933,0.572 1.623,1.383 2.064,2.394 -2.435,0.548 -5.11,1.096 -7.496,-0.044 -1.54,-0.875 -3.396,-0.458 -4.991,-1.165 1.234,-0.558 2.408,-1.226 3.646,-1.744 2.101,-0.136 4.303,0.113 6.164,-1.025 1.445,-0.471 2.917,-0.786 4.389,-1.102 -1.371,-0.302 -2.748,-0.403 -4.137,-0.581 z"
   stroke-miterlimit="10" /><path
   style="fill:#ffffff;stroke:#ffffff;stroke-width:0.0938;stroke-miterlimit:10"
   inkscape:connector-curvature="0"
   id="path68"
   d="m 171.73492,27.302525 c 1.397,-0.783 2.965,-0.994 4.501,-1.16 -1.171,0.948 -2.181,2.151 -3.621,2.661 -1.771,0.684 -3.429,1.589 -5.079,2.534 -1.658,0.906 -3.478,1.797 -5.432,1.349 1.13,-0.942 2.397,-1.784 3.672,-2.588 1.918,-1.028 4.041,-1.769 5.959,-2.796 z"
   stroke-miterlimit="10" /><path
   style="fill:#69ac78;stroke:#69ac78;stroke-width:0.0938;stroke-miterlimit:10"
   inkscape:connector-curvature="0"
   id="path70"
   d="m 231.74292,17.914525 c 1.5,-0.64 3.19,-0.589 4.803,-0.768 2.609,-0.216 5.169,-0.985 7.733,-1.476 3.431,-0.587 6.864,-0.896 10.293,-1.244 -1.238,0.518 -2.412,1.186 -3.646,1.744 -6.212,1.713 -12.811,0.766 -18.984,2.473 -0.562,0.25 -1.06,0.649 -1.567,0.971 0.339,-0.614 0.612,-1.418 1.368,-1.7 z"
   stroke-miterlimit="10" /><path
   style="fill:#39a186;stroke:#39a186;stroke-width:0.0938;stroke-miterlimit:10"
   inkscape:connector-curvature="0"
   id="path72"
   d="m 181.79692,27.617525 c 0.939,-0.631 1.932,-1.19 2.975,-1.676 0.088,0.546 0.213,1.087 0.347,1.666 -1.044,0.487 -2.093,0.936 -3.148,1.344 -0.07,-0.43 -0.105,-0.905 -0.174,-1.334 z"
   stroke-miterlimit="10" /><path
   style="fill:#6bb6bd;stroke:#6bb6bd;stroke-width:0.0938;stroke-miterlimit:10"
   inkscape:connector-curvature="0"
   id="path74"
   d="m 160.67992,33.553525 c 0.873,-2.062 2.947,-3.113 5.096,-3.456 -1.274,0.804 -2.542,1.646 -3.672,2.588 1.954,0.449 3.773,-0.442 5.432,-1.349 -1.255,1.682 -3.422,2.148 -5.145,3.145 -0.57,-0.309 -1.141,-0.618 -1.711,-0.928 z"
   stroke-miterlimit="10" /><path
   style="fill:#39a186;stroke:#39a186;stroke-width:0.0938;stroke-miterlimit:10"
   inkscape:connector-curvature="0"
   id="path78"
   d="m 247.90792,18.575525 c 0.851,-0.176 1.71,-0.314 2.563,-0.49 0.01,0.559 0.02,1.118 0.027,1.678 0.469,-0.075 0.97,-0.196 1.433,-0.309 0.042,-0.488 0.04,-1.007 0.081,-1.495 2.111,0.424 4.292,0.796 6.098,2.069 -1.367,0.219 -2.745,0.358 -4.074,0.57 -0.197,-0.488 -0.39,-0.938 -0.549,-1.434 -1.462,0.874 -3.083,1.254 -4.766,1.002 -0.289,-0.553 -0.572,-1.069 -0.813,-1.591 z"
   stroke-miterlimit="10" /><path
   style="fill:#fee80d;stroke:#fee80d;stroke-width:0.0938;stroke-miterlimit:10"
   inkscape:connector-curvature="0"
   id="path80"
   d="m 239.03992,29.002525 c 3.201,-1.272 6.751,-1.359 10.114,-0.855 2.867,2.145 4.47,5.413 6.381,8.351 0.369,1.062 0.893,2.58 -0.134,3.425 -1.957,2.035 -10.391,19.552 -11.604,22.228 -2.601,-1.987 -8.104,-6.48 -11.3,-7.173 0.896,-0.663 10.389,-13.937 11.188,-14.705 -2.363,-0.503 -4.215,1.435 -6.492,1.718 -1.49,-0.802 -3.23,-1.166 -4.903,-0.857 -2.493,0.438 -5.075,0.57 -7.429,1.626 -1.353,0.057 -2.691,-0.05 -4.074,-0.189 0.367,-0.458 0.767,-0.964 1.133,-1.423 1.965,-0.994 3.723,-2.276 5.421,-3.668 4.24,-3.281 9.523,-4.805 14.598,-6.137 0.008,-0.202 0.035,-0.527 0.011,-0.682 -0.907,-0.658 -1.905,-1.139 -2.91,-1.659 z"
   stroke-miterlimit="10" /><path
   style="fill:#6bb6bd;stroke:#6bb6bd;stroke-width:0.0938;stroke-miterlimit:10"
   inkscape:connector-curvature="0"
   id="path82"
   d="m 195.55292,38.032525 c 1.879,-1.021 3.976,-1.436 5.931,-2.229 2.067,-0.851 4.267,-1.122 6.465,-1.394 -1.369,0.7 -2.833,1.053 -4.306,1.369 -0.471,0.556 -0.764,1.483 -1.602,1.498 -2.161,0.265 -4.309,0.608 -6.488,0.756 z"
   stroke-miterlimit="10" /><path
   style="fill:#39a186;stroke:#39a186;stroke-width:0.0938;stroke-miterlimit:10"
   inkscape:connector-curvature="0"
   id="path84"
   d="m 120.07892,51.614525 c 1.342,-1.616 3.153,-3.067 5.351,-3.098 -1.144,1.864 -3.283,2.768 -5.351,3.098 z"
   stroke-miterlimit="10" /><path
   style="fill:#39a186;stroke:#39a186;stroke-width:0.0938;stroke-miterlimit:10"
   inkscape:connector-curvature="0"
   id="path86"
   d="m 170.71492,42.722525 c 1.541,-1.127 3.25,-1.961 5.158,-2.305 -1.086,1.734 -3.316,2.051 -5.158,2.305 z"
   stroke-miterlimit="10" /><path
   style="fill:#6bb6bd;stroke:#6bb6bd;stroke-width:0.0938;stroke-miterlimit:10"
   inkscape:connector-curvature="0"
   id="path88"
   d="m 273.19292,26.709525 c 0.643,0.017 1.325,0.028 1.796,0.473 1.102,0.866 2.246,1.764 3.443,2.494 1.225,0.645 1.07,2.191 1.335,3.35 0.348,1.667 0.102,3.387 -0.358,5.023 -1.002,0.241 -1.966,0.474 -2.898,0.904 -0.41,0.186 -0.783,0.366 -1.155,0.544 0.068,0.67 0.141,1.379 0.254,2.083 0.56,1.752 2.021,3.12 2.346,4.911 -0.049,2.45 -2.633,3.824 -2.935,6.194 -0.248,1.201 -0.205,2.476 -0.745,3.604 -0.552,0.81 -1.433,1.311 -2.223,1.877 0.056,-0.65 0.112,-1.299 0.176,-1.909 -1.187,-0.653 -2.597,-1.709 -3.941,-0.854 -1.678,1.029 -3.323,2.254 -5.29,2.727 1.407,-1.466 2.912,-2.827 4.674,-3.828 1.931,-0.949 3.624,-2.623 3.745,-4.884 0.469,-0.075 1.239,0.243 1.465,-0.354 0.243,-0.479 0.396,-1.024 0.557,-1.53 -0.626,0.1 -1.257,0.161 -1.842,0.255 0.624,-1.102 1.58,-2.135 1.654,-3.428 -0.168,-1.054 -1.382,-1.381 -2.146,-1.899 -0.394,0.544 -0.754,1.041 -1.115,1.539 0.598,-0.015 1.196,-0.031 1.839,-0.013 -0.1,0.375 -0.167,0.708 -0.267,1.083 -0.648,-0.296 -1.291,-0.554 -1.932,-0.812 0.382,-1.622 0.464,-3.357 1.391,-4.828 1.2,-1.513 3.22,-2.156 4.458,-3.674 0.839,-1.016 0.297,-2.41 0.266,-3.606 -0.775,0.164 -1.549,0.328 -2.323,0.491 -0.236,-1.968 -0.197,-3.976 -0.229,-5.933 z"
   stroke-miterlimit="10" /><path
   style="fill:#39a186;stroke:#39a186;stroke-width:0.0938;stroke-miterlimit:10"
   inkscape:connector-curvature="0"
   id="path90"
   d="m 164.12992,46.617525 c 0.853,-1.938 3.181,-2.391 5.017,-2.684 -1.291,1.448 -3.124,2.262 -5.017,2.684 z"
   stroke-miterlimit="10" /><path
   style="fill:#6bb6bd;stroke:#6bb6bd;stroke-width:0.0938;stroke-miterlimit:10"
   inkscape:connector-curvature="0"
   id="path92"
   d="m 164.02092,51.201525 c 1.797,-1.288 4.002,-1.521 6.134,-1.461 0.061,0.63 0.121,1.261 0.188,1.932 -0.892,0.182 -1.817,0.41 -2.708,0.593 -0.034,0.286 -0.104,0.856 -0.133,1.183 -1.521,0.002 -3.01,0.201 -4.494,0.438 1.426,-0.348 2.893,-0.702 4.373,-0.939 -1.16,-0.497 -2.292,-1.077 -3.36,-1.746 z"
   stroke-miterlimit="10" /><path
   style="fill:#c5dde2;stroke:#c5dde2;stroke-width:0.0938;stroke-miterlimit:10"
   inkscape:connector-curvature="0"
   id="path94"
   d="m 219.63592,42.393525 c 0.777,-0.403 1.514,-0.802 2.283,-1.246 -0.366,0.459 -0.766,0.965 -1.133,1.423 1.383,0.139 2.722,0.246 4.074,0.189 -0.38,0.381 -0.791,0.808 -1.172,1.188 -0.391,0.063 -0.781,0.125 -1.132,0.181 -0.943,-0.649 -1.915,-1.214 -2.92,-1.735 z"
   stroke-miterlimit="10" /><path
   style="fill:#69ac78;stroke:#69ac78;stroke-width:0.0938;stroke-miterlimit:10"
   inkscape:connector-curvature="0"
   id="path96"
   d="m 147.60692,57.747525 c -0.723,0.234 -1.453,0.432 -2.136,0.661 -0.121,-0.261 -0.41,-0.815 -0.538,-1.115 v 0 c 3.053,-1.689 5.832,-4.096 9.38,-4.703 -0.567,0.972 -1.268,1.845 -1.981,2.64 0.883,0.02 1.729,0.044 2.605,0.024"
   stroke-miterlimit="10" /><path
   style="fill:#ffffff;stroke:#ffffff;stroke-width:0.0938;stroke-miterlimit:10"
   inkscape:connector-curvature="0"
   id="path98"
   d="m 224.86092,42.760525 c 2.354,-1.056 4.936,-1.189 7.429,-1.626 1.673,-0.308 3.413,0.055 4.903,0.857 -4.554,0.327 -8.988,1.396 -13.504,1.957 0.381,-0.381 0.792,-0.807 1.172,-1.188 z"
   stroke-miterlimit="10" /><path
   style="fill:#ffffff;stroke:#ffffff;stroke-width:0.0938;stroke-miterlimit:10"
   inkscape:connector-curvature="0"
   id="path100"
   d="m 237.19292,41.991525 c 2.277,-0.283 4.129,-2.221 6.492,-1.718 -0.799,0.769 -1.687,1.471 -2.581,2.135 -1.28,-0.237 -2.612,-0.303 -3.911,-0.417 z"
   stroke-miterlimit="10" /><path
   style="fill:#39a186;stroke:#39a186;stroke-width:0.0938;stroke-miterlimit:10"
   inkscape:connector-curvature="0"
   id="path102"
   d="m 144.58292,59.872525 c -0.02,-0.88 -0.214,-1.849 0.35,-2.579 0.128,0.3 0.417,0.854 0.538,1.115 0.684,-0.229 1.414,-0.427 2.136,-0.661 0.025,0.155 0.042,0.514 0.073,0.708 -1.004,0.481 -2.047,0.968 -3.097,1.417 z"
   stroke-miterlimit="10" /><path
   style="fill:#fee80d;stroke:#fee80d;stroke-width:0.0938;stroke-miterlimit:10"
   inkscape:connector-curvature="0"
   id="path104"
   d="m 211.90792,51.158525 c 1.988,-1.84 3.931,-3.712 6.436,-4.833 0.56,2.754 0.971,5.572 1.375,8.35 l 0.036,0.233 c 2.935,-0.428 5.819,-1.169 8.822,-1.168 0.063,0.39 0.132,0.819 0.2,1.249 -0.45,0.193 -0.86,0.378 -1.31,0.569 -0.634,0.302 -1.312,0.57 -1.887,0.982 -0.148,0.825 -0.018,1.645 -0.003,2.483 -1.634,0.3 -3.313,0.569 -4.922,1.027 1.055,6.598 1.881,13.274 3.098,19.887 -1.888,0.461 -3.756,0.801 -5.657,1.184 -0.445,-0.529 -0.929,-1.053 -1.335,-1.588 -0.872,-1.705 -11.647,-0.463 -12.48,-2.174 0.153,-0.541 0,0 -0.519,-0.234 -1.411,-2.818 -0.352,-0.205 -1.619,-3.125 0.14,-0.625 0.596,0.225 0,0 -2.482,-4.432 6.117,-11.409 3.765,-16.28 -0.188,-0.931 -0.455,-1.849 -0.403,-2.778 0.257,-1.402 1.285,-2.486 2.156,-3.548 0.466,0.406 0.805,1.032 1.395,1.219 1.176,0.092 2.04,-0.767 2.852,-1.455 z"
   stroke-miterlimit="10" /><path
   style="fill:#39a186;stroke:#39a186;stroke-width:0.0938;stroke-miterlimit:10"
   inkscape:connector-curvature="0"
   id="path106"
   d="m 275.35492,39.497525 c 0.372,-0.179 0.745,-0.358 1.155,-0.544 0.271,1.198 0.498,2.362 0.77,3.561 -0.531,-0.315 -1.101,-0.625 -1.671,-0.934 -0.114,-0.704 -0.186,-1.412 -0.254,-2.083 z"
   stroke-miterlimit="10" /><path
   style="fill:#39a186;stroke:#39a186;stroke-width:0.0938;stroke-miterlimit:10"
   inkscape:connector-curvature="0"
   id="path108"
   d="m 271.10392,42.460525 c 0.764,0.518 1.978,0.846 2.146,1.899 -0.074,1.293 -1.03,2.326 -1.654,3.428 0.585,-0.094 1.216,-0.155 1.842,-0.255 -0.16,0.506 -0.313,1.051 -0.557,1.53 -0.226,0.598 -0.996,0.279 -1.465,0.354 -0.65,-0.056 -1.306,-0.151 -1.956,-0.208 0.484,-1.479 1.268,-2.846 2.102,-4.141 0.1,-0.375 0.167,-0.708 0.267,-1.083 -0.643,-0.018 -1.241,-10e-4 -1.839,0.013 0.36,-0.497 0.72,-0.993 1.114,-1.537 z"
   stroke-miterlimit="10" /><path
   style="fill:#8ac5e1;stroke:#8ac5e1;stroke-width:0.0938;stroke-miterlimit:10"
   inkscape:connector-curvature="0"
   id="path110"
   d="m 294.64992,44.464525 c 1.125,-0.981 2.249,-1.961 3.573,-2.692 -1.077,1.773 -2.331,3.454 -3.86,4.901 0.175,1.093 0.275,2.237 -0.334,3.175 -0.709,-0.927 -2.141,-1.62 -2.145,-2.899 0.579,-1.135 1.857,-1.66 2.766,-2.485 z"
   stroke-miterlimit="10" /><path
   style="fill:#fee80d;stroke:#fee80d;stroke-width:0.0938;stroke-miterlimit:10"
   inkscape:connector-curvature="0"
   id="path112"
   d="m 237.35192,52.017525 c 2.002,0 3.942,0.611 5.671,1.656 0.126,0.541 0.489,0.805 1.036,0.717 0.761,0.759 1.562,1.512 2.069,2.431 0.31,1.433 -0.854,2.42 -1.518,3.526 -0.979,1.398 -0.978,3.16 -1.748,4.604 -1.222,1.878 -3.2,3.034 -4.854,4.458 -1.648,1.469 -12.396,9.389 -14.256,10.529 -0.892,-4.824 -2.206,-15.064 -3.098,-19.887 -0.629,-0.181 8.242,-1.797 7.567,-2.011 1.076,-0.533 2.244,-0.999 3.159,-1.785 v 0 c 1.164,-0.987 1.726,-2.479 2.799,-3.532"
   stroke-miterlimit="10" /><path
   style="fill:#0791a0;stroke:#0791a0;stroke-width:0.0938;stroke-miterlimit:10"
   inkscape:connector-curvature="0"
   id="path114"
   d="m 110.91192,72.940525 c 3.664,-0.795 7.913,-1.465 12.737,-2.236 1.706,-0.352 3.379,-0.66 5.095,-0.693 1.157,-0.025 2.42,-0.387 3.497,0.082 0.828,0.668 1.008,1.801 1.399,2.74 -1.648,1.465 -3.543,2.889 -5.737,3.439 -0.07,-0.189 -0.257,-0.602 -0.366,-0.783 -3.22,0.396 -6.378,1.18 -9.612,1.496 0.379,1.621 0.648,3.299 0.877,4.986 -1.433,2.313 -3.963,3.516 -5.635,5.584 -0.546,-4.917 -1.443,-9.779 -2.255,-14.615 z"
   stroke-miterlimit="10" /><path
   style="fill:#c5dde2;stroke:#c5dde2;stroke-width:0.0938;stroke-miterlimit:10"
   inkscape:connector-curvature="0"
   id="path116"
   d="m 225.57992,56.540525 c 0.575,-0.412 1.253,-0.681 1.887,-0.982 -0.563,0.491 -1.126,0.98 -1.682,1.51 0.817,0.351 1.595,0.707 2.438,0.973 0.675,0.214 1.343,0.386 1.974,0.565 -3.194,0.311 -6.313,1.09 -9.541,1.445 1.609,-0.458 3.288,-0.728 4.922,-1.027 -0.015,-0.839 -0.146,-1.658 0.002,-2.484 z"
   stroke-miterlimit="10" /><path
   style="fill:#69ac78;stroke:#69ac78;stroke-width:0.0938;stroke-miterlimit:10"
   inkscape:connector-curvature="0"
   id="path118"
   d="m 243.02292,53.673525 c 0.514,-0.042 0.87,0.182 1.036,0.717 -0.547,0.088 -0.91,-0.176 -1.036,-0.717 z"
   stroke-miterlimit="10" /><path
   style="fill:#ffffff;stroke:#ffffff;stroke-width:0.0938;stroke-miterlimit:10"
   inkscape:connector-curvature="0"
   id="path120"
   d="m 246.12792,56.821525 c 0.725,1.526 1.768,3.042 1.69,4.816 -0.056,1.65 -0.186,3.353 -0.859,4.901 -1.045,2.73 -3.477,4.802 -6.143,5.908 -2.675,0.547 -5.428,0.867 -8.117,1.338 -0.023,-0.158 -0.075,-0.471 -0.099,-0.625 1.86,-1.139 3.76,-2.281 5.408,-3.75 1.653,-1.424 3.632,-2.58 4.854,-4.458 0.771,-1.444 0.77,-3.206 1.748,-4.604 0.664,-1.106 1.828,-2.094 1.518,-3.526 z"
   stroke-miterlimit="10" /><line
   style="fill:#69ac78;stroke:#69ac78;stroke-width:0.0938;stroke-miterlimit:10"
   id="line122"
   y2="63.273525"
   x2="208.75693"
   y1="63.273525"
   x1="208.75693"
   stroke-miterlimit="10" /><path
   style="fill:#fee80d;stroke:#fee80d;stroke-width:0.0938;stroke-miterlimit:10"
   inkscape:connector-curvature="0"
   id="path124"
   d="m 200.82592,69.264525 c 1.514,2.963 3.106,5.912 4.516,8.971 -1.328,0.211 -2.656,0.424 -3.982,0.637 -0.402,-2.02 -0.857,-4.109 -0.584,-6.156 0.176,-1.149 0.353,-2.299 0.05,-3.452 z"
   stroke-miterlimit="10" /><path
   style="fill:#6bb6bd;stroke:#6bb6bd;stroke-width:0.0938;stroke-miterlimit:10"
   inkscape:connector-curvature="0"
   id="path126"
   d="m 63.324923,96.159525 c 1.447,-1.473 2.9,-2.904 4.592,-4.098 0.114,0.465 0.228,0.928 0.257,1.363 -0.65,0.945 -1.72,1.516 -2.602,2.256 -1.901,1.387 -3.421,3.15 -5.426,4.392995 0.447,-1.714995 2.008,-2.724995 3.179,-3.913995 z"
   stroke-miterlimit="10" /><path
   style="fill:#c5dde2;stroke:#c5dde2;stroke-width:0.0938;stroke-miterlimit:10"
   inkscape:connector-curvature="0"
   id="path128"
   d="m 54.078923,99.440525 c 1.181,-1.631 2.634,-3.064 4.299,-4.17 -1.889,2.461 -4.495,4.441 -5.706,7.395995 -0.68,2.512 -3.288,3.729 -4.958,5.559 -0.128,-0.299 -0.262,-0.639 -0.396,-0.979 0.975,-0.916 1.905,-1.865 2.885,-2.74 -0.214,-0.09 -0.681,-0.254 -0.895,-0.34 1.687,-1.468 3.374,-2.943 4.771,-4.725995 z"
   stroke-miterlimit="10" /><path
   style="fill:#c5dde2;stroke:#c5dde2;stroke-width:0.0938;stroke-miterlimit:10"
   inkscape:connector-curvature="0"
   id="path130"
   d="m 281.23792,61.023525 c 0.466,-0.595 1.034,-1.048 1.59,-1.576 0.363,0.264 0.73,0.563 1.094,0.827 -0.336,0.654 -0.632,1.302 -0.89,1.943 -0.423,0.868 -0.754,1.804 -1.357,2.54 -0.802,0.488 -1.791,0.566 -2.664,0.866 0.757,-0.521 1.565,-0.971 2.382,-1.382 -0.092,-1.066 -0.384,-2.141 -0.155,-3.218 z"
   stroke-miterlimit="10" /><path
   style="fill:#ffffff;stroke:#ffffff;stroke-width:0.0938;stroke-miterlimit:10"
   inkscape:connector-curvature="0"
   id="path132"
   d="m 256.24292,69.501525 c 0.591,-1.814 1.059,-3.654 1.24,-5.524 0.028,0.676 0.101,1.387 0.168,2.057 0.81,-0.45 1.578,-0.894 2.382,-1.384 -1.039,1.768 -2.252,3.445 -3.79,4.851 z"
   stroke-miterlimit="10" /><line
   style="fill:#6bb6bd;stroke:#6bb6bd;stroke-width:0.0938;stroke-miterlimit:10"
   id="line134"
   y2="93.825523"
   x2="82.452919"
   y1="93.825523"
   x1="82.452919"
   stroke-miterlimit="10" /><path
   style="fill:#6bb6bd;stroke:#6bb6bd;stroke-width:0.0938;stroke-miterlimit:10"
   inkscape:connector-curvature="0"
   id="path136"
   d="M 83.071923,97.690525"
   stroke-miterlimit="10" /><path
   style="fill:#c5dde2;stroke:#c5dde2;stroke-width:0.0938;stroke-miterlimit:10"
   inkscape:connector-curvature="0"
   id="path138"
   d="m 261.77792,68.296525 c 0.601,-0.496 1.329,-0.693 2.054,-0.928 -0.248,1.202 -1.021,2.125 -2.08,2.776 -0.022,-0.639 -0.083,-1.27 0.026,-1.848 z"
   stroke-miterlimit="10" /><path
   style="fill:#c5dde2;stroke:#c5dde2;stroke-width:0.0938;stroke-miterlimit:10"
   inkscape:connector-curvature="0"
   id="path140"
   d="m 256.12492,70.761525 c 1.063,-0.611 2.08,-1.254 3.146,-1.863 -0.959,2.275 -3.215,3.436 -5.213,4.717 0.826,-1.094 1.471,-2.316 1.986,-3.602 0.033,0.197 0.05,0.554 0.081,0.748 z"
   stroke-miterlimit="10" /><path
   style="fill:#6bb6bd;stroke:#6bb6bd;stroke-width:0.0938;stroke-miterlimit:10"
   inkscape:connector-curvature="0"
   id="path142"
   d="m 44.833923,107.24352 c 1.477,-1.035 3.049,-1.967 4.474,-3.076 0.214,0.086 0.681,0.25 0.895,0.34 -0.98,0.875 -1.91,1.824 -2.885,2.74 -0.822,0.371 -1.656,0.666 -2.49,0.959 0.001,-0.24 0.005,-0.721 0.006,-0.963 z"
   stroke-miterlimit="10" /><path
   style="fill:#c5dde2;stroke:#c5dde2;stroke-width:0.0938;stroke-miterlimit:10"
   inkscape:connector-curvature="0"
   id="path144"
   d="m 258.19492,76.196525 c 1.96,-2.516 4.051,-4.971 6.74,-6.682 0.29,0.313 0.615,0.584 0.938,0.852 -2.191,1.07 -3.493,3.199 -5.491,4.48 -0.726,0.477 -1.451,0.954 -2.187,1.35 z"
   stroke-miterlimit="10" /><path
   style="fill:#6bb6bd;stroke:#6bb6bd;stroke-width:0.0938;stroke-miterlimit:10"
   inkscape:connector-curvature="0"
   id="path146"
   d="m 57.984923,103.34152 v 0 l 0.352,-0.057 c 0.435,2.975 0.909,5.941 1.501,8.891 -2.032,0.564 -4.077,1.051 -6.116,1.576 -2.516,1.045 -4.621,2.902 -6.971,4.238 -0.163,-0.012 -0.487,-0.041 -0.656,-0.094 1.689,-1.713 3.604,-3.26 5.57,-4.736 1.314,-1.049 3.151,-0.582 4.604,-1.256 0.939,-0.391 2.261,-0.641 2.612,-1.697"
   stroke-miterlimit="10" /><path
   style="fill:#c5dde2;stroke:#c5dde2;stroke-width:0.0938;stroke-miterlimit:10"
   inkscape:connector-curvature="0"
   id="path148"
   d="m 216.76092,79.534525 c 0.406,0.535 0.89,1.059 1.335,1.588 1.901,-0.383 3.77,-0.723 5.657,-1.184 0.106,0.664 0.258,1.357 0.408,2.057 -0.315,-0.471 -0.473,-1.205 -1.188,-1.172 -1.586,-0.146 -3.137,0.424 -4.615,0.938 -0.008,0.203 -0.069,0.572 -0.076,0.773 -0.521,-0.996 -1.001,-2.002 -1.521,-3 z"
   stroke-miterlimit="10" /><path
   style="fill:#6bb6bd;stroke:#6bb6bd;stroke-width:0.0938;stroke-miterlimit:10"
   inkscape:connector-curvature="0"
   id="path150"
   d="m 249.74192,78.186525 c 1.732,-1.195 3.109,-2.857 4.316,-4.572 0.524,0.277 1.088,0.549 1.613,0.822 -1.714,1.559 -3.563,3.014 -5.192,4.598 -0.194,-0.211 -0.543,-0.637 -0.737,-0.848 z"
   stroke-miterlimit="10" /><path
   style="fill:#ffffff;stroke:#ffffff;stroke-width:0.0938;stroke-miterlimit:10"
   inkscape:connector-curvature="0"
   id="path152"
   d="m 263.30892,74.620525 c 1.853,-0.938 3.382,-2.383 5.28,-3.287 -0.684,1.229 -1.577,2.412 -2.616,3.422 -2.078,1.533 -4.355,2.816 -6.427,4.389 -1.287,0.967 -2.632,1.822 -4.145,2.383 0.408,-0.705 0.86,-1.377 1.354,-2.055 2.441,-1.272 4.068,-3.614 6.554,-4.852 z"
   stroke-miterlimit="10" /><path
   style="fill:#8ac5e1;stroke:#8ac5e1;stroke-width:0.0938;stroke-miterlimit:10"
   inkscape:connector-curvature="0"
   id="path154"
   d="m 39.794923,110.29252 c 1.232,-0.557 2.49,-0.957 3.741,-1.4 -0.233,0.799 -0.42,1.631 -0.647,2.469 0.319,-0.012 0.957,-0.033 1.274,-0.045 -1.691,1.191 -3.653,1.947 -5.403,3.025 -0.993,-0.199 -1.979,-0.363 -2.973,-0.566 l -0.382,-0.139 c 1.405,-1.225 2.708,-2.594 4.39,-3.344 z"
   stroke-miterlimit="10" /><path
   style="fill:#6bb6bd;stroke:#6bb6bd;stroke-width:0.0938;stroke-miterlimit:10"
   inkscape:connector-curvature="0"
   id="path156"
   d="m 259.54592,79.143525 c 2.071,-1.572 4.349,-2.855 6.427,-4.389 0.252,0.078 0.765,0.277 1.024,0.396 -2.368,2.221 -5.193,3.832 -7.757,5.844 -2.849,2.219 -6.134,3.705 -9.19,5.633 0.834,-2.055 3.062,-2.891 4.6,-4.301 -0.794,0.047 -1.587,0.098 -2.382,0.143 1.366,-1.219 2.901,-2.146 4.487,-2.998 -0.493,0.678 -0.945,1.35 -1.354,2.055 1.513,-0.56 2.858,-1.416 4.145,-2.383 z"
   stroke-miterlimit="10" /><path
   style="fill:#0791a0;stroke:#0791a0;stroke-width:0.0938;stroke-miterlimit:10"
   inkscape:connector-curvature="0"
   id="path158"
   d="m 246.71892,80.313525 c 1.012,-0.684 2.023,-1.365 3.022,-2.127 0.194,0.211 0.543,0.637 0.737,0.848 -2.355,3.059 -5.472,5.357 -8.459,7.717 -1.075,0.531 -2.208,0.951 -3.311,1.328 2.671,-2.59 6.045,-4.529 8.011,-7.766 z"
   stroke-miterlimit="10" /><path
   style="fill:#8ac5e1;stroke:#8ac5e1;stroke-width:0.0938;stroke-miterlimit:10"
   inkscape:connector-curvature="0"
   id="path160"
   d="m 251.71892,79.272525 c 1.69,0.053 2.71,-1.834 4.333,-1.691 -0.422,1.869 -2.441,2.512 -3.839,3.535 -0.303,-0.391 -0.606,-0.783 -0.909,-1.174 0.163,-0.228 0.289,-0.447 0.415,-0.67 z"
   stroke-miterlimit="10" /><path
   style="fill:#6bb6bd;stroke:#6bb6bd;stroke-width:0.0938;stroke-miterlimit:10"
   inkscape:connector-curvature="0"
   id="path162"
   d="m 32.424923,117.79652 c 0.357,-1.777 1.672,-3.068 2.979,-4.16 l 0.382,0.139 c -0.447,0.713 -0.933,1.432 -1.418,2.148 0.324,0.271 0.646,0.539 0.97,0.809 -0.869,0.575 -1.917,0.786 -2.913,1.064 z"
   stroke-miterlimit="10" /><path
   style="fill:#ffffff;stroke:#ffffff;stroke-width:0.0938;stroke-miterlimit:10"
   inkscape:connector-curvature="0"
   id="path164"
   d="m 35.785923,113.77452 c 0.994,0.203 1.98,0.367 2.973,0.566 -1.207,0.715 -2.317,1.533 -3.422,2.391 -0.323,-0.27 -0.646,-0.537 -0.97,-0.809 0.487,-0.716 0.973,-1.435 1.419,-2.148 z"
   stroke-miterlimit="10" /><path
   style="fill:#6bb6bd;stroke:#6bb6bd;stroke-width:0.0938;stroke-miterlimit:10"
   inkscape:connector-curvature="0"
   id="path166"
   d="m 79.006923,109.59352 c 1.402,-0.746 2.656,-1.666 3.975,-2.436 -0.381,0.619 -0.756,1.279 -1.137,1.9 0.319,-0.01 0.923,0.014 1.249,0.043 -1.099,0.895 -2.352,1.574 -3.668,2.105 -0.127,-0.536 -0.254,-1.077 -0.419,-1.612 z"
   stroke-miterlimit="10" /><path
   style="fill:#c5dde2;stroke:#c5dde2;stroke-width:0.0938;stroke-miterlimit:10"
   inkscape:connector-curvature="0"
   id="path168"
   d="m 233.81792,83.534525 c 1.583,-0.373 3.223,-0.633 4.83,-0.85 -0.472,0.555 -0.995,1.039 -1.563,1.49 -1.014,-0.32 -1.83,0.332 -2.678,0.787 -0.012,-0.316 -0.028,-0.674 -0.084,-1.027 -0.135,-0.095 -0.369,-0.3 -0.505,-0.4 z"
   stroke-miterlimit="10" /><path
   style="fill:#39a186;stroke:#39a186;stroke-width:0.0938;stroke-miterlimit:10"
   inkscape:connector-curvature="0"
   id="path170"
   d="m 238.64792,82.684525 c 0.735,-0.16 1.511,-0.322 2.248,-0.479 -1.291,1.445 -2.782,2.645 -4.17,3.988 -0.692,0.67 -1.6,1.018 -2.536,1.166 0.587,-1.334 1.711,-2.314 2.896,-3.186 0.567,-0.45 1.09,-0.934 1.562,-1.489 z"
   stroke-miterlimit="10" /><path
   style="fill:#8ac5e1;stroke:#8ac5e1;stroke-width:0.0938;stroke-miterlimit:10"
   inkscape:connector-curvature="0"
   id="path172"
   d="m 53.721923,113.75152 c 2.039,-0.525 4.083,-1.012 6.116,-1.576 4.755,-0.561 9.461,-1.432 14.205,-2.07 -3.831,1.092 -7.925,1.025 -11.666,2.426 -2.823,1.131 -4.255,4.443 -7.443,4.793 0.577,-0.65 1.102,-1.377 1.633,-2.063 -1.826,-0.148 -3.891,-0.541 -5.465,0.631 -1.402,0.746 -2.559,2.533 -4.35,2.098 2.349,-1.337 4.455,-3.194 6.97,-4.239 z"
   stroke-miterlimit="10" /><path
   style="fill:#6bb6bd;stroke:#6bb6bd;stroke-width:0.0938;stroke-miterlimit:10"
   inkscape:connector-curvature="0"
   id="path174"
   d="m 35.505923,118.78652 c 0.283,-1.488 1.453,-2.436 2.706,-3.115 0.037,0.234 0.079,0.748 0.084,1.027 -0.883,0.74 -1.805,1.492 -2.79,2.088 z"
   stroke-miterlimit="10" /><path
   style="fill:#c5dde2;stroke:#c5dde2;stroke-width:0.0938;stroke-miterlimit:10"
   inkscape:connector-curvature="0"
   id="path176"
   d="m 248.68892,86.126525 c 0.744,-1.602 2.318,-2.533 3.579,-3.656 0.795,-0.045 1.588,-0.096 2.382,-0.143 -1.538,1.41 -3.766,2.246 -4.6,4.301 -0.184,0.111 -0.366,0.219 -0.549,0.328 -0.192,-0.209 -0.618,-0.621 -0.812,-0.83 z"
   stroke-miterlimit="10" /><path
   style="fill:#c5dde2;stroke:#c5dde2;stroke-width:0.0938;stroke-miterlimit:10"
   inkscape:connector-curvature="0"
   id="path178"
   d="m 51.100923,115.89152 c 1.575,-1.172 3.64,-0.779 5.465,-0.631 -0.531,0.686 -1.056,1.412 -1.633,2.063 -2.127,2.221 -4.624,4.145 -7.485,5.279 -2.628,1.102 -5.069,2.613 -7.316,4.334 -2.337,1.414 -4.513,3.084 -6.965,4.277 0.958,-1.273 1.65,-2.707 2.257,-4.164 0.741,-0.881 1.63,-1.584 2.558,-2.291 0.519,0.236 1.06,0.869 1.629,0.42 2.605,-1.74 4.713,-4.078 7.126,-6.025 -0.297,-0.352 -0.594,-0.705 -0.851,-1.064 l 0.209,-0.193 c 0.168,0.053 0.493,0.082 0.656,0.094 1.792,0.435 2.948,-1.352 4.35,-2.099 z"
   stroke-miterlimit="10" /><path
   style="fill:#6bb6bd;stroke:#6bb6bd;stroke-width:0.0938;stroke-miterlimit:10"
   inkscape:connector-curvature="0"
   id="path180"
   d="m 243.86792,87.536525 c 1.22,-0.637 2.272,-1.564 3.633,-1.82 -1.254,1.68 -3.234,2.559 -4.675,4.068 -0.577,0.652 -1.372,0.941 -2.213,1.195 0.241,-1.761 1.858,-2.66 3.255,-3.443 z"
   stroke-miterlimit="10" /><path
   style="fill:#c5dde2;stroke:#c5dde2;stroke-width:0.0938;stroke-miterlimit:10"
   inkscape:connector-curvature="0"
   id="path182"
   d="m 33.395923,123.12852 c 1.578,-1.654 3.279,-3.289 5.534,-3.969 -1.424,1.869 -2.66,3.908 -4.315,5.576 -0.247,-0.041 -0.729,-0.045 -0.974,-0.084 -0.082,-0.508 -0.164,-1.017 -0.245,-1.523 z"
   stroke-miterlimit="10" /><path
   style="fill:#8ac5e1;stroke:#8ac5e1;stroke-width:0.0938;stroke-miterlimit:10"
   inkscape:connector-curvature="0"
   id="path184"
   d="m 37.981923,124.75952 c 2.699,-2.154 5.16,-4.551 7.905,-6.67 0.257,0.359 0.554,0.713 0.851,1.064 -2.413,1.947 -4.521,4.285 -7.126,6.025 -0.57,0.45 -1.112,-0.183 -1.63,-0.419 z"
   stroke-miterlimit="10" /><path
   style="fill:#6bb6bd;stroke:#6bb6bd;stroke-width:0.0938;stroke-miterlimit:10"
   inkscape:connector-curvature="0"
   id="path186"
   d="m 69.605923,116.42152 c 1.382,-0.621 2.815,-1.172 3.747,-2.361 0.163,0.014 0.325,0.029 0.442,0.01 0.734,0.084 1.468,0.166 2.202,0.248 -0.199,0.514 -0.39,1.066 -0.634,1.543 -0.657,0.146 -1.321,0.252 -1.985,0.357 -0.056,0.65 -0.113,1.301 -0.176,1.908 -0.882,0.744 -1.914,1.311 -2.892,1.947 -0.161,-0.254 -0.477,-0.725 -0.637,-0.98 0.303,-0.609 0.606,-1.217 0.909,-1.826 -0.324,-0.27 -0.647,-0.54 -0.976,-0.846 z"
   stroke-miterlimit="10" /><path
   style="fill:#8ac5e1;stroke:#8ac5e1;stroke-width:0.0938;stroke-miterlimit:10"
   inkscape:connector-curvature="0"
   id="path188"
   d="m 238.70892,88.079525 c 1.103,-0.377 2.235,-0.797 3.311,-1.328 -1.981,1.637 -3.612,3.701 -5.902,4.908 0.491,-1.439 1.376,-2.666 2.591,-3.58 z"
   stroke-miterlimit="10" /><path
   style="fill:#8ac5e1;stroke:#8ac5e1;stroke-width:0.0938;stroke-miterlimit:10"
   inkscape:connector-curvature="0"
   id="path190"
   d="m 57.986923,119.63952 c 1.232,-1.561 3.157,-2.547 5.139,-2.426 -0.545,0.85 -1.135,1.664 -2.062,2.135 -0.99,0.317 -2.043,0.245 -3.077,0.291 z"
   stroke-miterlimit="10" /><path
   style="fill:#8ac5e1;stroke:#8ac5e1;stroke-width:0.0938;stroke-miterlimit:10"
   inkscape:connector-curvature="0"
   id="path192"
   d="m 62.470923,121.88652 c 2.243,-2 4.841,-3.537 7.136,-5.465 0.329,0.307 0.652,0.576 0.976,0.846 -0.303,0.609 -0.606,1.217 -0.909,1.826 0.161,0.256 0.476,0.727 0.637,0.98 -1.307,0.85 -2.464,1.875 -3.725,2.758 -0.186,-0.414 -0.521,-0.76 -0.89,-1.061 1.423,-0.867 2.646,-1.984 3.682,-3.271 -2.431,0.83 -4.605,2.258 -6.907,3.387 z"
   stroke-miterlimit="10" /><path
   style="fill:#8ac5e1;stroke:#8ac5e1;stroke-width:0.0938;stroke-miterlimit:10"
   inkscape:connector-curvature="0"
   id="path194"
   d="m 73.377923,116.21852 c 0.664,-0.105 1.328,-0.211 1.985,-0.357 -0.668,0.828 -1.389,1.584 -2.161,2.266 0.063,-0.609 0.12,-1.259 0.176,-1.909 z"
   stroke-miterlimit="10" /><path
   style="fill:#8ac5e1;stroke:#8ac5e1;stroke-width:0.0938;stroke-miterlimit:10"
   inkscape:connector-curvature="0"
   id="path196"
   d="m 27.784923,128.10852 c 1.954,-1.553 3.753,-3.322 5.611,-4.98 0.081,0.506 0.163,1.016 0.244,1.523 0.246,0.039 0.727,0.043 0.974,0.084 -0.909,0.826 -1.767,1.723 -2.579,2.652 -0.786,0.848 -1.811,1.453 -2.815,1.934 -1.708,0.592 -2.592,2.576 -4.498,2.68 0.63,-1.58 1.75,-2.842 3.063,-3.893 z"
   stroke-miterlimit="10" /><path
   style="fill:#6bb6bd;stroke:#6bb6bd;stroke-width:0.0938;stroke-miterlimit:10"
   inkscape:connector-curvature="0"
   id="path198"
   d="m 49.525923,124.07352 c 1.426,-2.348 4.027,-3.365 6.465,-4.396 -0.143,0.865 -0.33,1.695 -0.518,2.525 0.239,0.242 0.472,0.447 0.711,0.688 -0.195,0.031 -0.612,0.178 -0.841,0.252 -1.23,0.32 -2.224,1.119 -3.127,1.984 0.057,-1.65 1.313,-2.813 2.276,-4.049 -1.348,0.336 -2.277,1.285 -3.071,2.332 -0.413,0.668 -1.226,0.598 -1.895,0.664 z"
   stroke-miterlimit="10" /><path
   style="fill:#ffffff;stroke:#ffffff;stroke-width:0.0938;stroke-miterlimit:10"
   inkscape:connector-curvature="0"
   id="path200"
   d="m 62.470923,121.88652 c 2.303,-1.129 4.477,-2.557 6.907,-3.387 -1.036,1.287 -2.259,2.404 -3.682,3.271 -3.107,1.857 -6.144,3.904 -9.038,6.088 -1.123,0.74 -2.359,1.779 -3.819,1.412 l 0.327,-0.213 c 2.737,-1.918 5.421,-3.908 7.997,-6.082 0.424,-0.349 0.883,-0.742 1.308,-1.089 z"
   stroke-miterlimit="10" /><path
   style="fill:#8ac5e1;stroke:#8ac5e1;stroke-width:0.0938;stroke-miterlimit:10"
   inkscape:connector-curvature="0"
   id="path202"
   d="m 51.420923,123.40952 c 0.794,-1.047 1.724,-1.996 3.071,-2.332 -0.963,1.236 -2.219,2.398 -2.276,4.049 -0.516,1.283 -1.574,2.174 -2.698,2.912 -0.805,-0.27 -1.646,-0.777 -2.486,-0.521 -1.328,0.211 -1.954,1.553 -3.057,2.17 -0.84,0.254 -1.77,0.201 -2.647,0.223 2.84,-1.777 5.307,-4.133 8.198,-5.836 0.669,-0.067 1.482,0.003 1.895,-0.665 z"
   stroke-miterlimit="10" /><path
   style="fill:#6bb6bd;stroke:#6bb6bd;stroke-width:0.0938;stroke-miterlimit:10"
   inkscape:connector-curvature="0"
   id="path204"
   d="m 24.077923,127.21852 c -0.114,-1.225 1.261,-0.881 2.076,-1.051 -0.647,0.463 -1.358,0.777 -2.076,1.051 z"
   stroke-miterlimit="10" /><path
   style="fill:#6bb6bd;stroke:#6bb6bd;stroke-width:0.0938;stroke-miterlimit:10"
   inkscape:connector-curvature="0"
   id="path206"
   d="m 60.044923,120.99152 c 0.066,-0.09 0.275,-0.283 0.341,-0.375 0.248,0.803 0.535,1.598 0.776,2.359 -2.576,2.174 -5.26,4.164 -7.997,6.082 -0.069,-0.43 -0.138,-0.859 -0.207,-1.287 1.764,-1.242 3.482,-2.518 5.291,-3.729 1.045,-0.728 1.412,-1.946 1.796,-3.05 z"
   stroke-miterlimit="10" /><path
   style="fill:#c5dde2;stroke:#c5dde2;stroke-width:0.0938;stroke-miterlimit:10"
   inkscape:connector-curvature="0"
   id="path208"
   d="m 56.183923,122.88952 c 1.419,-0.389 2.614,-1.176 3.86,-1.898 -0.384,1.104 -0.75,2.322 -1.795,3.051 -0.966,-0.287 -1.934,-0.574 -2.907,-0.9 0.23,-0.075 0.647,-0.221 0.842,-0.253 z"
   stroke-miterlimit="10" /><path
   style="fill:#6bb6bd;stroke:#6bb6bd;stroke-width:0.0938;stroke-miterlimit:10"
   inkscape:connector-curvature="0"
   id="path210"
   d="m 17.354923,130.49552 c 2.07,-1.334 4.486,-1.998 6.568,-3.252 0.125,0.781 0.25,1.561 0.375,2.344 -2.52,1.523 -4.763,3.523 -7.668,4.387 0.036,0.477 0.072,0.951 0.069,1.434 0.979,0.361 1.926,0.773 2.905,1.137 -0.408,0.705 -0.816,1.414 -1.179,2.15 1.108,-0.338 2.242,-0.76 3.331,-1.211 0.123,1.02 0.24,2.002 0.357,2.984 0.58,-0.133 1.192,-0.313 1.771,-0.445 -0.381,0.623 -0.762,1.246 -1.183,1.871 -1.055,1.17 -2.354,2.061 -3.609,2.982 0.095,-1.418 0.398,-3.027 -0.445,-4.297 -0.679,-0.49 -1.478,-0.725 -2.288,-1.035 0.015,-0.402 -0.014,-0.838 -0.038,-1.234 -0.061,-0.631 -0.115,-1.223 -0.17,-1.816 -2.211,1.195 -4.207,2.996 -6.7709999,3.486 0.8489999,-1.457 1.8329999,-2.814 2.7709999,-4.207 1.438,-2.034 3.295,-3.692 5.204,-5.278 z"
   stroke-miterlimit="10" /><path
   style="fill:#ffffff;stroke:#ffffff;stroke-width:0.0938;stroke-miterlimit:10"
   inkscape:connector-curvature="0"
   id="path212"
   d="m 52.215923,125.12652 c 0.903,-0.865 1.896,-1.664 3.127,-1.984 0.973,0.326 1.94,0.613 2.907,0.9 -1.809,1.211 -3.527,2.486 -5.291,3.729 -0.392,0.301 -0.79,0.566 -1.194,0.793 -0.78,-0.117 -1.526,-0.279 -2.246,-0.525 1.123,-0.739 2.182,-1.63 2.697,-2.913 z"
   stroke-miterlimit="10" /><path
   style="fill:#6bb6bd;stroke:#6bb6bd;stroke-width:0.0938;stroke-miterlimit:10"
   inkscape:connector-curvature="0"
   id="path214"
   d="m 29.220923,129.32152 c 1.004,-0.48 2.029,-1.086 2.815,-1.934 1.105,-0.096 2.25,-0.199 3.389,-0.338 -0.607,1.457 -1.3,2.891 -2.257,4.164 2.452,-1.193 4.628,-2.863 6.965,-4.277 -1.373,1.18 -2.604,2.496 -3.926,3.752 -1.361,1.258 -3.352,1.574 -4.764,2.762 -1.164,0.988 -1.681,2.512 -2.748,3.604 -0.804,0.729 -1.989,0.838 -3.018,1.162 0.116,-0.779 0.05,-1.689 0.814,-2.172 1.999,-1.52 4.044,-3.01 5.565,-5.014 0.187,-0.59 0.373,-1.182 0.519,-1.768 -1.118,0.022 -2.243,0.001 -3.354,0.059 z"
   stroke-miterlimit="10" /><path
   style="fill:#6bb6bd;stroke:#6bb6bd;stroke-width:0.0938;stroke-miterlimit:10"
   inkscape:connector-curvature="0"
   id="path216"
   d="m 56.657923,127.85852 c 2.895,-2.184 5.931,-4.23 9.038,-6.088 0.369,0.301 0.705,0.646 0.89,1.061 -1.835,1.293 -3.98,2.156 -5.622,3.66 -2.198,2.033 -5.039,3.047 -7.501,4.682 -2.031,1.324 -3.856,2.938 -5.893,4.225 -0.024,-0.156 -0.048,-0.553 -0.041,-0.754 -0.212,-0.326 -0.463,-0.646 -0.715,-0.967 2.012,-1.443 4.018,-2.924 6.023,-4.406 1.461,0.367 2.698,-0.673 3.821,-1.413 z"
   stroke-miterlimit="10" /><path
   style="fill:#39a186;stroke:#39a186;stroke-width:0.0938;stroke-miterlimit:10"
   inkscape:connector-curvature="0"
   id="path218"
   d="m 24.722923,132.00152 c 1.906,-0.104 2.79,-2.088 4.498,-2.68 1.112,-0.059 2.236,-0.037 3.354,-0.059 -0.146,0.586 -0.333,1.178 -0.519,1.768 -0.088,-0.309 -0.267,-0.92 -0.356,-1.227 -1.275,0.285 -2.314,1.053 -3.023,2.127 -0.389,-0.178 -0.732,-0.324 -1.083,-0.508 -0.562,0.49 -1.131,0.939 -1.687,1.471 -0.408,-0.296 -0.776,-0.597 -1.184,-0.892 z"
   stroke-miterlimit="10" /><path
   style="fill:#c5dde2;stroke:#c5dde2;stroke-width:0.0938;stroke-miterlimit:10"
   inkscape:connector-curvature="0"
   id="path220"
   d="m 8.1949231,137.32552 c 1.344,-1.617 2.6869999,-3.232 4.4629999,-4.398 -0.571,0.693 -1.095,1.416 -1.659,2.15 0.311,0.188 0.848,0.543 1.152,0.695 -0.938,1.393 -1.923,2.75 -2.7709999,4.207 l -0.232,-0.203 c -0.366,-0.783 -0.62,-1.623 -0.953,-2.451 z"
   stroke-miterlimit="10" /><path
   style="fill:#c5dde2;stroke:#c5dde2;stroke-width:0.0938;stroke-miterlimit:10"
   inkscape:connector-curvature="0"
   id="path222"
   d="m 43.974923,129.68652 c 1.103,-0.617 1.729,-1.959 3.057,-2.17 0.84,-0.256 1.682,0.252 2.486,0.521 0.72,0.246 1.466,0.408 2.246,0.525 -2.113,1.816 -4.833,2.332 -7.424,2.908 0.087,-0.457 0.175,-0.91 0.262,-1.365 -1.333,0.174 -2.681,0.266 -4.026,0.363 0.177,-0.148 0.574,-0.414 0.751,-0.561 0.878,-0.019 1.808,0.033 2.648,-0.221 z"
   stroke-miterlimit="10" /><path
   style="fill:#6bb6bd;stroke:#6bb6bd;stroke-width:0.0938;stroke-miterlimit:10"
   inkscape:connector-curvature="0"
   id="path224"
   d="m 25.906923,132.89352 c 0.556,-0.531 1.125,-0.98 1.687,-1.471 0.351,0.184 0.694,0.33 1.083,0.508 -1.372,1.939 -3.288,3.488 -5.619,4.182 0.852,-1.178 1.803,-2.252 2.849,-3.219 z"
   stroke-miterlimit="10" /><path
   style="fill:#6bb6bd;stroke:#6bb6bd;stroke-width:0.0938;stroke-miterlimit:10"
   inkscape:connector-curvature="0"
   id="path226"
   d="m 20.342923,132.90352 c 1.077,-0.775 0.251,1.32 0,0 z"
   stroke-miterlimit="10" /><path
   style="fill:#0791a0;stroke:#0791a0;stroke-width:0.0938;stroke-miterlimit:10"
   inkscape:connector-curvature="0"
   id="path228"
   d="m 51.763923,128.56352 c 0.405,-0.227 0.802,-0.492 1.194,-0.793 0.069,0.428 0.137,0.857 0.207,1.287 l -0.327,0.213 c -2.005,1.482 -4.011,2.963 -6.023,4.406 -1.535,1.168 -3.07,2.334 -4.406,3.748 0.252,0.078 0.753,0.199 1.006,0.279 -1.209,0.955 -2.425,1.869 -3.543,2.891 -1.131,0.939 -2.056,2.168 -3.393,2.822 -0.563,-0.27 -1.101,-0.625 -1.632,-0.939 -1.979,1.396 -3.656,3.186 -5.641,4.545 0.103,-0.857 0.317,-1.773 1.023,-2.367 1.223,-1.115 1.683,-2.752 2.193,-4.314 1.197,-0.029 2.566,0.271 3.651,-0.463 1.39,-0.822 2.432,-2.07 3.305,-3.371 0.742,-0.119 1.484,-0.238 2.232,-0.316 -0.438,-0.734 -0.841,-1.508 -1.272,-2.201 1.351,-0.814 2.644,-1.74 4.002,-2.518 2.591,-0.577 5.312,-1.092 7.424,-2.909 z"
   stroke-miterlimit="10" /><path
   style="fill:#ffffff;stroke:#ffffff;stroke-width:0.0938;stroke-miterlimit:10"
   inkscape:connector-curvature="0"
   id="path230"
   d="m 33.688923,136.73752 c 2.315,-2.055 4.328,-4.498 6.888,-6.268 1.346,-0.098 2.693,-0.189 4.026,-0.363 -0.087,0.455 -0.175,0.908 -0.262,1.365 -1.358,0.777 -2.651,1.703 -4.002,2.518 -2.784,1.127 -4.396,4.068 -7.366,4.781 0.213,-0.673 0.419,-1.386 0.716,-2.033 z"
   stroke-miterlimit="10" /><path
   style="fill:#6bb6bd;stroke:#6bb6bd;stroke-width:0.0938;stroke-miterlimit:10"
   inkscape:connector-curvature="0"
   id="path232"
   d="m 32.971923,138.77052 c 2.97,-0.713 4.582,-3.654 7.366,-4.781 0.431,0.693 0.834,1.467 1.272,2.201 -0.748,0.078 -1.49,0.197 -2.232,0.316 -0.873,1.301 -1.915,2.549 -3.305,3.371 -1.084,0.734 -2.454,0.434 -3.651,0.463 -0.511,1.563 -0.97,3.199 -2.193,4.314 0.008,-0.199 0.056,-0.65 0.063,-0.85 -0.611,0.178 -1.269,0.322 -1.888,0.463 0.429,-0.83 0.85,-1.699 1.272,-2.568 -1.22,-0.363 -2.482,-0.242 -3.527,0.484 l -0.331,-0.068 c 0.886,-1.221 2.01,-2.203 3.141,-3.145 -0.102,0.617 -0.164,1.229 -0.22,1.879 1.667,-1.348 3.185,-2.873 4.949,-4.113 -0.296,0.648 -0.502,1.361 -0.716,2.034 z"
   stroke-miterlimit="10" /><path
   style="fill:#8ac5e1;stroke:#8ac5e1;stroke-width:0.0938;stroke-miterlimit:10"
   inkscape:connector-curvature="0"
   id="path234"
   d="m 10.907923,143.77852 c 2.026,-1.605 3.342,-3.896 5.413,-5.469 0.023,0.396 0.053,0.832 0.038,1.234 0.81,0.311 1.608,0.545 2.288,1.035 0.843,1.27 0.54,2.879 0.445,4.297 -0.535,0.404 -1.026,0.844 -1.419,1.387 0.225,0.404 0.489,0.801 0.752,1.201 -1.49,1.199 -2.741,2.641 -3.987,4.119 0.322,0.51 0.644,1.02 0.965,1.529 -1.428,1.588 -2.901,3.148 -4.768,4.244 -0.429,-0.932 -0.7399999,-2.123 -1.7829999,-2.637 -1.313,0.049 -2.275,1.045 -3.282,1.766 -1.239,0.518 -2.58,0.891 -3.883,1.26 0.85,-1.695 2.192,-3.072 3.695,-4.191 0.85,-0.699 1.744,-1.363 2.323,-2.254 0.142,-0.865 -0.151,-1.697 -0.282,-2.518 -2.064,1.369 -4.052,2.967 -6.44899997,3.754 1.23999997,-1.762 2.69499997,-3.436 4.34299997,-4.9 1.681,-1.509 3.878,-2.302 5.5909999,-3.857 z"
   stroke-miterlimit="10" /><path
   style="fill:#ffffff;stroke:#ffffff;stroke-width:0.0938;stroke-miterlimit:10"
   inkscape:connector-curvature="0"
   id="path236"
   d="m 42.408923,137.42552 c 1.336,-1.414 2.871,-2.58 4.406,-3.748 0.252,0.32 0.503,0.641 0.715,0.967 -1.45,0.953 -2.802,2.01 -4.116,3.061 -0.253,-0.081 -0.753,-0.202 -1.005,-0.28 z"
   stroke-miterlimit="10" /><path
   style="fill:#8ac5e1;stroke:#8ac5e1;stroke-width:0.0938;stroke-miterlimit:10"
   inkscape:connector-curvature="0"
   id="path238"
   d="m 43.413923,137.70452 c 1.314,-1.051 2.666,-2.107 4.116,-3.061 -0.008,0.201 0.016,0.598 0.041,0.754 -1.211,1.195 -2.273,2.566 -3.671,3.592 -1.183,0.869 -2.653,1.184 -4.028,1.605 1.118,-1.021 2.333,-1.935 3.542,-2.89 z"
   stroke-miterlimit="10" /><path
   style="fill:#ffffff;stroke:#ffffff;stroke-width:0.0938;stroke-miterlimit:10"
   inkscape:connector-curvature="0"
   id="path240"
   d="m 10.845923,145.39152 c 1.727,-1.719 3.43,-3.592 5.673,-4.592 0.413,0.574 0.825,1.148 1.237,1.725 -0.19,0.311 -0.42,0.629 -0.656,0.906 -1.843,1.256 -4.101,1.657 -6.254,1.961 z"
   stroke-miterlimit="10" /><path
   style="fill:#69ac78;stroke:#69ac78;stroke-width:0.0938;stroke-miterlimit:10"
   inkscape:connector-curvature="0"
   id="path242"
   d="m 19.090923,144.87652 c 1.255,-0.922 2.554,-1.813 3.609,-2.982 1.052,0.072 2.1,0.107 3.119,0.223 l 0.331,0.068 c -2.721,1.516 -5.217,3.438 -7.726,5.279 -0.264,-0.4 -0.528,-0.797 -0.752,-1.201 0.393,-0.543 0.884,-0.983 1.419,-1.387 z"
   stroke-miterlimit="10" /><path
   style="fill:#c5dde2;stroke:#c5dde2;stroke-width:0.0938;stroke-miterlimit:10"
   inkscape:connector-curvature="0"
   id="path244"
   d="m 10.845923,145.39152 c 2.153,-0.305 4.412,-0.705 6.253,-1.961 -0.153,0.547 -0.113,1.299 -0.706,1.594 -1.313,0.811 -2.942,0.391 -4.388,0.861 -0.909,0.826 -1.896,1.666 -3.1329999,1.943 0.273,-1.046 0.763,-2.243 1.9739999,-2.437 z"
   stroke-miterlimit="10" /><path
   style="fill:#c5dde2;stroke:#c5dde2;stroke-width:0.0938;stroke-miterlimit:10"
   inkscape:connector-curvature="0"
   id="path246"
   d="m 21.909923,149.22952 c 0.233,-0.799 1.098,-0.898 1.801,-1.008 0.042,0.516 0.078,0.988 0.113,1.463 0.953,-0.555 1.906,-1.105 2.904,-1.625 -0.141,1.621 -1.733,2.438 -2.818,3.414 -0.446,0.471 -1.128,0.459 -1.758,0.52 0.12,-0.502 0.247,-0.961 0.373,-1.422 -0.231,-0.443 -0.462,-0.885 -0.615,-1.342 z"
   stroke-miterlimit="10" /><path
   style="fill:#c5dde2;stroke:#c5dde2;stroke-width:0.0938;stroke-miterlimit:10"
   inkscape:connector-curvature="0"
   id="path248"
   d="m 0.05992313,156.08552 c 1.26999997,-1.324 2.77299997,-2.445 4.39699997,-3.305 0.232,0.201 0.691,0.568 0.924,0.773 -1.503,1.119 -2.845,2.496 -3.695,4.191 1.303,-0.369 2.644,-0.742 3.883,-1.26 -1.13,0.941 -2.422,1.629 -3.772,2.205 -0.578,-0.868 -1.15799997,-1.737 -1.73699997,-2.604 z"
   stroke-miterlimit="10" />

</svg>