<?xml version="1.0" encoding="UTF-8" standalone="no"?>
<svg
   xmlns:dc="http://purl.org/dc/elements/1.1/"
   xmlns:cc="http://creativecommons.org/ns#"
   xmlns:rdf="http://www.w3.org/1999/02/22-rdf-syntax-ns#"
   xmlns:svg="http://www.w3.org/2000/svg"
   xmlns="http://www.w3.org/2000/svg"
   xmlns:sodipodi="http://sodipodi.sourceforge.net/DTD/sodipodi-0.dtd"
   xmlns:inkscape="http://www.inkscape.org/namespaces/inkscape"
   width="3.36667in"
   height="1.76667in"
   viewBox="0 0 303 159"
   version="1.1"
   id="svg3"
   sodipodi:docname="simbad.svg"
   inkscape:version="0.92.5 (2060ec1f9f, 2020-04-08)">
  <metadata
     id="metadata9">
    <rdf:RDF>
      <cc:Work
         rdf:about="">
        <dc:format>image/svg+xml</dc:format>
        <dc:type
           rdf:resource="http://purl.org/dc/dcmitype/StillImage" />
      </cc:Work>
    </rdf:RDF>
  </metadata>
  <defs
     id="defs7" />
  <sodipodi:namedview
     pagecolor="#ffffff"
     bordercolor="#666666"
     borderopacity="1"
     objecttolerance="10"
     gridtolerance="10"
     guidetolerance="10"
     inkscape:pageopacity="0"
     inkscape:pageshadow="2"
     inkscape:window-width="2488"
     inkscape:window-height="1376"
     id="namedview5"
     showgrid="false"
     inkscape:zoom="1.9678878"
     inkscape:cx="238.65887"
     inkscape:cy="27.812383"
     inkscape:window-x="1992"
     inkscape:window-y="27"
     inkscape:window-maximized="1"
     inkscape:current-layer="svg3" />
  <path
     style="fill:#666666;fill-opacity:1;stroke:none;stroke-width:0.95361853;stroke-miterlimit:4;stroke-dasharray:none;stroke-dashoffset:0;stroke-opacity:1"
     d="M 0.87528638,157.73653 C 47.823078,85.925698 140.99832,25.763429 215.41411,6.8024021 c 23.34898,-4.9228241 50.35034,-8.6225878 71.64971,4.8241779 11.96094,7.586291 16.59752,24.572542 8.33984,36.573765 -10.99128,14.405198 -24.50212,29.800181 -43.18633,33.41164 13.44603,-15.158774 24.78342,-51.763517 7.0993,-57.749396 C 191.57031,0.93120334 63.154754,112.40508 0.87528638,157.73653 Z"
     id="path819"
     inkscape:connector-curvature="0"
     sodipodi:nodetypes="cccccsc" />
  <path
     style="fill:#666666;fill-opacity:1;stroke:none;stroke-width:2.65393329;stroke-miterlimit:4;stroke-dasharray:none;stroke-dashoffset:0;stroke-opacity:1"
     d="m 247.7029,28.370322 c -9.73999,0.291581 -18.37847,5.454238 -26.60381,10.156725 -3.64858,2.086749 2.09841,0.559666 3.71883,0.560797 6.39285,-0.643155 13.26257,-0.787113 19.1269,2.203401 3.84168,1.995753 4.40173,7.109796 1.75357,10.30617 -5.66925,7.236363 -25.41136,17.279211 -32.71529,15.855922 -13.14696,-2.561898 -12.84325,-4.95769 -4.57218,-13.128755 1.20929,-1.194665 2.6757,-2.492462 -0.0237,-2.792179 -2.75445,-0.305829 -6.94894,-0.08853 -8.21899,-3.119017 l -3.2496,-7.756704 c -2.4407,2.711373 -2.53606,7.378031 -6.25982,8.864754 -2.7395,0.896942 -6.10398,-0.335011 -8.5304,1.287744 1.7338,3.04256 6.12106,4.518726 6.11713,8.444002 -0.21903,2.769682 -2.17954,5.590862 -1.45961,8.286066 3.44627,-0.714262 6.52467,-5.135459 9.97989,-3.199488 10.67647,5.982064 13.57896,8.915793 25.82026,7.730818 12.52086,-1.797739 24.99917,-7.726138 32.60949,-18.093464 4.19024,-5.95712 5.46824,-14.436125 1.68369,-20.887513 -1.92536,-3.190725 -5.5042,-4.840777 -9.1764,-4.719279 z"
     id="path833"
     inkscape:connector-curvature="0"
     sodipodi:nodetypes="cccccsssccccccsccccc" />
</svg>
