<?xml version="1.0" encoding="UTF-8" standalone="no"?>
<svg
   xmlns:dc="http://purl.org/dc/elements/1.1/"
   xmlns:cc="http://creativecommons.org/ns#"
   xmlns:rdf="http://www.w3.org/1999/02/22-rdf-syntax-ns#"
   xmlns:svg="http://www.w3.org/2000/svg"
   xmlns="http://www.w3.org/2000/svg"
   xmlns:sodipodi="http://sodipodi.sourceforge.net/DTD/sodipodi-0.dtd"
   xmlns:inkscape="http://www.inkscape.org/namespaces/inkscape"
   width="1.8266455in"
   height="2.1068115in"
   viewBox="0 0 164.39792 189.61294"
   version="1.1"
   id="svg3"
   sodipodi:docname="vizier.svg"
   inkscape:version="0.92.5 (2060ec1f9f, 2020-04-08)">
  <metadata
     id="metadata9">
    <rdf:RDF>
      <cc:Work
         rdf:about="">
        <dc:format>image/svg+xml</dc:format>
        <dc:type
           rdf:resource="http://purl.org/dc/dcmitype/StillImage" />
        <dc:title></dc:title>
      </cc:Work>
    </rdf:RDF>
  </metadata>
  <defs
     id="defs7" />
  <sodipodi:namedview
     pagecolor="#ffffff"
     bordercolor="#666666"
     borderopacity="1"
     objecttolerance="10"
     gridtolerance="10"
     guidetolerance="10"
     inkscape:pageopacity="0"
     inkscape:pageshadow="2"
     inkscape:window-width="2488"
     inkscape:window-height="1376"
     id="namedview5"
     showgrid="false"
     fit-margin-top="0"
     fit-margin-left="0"
     fit-margin-right="0"
     fit-margin-bottom="0"
     inkscape:zoom="3.1765949"
     inkscape:cx="152.78667"
     inkscape:cy="95.887772"
     inkscape:window-x="1992"
     inkscape:window-y="27"
     inkscape:window-maximized="1"
     inkscape:current-layer="svg3" />
  <path
     style="fill:#666666;fill-opacity:1;stroke:none;stroke-width:0.59076321;stroke-miterlimit:4;stroke-dasharray:none;stroke-dashoffset:0;stroke-opacity:1"
     d="M 87.582901,80.300521 C 97.227197,45.731153 86.549225,34.174709 70.661805,32.173166 42.304425,28.600622 12.945772,69.850585 0,111.88576 7.8805907,-10.77472 129.45486,-13.15153 107.78761,80.957123 133.61582,46.901219 141.26468,31.494411 98.052431,0 c 89.138759,17.254669 41.662679,91.62173 9.899829,98.946243 12.86397,14.462187 23.70062,12.640637 55.02492,9.954447 -26.67426,17.28704 -49.03087,16.82937 -65.31984,5.9934 7.48042,17.73251 13.4592,10.2287 40.80463,12.53734 -31.53018,14.90067 -37.32333,18.0486 -59.710126,-8.33072 0.264457,56.96744 60.285686,28.82367 85.646116,25.67952 C 72.35073,212.94501 35.023767,134.82158 62.010682,91.704736 -14.674542,133.80572 76.481557,178.57728 111.9516,189.61289 -69.836001,188.9248 46.840476,6.6375815 87.582901,80.300521 Z"
     id="path819"
     inkscape:connector-curvature="0"
     sodipodi:nodetypes="cscccccccccccc" />
</svg>
