<?xml version="1.0" encoding="UTF-8" standalone="no"?>
<!-- Generator: Adobe Illustrator 16.0.0, SVG Export Plug-In . SVG Version: 6.00 Build 0)  -->

<svg
   xmlns:dc="http://purl.org/dc/elements/1.1/"
   xmlns:cc="http://creativecommons.org/ns#"
   xmlns:rdf="http://www.w3.org/1999/02/22-rdf-syntax-ns#"
   xmlns:svg="http://www.w3.org/2000/svg"
   xmlns="http://www.w3.org/2000/svg"
   xmlns:sodipodi="http://sodipodi.sourceforge.net/DTD/sodipodi-0.dtd"
   xmlns:inkscape="http://www.inkscape.org/namespaces/inkscape"
   version="1.1"
   x="0px"
   y="0px"
   width="177.25137"
   height="188.57957"
   viewBox="0 0 177.25137 188.57958"
   enable-background="new 0 0 595.276 409.163"
   xml:space="preserve"
   id="svg1634"
   sodipodi:docname="xmatch.svg"
   inkscape:version="0.92.5 (2060ec1f9f, 2020-04-08)"><metadata
   id="metadata1640"><rdf:RDF><cc:Work
       rdf:about=""><dc:format>image/svg+xml</dc:format><dc:type
         rdf:resource="http://purl.org/dc/dcmitype/StillImage" /><dc:title /></cc:Work></rdf:RDF></metadata><defs
   id="defs1638">
	
	

		
		
		
	
			
			
			
			
			
			
		</defs><sodipodi:namedview
   pagecolor="#ffffff"
   bordercolor="#666666"
   borderopacity="1"
   objecttolerance="10"
   gridtolerance="10"
   guidetolerance="10"
   inkscape:pageopacity="0"
   inkscape:pageshadow="2"
   inkscape:window-width="2488"
   inkscape:window-height="1376"
   id="namedview1636"
   showgrid="false"
   fit-margin-top="0"
   fit-margin-left="0"
   fit-margin-right="0"
   fit-margin-bottom="0"
   inkscape:zoom="2.307149"
   inkscape:cx="78.614053"
   inkscape:cy="108.63667"
   inkscape:window-x="1992"
   inkscape:window-y="27"
   inkscape:window-maximized="1"
   inkscape:current-layer="svg1634" />
<g
   id="Calque_3"
   transform="translate(-107.683,-105.948)">
		</g><g
   id="Calque_2"
   transform="translate(-107.683,-105.948)">
		</g>

<path
   style="fill:#000000;stroke:none;stroke-width:1px;stroke-linecap:butt;stroke-linejoin:miter;stroke-opacity:1;fill-opacity:1"
   d="M 18.513672 0 C 16.004487 29.788524 18.010458 55.887965 23.679688 78.603516 C 8.2903318 110.10897 0.074545502 148.12483 0 180.59766 C 12.310125 150.0196 23.479102 126.32175 33.851562 108.05469 C 50.772845 145.4663 79.547699 171.12327 114.29883 187.13477 C 79.289998 156.83818 58.611181 127.10103 44.052734 91.425781 C 70.486616 51.877277 92.039078 47.798577 115.29297 51.613281 C 142.22085 56.030689 161.29632 92.65521 148.45117 105.57617 C 134.35197 119.75859 89.626953 93.791016 89.626953 93.791016 C 119.38849 136.09419 165.61521 156.49906 177.05859 93.658203 C 182.11416 65.895748 155.40878 27.826548 128.94727 18.023438 C 87.901275 4.8082786 55.496463 26.405481 33.435547 61.095703 C 27.883651 42.643635 23.185412 22.512996 18.513672 0 z "
   id="path1677" /></svg>