<?xml version="1.0" encoding="UTF-8"?>
<!-- Generator: Adobe Illustrator 16.0.0, SVG Export Plug-In . SVG Version: 6.00 Build 0)  -->
<!DOCTYPE svg PUBLIC "-//W3C//DTD SVG 1.1//EN" "http://www.w3.org/Graphics/SVG/1.1/DTD/svg11.dtd">
<svg version="1.1" id="Calque_1" xmlns="http://www.w3.org/2000/svg" xmlns:xlink="http://www.w3.org/1999/xlink" x="0px" y="0px" width="420px" height="245px" viewBox="0 0 420 245" enable-background="new 0 0 420 245" xml:space="preserve">
<g>
	<path fill="#522552" stroke="#522552" stroke-width="0.0938" stroke-miterlimit="10" d="M175.339,83.195"/>
	<path fill="#522552" stroke="#522552" stroke-width="0.0938" stroke-miterlimit="10" d="M155.795,89.743   c2.669-1.31,5.239-3.072,8.261-3.425c1.964-0.705,3.979,0.353,5.995,0.102c1.46-0.706,2.77-1.663,4.129-2.418"/>
	<path fill="#522552" stroke="#522552" stroke-width="0.0938" stroke-miterlimit="10" d="M177.203,81.987   c2.115-1.159,3.576-3.225,5.742-4.282c2.317-1.461,4.886-3.123,7.757-2.921c1.561,0.15,3.072-0.252,4.583-0.403   c0.302-1.058-0.151-2.77,1.208-3.022c1.311-0.403,2.569,0.856,3.93,0.555c1.913-0.404,3.726-1.259,5.591-1.813   c2.92-1.209,5.943-2.016,8.865-3.274c1.309-0.504,2.215-1.562,2.971-2.67c0.705,0.051,1.361,0.101,2.016,0.151   c1.309,0.051,2.064-1.36,3.072-1.915c2.115-1.007,4.281-1.812,6.6-2.014c2.77-1.359,5.791-1.512,8.762-1.713   c0.957-0.102,1.865-0.201,2.771-0.353c-1.26,0.906-2.771,1.36-4.18,1.914c3.223,0.201,6.145-1.36,9.117-2.317   c3.979-0.15,7.605-1.662,11.482-2.216c1.311-1.814,3.426-2.267,5.492-2.367c1.41-0.151,2.82-0.202,4.23-0.404   c4.23-0.604,8.916,0.354,12.592-2.316c0.455-0.202,0.908-0.202,1.412,0c1.008,0.253,2.014,0.555,3.021,0.504   c4.432-0.302,8.865-1.31,13.297-0.504c2.318,0.403,4.686-0.504,7.002-0.1c2.268,0.402,4.584,0.402,6.85,0.201   c-1.561-0.655-3.172-1.41-3.979-2.972l-0.252-0.303l0,0c0.555,0.654,1.107,1.31,1.713,1.914c1.461,0.504,3.174,0.402,4.635-0.201   c-0.404,0.403-0.756,0.756-1.16,1.158c1.563,0.403,3.578,0.252,4.535,1.713c0.553,1.158-0.705,1.862-1.361,2.569   c1.863-0.604,3.729-1.512,5.744-1.411c1.107,0.554,1.912,1.461,2.768,2.266c1.613-0.654,3.123-1.459,4.586-2.416   c0.15,0.05,0.451,0.201,0.604,0.251c-0.152,0.403-0.303,0.806-0.453,1.209c2.67,0.504,5.439,0.856,8.16,0.956   c-1.209-0.654-2.367-1.359-3.576-2.063c1.662,0.251,3.375,0.452,5.037,0.251c0.805-0.102,1.662,0.051,2.115,0.756   c0.354,0.402,0.656,0.755,1.008,1.159c1.359,0,2.77,0,4.18,0c0,2.416,1.209,4.532,3.023,6.094c0.604-1.259,1.008-2.568,1.258-3.929   c0.959,0.101,1.916,0.251,2.822,0.453l0.352,0.151c0.656,0.251,1.311,0.554,1.965,0.856c0.402,1.511,1.057,2.972,1.863,4.332   c0.15,1.007,0.201,1.964,0.252,2.972c-0.957-1.209-1.713-2.569-2.316-4.029c-0.201,0.655-0.453,1.26-0.705,1.863   c-1.311-1.208-2.268-2.67-2.922-4.331c-0.1,1.209-0.201,2.416-0.303,3.575c-0.654,0.05-1.258,0.101-1.863,0.202   c0.252,3.375,0.555,6.799,1.107,10.175c0.707-0.202,1.412-0.454,2.166-0.705c-0.604,1.409-1.008,2.871-1.26,4.383   c-0.25-0.605-0.553-1.21-0.805-1.814c-1.41,0.857-3.072,1.512-4.029,2.871c-0.402,1.359-0.1,2.821-0.1,4.181   c-0.705,0.252-1.412,0.454-2.117,0.655c-0.1,1.41-0.504,2.77-1.107,4.079c-0.504,0.756,0,1.612,0.15,2.368   c0.705,0.05,1.459,0.101,2.166,0.15c-1.813,1.562-3.225,3.577-5.188,4.987c-1.361,0.807-2.619,1.914-4.082,2.568   c-0.854-0.05-1.711-0.452-2.617-0.353c-0.908,0.555-1.563,1.41-2.268,2.166c-2.166,2.569-17.832,14.909-18.738,18.385   c-1.359-1.511-9.873-1.51-11.686-2.366c1.26-1.461,21.357-14.809,22.012-16.673c1.965-0.102,3.426-1.359,4.584-2.771   c0.402,0.202,0.807,0.454,1.209,0.705c-0.102-2.115,0.504-4.131,1.26-6.095c0.354-0.05,0.756-0.101,1.158-0.151   c0.152-1.108,0.354-2.267,0.504-3.374c0.705-0.505,1.41-1.008,2.115-1.512c-1.713-2.669-2.721-6.446-0.604-9.218   c-1.613-2.216-2.973-4.635-3.93-7.203c0.756-0.05,1.512-0.05,2.268-0.1c0.352,2.063,2.164,3.223,3.273,4.835   c0.756,2.166,0.15,4.533-1.209,6.346c0.502,0.455,0.957,0.957,1.41,1.462c0.604-0.555,1.209-1.159,1.813-1.714   c0.354,1.109,0.957,2.368,0.203,3.426c-1.008,1.713-1.512,3.577-1.412,5.592c0.906,0.05,1.814,0.1,2.771,0.1   c1.057-3.021,2.418-6.094,2.215-9.419c0.404-2.619-1.107-4.886-2.617-6.85c-1.311-1.612-3.174-2.569-4.535-4.08   c-1.209-1.209-2.215-2.771-3.826-3.426c-1.26-0.604-2.973-0.807-3.477-2.316c-0.756-1.764-2.064-3.174-3.525-4.332   c-0.252,0.402-0.453,0.805-0.656,1.208c0.303,0.504,0.555,1.059,0.857,1.613c-3.123-1.06-6.146-2.217-9.066-3.729   c-0.957,0.605-1.865,1.21-2.82,1.813c0.1-0.806,0.201-1.611,0.301-2.418c-2.316,1.712-5.086,0.504-7.605,0.101l-0.453-0.101   c-1.461-0.906-2.57-2.317-4.08-3.123c-1.361-0.302-2.721-0.15-4.08-0.302c-2.166-0.101-4.281-0.806-6.498-0.504   c-4.08,0.604-8.109,1.763-12.24,1.863c-3.072-0.2-5.139,2.318-7.705,3.526c0.1-0.402,0.199-0.806,0.352-1.208   c-1.813,0.704-3.777,1.309-5.641,0.604c0.199-0.253,0.553-0.807,0.754-1.059c-4.533-0.403-8.814,1.31-13.197,2.166   c-0.553,0.151-1.158,0.252-1.762,0.453c-1.713,0.201-3.426,0.302-5.088,0.705c-3.627,0.755-6.75,3.224-10.578,3.273   c-1.863,0.103-3.828,0.807-4.834,2.469c0.754,1.964,3.324,1.411,4.986,1.813c-1.764,0.605-3.627,0.957-5.492,0.957   c-2.014,0-3.826,1.159-5.842,1.26c-2.115,0.1-4.232-0.453-6.297,0.05c-1.863,0.453-3.576,1.462-5.289,2.316   c0.857,0.303,1.713,0.555,2.57,0.807c-1.713,0.353-3.93,0.453-4.434,2.519c-1.965,0.604-4.029,0.907-5.995,1.461   c-1.058,0.201-1.51,1.31-2.165,2.064c-1.159-0.05-2.267,0.303-3.375,0.655c-0.504,0.152-0.957,0.252-1.46,0.353   c-0.504,0.807-0.957,1.663-1.36,2.468c-3.022-0.252-5.642,1.562-7.958,3.325c0.151,0.201,0.403,0.605,0.504,0.806   c0.101,0.15,0.352,0.454,0.453,0.604c-1.158-0.101-2.418-0.705-3.626-0.201c-0.957,0.353-1.864,0.756-2.771,1.209   c0.856,0.049,1.712,0.101,2.619,0.151c0.051,0.402,0.151,1.209,0.202,1.611c-2.015,1.007-4.231,1.512-6.447,1.813   c-0.151,0.503-0.303,1.008-0.504,1.511c-1.108,0.151-2.217,0.303-3.375,0.453c-1.662,1.864-4.029,2.821-5.692,4.634   c-3.324,3.477-8.21,4.686-11.988,7.607c-2.771,2.014-5.541,4.13-8.261,6.296c-2.368,1.914-20.281,19.759-18.486,17.227   c-3.022,4.264-1.41-4.608-0.705-10.931c0.213-1.908-2.317,8.16,0.654-6.246c0.367-1.776,9.521-8.715,7.707-8.462   c0.05-0.604,0.101-1.209,0.151-1.864c1.36-0.604,2.72-0.302,3.929,0.454c1.964-1.361,3.274-3.375,4.885-5.139   c-0.503-0.604-1.007-1.208-1.46-1.813h0.403c0.806,0.051,1.562,0.051,2.368,0.101c0.353-0.403,0.655-0.807,1.007-1.259   c1.411,0.855,2.317-0.705,3.274-1.512c1.159-1.31,3.022-1.813,3.979-3.273"/>
	<path fill="#846688" stroke="#846688" stroke-width="0.0938" stroke-miterlimit="10" d="M281.219,50.605   c2.014-1.259,4.281-2.367,6.699-2.519c2.418-0.452,4.834,0.151,7.203,0.151c1.863,0,3.727,0.403,5.541,0.554   c2.266-0.201,4.432-1.007,6.748-1.057c0.807,1.562,2.418,2.316,3.979,2.972c-2.266,0.201-4.582,0.201-6.85-0.201   c-2.316-0.404-4.684,0.503-7.002,0.1c-4.432-0.806-8.865,0.202-13.297,0.504C283.232,51.16,282.227,50.858,281.219,50.605   L281.219,50.605z"/>
	
		<line fill="#1062A1" stroke="#1062A1" stroke-width="0.0938" stroke-miterlimit="10" x1="362.162" y1="48.34" x2="362.162" y2="48.34"/>
	<path fill="#846688" stroke="#846688" stroke-width="0.0938" stroke-miterlimit="10" d="M270.891,50.254   c1.16-0.403,2.168-1.108,3.275-1.563c1.914,0.353,3.777,1.21,5.641,1.914c-3.676,2.67-8.361,1.713-12.592,2.316   C267.82,51.36,269.531,50.908,270.891,50.254L270.891,50.254z"/>
	<path fill="#846688" stroke="#846688" stroke-width="0.0938" stroke-miterlimit="10" d="M335.518,52.672   c0.957,0.2,2.064,0.2,2.871,0.956c-1.662,0.201-3.375,0-5.037-0.251c1.209,0.704,2.367,1.409,3.576,2.063   c-2.721-0.1-5.49-0.452-8.16-0.956c0.15-0.403,0.301-0.806,0.453-1.209c-0.152-0.05-0.453-0.201-0.604-0.251   c-1.463,0.957-2.973,1.762-4.586,2.416c-0.855-0.805-1.66-1.712-2.768-2.266c-2.016-0.101-3.881,0.807-5.744,1.411   c0.656-0.707,1.914-1.411,1.361-2.569c-0.957-1.461-2.973-1.31-4.535-1.713c0.404-0.402,0.756-0.755,1.16-1.158l0,0   c1.359-0.856,3.324-0.304,4.734,0.403c2.771,1.611,6.045,1.057,9.117,1.46c1.965,0.051,3.879,0.504,5.842,0.906"/>
	<path fill="#611641" stroke="#611641" stroke-width="0.0938" stroke-miterlimit="10" d="M322.521,94.479   c1.51-3.979,0.504-8.261,0.957-12.391c0.102-1.26-0.354-2.519-0.807-3.678c1.008,0,2.066,0.051,3.123,0.101   c0.254-0.957,0.504-1.862,0.756-2.819c-1.713-0.757-3.475-1.562-5.188-2.318c0.051-0.453,0.1-0.907,0.15-1.31   c-0.502-0.201-1.008-0.353-1.51-0.504c-0.455,0.354-0.857,0.706-1.311,1.059c-1.41-1.611-2.719-3.325-4.482-4.585   c-2.67-1.459-5.592-2.468-8.361-3.676c-1.26-0.555-2.621-0.454-3.879-0.654c-1.461-0.604-2.619-1.764-3.779-2.771   c-3.021,1.863-6.445-0.202-9.67,0.452c-2.064,0.454-4.18,0.505-6.195-0.15c-1.813-0.403-3.424-1.461-5.289-1.764   c-1.611,0.654-2.971,1.864-4.734,2.318c-1.965,0.503-3.979,0.906-6.045,0.854c-1.41,0-2.971-0.2-4.281,0.505   c-0.705,0.555-1.41,1.107-2.115,1.611c0.15-0.554,0.252-1.108,0.402-1.661c-1.158,0.251-2.316,0.553-3.475,0.654   c-0.605-0.856-0.807-2.368-2.066-2.469c-2.064-0.1-3.777,1.159-5.59,1.965c-2.268,0.402-4.584,0.807-6.752,1.511   c-0.754,0.202-1.207,0.907-1.66,1.462c3.375,0.704,6.346-1.612,9.67-1.612c1.965-0.202,3.879-0.303,5.844-0.554   c-0.705,0.755-1.26,1.712-2.115,2.266c-1.512,0.555-2.871-0.504-4.332-0.756c-1.863,0.353-3.475,1.612-5.34,2.016   c-1.813,0.402-3.576,0.806-5.389,1.107c-1.514,0.303-3.074,0.102-4.535,0.604c-2.266,1.209-3.625,3.476-5.59,5.037   c-2.066,1.361-4.635,1.008-6.951,1.511c-1.764,0.353-3.576,0.403-5.338,0.505c-2.771,1.26-3.932,4.433-6.701,5.642   c-1.711,1.007-3.727-0.354-5.389,0.654c-2.67,1.511-5.995,2.821-8.916,1.26c0.856-0.354,1.712-0.757,2.569-1.059   c0.201-0.051,0.654-0.15,0.906-0.15c0.555-0.102,1.108-0.202,1.663-0.252c0.101-0.453,0.352-1.26,0.503-1.662   c1.008-0.353,1.964-0.856,2.921-1.26c2.822-1.209,5.643-2.519,8.563-3.476c1.26-0.302,2.166-1.209,2.973-2.115   c-2.469,0.402-4.787,1.259-7.203,1.863c0.504-2.065,2.721-2.166,4.434-2.519c-0.857-0.252-1.713-0.504-2.57-0.807   c1.713-0.854,3.426-1.863,5.289-2.316c2.064-0.503,4.182,0.05,6.297-0.05c2.016-0.101,3.828-1.26,5.842-1.26   c1.865,0,3.729-0.352,5.492-0.957c-1.662-0.402-4.232,0.15-4.986-1.813c1.006-1.662,2.971-2.366,4.834-2.469   c0.303,0.757,0.555,1.562,0.857,2.369c1.309-1.109,2.619-2.369,4.332-2.871c2.77-0.757,5.59-1.31,8.211-2.569   c-0.959-0.102-1.916-0.151-2.822-0.202c1.662-0.403,3.375-0.504,5.088-0.705c0.201,1.41,2.568,0.958,1.762-0.453   c4.383-0.856,8.664-2.569,13.197-2.166c-0.201,0.252-0.555,0.806-0.754,1.059c1.863,0.704,3.828,0.1,5.641-0.604   c-0.152,0.402-0.252,0.806-0.352,1.208c2.566-1.208,4.633-3.727,7.705-3.526l0,0c4.131-0.101,8.16-1.26,12.24-1.863   c2.217-0.302,4.332,0.403,6.498,0.504c1.359,0.151,2.719,0,4.08,0.302c1.51,0.806,2.619,2.217,4.08,3.123   c-0.656,0.151-1.311,0.303-1.965,0.504c-0.051,0.555-0.1,1.108-0.1,1.663c1.057,0.1,2.166,0.201,3.273,0.302   c-0.252-0.757-0.504-1.562-0.756-2.368c2.52,0.403,5.289,1.611,7.605-0.101c-0.1,0.807-0.201,1.612-0.301,2.418   c0.955-0.604,1.863-1.208,2.82-1.813c2.92,1.512,5.943,2.669,9.066,3.729c-0.303-0.555-0.555-1.109-0.857-1.613   c0.203-0.403,0.404-0.806,0.656-1.208c1.461,1.158,2.77,2.568,3.525,4.332c0.504,1.51,2.217,1.712,3.477,2.316   c1.611,0.655,2.617,2.217,3.826,3.426c1.361,1.511,3.225,2.468,4.535,4.08c1.51,1.964,3.021,4.23,2.617,6.85   c0.203,3.325-1.158,6.397-2.215,9.419c-0.957,0-1.865-0.05-2.771-0.1c-0.1-2.015,0.404-3.879,1.412-5.592   c0.754-1.058,0.15-2.316-0.203-3.426c-0.604,0.555-1.209,1.159-1.813,1.714c-0.453-0.505-0.908-1.007-1.41-1.462   c1.359-1.813,1.965-4.18,1.209-6.346c-1.109-1.612-2.922-2.771-3.273-4.835c-0.756,0.05-1.512,0.05-2.268,0.1   c0.957,2.568,2.316,4.987,3.93,7.203c-2.117,2.771-1.109,6.549,0.604,9.218c-0.705,0.504-1.41,1.007-2.115,1.512   c-0.15,1.107-0.352,2.266-0.504,3.374c-0.402,0.051-0.805,0.102-1.158,0.151c-0.756,1.964-1.361,3.979-1.26,6.095   c-0.402-0.251-0.807-0.503-1.209-0.705c-1.158,1.411-2.619,2.669-4.584,2.771c-0.654,1.864-1.762,3.476-3.021,4.936"/>
	<path fill="#611641" stroke="#611641" stroke-width="0.0938" stroke-miterlimit="10" d="M321.363,96.694"/>
	<path fill="#1062A1" stroke="#1062A1" stroke-width="0.0938" stroke-miterlimit="10" d="M340.504,54.384   c2.871-0.252,5.842-0.453,8.563,0.555c1.512,0.755,3.021,1.611,3.729,3.223c-0.906-0.202-1.863-0.353-2.822-0.453   c-0.25,1.36-0.654,2.67-1.258,3.929c-1.814-1.562-3.023-3.678-3.023-6.094c-1.41,0-2.82,0-4.18,0   C341.16,55.139,340.857,54.786,340.504,54.384L340.504,54.384z"/>
	<path fill="#B41736" stroke="#B41736" stroke-width="0.0938" stroke-miterlimit="10" d="M285.902,56.045   c2.467,0.555,5.037,0.202,7.203-1.158c2.469,0.958,5.893,0.756,7.152,3.577c-1.814,0.252-3.576-0.555-5.389-0.453   c-0.453-0.303-0.857-0.655-1.311-0.957c-2.568,0.251-5.139,0.251-7.656,0.251C285.902,56.902,285.902,56.448,285.902,56.045   L285.902,56.045z"/>
	<path fill="#1062A1" stroke="#1062A1" stroke-width="0.0938" stroke-miterlimit="10" d="M241.729,57.859   c0.652-0.151,1.309-0.303,1.963-0.402c0.807,0.15,1.561,0.302,2.318,0.452c-2.973,0.957-5.895,2.519-9.117,2.317   c1.408-0.554,2.92-1.008,4.18-1.914C241.223,58.212,241.576,57.959,241.729,57.859L241.729,57.859z"/>
	<path fill="#B41736" stroke="#B41736" stroke-width="0.0938" stroke-miterlimit="10" d="M300.963,57.708   c0.654-0.201,1.309-0.353,1.965-0.504l0.453,0.101c0.252,0.807,0.504,1.611,0.756,2.368c-1.107-0.101-2.217-0.202-3.273-0.302   C300.863,58.816,300.912,58.263,300.963,57.708L300.963,57.708z"/>
	<path fill="#846688" stroke="#846688" stroke-width="0.0938" stroke-miterlimit="10" d="M248.83,59.622   c0.604-0.201,1.209-0.302,1.762-0.453C251.398,60.58,249.031,61.032,248.83,59.622L248.83,59.622z"/>
	<path fill="#1062A1" stroke="#1062A1" stroke-width="0.0938" stroke-miterlimit="10" d="M351.283,59.976   c0.654,1.661,1.611,3.123,2.922,4.331c-0.303,0.806-0.654,1.611-0.957,2.367c-0.807-1.007-1.563-2.064-2.268-3.123   C351.082,62.392,351.184,61.185,351.283,59.976L351.283,59.976z"/>
	<path fill="#846688" stroke="#846688" stroke-width="0.0938" stroke-miterlimit="10" d="M233.164,63.601   c3.828-0.05,6.951-2.519,10.578-3.273c0.906,0.051,1.863,0.101,2.822,0.202c-2.621,1.26-5.441,1.813-8.211,2.569   c-1.713,0.502-3.023,1.762-4.332,2.871C233.719,65.162,233.467,64.357,233.164,63.601L233.164,63.601z"/>
	<path fill="#522552" stroke="#522552" stroke-width="0.0938" stroke-miterlimit="10" d="M249.133,63.249   c1.813-0.806,3.525-2.064,5.59-1.965c1.26,0.101,1.461,1.612,2.066,2.469c-0.15,0.05-0.402,0.201-0.555,0.303   c-1.965,0.251-3.879,0.352-5.844,0.554c0.051-0.354,0.15-0.958,0.252-1.26C250.24,63.35,249.535,63.299,249.133,63.249   L249.133,63.249z"/>
	<path fill="#846688" stroke="#846688" stroke-width="0.0938" stroke-miterlimit="10" d="M354.205,64.307   c0.252-0.604,0.504-1.208,0.705-1.863c0.604,1.46,1.359,2.82,2.316,4.029c-0.051-1.008-0.102-1.965-0.252-2.972   c1.008,1.007,1.965,2.267,1.914,3.777c0.051,2.519-0.402,4.987-0.906,7.455c-0.352,2.217-2.266,3.576-3.625,5.138   c-1.764,1.461-0.857,4.08-2.066,5.843c-0.203-1.208-0.504-2.417-0.756-3.576c-0.301,0.957-0.604,1.914-0.908,2.871   c-0.451-0.15-0.955-0.303-1.41-0.402c-0.855,1.813-1.711,3.777-3.424,5.037c0.553-1.914,1.209-3.778,2.418-5.29   c1.662-2.166,2.367-4.885,4.383-6.748c1.107-1.109,2.266-2.268,2.619-3.88c0.451-2.064,0.354-4.131,0.402-6.245   c-0.201,0.453-0.402,0.906-0.605,1.359c-0.604-0.704-1.207-1.411-1.762-2.166C353.551,65.918,353.902,65.112,354.205,64.307   L354.205,64.307z"/>
	<path fill="#CABCC7" stroke="#CABCC7" stroke-width="0.0938" stroke-miterlimit="10" d="M215.986,64.811   c1.008-0.856,3.275-2.316,3.881-0.504c-0.654-0.051-1.311-0.101-2.016-0.151c-0.756,1.108-1.662,2.166-2.971,2.67   c-2.922,1.259-5.945,2.065-8.865,3.274c-0.203-0.555-0.354-1.108-0.504-1.663c0.604-0.353,1.209-1.008,1.963-1.058   c0.453,0.102,0.959,0.252,1.461,0.353c0.402-0.303,0.857-0.604,1.311-0.906l0.252-0.051   C212.412,66.473,214.477,66.17,215.986,64.811L215.986,64.811z"/>
	<path fill="#1062A1" stroke="#1062A1" stroke-width="0.0938" stroke-miterlimit="10" d="M242.381,64.76   c2.168-0.704,4.484-1.108,6.752-1.511c0.402,0.05,1.107,0.101,1.51,0.101c-0.102,0.302-0.201,0.906-0.252,1.26   c-3.324,0-6.295,2.316-9.67,1.612C241.174,65.667,241.627,64.962,242.381,64.76L242.381,64.76z"/>
	<path fill="#611641" stroke="#611641" stroke-width="0.0938" stroke-miterlimit="10" d="M349.117,63.753   c0.605-0.102,1.209-0.152,1.863-0.202c0.705,1.059,1.461,2.116,2.268,3.123c0.555,0.755,1.158,1.462,1.762,2.166   c0.203-0.453,0.404-0.906,0.605-1.359c-0.049,2.114,0.049,4.181-0.402,6.245c-0.354,1.612-1.512,2.771-2.619,3.88   c-2.016,1.863-2.721,4.582-4.383,6.748c-1.209,1.512-1.865,3.376-2.418,5.29c-0.102,0.1-0.404,0.352-0.504,0.452   c-0.707-0.05-1.461-0.101-2.166-0.15c-0.15-0.756-0.654-1.612-0.15-2.368c0.604-1.31,1.008-2.669,1.107-4.079   c0.705-0.201,1.412-0.403,2.117-0.655c0-1.359-0.303-2.821,0.1-4.181c0.957-1.359,2.619-2.014,4.029-2.871   c0.252,0.604,0.555,1.209,0.805,1.814c0.252-1.512,0.656-2.974,1.26-4.383c-0.754,0.251-1.459,0.503-2.166,0.705   C349.672,70.552,349.369,67.128,349.117,63.753L349.117,63.753z"/>
	<path fill="#846688" stroke="#846688" stroke-width="0.0938" stroke-miterlimit="10" d="M210.498,66.774   c1.611-1.157,3.525-1.864,5.488-1.964C214.477,66.17,212.412,66.473,210.498,66.774L210.498,66.774z"/>
	<path fill="#B41736" stroke="#B41736" stroke-width="0.0938" stroke-miterlimit="10" d="M207.475,67.379   c0.908-0.201,1.814-0.453,2.771-0.554c-0.453,0.303-0.908,0.604-1.311,0.906C208.434,67.631,207.928,67.48,207.475,67.379   L207.475,67.379z"/>
	<path fill="#B41736" stroke="#B41736" stroke-width="0.0938" stroke-miterlimit="10" d="M223.645,70.955   c1.26-0.503,2.266,0.454,3.273,1.059c-3.373,1.813-7.354,2.921-11.131,2.166C217.902,72.165,220.924,71.711,223.645,70.955   L223.645,70.955z"/>
	<path fill="#B41736" stroke="#B41736" stroke-width="0.0938" stroke-miterlimit="10" d="M318.693,72.618   c0.453-0.353,0.855-0.705,1.311-1.059c0.502,0.151,1.008,0.303,1.51,0.504c-0.051,0.402-0.1,0.856-0.15,1.31   c1.713,0.757,3.475,1.562,5.188,2.318c-0.252,0.957-0.502,1.862-0.756,2.819c-1.057-0.05-2.115-0.101-3.123-0.101   C321.514,76.346,320.154,74.432,318.693,72.618L318.693,72.618z"/>
	<path fill="#B41736" stroke="#B41736" stroke-width="0.0938" stroke-miterlimit="10" d="M208.533,75.791   c2.416-0.604,4.734-1.461,7.203-1.863c-0.807,0.906-1.713,1.813-2.973,2.115c-2.92,0.957-5.74,2.267-8.563,3.476   c-1.259,0-2.569-0.151-3.828-0.202c0.655-0.755,1.107-1.863,2.165-2.064C204.504,76.698,206.568,76.396,208.533,75.791   L208.533,75.791z"/>
	<path fill="#CABCC7" stroke="#CABCC7" stroke-width="0.0938" stroke-miterlimit="10" d="M196.999,79.972   c1.108-0.353,2.216-0.705,3.375-0.655c1.259,0.051,2.568,0.202,3.828,0.202c-0.957,0.403-1.914,0.907-2.921,1.26   c-1.007,0.251-2.065,0.452-3.072,0.705c-0.504-0.403-1.008-0.755-1.512-1.159L196.999,79.972L196.999,79.972z"/>
	<path fill="#B41736" stroke="#B41736" stroke-width="0.0938" stroke-miterlimit="10" d="M245.404,79.519"/>
	<path fill="#B41736" stroke="#B41736" stroke-width="0.0938" stroke-miterlimit="10" d="M248.93,81.634   c3.477,0.303,7.002,0.354,10.477,0.354c1.965,0.05,3.629-1.209,5.543-1.311c1.51,0.102,2.518,1.511,4.029,1.863   c1.209-0.1,2.316-0.654,3.475-1.007c0.555,0.152,1.107,0.252,1.613,0.403c0.604,0.453,1.158,0.855,1.711,1.311   c-1.711,0.2-3.424,0.604-4.986,1.309c-2.619,1.21-5.541,1.008-8.311,1.662c-0.15,0.353-0.303,0.705-0.453,1.058   c0.756,0.302,1.459,0.655,2.215,0.957c-0.855,0.554-1.813,1.009-2.518,1.713c-0.152,0.655-0.152,1.41,0.15,2.015   c0.758,0.654,1.662,1.058,2.568,1.461c-0.553,1.159-4.783-1.471-6.445-1.673c-1.916,0.052,2.166,2.075,1.762,0.766   c-3.475,0-6.949-0.956-10.428-0.452c-2.316,0.452-4.633,0.755-6.848,1.46c-1.262-0.806-2.52-2.064-4.131-1.712   c-1.008,0.1-1.563,1.057-2.268,1.712c1.713,0.202,3.475,0.353,5.238,0.302c-4.938,0.303-9.771,1.411-14.658,2.016   c-1.914,0.906-3.979,1.41-6.045,0.705c-2.316,2.217-5.238,3.525-8.26,4.482c-0.051,0.201-0.15,0.555-0.252,0.756   c-0.502,0.201-1.008,0.454-1.512,0.655c-0.754-0.504-1.51-1.009-2.316-1.511c-0.354,0.402-0.756,0.805-1.158,1.208   c0.402,0.504,0.805,1.008,1.26,1.511c-2.52,0.353-4.785,1.562-7.254,1.915c-1.813,0.201-14.607,7.706-16.219,8.563   c-0.303-1.208-1.713-2.871-2.065-4.029c-1.915-0.051,0.302-2.562-1.562-2.512c1.662-1.359,11.384-6.605,13.298-7.613   c4.08-2.216,8.663-3.475,12.29-6.347c1.158-0.855,2.115-2.115,3.576-2.468c2.064-0.504,4.18-1.259,6.346-1.36   c1.512,1.31,3.326-0.051,4.988-0.15c2.217-0.152,4.482-0.353,6.195-1.814l0.453-0.201c3.627-1.563,7.756-0.705,11.586-1.36   c2.115-1.209,4.08-2.669,6.195-3.827"/>
	<path fill="#846688" stroke="#846688" stroke-width="0.0938" stroke-miterlimit="10" d="M195.538,80.324   c0.503-0.101,0.957-0.2,1.46-0.353l-0.303,0.353c-0.503,0.756-1.007,1.562-1.46,2.368c0.957,0.05,1.964,0.1,2.972,0.15   c-0.856,0.302-1.713,0.705-2.569,1.059c-0.605-0.051-1.158,0-1.713,0c0.051-0.303,0.202-0.807,0.252-1.109   C194.581,81.987,195.034,81.131,195.538,80.324L195.538,80.324z"/>
	<path fill="#611641" stroke="#611641" stroke-width="0.0938" stroke-miterlimit="10" d="M285.551,110.345   c-2.117,1.411-4.332,2.62-6.498,3.979c0.855-3.576,0.049-7.253,0.15-10.879c0.201,1.208,0.352,2.468,0.504,3.676   c1.158-1.511,2.568-2.871,4.131-3.979c-0.102-0.957-0.455-1.915-0.203-2.871c0.756-0.807,1.814-1.259,2.621-2.016   c0.303-0.805,0.402-1.662,0.604-2.469c-0.857,0.354-1.662,0.757-2.469,1.159c-2.268-2.871-5.793-3.979-9.268-4.482   c-1.41,0.604-1.311,2.217-1.209,3.476c-2.52-0.756-5.037-2.568-7.756-1.662c-0.605-0.302-1.16-0.554-1.715-0.856   c-0.906-0.403-1.811-0.807-2.568-1.461c-0.303-0.604-0.303-1.359-0.15-2.015c0.705-0.704,1.662-1.159,2.518-1.713   c-0.756-0.302-1.459-0.655-2.215-0.957c0.15-0.353,0.303-0.705,0.453-1.058c2.77-0.654,5.691-0.452,8.311-1.662   c1.563-0.705,3.275-1.108,4.986-1.309c-0.553-0.455-1.107-0.857-1.711-1.311c1.359-0.604,2.77-1.208,4.23-1.511l0,0   c4.18-0.202,8.361,0.755,12.492-0.051c2.469-0.251,4.885,0.654,7.354,0.855c1.662,0.102,2.115,1.965,2.721,3.225   c0.555,1.562,1.813,2.67,3.123,3.627c-0.303,0.1-0.908,0.251-1.209,0.352c0.555,1.109,1.107,2.217,1.66,3.325   c-1.963,0.906-3.727,2.519-4.08,4.785c-0.604,0.101-1.309,0.05-1.711,0.555c-2.014,1.359-2.166,3.979-1.611,6.145"/>
	<path fill="#1062A1" stroke="#1062A1" stroke-width="0.0938" stroke-miterlimit="10" d="M195.236,82.692   c0.453-0.807,0.957-1.612,1.46-2.368c0.504,0.404,1.008,0.756,1.512,1.159c0.252,0.302,0.705,0.906,0.906,1.209   c-0.252,0-0.705,0.1-0.906,0.15C197.2,82.792,196.193,82.742,195.236,82.692L195.236,82.692z"/>
	<path fill="#522552" stroke="#522552" stroke-width="0.0938" stroke-miterlimit="10" d="M198.208,81.483   c1.007-0.253,2.065-0.454,3.072-0.705c-0.151,0.402-0.402,1.209-0.503,1.662c-0.555,0.05-1.108,0.15-1.663,0.252   C198.913,82.39,198.459,81.785,198.208,81.483L198.208,81.483z"/>
	<path fill="#1062A1" stroke="#1062A1" stroke-width="0.0938" stroke-miterlimit="10" d="M332.143,107.423   c-2.115,0.706-3.98,1.965-6.146,2.469c-0.402-0.957-0.855-1.864-1.359-2.72c1.662-0.403,3.477-0.706,4.938-1.663   c2.871-1.763,4.684-4.784,7.453-6.648c1.412-0.906,2.621-2.115,3.074-3.777c1.963-1.41,3.375-3.426,5.188-4.987   c0.1-0.101,0.402-0.353,0.504-0.452c1.713-1.26,2.568-3.224,3.424-5.037c0.455,0.1,0.959,0.252,1.41,0.402   c0.305-0.957,0.607-1.914,0.908-2.871l0,0c0.252,1.159,0.553,2.368,0.756,3.576c-1.16,3.022-1.664,6.448-3.729,9.017   c-1.057,1.512-3.021,0.504-4.533,0.453c-2.869,1.663-4.381,4.735-6.498,7.152c-1.359,1.662-3.426,2.821-4.08,4.987"/>
	<path fill="#611641" stroke="#611641" stroke-width="0.0938" stroke-miterlimit="10" d="M186.219,86.117   c2.317-1.764,4.937-3.577,7.958-3.325c-0.05,0.303-0.201,0.807-0.252,1.109c-0.957,0.05-1.914,0.05-2.871,0   c0.454,0.2,0.907,0.402,1.411,0.604c-0.655,1.359-0.957,3.071-2.317,3.928c-1.915,1.512-4.635,1.36-6.397,3.174   c-2.871,1.914-6.246,3.073-9.268,4.836c-2.065,1.41-4.685,1.158-6.901,2.266c1.663-1.813,4.03-2.77,5.692-4.634   c1.158-0.15,2.267-0.302,3.375-0.453c0.201-0.503,0.353-1.008,0.504-1.511c2.216-0.302,4.433-0.807,6.447-1.813   c-0.05-0.402-0.151-1.209-0.202-1.611c-0.907-0.051-1.763-0.103-2.619-0.151c0.907-0.453,1.813-0.856,2.771-1.209   c1.208-0.504,2.468,0.101,3.626,0.201c0.856,0.101,1.713,0,2.569-0.051c0-0.754-0.05-1.562-0.05-2.316   c-1.007,0.605-1.964,1.158-2.972,1.763C186.623,86.723,186.371,86.318,186.219,86.117L186.219,86.117z"/>
	<path fill="#846688" stroke="#846688" stroke-width="0.0938" stroke-miterlimit="10" d="M186.723,86.923   c1.007-0.604,1.964-1.157,2.972-1.763c0,0.755,0.05,1.563,0.05,2.316c-0.856,0.051-1.713,0.151-2.569,0.051   C187.075,87.377,186.824,87.073,186.723,86.923L186.723,86.923z"/>
	<path fill="#522552" stroke="#522552" stroke-width="0.0938" stroke-miterlimit="10" d="M223.342,86.47   c0.957-0.302,1.863-0.756,2.822-0.756c1.158-0.101,1.611,1.209,2.266,1.914l-0.453,0.201c-1.41,0.353-2.82,0.655-4.332,0.655   C223.545,87.829,223.443,87.175,223.342,86.47L223.342,86.47z"/>
	<path fill="#611641" stroke="#611641" stroke-width="0.0938" stroke-miterlimit="10" d="M223.645,88.484   c1.512,0,2.922-0.303,4.332-0.655c-1.713,1.462-3.979,1.662-6.195,1.814c-1.662,0.1-3.477,1.46-4.988,0.15   C218.961,88.736,221.277,88.182,223.645,88.484L223.645,88.484z"/>
	<path fill="#611641" stroke="#611641" stroke-width="0.0938" stroke-miterlimit="10" d="M236.086,93.521   c0.705-0.655,1.26-1.612,2.268-1.712c1.611-0.353,2.869,0.906,4.131,1.712c-0.305,0.101-0.908,0.252-1.16,0.302   C239.561,93.874,237.799,93.724,236.086,93.521L236.086,93.521z"/>
	
		<line fill="#1062A1" stroke="#1062A1" stroke-width="0.0938" stroke-miterlimit="10" x1="361.66" y1="93.773" x2="361.66" y2="93.773"/>
	<path fill="#B41736" stroke="#B41736" stroke-width="0.0938" stroke-miterlimit="10" d="M266.309,103.192   c0.906-2.015,2.266-3.827,3.375-5.741c-1.26-0.957-2.52-1.965-3.525-3.174c2.719-0.906,5.236,0.906,7.756,1.662   c-0.102-1.259-0.201-2.871,1.209-3.476l0,0c3.475,0.504,7,1.611,9.268,4.482c0.807-0.402,1.611-0.806,2.469-1.159   c-0.201,0.807-0.301,1.664-0.604,2.469c-0.807,0.757-1.865,1.209-2.621,2.016c-0.252,0.956,0.701,2.048,0.203,2.871   c-1.412,2.327-14.256,13.621-18.145,15.333"/>
	<path fill="#B41736" stroke="#B41736" stroke-width="0.0938" stroke-miterlimit="10" d="M145.772,93.823   c0.806-0.15,1.41,0.454,2.015,0.857c-0.352,0.452-0.654,0.855-1.007,1.259c-0.806-0.05-1.562-0.05-2.368-0.101   C144.714,95.083,144.865,94.075,145.772,93.823L145.772,93.823z"/>
	<path fill="#846688" stroke="#846688" stroke-width="0.0938" stroke-miterlimit="10" d="M336.02,97.651   c1.463-0.654,2.721-1.762,4.082-2.568c-0.453,1.662-1.662,2.871-3.074,3.777c-2.77,1.864-4.582,4.886-7.453,6.648   c-1.461,0.957-3.275,1.26-4.938,1.663c0.906-3.476,4.332-5.138,6.498-7.707c0.705-0.756,1.359-1.611,2.268-2.166   C334.309,97.199,335.166,97.602,336.02,97.651L336.02,97.651z"/>
	<path fill="#846688" stroke="#846688" stroke-width="0.0938" stroke-miterlimit="10" d="M298.646,97.099   c0.402-0.505,1.107-0.454,1.711-0.555c-0.199,0.555-0.402,1.107-0.604,1.712c-0.301-0.201-0.957-0.604-1.26-0.755L298.646,97.099   L298.646,97.099z"/>
	<path fill="#CABCC7" stroke="#CABCC7" stroke-width="0.0938" stroke-miterlimit="10" d="M301.215,96.896   c0.756,0,0.654,1.209-0.051,1.209C300.41,98.105,300.51,96.847,301.215,96.896L301.215,96.896z"/>
	<path fill="#B41736" stroke="#B41736" stroke-width="0.0938" stroke-miterlimit="10" d="M297.035,103.243   c-0.555-2.166-0.402-4.785,1.611-6.145l-0.152,0.402c-0.252,0.755-0.553,1.562-0.855,2.366c1.311,0.757,2.619,1.714,2.771,3.376   C299.25,103.192,298.143,103.192,297.035,103.243L297.035,103.243z"/>
	<path fill="#1062A1" stroke="#1062A1" stroke-width="0.0938" stroke-miterlimit="10" d="M159.07,100.22   c0.705-0.502,1.511-0.05,2.216,0.052c-1.662,0.806-3.273,1.763-4.433,3.224c-2.619,2.267-5.54,4.181-8.11,6.446   c-0.855,1.009-2.115,0.555-3.173,0.253c1.662-2.419,4.584-3.376,6.85-5.088C154.889,103.798,156.451,101.329,159.07,100.22   L159.07,100.22z"/>
	<path fill="#611641" stroke="#611641" stroke-width="0.0938" stroke-miterlimit="10" d="M207.123,102.135   c0.402-0.403,0.805-0.806,1.158-1.208c0.807,0.502,1.563,1.007,2.316,1.511c0.504-0.201,1.01-0.454,1.512-0.655   c-0.252,1.158-0.502,2.268-0.855,3.375c-1.16-0.051-2.268-0.453-2.871-1.512C207.928,103.143,207.525,102.639,207.123,102.135   L207.123,102.135z"/>
	<path fill="#CABCC7" stroke="#CABCC7" stroke-width="0.0938" stroke-miterlimit="10" d="M294.264,103.293   c0.201-0.806,1.311-0.855,1.459,0C295.373,103.293,294.617,103.293,294.264,103.293L294.264,103.293z"/>
	<path fill="#B41736" stroke="#B41736" stroke-width="0.0938" stroke-miterlimit="10" d="M263.789,111.705   c1.914-2.216,1.965-5.289,2.469-8.06c0.402,4.13-0.402,8.362,0.605,12.442c0.15,0.554,0.352,1.107,0.553,1.611   c-2.316,1.007-4.533,2.166-6.949,2.972c-0.455-1.561-0.908-3.174-1.311-4.735C260.869,114.728,262.379,113.217,263.789,111.705   L263.789,111.705z"/>
	<path fill="#B41736" stroke="#B41736" stroke-width="0.0938" stroke-miterlimit="10" d="M177.253,109.741   c1.863-0.906,3.778-1.764,5.339-3.173l0,0c0.755,2.518,1.46,5.036,2.317,7.555c-1.007,0.906-1.864,2.015-2.871,2.972   c-1.31,1.058-2.871,1.611-4.231,2.568c-0.554-1.007-0.705-2.771-2.116-2.87c-1.359-0.253-1.914,1.259-2.77,2.014   c-1.562,1.411-3.576,2.318-5.138,3.829c1.209,0.655,2.569,1.058,3.828,1.612c0.353,1.259,0.302,2.568,0.302,3.878   c-0.151,0.654-0.353,1.31-0.554,1.964c-0.251-0.1-0.755-0.301-1.007-0.402c-0.755,3.073-2.418,5.842-3.123,8.966   c-0.302,1.713-2.216,2.468-2.619,4.132c0.101,2.165,0.705,4.28,0.151,6.396c-0.654,2.167-1.712,4.181-2.015,6.397l-0.05,0.453   c4.634,0.201,9.318,0.654,13.902-0.151c1.965,0.101,3.929,0.252,5.894,0.403c-1.561,0.856-3.123,1.663-4.735,2.367   c0.957,0.604,1.864,1.157,2.821,1.764c-3.425,2.114-7.556,1.359-11.384,1.763c-3.173-0.353-6.246,1.712-9.369,0.352   c0.353,1.814,0.353,3.678,0.152,5.492c-6.044,0.957-12.14,2.971-18.285,1.913c-2.216-0.403-4.483-0.454-6.598-1.108   c-1.31-0.805-2.115-2.217-2.67-3.627c0.051-1.107,0.454-2.215,0.806-3.274c-0.403-0.201-0.806-0.402-1.208-0.604   c0-1.563-1.378-4.976-1.562-4.735c10.125-13.272,11.736-14.96,11.938-15.614c2.82-4.181,6.648-7.505,9.973-11.233   c2.316-2.568,5.188-4.634,7.203-7.454c1.562-1.311,3.224-2.519,4.987-3.526c2.015-1.107,3.526-2.821,5.491-4.029   c1.208-0.806,2.568-1.36,3.525-2.418"/>
	<path fill="#B41736" stroke="#B41736" stroke-width="0.0938" stroke-miterlimit="10" d="M211.203,111.453   c1.059-0.907,10.93-4.265,12.24-4.517c-0.051,2.116,14.924,1.46,15.027,3.626c1.51,0.05,2.107,7.617,3.609,7.439   c-3.828,0.453-24.742,0.017-27.301,2.166c-1.391,1.168-1.309,3.273-1.713,4.986c0.604,0.051,1.26,0.101,1.914,0.201   c0,2.972,0,5.994,0.051,9.017c-1.914,0.353-3.879,0.755-5.742,1.359c-1.41,0.253-2.914,0.086-4.383,0.103   c-24.379,0.25-17.075-8.766-5.389-17.178c1.895-1.363,3.778-2.871,5.944-3.828C207.475,113.872,209.49,112.863,211.203,111.453   L211.203,111.453z"/>
	<path fill="#611641" stroke="#611641" stroke-width="0.0938" stroke-miterlimit="10" d="M127.437,113.771   c0.353-0.504,0.856-0.806,1.36-1.108c-0.503,5.692-0.604,11.484,0.05,17.177c-1.057,0.958-2.166,1.965-3.425,2.618   c-1.511,0.807-3.274,1.311-4.332,2.72c-0.756,1.06-8.916,9.723-9.772,10.68c-0.906-3.778-5.742-5.943-6.447-9.772   c1.712-2.568,14.557-14.405,17.277-16.018c0.857-0.705,1.763-1.36,2.669-2.064c-0.201-0.403-0.352-0.756-0.553-1.109   C125.422,115.986,126.48,114.879,127.437,113.771L127.437,113.771z"/>
	<path fill="#522552" stroke="#522552" stroke-width="0.0938" stroke-miterlimit="10" d="M123.155,115.986   c1.209-1.107,2.771-1.662,4.282-2.216c-0.957,1.108-2.015,2.216-3.173,3.122c0.201,0.354,0.352,0.706,0.553,1.109   c-0.906,0.704-1.813,1.359-2.669,2.064C122.35,118.656,122.602,117.246,123.155,115.986L123.155,115.986z"/>
	<path fill="#522552" stroke="#522552" stroke-width="0.0938" stroke-miterlimit="10" d="M300.711,115.483   c3.275,0.452,6.699-0.454,9.924,0.503c0.957,0.202,1.459,1.009,1.762,1.863l-0.201-0.15c-0.604-0.252-1.209-0.555-1.764-0.807   c-2.467,3.325-6.697,4.383-9.77,7.053C300.611,121.125,300.611,118.304,300.711,115.483L300.711,115.483z"/>
	<path fill="#1062A1" stroke="#1062A1" stroke-width="0.0938" stroke-miterlimit="10" d="M119.176,118.203   c1.007-1.26,2.619-1.511,3.979-2.217c-0.554,1.26-0.806,2.67-1.007,4.08c-2.72,1.612-4.433,4.332-6.145,6.9   c-0.403-0.2-0.755-0.402-1.159-0.554c-0.101-0.403-0.201-0.806-0.302-1.208C116.758,123.341,117.01,120.117,119.176,118.203   L119.176,118.203z"/>
	<path fill="#611641" stroke="#611641" stroke-width="0.0938" stroke-miterlimit="10" d="M257.998,116.642   c0.352-0.252,0.754-0.504,1.158-0.706c0.402,1.562,0.855,3.175,1.311,4.735c2.416-0.806,4.633-1.965,6.949-2.972   c-0.201-0.504-0.402-1.058-0.553-1.611c3.727,0.503,7.453,0,11.182-0.252c-1.662,0.353-2.873,1.511-4.232,2.367   c-3.324,2.166-7,3.777-10.477,5.691c-1.209,0.656-1.863,1.864-2.215,3.123C261.322,123.291,259.709,119.814,257.998,116.642   L257.998,116.642z"/>
	<path fill="#B41736" stroke="#B41736" stroke-width="0.0938" stroke-miterlimit="10" d="M215.031,134.372   c-0.078-1.031-2.828-9.354-0.051-9.017c5.66,0.685,12.654-0.295,12.594-1.964c-2.52-0.101-4.986-0.202-7.506-0.101   c1.561-0.604,3.225-1.311,4.182-2.771c0.805-1.26,1.309-2.671,1.963-3.98l0,0c3.678,0.051,7.355-0.201,11.031,0   c1.713,0.051,3.324,0.655,4.836,1.462c-0.553,1.409-1.297,2.738-2.268,3.979c-2.166,2.771-2.518,4.231-3.727,4.986"/>
	<path fill="#611641" stroke="#611641" stroke-width="0.0938" stroke-miterlimit="10" d="M172.921,118.807   c0.856-0.755,1.411-2.267,2.77-2.014c1.411,0.1,1.562,1.863,2.116,2.87c-1.109,0.957-1.612,2.317-1.31,3.729   c-1.158-0.051-2.317-0.151-3.476-0.303c-0.302,1.713-0.654,3.375-1.108,5.037c0-1.31,0.051-2.619-0.302-3.878   c-1.259-0.555-2.619-0.957-3.828-1.612C169.345,121.125,171.36,120.218,172.921,118.807L172.921,118.807z"/>
	<path fill="#1062A1" stroke="#1062A1" stroke-width="0.0938" stroke-miterlimit="10" d="M300.662,123.945   c3.072-2.67,7.303-3.728,9.77-7.053c0.555,0.252,1.16,0.555,1.764,0.807c-1.209,2.015-2.973,3.576-5.086,4.584   c-1.664,1.763-3.326,3.526-4.938,5.339c-0.453,0.151-0.957,0.252-1.41,0.403C300.711,126.665,300.711,125.306,300.662,123.945   L300.662,123.945z"/>
	<path fill="#611641" stroke="#611641" stroke-width="0.0938" stroke-miterlimit="10" d="M155.04,125.355   c1.461-1.107,3.022-2.064,4.534-3.072c-2.015,2.82-4.886,4.886-7.203,7.454c-3.325,3.729-7.153,7.053-9.973,11.233   c-0.152-0.757-0.302-1.512-0.454-2.267c2.82-2.771,5.491-5.742,8.412-8.412C152.068,128.78,153.176,126.716,155.04,125.355   L155.04,125.355z"/>
	<path fill="#B41736" stroke="#B41736" stroke-width="0.0938" stroke-miterlimit="10" d="M279.254,129.133   c2.619-1.511,5.137-3.223,7.404-5.188c-0.1,1.965-0.201,3.979-0.1,5.994c-0.455,0.252-0.857,0.554-1.313,0.807   c-0.904-1.108-2.215-1.713-3.525-2.167c-0.451,1.26-1.057,2.468-2.166,3.225C279.455,130.896,279.354,130.04,279.254,129.133   L279.254,129.133z"/>
	<path fill="#B41736" stroke="#B41736" stroke-width="0.0938" stroke-miterlimit="10" d="M259.811,115.483   c0.805,3.324,3.176,1.545,1.814,4.769c-1.158,0.654-16.473,16.285-17.076,17.496c-1.613-0.305-3.477-1.008-4.938,0.049   c-2.164,1.46-4.23,3.124-6.699,3.98c-1.561,0.553-20.508,9.806-22.07,9.755c-0.102-1.813,3.383-6.885,3.334-8.698   c4.936-1.963,23.523-10.628,28.105-13.398c2.064-1.26,3.828-3.022,5.742-4.482L259.811,115.483z"/>
	<path fill="#611641" stroke="#611641" stroke-width="0.0938" stroke-miterlimit="10" d="M281.721,128.579   c1.311,0.454,2.621,1.059,3.525,2.167c0.455-0.253,15.012-15.012,15.465-15.263c0.051,1.007,0.49,6.973,0.539,7.979   c-2.418,1.762-18.824,13.125-22.197,14.285c1.906-0.656,0.252-3.98,0.502-5.944C280.664,131.047,281.27,129.839,281.721,128.579   L281.721,128.579z"/>
	<path fill="#CABCC7" stroke="#CABCC7" stroke-width="0.0938" stroke-miterlimit="10" d="M170.353,129.688   c0.252,0.102,0.756,0.303,1.007,0.402c-1.208,3.779-2.62,7.456-3.778,11.233c-0.503,0.05-1.058,0.101-1.562,0.202   c-0.201,1.207-0.05,2.519,0,3.777c-0.503,1.258-0.856,2.569-1.259,3.878c0.554-2.115-0.05-4.23-0.151-6.396   c0.403-1.664,2.317-2.419,2.619-4.132C167.935,135.529,169.597,132.761,170.353,129.688L170.353,129.688z"/>
	<path fill="#B41736" stroke="#B41736" stroke-width="0.0938" stroke-miterlimit="10" d="M101.597,136.084   c0.957-0.402,1.964-0.755,2.921-1.208c0.101,0.301,0.252,0.906,0.353,1.208c-1.209,2.267-2.518,4.533-4.181,6.499   c-0.856,1.007-2.065-0.103-2.921-0.555c0.554-0.604,1.058-1.159,1.562-1.763c0.957-1.108,1.763-2.317,2.115-3.729L101.597,136.084   L101.597,136.084z"/>
	<path fill="#FFFFFF" stroke="#FFFFFF" stroke-width="0.0938" stroke-miterlimit="10" d="M244.549,137.748   c0.604-1.211,1.711-2.017,2.869-2.671c-0.451,1.058-1.006,2.166-1.914,2.922C245.252,137.948,244.801,137.797,244.549,137.748   L244.549,137.748z"/>
	<path fill="#611641" stroke="#611641" stroke-width="0.0938" stroke-miterlimit="10" d="M104.871,136.084   c0.655,2.267,13.721-1.007,14.325,1.26c-1.455,0.189-13.721,14.759-14.929,19.191c-5.917,3.834-19.811,0.093-21.861,0.15   c0.554-0.604,14.859-14.103,15.363-14.657c0.856,0.452,2.065,1.562,2.921,0.555C102.353,140.617,103.662,138.351,104.871,136.084   L104.871,136.084z"/>
	<path fill="#1062A1" stroke="#1062A1" stroke-width="0.0938" stroke-miterlimit="10" d="M96.913,139.007   c0.907-1.714,2.72-2.217,4.533-2.47c-0.352,1.411-1.158,2.62-2.115,3.729c-0.655,0.05-1.31,0.05-1.965,0.101   C97.265,140.014,97.013,139.358,96.913,139.007L96.913,139.007z"/>
	<path fill="#611641" stroke="#611641" stroke-width="0.0938" stroke-miterlimit="10" d="M227.473,136.79l0.453-0.202   c0.051,1.813,0.102,3.678,0.201,5.49c1.563,0.051,3.225,0.252,4.785-0.301c2.469-0.856,4.535-2.521,6.699-3.98   c1.461-1.057,3.324-0.354,4.938-0.049c0.252,0.049,0.703,0.2,0.955,0.251c-2.416,2.468-5.691,3.979-9.014,4.733   c-2.922,0.304-5.844-0.1-8.766,0.152C227.674,140.869,227.574,138.805,227.473,136.79L227.473,136.79z"/>
	<path fill="#611641" stroke="#611641" stroke-width="0.0938" stroke-miterlimit="10" d="M263.486,139.609   c1.008-0.402,16.471-7.453,17.43-7.806c0,2.469,0.59,3.476,0.541,5.944c-2.873-0.051-20.035,10.224-21.646,12.391l-0.354,0.201   c-1.26,0.051-2.518,0-3.727-0.151c-0.756,1.058-1.512,2.166-2.268,3.223c-0.352,0.253-0.705,0.505-1.057,0.807   c-1.359-0.151-2.771-0.554-4.08-0.151c-0.957,0.856-1.41,2.065-1.965,3.124c-2.367-0.958-3.98,1.61-6.195,1.813   c-0.402,0.101-0.855,0.152-1.26,0.252c0.152-0.302,0.555-0.807,0.756-1.057c-0.201,0-0.604-0.051-0.807-0.051   c1.059-1.059-0.703-1.411-1.107-0.403c-0.102,0.1-0.354,0.302-0.453,0.403c-2.719,0.956-5.088,2.618-7.656,3.828   c-0.604,0.251-1.158,0.503-1.764,0.755c0.252,0.655,0.455,1.36,0.705,2.015c2.016-1.409,4.281-2.619,6.699-3.224   c-0.301,0.555-0.604,1.158-0.906,1.712c3.576-1.712,7.203-3.525,10.93-4.935c-0.502,0.553-1.057,1.158-1.611,1.711   c-3.223,3.073-7.605,4.484-11.182,7.104c-2.367,1.107-4.836,2.114-7.102,3.374c-9.672,5.339-20.553,8.109-29.971,13.902   c-1.864,1.059-3.979,1.41-5.994,2.065c-0.958-0.454-1.864-1.512-3.022-1.108c-5.49,1.31-10.981,3.072-16.723,2.972   c0.856-0.402,1.662-0.856,2.519-1.309c-2.267-0.354-4.583-1.009-6.851-0.253c1.008-0.704,1.813-1.661,2.317-2.771   c-0.453,0.202-0.906,0.454-1.41,0.705c0.201-0.907,0.353-1.813,0.503-2.719c1.712-0.705,3.274,0.2,4.785,0.906   c0.907,0.554,1.511,1.813,2.72,1.612c2.468-0.253,4.583-1.764,6.901-2.519c2.166-0.705,4.181-1.713,6.195-2.67   c0.907,0.604,1.813,1.259,2.72,1.914c-0.252-0.454-0.504-0.957-0.705-1.41c0.302-0.353,0.604-0.655,0.957-1.008   c1.662-0.202,3.022-1.159,4.281-2.166c1.964-1.611,4.282-2.721,6.296-4.181c1.663,0.252,3.375,0.101,4.786-0.856   c4.18-2.469,9.268-3.123,12.945-6.397c0.957-0.352,1.914-0.655,2.871-0.906c-0.252-0.403-0.506-0.756-0.756-1.108   c0.908-0.15,1.764-0.251,2.619-0.402c0.152-1.059-0.303-2.418,0.705-3.174c0.957-1.058,2.217-0.05,3.275,0.15   c3.877,0.202,7.705-1.661,10.225-4.532c1.51-0.101,3.072,0,4.582-0.303c4.08-1.057,7.254-3.928,10.68-6.195   c0.553,0.201,1.209,0.453,1.713,0.102c1.963-1.008,3.678-2.469,5.691-3.426c1.662-0.807,3.525-1.159,5.188-1.965   c0.404-1.108,0.354-2.317,0.354-3.475C265.049,139.812,264.293,139.712,263.486,139.609L263.486,139.609z"/>
	<path fill="#846688" stroke="#846688" stroke-width="0.0938" stroke-miterlimit="10" d="M94.042,143.237   c1.259-1.159,2.317-2.568,2.871-4.23c0.101,0.352,0.353,1.007,0.453,1.359c0.655-0.051,1.31-0.051,1.965-0.101   c-0.504,0.604-1.007,1.158-1.562,1.763c-0.504,0.555-1.008,1.108-1.562,1.712c-0.806,0.052-1.612,0.203-2.417,0.304   C93.84,143.842,93.991,143.438,94.042,143.237L94.042,143.237z"/>
	<path fill="#FFFFFF" stroke="#FFFFFF" stroke-width="0.0938" stroke-miterlimit="10" d="M257.393,143.237   c0.654-1.26,1.311-2.568,1.914-3.828c0.555,0.504,1.107,1.007,1.713,1.562C259.811,141.726,258.652,142.532,257.393,143.237   L257.393,143.237z"/>
	<path fill="#B41736" stroke="#B41736" stroke-width="0.0938" stroke-miterlimit="10" d="M263.186,139.712l0.301-0.103   c0.807,0.103,1.563,0.202,2.318,0.354c0,1.157,0.051,2.366-0.354,3.475c-1.662,0.806-3.525,1.158-5.188,1.965   c-2.014,0.957-3.729,2.418-5.691,3.426c-0.504,0.352-1.16,0.1-1.713-0.102l0.402-0.303c1.41-0.755,2.52-1.964,3.125-3.425   c0.352-0.604,0.703-1.158,1.006-1.763c1.26-0.705,2.418-1.512,3.627-2.267C261.725,140.518,262.43,140.064,263.186,139.712   L263.186,139.712z"/>
	<path fill="#FFFFFF" stroke="#FFFFFF" stroke-width="0.0938" stroke-miterlimit="10" d="M166.021,141.525   c0.504-0.102,1.058-0.152,1.562-0.202c-0.453,1.359-1.007,2.669-1.562,3.979C165.97,144.044,165.819,142.732,166.021,141.525   L166.021,141.525z"/>
	<path fill="#611641" stroke="#611641" stroke-width="0.0938" stroke-miterlimit="10" d="M214.176,142.834   c0.199-0.102,0.654-0.251,0.906-0.354c0.252,3.526-0.504,7.003-0.102,10.528c-1.311,0.554-2.619,1.159-3.879,1.864   c-0.855-2.216-1.512-4.482-2.115-6.8c0.756,1.31,1.512,2.617,2.115,4.029c1.209-1.059,2.721-2.065,3.225-3.729   C214.93,146.561,214.527,144.646,214.176,142.834L214.176,142.834z"/>
	<path fill="#B41736" stroke="#B41736" stroke-width="0.0938" stroke-miterlimit="10" d="M185.514,155.578   c2.217-0.604,26.544-11.938,28.662-12.744c0.352,1.813,0.754,3.727,0.15,5.54c-0.504,1.663-1.52,3.158-3.225,3.729   c2.738-0.916-19.997,6.094-20.752,4.784c-0.353-0.806-3.021-0.314-3.375-1.171L185.514,155.578z"/>
	<path fill="#611641" stroke="#611641" stroke-width="0.0938" stroke-miterlimit="10" d="M253.262,148.425   c0.957-1.208,2.016-2.316,3.125-3.425C255.781,146.461,254.672,147.67,253.262,148.425L253.262,148.425z"/>
	<path fill="#846688" stroke="#846688" stroke-width="0.0938" stroke-miterlimit="10" d="M259.811,150.139   c1.611-2.167,3.727-4.333,6.598-4.282c0,0.806,0,1.662,0,2.468c-1.309,0.957-2.014,2.469-3.223,3.525   c0.102-0.604,0.352-1.106,0.453-1.711c-0.201-0.354-0.504-0.706-0.807-1.008C261.775,149.433,260.768,149.785,259.811,150.139   L259.811,150.139z"/>
	<path fill="#1062A1" stroke="#1062A1" stroke-width="0.0938" stroke-miterlimit="10" d="M252.457,158.776   c-2.117,0.604-4.133,1.411-5.945,2.568c-0.654-0.302-1.309-0.654-1.963-0.956c2.568-2.065,5.137-4.182,7.756-6.196   c0.352-0.302,0.705-0.554,1.057-0.806c2.117-0.806,4.08-1.864,5.996-3.072l0.354-0.201l0,0c0.957-0.354,1.963-0.706,3.02-1.007   c0.303,0.301,0.605,0.653,0.807,1.007c-0.102,0.604-0.352,1.108-0.453,1.712"/>
	<path fill="#846688" stroke="#846688" stroke-width="0.0938" stroke-miterlimit="10" d="M255.73,150.188   c1.209,0.151,2.467,0.202,3.727,0.151c-1.914,1.208-3.879,2.266-5.994,3.071C254.219,152.354,254.975,151.246,255.73,150.188   L255.73,150.188z"/>
	<path fill="#522552" stroke="#522552" stroke-width="0.0938" stroke-miterlimit="10" d="M248.326,154.066   c1.309-0.402,2.721,0,4.08,0.151c-2.619,2.015-5.188,4.131-7.758,6.196c-0.252-0.102-0.705-0.303-0.957-0.404   c0.555-0.553,1.109-1.158,1.611-1.711c-3.727,1.409-7.354,3.223-10.93,4.935c0.303-0.554,0.605-1.157,0.906-1.712   c-2.418,0.604-4.684,1.814-6.699,3.224c-0.25-0.654-0.453-1.359-0.705-2.015c0.605-0.252,1.16-0.504,1.764-0.755   c0.051,0.15,0.15,0.503,0.201,0.704c2.57-1.41,5.289-2.568,7.455-4.532c0.1-0.102,0.352-0.304,0.453-0.403   c0.303,0.1,0.857,0.302,1.107,0.403c0.203,0,0.605,0.051,0.807,0.051c-0.201,0.25-0.604,0.755-0.756,1.057   c0.404-0.1,0.857-0.151,1.26-0.252c2.215-0.202,3.828-2.771,6.195-1.813C246.916,156.132,247.369,154.923,248.326,154.066   L248.326,154.066z"/>
	<path fill="#611641" stroke="#611641" stroke-width="0.0938" stroke-miterlimit="10" d="M177.001,155.83   c1.914-0.252,3.778-0.453,5.692-0.453c3.325,0.051,6.699-0.403,10.074-0.102c3.224,0.756,6.598,0.402,9.872-0.05   c1.31-0.051,2.57-0.051,3.878,0c-0.15,0.554-0.301,1.107-0.402,1.661c-1.662,0.304-3.375,0.555-5.037,0.455   c-3.678-0.505-7.354,0.554-10.88,1.409c-0.706-0.201-1.36-0.353-2.065-0.452c0,0.502,0.051,0.956,0.051,1.409   c0.402,0.202,0.806,0.403,1.158,0.555c-0.403,0.101-0.756,0.252-1.158,0.353c-1.562-1.108-3.426-1.26-5.138-0.504   c0.302,0.554,0.655,1.108,1.007,1.662c-0.403,0.303-0.806,0.604-1.208,0.856c-2.771,1.158-5.541,2.367-8.413,3.173   c-1.611,0.454-2.77,1.713-4.18,2.468c-2.569,0.654-5.238,0.051-7.808,0.707c-0.604,0.553-1.058,1.208-1.612,1.812   c-1.259-0.353-2.417-1.007-3.677-1.259c-2.972,1.209-6.347,1.259-9.017,3.224c-4.181,1.512-8.814,0.252-12.895-1.158   c-1.259-0.504-2.922-0.654-3.577-2.016c-1.46-1.964-0.756-4.482-0.302-6.647c0.504-2.065,0.252-4.231,0.302-6.348   c0.302,1.563,0.353,3.173,0.353,4.735c0.402,0.201,0.806,0.402,1.208,0.604c-0.353,1.06-0.755,2.167-0.806,3.274   c0.555,1.41,1.36,2.822,2.67,3.627c2.115,0.654,4.382,0.705,6.598,1.108c6.146,1.058,12.241-0.956,18.285-1.913   c0.201-1.814,0.201-3.678-0.152-5.492c3.124,1.36,6.196-0.704,9.369-0.352c3.828-0.403,7.959,0.352,11.384-1.763   c-0.957-0.606-1.864-1.159-2.821-1.764c1.612-0.704,3.174-1.511,4.735-2.367c-1.964-0.151-3.929-0.303-5.894-0.403L177.001,155.83   L177.001,155.83z"/>
	<path fill="#846688" stroke="#846688" stroke-width="0.0938" stroke-miterlimit="10" d="M192.768,155.275   c3.274-0.15,6.548-0.15,9.872-0.05C199.366,155.678,195.992,156.031,192.768,155.275L192.768,155.275z"/>
	<path fill="#846688" stroke="#846688" stroke-width="0.0938" stroke-miterlimit="10" d="M206.518,155.226   c1.209,0,2.418,0.101,3.678,0.101c-1.26,0.755-2.619,1.461-4.08,1.561C206.217,156.333,206.367,155.779,206.518,155.226   L206.518,155.226z"/>
	<path fill="#522552" stroke="#522552" stroke-width="0.0938" stroke-miterlimit="10" d="M162.747,155.578   c4.734,0.15,9.52,0.05,14.255,0.252l-0.403,0.05c-4.583,0.806-9.268,0.353-13.902,0.151L162.747,155.578L162.747,155.578z"/>
	<path fill="#611641" stroke="#611641" stroke-width="0.0938" stroke-miterlimit="10" d="M92.732,157.19   c2.417,0.251,4.785-0.806,7.253-0.505c1.411,0.102,2.871,0.151,4.282-0.15c-0.101,1.612-1.007,2.87-1.612,4.332   c-0.403,1.914-0.554,3.979-1.813,5.592c0.05-1.412,0.151-2.821,0.252-4.232c-2.066-0.303-3.375-1.914-4.887-3.173   c-0.755,0.302-1.461,0.704-2.115,1.108c0.755,1.762,0.554,3.626-0.05,5.389c-1.108,2.922,0.906,5.843,0.252,8.815   c-0.101,1.41-0.856,3.021,0.101,4.281c0.806,1.108,1.763,2.065,2.871,2.82c1.058-0.402,1.965-1.007,2.871-1.562   c1.763,1.311,3.274,2.821,4.634,4.585c-0.151,1.157-0.555,2.367-0.252,3.575c1.007,1.512,2.972,2.771,4.735,1.813   c0.554,0.201,1.108,0.453,1.662,0.705c2.216-0.2,4.433,0.05,6.649,0.252c0.353,0.403,0.655,0.755,1.007,1.157   c2.619-0.754,5.39-0.904,8.11-0.754c0.403-0.403,0.806-0.855,1.259-1.31c1.108,0.202,2.216,0.555,3.375,0.353   c1.259-0.303,2.317-1.108,3.375-1.813c0.756,0.05,1.562,0.05,2.368,0.102c0.15,0.654,0.352,1.309,0.604,1.914   c1.36,0.502,2.871-0.101,4.282,0.2c0.906,0.353,1.662,0.958,2.418,1.511c-0.756,0.202-1.512,0.403-2.317,0.605   c-3.274,0.201-6.599,0.604-9.621,2.064c2.62,0.252,5.239,0.151,7.858-0.151c1.007,0.051,2.065,0.151,3.123,0.303   c-1.208,0.353-2.468,0.654-3.727,0.756c-3.022-0.655-6.296-0.806-9.067,0.855c0.302-0.704,0.655-1.459,0.957-2.165   c-0.856,0-1.763,0-2.669,0c0.755-0.403,1.46-0.806,2.216-1.158c-0.957,0.2-1.964,0.353-2.921,0.553   c-0.705-0.452-1.46-0.955-2.216-1.409c0.101,0.756,0.151,1.562,0.202,2.316c-0.605-0.051-1.259-0.15-1.864-0.253   c0.101,0.657,0.252,1.261,0.353,1.916c-1.108-0.757-2.216-1.411-3.375-2.015c0.252-0.656,0.503-1.311,0.756-2.016   c-1.512,0.856-3.022,1.712-4.533,2.569c-0.05-0.857-0.151-1.713-0.202-2.569c-2.216,1.612-4.534,3.174-7.102,4.03   c-3.173,0.906-6.095-1.007-8.765-2.519c0.404-0.454,0.807-0.856,1.209-1.311c-2.972-0.05-5.793-0.855-8.664-1.51   c0,1.409,0.05,2.87,0.05,4.332c-0.252,0.05-0.756,0.15-1.058,0.2c0.302-2.719-0.403-5.339-1.51-7.808c1.359,0,2.72,0,4.029,0   c-0.353-0.453-0.705-0.956-1.108-1.46c0.151-0.604,0.352-1.209,0.504-1.813c-0.705,0.202-1.311,0.504-1.964,0.705   c-0.706-0.252-1.411-0.403-2.066-0.705c-0.05,0.251-0.15,0.705-0.201,0.957c0.503,0.05,0.957,0.101,1.46,0.15   c0.051,0.555,0.152,1.059,0.201,1.613c-0.201-0.103-0.654-0.354-0.855-0.454c-1.109,1.007-2.317,2.065-2.872,3.476   c-0.655,1.309-0.856,2.771-1.662,3.979c-1.109,1.159-2.62,1.712-3.929,2.468c-2.116-0.906-4.231-1.813-6.044-3.274   c-0.806-1.209-1.007-2.669-1.209-4.079c-0.453,0.301-0.856,0.604-1.31,0.906c0.403-3.375,0.907-6.749,1.561-10.074   c0.504-2.519,0.454-5.188,1.461-7.556c0.806-1.914,3.073-2.519,4.181-4.131c0.856-1.209,1.612-2.519,2.267-3.827   c0.05,1.764,0.554,3.425,2.166,4.382c1.31-1.964,2.317-4.03,3.022-6.246c-0.503-0.201-1.007-0.353-1.511-0.555   c-1.209,0.807-2.417,1.612-3.677,2.419c0.907-2.67,2.065-5.238,2.972-7.858C88.854,156.887,90.767,157.039,92.732,157.19   L92.732,157.19z"/>
	<path fill="#B41736" stroke="#B41736" stroke-width="0.0938" stroke-miterlimit="10" d="M104.267,156.535   c0.151-0.051,0.655,7.857-0.755,11.636c-0.403,1.409-1.461,2.921-0.706,4.432c1.158,3.376,3.425,6.247,4.634,9.57   c-0.302,0.604-0.554,1.209-0.856,1.863c1.511,0.604,2.871,1.412,4.13,2.419c2.317,1.863,5.39,1.863,8.11,2.468   c1.964,0.504,3.929,0.252,5.843-0.302c2.669-0.705,5.39-0.353,8.109-0.252c0.504,0,1.411,0.05,1.914,0.101   c-1.058,0.705-2.115,1.511-3.375,1.813c-1.159,0.202-2.266-0.15-3.375-0.353c-0.454,0.454-0.856,0.906-1.259,1.31   c-2.72-0.15-5.491,0-8.11,0.754c-0.353-0.402-0.655-0.754-1.007-1.157c-2.216-0.202-4.433-0.452-6.649-0.252   c-0.554-0.252-1.108-0.504-1.662-0.705c-1.763,0.957-3.728-0.302-4.735-1.813c-0.303-1.208,0.101-2.418,0.252-3.575   c-1.36-1.764-2.872-3.274-4.634-4.585c-0.906,0.555-1.813,1.159-2.871,1.562c-1.108-0.755-2.065-1.712-2.871-2.82   c-0.957-1.26-0.201-2.871-0.101-4.281c0.654-2.973-1.36-5.894-0.252-8.815c0.604-1.763,0.805-3.627,0.05-5.389   c0.654-0.404,1.36-0.807,2.115-1.108c1.511,1.259,2.821,2.87,4.887,3.173c-0.101,1.411-0.202,2.82-0.252,4.232   c1.259-1.612,1.41-3.678,1.813-5.592C103.259,159.405,104.166,158.147,104.267,156.535L104.267,156.535z"/>
	<path fill="#522552" stroke="#522552" stroke-width="0.0938" stroke-miterlimit="10" d="M82.406,156.686   c1.511,0,3.022,0.051,4.483,0.151c-0.906,2.62-2.065,5.188-2.972,7.858c-0.655,1.309-1.411,2.618-2.267,3.827   c-1.108,1.612-3.375,2.217-4.181,4.131c-1.007,2.368-0.957,5.037-1.461,7.556c-0.654,3.325-1.158,6.699-1.561,10.074   c0.454-0.303,0.856-0.605,1.31-0.906c0.202,1.41,0.403,2.87,1.209,4.079c-0.302,0.152-0.906,0.454-1.209,0.604   c-0.655-0.452-1.36-0.855-1.813-1.461c-1.763-3.273-1.763-7.102-2.921-10.627c-0.302,0.452-0.554,0.855-0.857,1.309   c0.504-2.266,1.36-4.432,2.418-6.447l0.151,0.554c0.201,1.008,0.403,1.965,0.655,2.973c1.31-2.166,2.115-4.584,2.82-7.002   c0.655-2.317,2.872-3.879,3.526-6.245c0.705-2.267,1.662-4.434,2.569-6.648c-0.403-0.102-1.31-0.354-1.713-0.455   C81.348,159.003,82.154,157.946,82.406,156.686L82.406,156.686z"/>
	<path fill="#B41736" stroke="#B41736" stroke-width="0.0938" stroke-miterlimit="10" d="M190.199,158.751   c3.526-0.855,7.202-1.914,10.88-1.409c-3.828,1.409-7.757,2.115-11.736,2.921c-0.353-0.151-0.756-0.353-1.158-0.555   c0-0.453-0.051-0.907-0.051-1.409C188.838,158.398,189.493,158.55,190.199,158.751L190.199,158.751z"/>
	<path fill="#CABCC7" stroke="#CABCC7" stroke-width="0.0938" stroke-miterlimit="10" d="M237.748,157.744   c0.404-1.008,2.166-0.655,1.107,0.403C238.605,158.046,238.051,157.844,237.748,157.744L237.748,157.744z"/>
	<path fill="#CABCC7" stroke="#CABCC7" stroke-width="0.0938" stroke-miterlimit="10" d="M229.639,161.976   c2.568-1.21,4.938-2.872,7.656-3.828c-2.166,1.964-4.885,3.122-7.455,4.532C229.789,162.479,229.689,162.126,229.639,161.976   L229.639,161.976z"/>
	<path fill="#B41736" stroke="#B41736" stroke-width="0.0938" stroke-miterlimit="10" d="M183.046,160.111   c1.712-0.756,3.577-0.604,5.138,0.504c-1.713,0.856-3.476,1.562-5.339,2.015c0.402-0.252,0.806-0.554,1.208-0.856   C183.701,161.22,183.348,160.665,183.046,160.111L183.046,160.111z"/>
	<path fill="#1062A1" stroke="#1062A1" stroke-width="0.0938" stroke-miterlimit="10" d="M78.074,165.803   c0.303-2.115,1.411-4.029,2.519-5.793c0.403,0.102,1.31,0.354,1.713,0.455c-0.907,2.215-1.864,4.382-2.569,6.648   c-0.655,2.366-2.871,3.928-3.526,6.245c-0.705,2.418-1.511,4.836-2.82,7.002c-0.252-1.008-0.454-1.965-0.655-2.973   c-0.051-1.863,1.36-3.224,1.964-4.885C75.555,170.084,77.873,168.423,78.074,165.803L78.074,165.803z"/>
	<path fill="#846688" stroke="#846688" stroke-width="0.0938" stroke-miterlimit="10" d="M232.51,167.113   c3.576-2.619,7.959-4.03,11.182-7.104c0.252,0.102,0.705,0.303,0.957,0.404c0.654,0.301,1.311,0.654,1.965,0.956   c-2.973,2.469-6.648,3.93-9.672,6.347c-0.201-0.554-0.451-1.108-0.654-1.713C235.027,166.357,233.77,166.709,232.51,167.113   L232.51,167.113z"/>
	<path fill="#B41736" stroke="#B41736" stroke-width="0.0938" stroke-miterlimit="10" d="M83.917,164.695   c1.26-0.807,2.468-1.612,3.677-2.419c0.503,0.202,1.007,0.354,1.511,0.555c-0.705,2.216-1.712,4.282-3.022,6.246   C84.471,168.12,83.967,166.459,83.917,164.695L83.917,164.695z"/>
	<path fill="#611641" stroke="#611641" stroke-width="0.0938" stroke-miterlimit="10" d="M140.332,165.602   c0.907-0.403,1.813-1.159,2.872-0.807c2.871,0.756,5.893,0.907,8.865,1.159c-1.31,0.555-2.267,1.562-3.224,2.619   c-1.158,0.404-2.468,0.404-3.677,0.352c-1.461,0-2.519-1.106-3.577-1.964c-0.101,0.303-0.302,0.857-0.403,1.159   c-1.964-0.453-4.08-0.705-5.792-1.863C137.007,166.055,138.821,166.459,140.332,165.602L140.332,165.602z"/>
	<path fill="#CABCC7" stroke="#CABCC7" stroke-width="0.0938" stroke-miterlimit="10" d="M218.658,167.768   c2.619-1.913,5.844-2.771,9.066-2.871c-1.006,0.605-2.115,1.107-3.324,1.107C222.336,166.055,220.572,167.163,218.658,167.768   L218.658,167.768z"/>
	<path fill="#846688" stroke="#846688" stroke-width="0.0938" stroke-miterlimit="10" d="M214.225,166.407   c1.41-0.655,2.922-0.957,4.434-1.209c-3.678,3.274-8.766,3.929-12.945,6.397c-1.41,0.957-3.123,1.108-4.786,0.856   c0.604-0.655,1.108-1.259,1.712-1.864c0.806-0.504,1.664-0.906,2.519-1.259C208.182,168.423,211.254,167.565,214.225,166.407   L214.225,166.407z"/>
	<path fill="#1062A1" stroke="#1062A1" stroke-width="0.0938" stroke-miterlimit="10" d="M201.079,184.491   c-2.67,0.855-5.238,2.063-7.857,3.173c-3.022,1.007-6.196,1.562-9.067,3.072c-0.554,0.655-0.957,1.41-1.561,2.015   c-1.914,0.101-3.879-0.252-5.793,0c-3.676,0.655-7.304,2.115-11.081,1.914c-1.763-0.05-3.627,0.303-5.34-0.152   c-0.957-0.301-1.863-0.956-2.921-0.654c-2.367,0.605-4.685,1.563-6.952,2.57c-3.022,1.359-6.346,1.359-9.57,1.914   c0.957,1.611,0.553-1.763,0,0c-1.31-0.553-1.763,1.412-1.31-0.553c0.655-0.856-0.403,1.51,0.403,0.805   c-2.871-0.252-5.389,1.208-8.109,1.864c-3.425,0.955-6.951,1.662-10.226,3.173c-5.792-0.052-11.635,0.402-17.428,0.251   c-1.461-0.15-2.771-0.806-4.231-1.058c0,0.303-0.051,0.857-0.051,1.107c-2.568-0.906-5.39-0.15-7.958-1.157   c-1.964-0.856-4.281-1.008-6.044-2.316c0.151-0.505,0.302-1.059,0.454-1.613c0.604-0.2,1.259-0.453,1.863-0.705   c-0.806-0.604-1.562-1.158-2.368-1.764c1.965,0.052,3.929,0.354,5.692,1.26c4.08,2.016,8.815,1.864,13.197,1.158   c1.813-0.302,3.274,1.21,4.987,1.562c0.755-0.251,1.511-0.654,2.266-1.007c1.209,0.402,2.519,1.209,3.829,0.705   c1.964-0.604,3.878-1.662,5.944-1.763c2.971-0.151,5.994,0.354,8.916-0.554c2.921-0.856,5.893-1.512,8.916-1.965   c1.259-0.102,2.519-0.403,3.727-0.756c-1.058-0.151-2.116-0.252-3.123-0.303l-0.453-0.1c3.123-0.05,6.146-0.857,9.268-1.007   c2.569-0.303,5.239-0.303,7.808-0.807c3.375-0.705,6.548-2.367,10.074-2.267c0.403,0.503,0.806,0.957,1.259,1.41   c2.972,0,5.943-0.201,8.866-0.806c-0.101-0.202-0.303-0.705-0.404-0.907c2.368-0.755,4.685-1.661,7.153-1.914   c2.015-0.151,3.778-1.008,5.591-1.863c2.015-0.655,4.13-1.007,5.994-2.065c9.418-5.793,20.299-8.563,29.971-13.902   c2.266-1.26,4.734-2.267,7.102-3.374l0,0c1.26-0.404,2.518-0.756,3.777-1.109c0.203,0.604,0.453,1.159,0.654,1.713   c-3.525,2.418-7.303,4.382-11.08,6.348"/>
	<path fill="#1062A1" stroke="#1062A1" stroke-width="0.0938" stroke-miterlimit="10" d="M222.838,175.272   c-2.719,0.756-5.539,1.261-7.807,3.022c-3.324,1.512-6.85,2.468-10.326,3.728"/>
	<path fill="#B41736" stroke="#B41736" stroke-width="0.0938" stroke-miterlimit="10" d="M181.887,178.446   c4.231-0.705,8.412-3.627,12.744-1.813c-1.259,1.007-2.619,1.964-4.281,2.166c-1.007,0.2-2.015,0.302-2.972,0.504   c-2.015,0.957-4.03,1.965-6.195,2.67c-2.317,0.755-4.433,2.266-6.901,2.519c-1.209,0.2-1.813-1.059-2.72-1.612   c-0.604-0.555-1.41-0.906-2.115-1.309c1.36-0.605,2.72-1.109,4.181-1.261c2.72-0.302,5.289-1.209,7.908-1.813L181.887,178.446   L181.887,178.446z"/>
	<path fill="#CABCC7" stroke="#CABCC7" stroke-width="0.0938" stroke-miterlimit="10" d="M198.208,178.043   c0.654-0.605,1.36-1.259,2.015-1.863c-0.504,1.058-1.008,2.115-1.31,3.224C198.711,178.949,198.459,178.497,198.208,178.043   L198.208,178.043z"/>
	<path fill="#846688" stroke="#846688" stroke-width="0.0938" stroke-miterlimit="10" d="M194.178,179.201   c0.806-1.108,2.065-1.712,3.476-1.41C196.797,178.799,195.437,179.052,194.178,179.201L194.178,179.201z"/>
	<path fill="#CABCC7" stroke="#CABCC7" stroke-width="0.0938" stroke-miterlimit="10" d="M187.378,179.303   c0.957-0.202,1.964-0.304,2.972-0.504c-0.353,0.353-0.655,0.655-0.957,1.008c0.201,0.453,0.453,0.956,0.705,1.41   C189.191,180.562,188.285,179.906,187.378,179.303L187.378,179.303z"/>
	<path fill="#CABCC7" stroke="#CABCC7" stroke-width="0.0938" stroke-miterlimit="10" d="M185.867,182.324   c0.604-0.856,1.562-1.259,2.569-1.461C187.63,181.418,186.773,181.922,185.867,182.324L185.867,182.324z"/>
	<path fill="#522552" stroke="#522552" stroke-width="0.0938" stroke-miterlimit="10" d="M163.25,182.475   c1.108-0.553,2.367-0.352,3.526-0.502c-0.151,0.906-0.302,1.812-0.503,2.719c0.503-0.251,0.957-0.503,1.41-0.705   c-0.503,1.109-1.309,2.066-2.317,2.771c2.267-0.756,4.584-0.101,6.851,0.253c-0.856,0.452-1.662,0.906-2.519,1.309   c-0.705,0.253-1.36,0.503-2.065,0.807c2.619,2.064,6.044,1.208,9.066,1.107c0.101,0.202,0.303,0.705,0.404,0.907   c-2.922,0.604-5.894,0.806-8.866,0.806c-0.453-0.453-0.856-0.907-1.259-1.41c-3.525-0.101-6.699,1.562-10.074,2.267   c0-0.856,0.101-2.519-1.209-2.116c-3.627,1.26-7.606,0.555-11.333,1.511c-0.756-0.553-1.512-1.158-2.418-1.511   c-1.411-0.301-2.922,0.302-4.282-0.2c-0.252-0.605-0.454-1.26-0.604-1.914c-0.806-0.052-1.612-0.052-2.368-0.102   c-0.503-0.051-1.41-0.101-1.914-0.101c0.151-0.253,0.403-0.655,0.554-0.907c2.569-0.907,5.29-0.252,7.958-0.503   c2.267-0.252,4.634-0.604,6.75-1.612c2.216-0.957,4.685-0.504,7.001-1.058C157.76,183.685,160.682,183.634,163.25,182.475   L163.25,182.475z"/>
	<path fill="#611641" stroke="#611641" stroke-width="0.0938" stroke-miterlimit="10" d="M107.44,182.173   c1.662,1.512,2.921,3.627,5.087,4.584c3.627,0.202,7.102,1.512,10.779,1.41c2.266-0.301,4.533-0.553,6.75-0.2   c1.159,0.251,2.216-0.152,3.274-0.505c-0.151,0.252-0.403,0.654-0.554,0.907c-2.72-0.101-5.44-0.453-8.109,0.252   c-1.914,0.554-3.878,0.806-5.843,0.302c-2.72-0.604-5.792-0.604-8.11-2.468c-1.259-1.007-2.619-1.814-4.13-2.419   C106.886,183.382,107.138,182.777,107.44,182.173L107.44,182.173z"/>
	<path fill="#1062A1" stroke="#1062A1" stroke-width="0.0938" stroke-miterlimit="10" d="M78.578,184.541c0.806,0,1.662,0,2.468,0   c-0.151,1.007-0.302,1.964-0.454,2.972C79.585,186.808,78.98,185.699,78.578,184.541L78.578,184.541z"/>
	<path fill="#522552" stroke="#522552" stroke-width="0.0938" stroke-miterlimit="10" d="M82.255,198.595   c0.755-0.102,1.461-0.151,2.166-0.252c-0.454-0.555-0.907-1.109-1.411-1.612c1.31-0.756,2.82-1.309,3.929-2.468   c0.806-1.209,1.007-2.671,1.662-3.979c0.554-1.41,1.763-2.469,2.872-3.476c0.201,0.101,0.654,0.352,0.855,0.454   c-0.049-0.555-0.15-1.059-0.201-1.613c-0.503-0.05-0.957-0.101-1.46-0.15c0.051-0.252,0.151-0.706,0.201-0.957l0,0   c0.655,0.302,1.36,0.453,2.066,0.705c0.654-0.201,1.259-0.503,1.964-0.705c-0.152,0.604-0.353,1.209-0.504,1.813   c0.403,0.504,0.755,1.007,1.108,1.46c-1.309,0-2.669,0-4.029,0c1.107,2.469,1.813,5.089,1.51,7.808   c0.302-0.05,0.806-0.15,1.058-0.2c0-1.462-0.05-2.923-0.05-4.332c2.871,0.654,5.692,1.46,8.664,1.51   c-0.403,0.454-0.806,0.856-1.209,1.311c2.67,1.512,5.592,3.425,8.765,2.519c2.568-0.856,4.886-2.418,7.102-4.03   c0.05,0.856,0.151,1.712,0.202,2.569c1.511-0.857,3.021-1.713,4.533-2.569c-0.252,0.705-0.504,1.359-0.756,2.016   c1.159,0.604,2.267,1.258,3.375,2.015c-0.101-0.655-0.252-1.259-0.353-1.916c0.605,0.103,1.259,0.202,1.864,0.253   c-0.05-0.755-0.101-1.561-0.202-2.316c0.756,0.454,1.511,0.957,2.216,1.409c0.957-0.2,1.964-0.353,2.921-0.553   c-0.755,0.353-1.461,0.755-2.216,1.158c0.907,0,1.813,0,2.669,0c-0.302,0.706-0.655,1.461-0.957,2.165   c2.771-1.661,6.044-1.511,9.067-0.855c-3.022,0.453-5.995,1.108-8.916,1.965c-2.922,0.907-5.944,0.402-8.916,0.554   c-2.065,0.101-3.979,1.159-5.944,1.763c-1.31,0.504-2.62-0.303-3.829-0.705c-0.755,0.353-1.511,0.756-2.266,1.007   c-1.713-0.352-3.173-1.863-4.987-1.562c-4.382,0.706-9.117,0.857-13.197-1.158c-1.763-0.906-3.727-1.208-5.692-1.26   c0.806,0.605,1.562,1.159,2.368,1.764c-0.604,0.252-1.259,0.505-1.863,0.705c-0.152,0.555-0.303,1.108-0.454,1.613   c-0.403-0.152-0.857-0.304-1.259-0.404"/>
	<path fill="#846688" stroke="#846688" stroke-width="0.0938" stroke-miterlimit="10" d="M150.002,185.648   c1.311-0.101,2.62-0.2,3.98-0.2c0.151,0.2,0.453,0.604,0.604,0.854C153.076,186.203,151.514,186.053,150.002,185.648   L150.002,185.648z"/>
	<path fill="#B41736" stroke="#B41736" stroke-width="0.0938" stroke-miterlimit="10" d="M169.698,188.318   c5.742,0.101,11.233-1.662,16.723-2.972c1.158-0.403,2.065,0.654,3.022,1.108c-1.813,0.855-3.577,1.712-5.591,1.863   c-2.468,0.253-4.785,1.159-7.153,1.914c-3.022,0.101-6.447,0.957-9.066-1.107C168.338,188.821,168.993,188.571,169.698,188.318   L169.698,188.318z"/>
	<path fill="#CABCC7" stroke="#CABCC7" stroke-width="0.0938" stroke-miterlimit="10" d="M155.695,190.686   c1.31-0.402,1.209,1.26,1.209,2.116c-2.569,0.504-5.239,0.504-7.808,0.807c-3.123,0.149-6.146,0.957-9.268,1.007   c-0.353-0.103-1.159-0.252-1.562-0.353c1.259-0.555,2.519-1.058,3.778-1.461c0.806-0.202,1.562-0.403,2.317-0.605   C148.089,191.24,152.068,191.945,155.695,190.686L155.695,190.686z"/>
	<path fill="#CABCC7" stroke="#CABCC7" stroke-width="0.0938" stroke-miterlimit="10" d="M158.012,191.09   c0.251-0.555,1.511-0.404,1.309,0.352C159.019,191.945,157.811,191.794,158.012,191.09L158.012,191.09z"/>
	<path fill="#B41736" stroke="#B41736" stroke-width="0.0938" stroke-miterlimit="10" d="M132.423,194.866   c3.022-1.46,6.347-1.863,9.621-2.064c-1.259,0.403-2.519,0.906-3.778,1.461c0.403,0.101,1.209,0.25,1.562,0.353l0.453,0.1   C137.662,195.018,135.043,195.118,132.423,194.866L132.423,194.866z"/>
	<path fill="#1062A1" stroke="#1062A1" stroke-width="0.0938" stroke-miterlimit="10" d="M75.757,194.061   c0.303-0.15,0.907-0.452,1.209-0.604c1.813,1.461,3.929,2.368,6.044,3.274c0.504,0.503,0.957,1.058,1.411,1.612   c-0.705,0.101-1.411,0.15-2.166,0.252C79.333,198.646,77.621,195.874,75.757,194.061L75.757,194.061z"/>
	<path fill="#846688" stroke="#846688" stroke-width="0.0938" stroke-miterlimit="10" d="M157.458,193.858   c1.058-0.302,1.964,0.354,2.921,0.654c-1.813,0.455-3.576,1.159-5.389,1.664c-1.461,0.2-2.972,0.15-4.483,0.252   C152.773,195.422,155.091,194.464,157.458,193.858L157.458,193.858z"/>
	<path fill="#1062A1" stroke="#1062A1" stroke-width="0.0938" stroke-miterlimit="10" d="M265.574,145   c2.869-1.008,32.67-19.292,35.088-21.055c0.051,1.511,0.15,2.569,0.1,4.08c-2.568,1.26-31.48,19.645-34.354,20.299   c-0.051-1.31-0.834-1.108-0.834-2.418V145z"/>
</g>
<g>
	<g>
		<path fill="#010202" stroke="#FFFFFF" stroke-width="2" stroke-miterlimit="10" d="M86.081,90.36l20.85,66.602H44.235    l13.525-40.967h16.602l-7.129,25.195h17.139L66.306,90.36H86.081z"/>
		<path fill="#010202" stroke="#FFFFFF" stroke-width="2" stroke-miterlimit="10" d="M127.731,90.36v50.83h22.852v15.771h-41.016    V90.36H127.731z"/>
		<path fill="#010202" stroke="#FFFFFF" stroke-width="2" stroke-miterlimit="10" d="M190.427,90.36l20.85,66.602h-62.695    l13.525-40.967h16.602l-7.129,25.195h17.139l-18.066-50.83H190.427z"/>
		<path fill="#010202" stroke="#FFFFFF" stroke-width="2" stroke-miterlimit="10" d="M213.913,90.36h21.875    c4.753,0,9.017,0.578,12.793,1.732c3.776,1.155,7.129,2.903,10.059,5.245c3.906,3.124,6.958,7.018,9.155,11.686    c2.197,4.667,3.296,9.604,3.296,14.809c0,7.384-2.197,14.02-6.592,19.907c-1.953,2.603-4.208,4.872-6.763,6.806    c-2.556,1.936-5.184,3.359-7.886,4.27c-4.167,1.432-9.114,2.147-14.844,2.147h-21.094v-40.967h18.164v25.312    c3.386,0,6.29-0.406,8.716-1.219c2.425-0.814,4.517-2.082,6.274-3.807c1.595-1.594,2.856-3.521,3.784-5.781    c0.928-2.26,1.392-4.545,1.392-6.854c0-2.277-0.472-4.554-1.416-6.831c-0.944-2.276-2.214-4.211-3.809-5.805    c-1.758-1.756-3.769-3-6.03-3.732c-2.263-0.731-5.249-1.098-8.96-1.098h-18.115V90.36z"/>
		<path fill="#010202" stroke="#FFFFFF" stroke-width="2" stroke-miterlimit="10" d="M295.944,90.36v15.82H277.78V90.36H295.944z     M295.944,115.995v40.967H277.78v-40.967H295.944z"/>
		<path fill="#010202" stroke="#FFFFFF" stroke-width="2" stroke-miterlimit="10" d="M303.952,90.36h28.906    c4.199,0,7.877,0.407,11.035,1.221c2.864,0.749,5.403,2.279,7.617,4.59c1.692,1.726,2.938,3.89,3.735,6.494    c0.797,2.604,1.196,5.76,1.196,9.467v44.83h-18.164V113.01c0-2.276-0.407-3.935-1.221-4.975c-1.01-1.236-3.061-1.854-6.152-1.854    h-8.789v50.781h-18.164V90.36z"/>
	</g>
</g>
</svg>