<?xml version="1.0" encoding="UTF-8"?>
<!-- Generator: Adobe Illustrator 16.0.0, SVG Export Plug-In . SVG Version: 6.00 Build 0)  -->
<!DOCTYPE svg PUBLIC "-//W3C//DTD SVG 1.1//EN" "http://www.w3.org/Graphics/SVG/1.1/DTD/svg11.dtd">
<svg version="1.1" id="Calque_1" xmlns="http://www.w3.org/2000/svg" xmlns:xlink="http://www.w3.org/1999/xlink" x="0px" y="0px" width="420px" height="245px" viewBox="0 0 420 245" enable-background="new 0 0 420 245" xml:space="preserve">
<g>
	<path fill="#C5DDE2" stroke="#C5DDE2" stroke-width="0.0938" stroke-miterlimit="10" d="M256.579,57.827   c0.509-0.322,1.006-0.721,1.573-0.932c1.196-0.031,2.434,0.452,3.635-0.06c2.077-0.773,4.278-1.285,6.496-1.439   c0.632-0.06,1.241,0.243,1.832,0.428c-0.347,0.096-1.01,0.202-1.322,0.252l-0.358,0.017c-1.708-0.167-3.482-0.244-5.041,0.525   c-1.637,0.782-3.356,1.297-5.189,1.109C257.646,57.737,257.132,57.779,256.579,57.827L256.579,57.827z"/>
	<path fill="#C5DDE2" stroke="#C5DDE2" stroke-width="0.0938" stroke-miterlimit="10" d="M282.21,53.332   c2.494-0.679,5.012-0.961,7.531-1.484c1.054-0.168,2.173-0.428,3.213-0.193c0.603,0.264,0.948,0.93,1.382,1.381   c-2.74,0.397-5.467,0.874-8.11,1.617c-1.733,0.437-3.477,0.795-5.235,1.076c-0.44-0.25-0.919-0.494-1.359-0.744   c0.184-0.11,0.516-0.283,0.698-0.392c1.693,0.57,3.487,0.523,5.182-0.148c-1.033,0.045-2.028,0.084-3.018,0.163   C282.443,54.295,282.299,53.637,282.21,53.332L282.21,53.332z"/>
	<path fill="#69AC78" stroke="#69AC78" stroke-width="0.0938" stroke-miterlimit="10" d="M258.204,57.728   c1.833,0.188,3.553-0.328,5.189-1.109c1.559-0.769,3.333-0.692,5.041-0.525c-1.82,0.131-3.637,0.541-5.204,1.512   c-1.251,0.44-2.501,0.881-3.735,1.438c-0.149,0.064-0.449,0.192-0.638,0.262c-1.032,0.565-2.056,1.17-3.151,1.585   c-0.245-0.281-0.489-0.563-0.773-0.837c-1.436,0.79-2.884,1.501-4.442,2.031c-0.14-0.378-0.241-0.763-0.337-1.108   c1.651-0.704,3.3-1.408,4.943-2.151c1.159-0.265,2.342-0.374,3.52-0.522C258.514,58.159,258.308,57.872,258.204,57.728   L258.204,57.728z"/>
	<path fill="#69AC78" stroke="#69AC78" stroke-width="0.0938" stroke-miterlimit="10" d="M299.126,51.189   c1.332-0.693,2.777-1.164,4.313-1.33c2.857-0.416,5.685-1.268,8.616-1.216c1.384-0.101,2.188,1.172,2.943,2.133   c-0.813,0.17-1.595,0.294-2.369,0.459c-0.31,0.57-0.574,1.173-0.93,1.71c-0.898,0.384-1.881,0.501-2.812,0.689   c-0.187-0.411-0.371-0.822-0.551-1.194c-2.973,0.195-5.892,0.221-8.848,0.013C299.38,52.03,299.234,51.612,299.126,51.189   L299.126,51.189z"/>
	<path fill="#0791A0" stroke="#0791A0" stroke-width="0.0938" stroke-miterlimit="10" d="M255.097,58.825   c0.508-0.321,1.019-0.643,1.482-0.998c0.553-0.048,1.066-0.09,1.625-0.1c0.104,0.144,0.31,0.431,0.412,0.575   C257.438,58.451,256.256,58.56,255.097,58.825L255.097,58.825z"/>
	<path fill="#39A186" stroke="#39A186" stroke-width="0.0938" stroke-miterlimit="10" d="M263.23,57.605   c1.567-0.971,3.384-1.381,5.204-1.512l0.358-0.017c3.658,0.336,7.378-0.939,11.02,0.041c-1.272,0.564-2.733,0.437-4.063,0.649   c-1.52,0.763-2.923,1.749-4.578,2.173c-0.002-0.521,0.028-1.085,0.058-1.651C268.533,56.958,265.865,57.304,263.23,57.605   L263.23,57.605z"/>
	<path fill="#69AC78" stroke="#69AC78" stroke-width="0.0938" stroke-miterlimit="10" d="M268.793,56.076   c0.313-0.05,0.976-0.156,1.322-0.252c1.638-0.262,3.325-0.491,4.971-0.713c1.522-0.244,3.04,0.234,4.545-0.126   c0.44,0.25,0.919,0.494,1.359,0.744c-0.378,0.141-0.762,0.242-1.178,0.389C276.171,55.137,272.451,56.412,268.793,56.076   L268.793,56.076z"/>
	<path fill="#8AC5E1" stroke="#8AC5E1" stroke-width="0.0938" stroke-miterlimit="10" d="M295.912,52.624   c1.101-0.375,2.178-0.909,3.214-1.435c0.108,0.423,0.254,0.841,0.363,1.264c2.956,0.208,5.875,0.183,8.848-0.013   c0.18,0.372,0.364,0.783,0.551,1.194c-2.142,0.382-4.304,0.887-6.526,0.763c-2.028-0.157-4.063,0.129-6.055,0.447   C296.149,54.107,296.03,53.365,295.912,52.624L295.912,52.624z"/>
	<path fill="#8AC5E1" stroke="#8AC5E1" stroke-width="0.0938" stroke-miterlimit="10" d="M259.495,59.043   c1.234-0.557,2.484-0.998,3.735-1.438c2.635-0.301,5.303-0.647,7.999-0.317c-0.029,0.566-0.06,1.131-0.058,1.651   c-0.521,0.003-1,0-1.521,0.003c-1.534,0.165-3.051,0.447-4.522,0.763c0.041-0.247,0.096-0.656,0.142-0.864   c0.932-0.189,1.856-0.417,2.774-0.683C265.148,57.579,262.363,58.945,259.495,59.043L259.495,59.043z"/>
	<path fill="#6BB6BD" stroke="#6BB6BD" stroke-width="0.0938" stroke-miterlimit="10" d="M286.226,54.652   c2.644-0.743,5.37-1.219,8.11-1.617c0.508-0.081,1.041-0.247,1.576-0.412c0.118,0.742,0.237,1.484,0.395,2.22   c-0.275,0.284-0.551,0.568-0.778,0.885c-1.127,0.221-2.305,0.368-3.457,0.433c0.643-0.743,1.55-1.088,2.461-1.395   c-0.031-0.195-0.14-0.618-0.21-0.807c-1.449-0.049-2.952,0.071-4.389,0.341C288.67,54.421,287.442,54.498,286.226,54.652   L286.226,54.652z"/>
	<path fill="#FFFFFF" stroke="#FFFFFF" stroke-width="0.0938" stroke-miterlimit="10" d="M259.495,59.043   c2.868-0.098,5.653-1.464,8.549-0.885c-0.918,0.267-1.843,0.494-2.774,0.683c-0.657,0.145-1.27,0.323-1.927,0.468   c-1.617,0.658-3.285,1.246-5.009,1.48c0.165-0.466,0.364-0.979,0.523-1.484C259.046,59.235,259.346,59.107,259.495,59.043   L259.495,59.043z"/>
	<path fill="#39A186" stroke="#39A186" stroke-width="0.0938" stroke-miterlimit="10" d="M254.933,60.053   c0.284,0.274,0.528,0.556,0.773,0.837c-1.271,0.563-2.484,1.237-3.66,1.906c-1.105,0.096-2.179,0.148-3.257,0.16l-0.306-0.151   c0.641-0.263,1.324-0.492,2.007-0.722C252.049,61.554,253.497,60.842,254.933,60.053L254.933,60.053z"/>
	<path fill="#8AC5E1" stroke="#8AC5E1" stroke-width="0.0938" stroke-miterlimit="10" d="M255.706,60.89   c1.096-0.415,2.119-1.02,3.151-1.585c-0.159,0.505-0.358,1.019-0.523,1.484c1.724-0.234,3.392-0.822,5.009-1.48   c0.278,0.235,0.55,0.433,0.829,0.668c-2.592,1.335-5.505,1.641-8.342,1.934C255.793,61.677,255.75,61.164,255.706,60.89   L255.706,60.89z"/>
	<path fill="#0791A0" stroke="#0791A0" stroke-width="0.0938" stroke-miterlimit="10" d="M145.602,151.467   c-0.707,0.594-1.406,1.225-2.105,1.857c-1.355,1.297-2.186,3.113-3.682,4.273c-0.325-0.027-0.93-0.055-1.248-0.041   c0.381-0.623,0.756-1.281,1.137-1.904c-1.318,0.771-2.573,1.691-3.975,2.438c-1.997,1.039-4.558,2.051-5.211,4.477   c-0.118,0.018-0.28,0.006-0.443-0.01c-0.931,1.189-2.364,1.74-3.747,2.361c-2.294,1.93-4.893,3.465-7.136,5.465   c-0.424,0.348-0.883,0.742-1.308,1.092c-0.242-0.764-0.529-1.559-0.777-2.359c-0.066,0.09-0.275,0.283-0.341,0.373   c-1.246,0.721-2.441,1.512-3.861,1.898c-0.239-0.24-0.472-0.445-0.71-0.686c0.188-0.832,0.375-1.662,0.518-2.525   c-2.439,1.029-5.04,2.045-6.465,4.395c-2.892,1.705-5.358,4.061-8.198,5.836c-0.177,0.146-0.575,0.412-0.751,0.561   c-2.56,1.77-4.573,4.213-6.888,6.266c-1.764,1.244-3.281,2.766-4.949,4.113c0.057-0.646,0.119-1.26,0.221-1.877   c-1.131,0.943-2.255,1.924-3.142,3.145c-1.02-0.117-2.067-0.148-3.119-0.223c0.421-0.625,0.802-1.248,1.183-1.867   c-0.58,0.131-1.192,0.309-1.771,0.441c-0.117-0.982-0.233-1.967-0.357-2.984c-1.089,0.453-2.223,0.873-3.33,1.211   c0.362-0.738,0.771-1.443,1.178-2.15c-0.979-0.363-1.925-0.773-2.904-1.137c0.002-0.482-0.033-0.957-0.069-1.432   c2.905-0.865,5.148-2.865,7.668-4.389c-0.125-0.781-0.25-1.563-0.375-2.342c-2.082,1.252-4.499,1.92-6.568,3.25   c-1.909,1.588-3.766,3.244-5.204,5.277c-0.304-0.152-0.842-0.508-1.152-0.697c0.564-0.73,1.089-1.455,1.659-2.148   c0.916-0.785,1.774-1.684,2.638-2.543c4.156-4.068,9.046-7.291,13.543-10.973c1.026-0.844,2.316-1.291,3.586-1.615   c0.997-0.277,2.044-0.486,2.913-1.064c1.104-0.859,2.215-1.676,3.422-2.391c1.75-1.078,3.712-1.834,5.403-3.025   c1.248-0.961,2.399-2.025,3.551-3.09c1.67-1.83,4.279-3.047,4.959-5.557c1.209-2.957,3.816-4.936,5.705-7.4   c1.765-1.482,3.8-2.529,5.681-3.789c1.267-0.846,11.582-11.102,12.989-11.566c1.377,1.1,5.393,10.365,6.214,11.998   c0.18,1.373,1.518,2.219,1.736,3.586l1.183,1.033c-0.604,0.977-0.909-0.697-1.559,0.248c-0.746,0.6,2.68,0.756,1.75,0.945   c-3.151,0.584-6.02,12.109-9.119,12.766l-17.4,1.779c0.245,2.285-0.903-4.398-0.971-2.064c-0.352,1.059-1.673,1.311-2.612,1.701   c-1.454,0.674-3.291,0.205-4.604,1.254c-1.966,1.477-3.882,3.023-5.57,4.736l-0.209,0.193c-2.745,2.121-5.206,4.516-7.905,6.668   c-0.928,0.709-1.817,1.412-2.557,2.291c-1.139,0.143-2.284,0.244-3.389,0.342c0.812-0.932,1.669-1.83,2.579-2.654   c1.656-1.666,2.892-3.707,4.315-5.576c-2.254,0.68-3.956,2.314-5.534,3.967c-1.857,1.658-3.657,3.428-5.611,4.982   c-1.313,1.051-2.434,2.313-3.062,3.893c0.407,0.293,0.776,0.598,1.184,0.893c-1.047,0.967-1.997,2.041-2.85,3.217   c2.332-0.691,4.248-2.24,5.619-4.18c0.71-1.074,1.748-1.842,3.023-2.127c0.089,0.307,0.268,0.918,0.356,1.227   c-1.522,2.004-3.567,3.492-5.566,5.014c-0.764,0.482-0.698,1.393-0.814,2.174c1.029-0.328,2.214-0.436,3.018-1.164   c1.067-1.094,1.584-2.617,2.748-3.602c1.413-1.188,3.404-1.506,4.764-2.766c1.321-1.252,2.553-2.57,3.926-3.75   c2.248-1.721,4.689-3.232,7.316-4.332c2.861-1.139,5.358-3.059,7.485-5.281c3.188-0.35,4.621-3.66,7.444-4.793   c3.74-1.4,7.835-1.33,11.666-2.426c1.948-0.59,3.878-1.539,5.235-3.076c2.227-2.602,3.582-5.898,3.793-9.338   c0.309-1.33,0.09-2.697-0.618-3.865c-1.734-4.088-4.362-7.752-7.802-10.486c-0.003-0.52-0.232-1.203,0.271-1.564   c3.08-2.535,5.752-5.605,9.264-7.686c0.124,1.02-4.189,3.135,0,0c2.659-1.992,6.388-4.604,9.086-6.539c2.559-1.835,0.425,2.656,0,0   c1.86-1.139,3.509-2.602,5.118-4.061c2.434-2.312,5.204-4.275,7.779-6.449c3.491-2.96,7.51-5.124,11.169-7.791   c1.809-1.209,3.515-2.563,5.381-3.663c4.652-2.464,9.239-5.08,13.956-7.396c1.441-0.751,3.106-0.856,4.446-1.751   c3.116-2.3,6.772-3.725,10.338-5.216c0.334,0.587,0.629,1.182,0.918,1.736c3.109-1.338,6.129-2.741,9.13-4.262   c-0.427-0.413-0.858-0.864-1.284-1.276c1.301-1.129,2.871-1.821,4.449-2.472c1.174-0.428,1.027-2.087,2.099-2.659   c2.504-1.361,5.202-2.272,7.836-3.334c1.394-0.302,2.896-0.422,4.198,0.21c-0.582,0.373-1.156,0.785-1.686,1.23   c0.967,0.286,1.921,0.494,2.914,0.695c-0.124-0.781-0.287-1.555-0.412-2.337c2.346-1.096,4.943-1.63,7.351-2.615   c1.015-0.403,2.026-0.845,3.056-1.169c0.684-0.229,1.335-0.414,2.025-0.604c1.078-0.012,2.152-0.063,3.259-0.16   c-0.842,0.495-1.677,1.028-2.475,1.557c0.916,0.214,1.89,0.298,2.762-0.001c0.545,0.394,1.05,0.793,1.651,1.057   c1.515-0.041,2.957-0.552,4.427-0.867c0.031,0.195,0.1,0.624,0.131,0.819c-1.777,0.404-3.589,1.095-4.848,2.496   c1.015,0.079,2.016,0.079,2.979-0.155c3.126-0.74,6.358-1.056,9.33-2.251c1.84-0.775,3.818-1.171,5.49-2.239   c0.312-0.81,0.413-1.667,0.563-2.492c0.392-0.303,0.789-0.567,1.188-0.831c-0.692-0.33-1.386-0.66-2.073-0.95l0,0   c1.653-0.425,3.059-1.41,4.578-2.174c1.328-0.212,2.789-0.085,4.062-0.648c0.417-0.147,0.801-0.248,1.179-0.389   c0.829,0.428,1.677,0.973,2.596,0.707c2.2-0.512,4.351-1.096,6.347-2.135c1.438-0.27,2.941-0.39,4.39-0.341   c0.071,0.189,0.179,0.612,0.209,0.808c-0.911,0.306-1.817,0.651-2.459,1.394c1.15-0.063,2.328-0.212,3.455-0.432   c1.119-0.259,2.228-0.596,3.404-0.745c1.932-0.188,3.858,0.585,5.74,0.084c2.154-0.544,4.317-1.05,6.502-1.159   c-0.487,0.718-0.973,1.437-1.419,2.149c1.389,0.418,2.807,0.272,4.213,0.047c0.272-0.044,0.826-0.092,1.06-0.129   c1.503,0.881,3.354,1.186,5.034,0.677c0.959-0.514,1.454-1.674,2.574-1.933c0.496-0.159,0.997-0.279,1.536-0.406   c0.424-0.108,0.887-0.222,1.342-0.374c1.305,1.393,3.178,1.333,4.907,1.137c0.636,0.219,1.234,0.444,1.868,0.664   c2.411,1.057,5.062,1.354,7.672,0.896c2.672,0.934,5.574,1.553,8.08,2.954c-1.412,0.186-2.805,0.487-4.109,1.097   c0.912,0.695,1.851,1.306,2.696,2.091c-0.375,0.661-1.072,1.053-1.635,1.543c1.31,0.431,2.763,0.759,3.737,1.845   c1.163,1.256,2.291,2.558,3.624,3.626c0.201-0.232,0.563-0.73,0.767-0.963c0.837,1.228,1.869,2.424,3.092,3.311   c0.13-0.942,0.526-1.967-0.092-2.83c-1.24-2.003-2.423-4.137-4.023-5.884c0.137-0.143,0.412-0.427,0.551-0.569   c2.301,1.875,3.615,4.589,5.95,6.418l1.403,8.786c-0.583-0.146-1.129-0.3-1.713-0.447c-0.111,2.06-0.626,4.104-0.372,6.186   c0.534,2.598-1.494,4.684-2.957,6.56c-1.325,0.732-2.448,1.712-3.575,2.692c-0.908,0.826-2.187,1.351-2.766,2.485   c0.004,1.28,1.436,1.973,2.145,2.899c-0.061,0.371-0.122,0.741-0.143,1.104c0.435-0.029,0.877-0.02,1.357-0.018   c-0.791,0.809-1.635,1.544-2.479,2.279c-1.347,1.096-2.125,2.742-3.51,3.845c-2.047,1.729-3.933,3.712-6.223,5.158   c0.257-0.642,0.554-1.288,0.889-1.943c-0.362-0.263-0.73-0.563-1.093-0.826c-0.556,0.528-1.123,0.98-1.59,1.575   c-0.229,1.077,0.063,2.152,0.154,3.219c-0.816,0.411-1.624,0.86-2.382,1.381c-2.097,1.416-3.988,3.119-6.089,4.498   c-2.175,1.428-4.047,3.25-5.925,5.031c-0.26-0.119-0.771-0.316-1.024-0.396c1.04-1.008,1.933-2.191,2.617-3.422   c-1.898,0.904-3.429,2.35-5.28,3.285c-2.486,1.24-4.114,3.582-6.554,4.852c-1.586,0.855-3.12,1.781-4.487,3.002   c-1.261,1.119-2.835,2.053-3.579,3.654c-0.292-0.316-0.574-0.59-0.858-0.865c1.218-1.635,2.626-3.104,4.383-4.145   c1.397-1.023,3.416-1.668,3.839-3.535c-1.624-0.143-2.645,1.744-4.334,1.691c0.882-1.742,2.839-2.533,4.096-3.936   c1.723-1.998,4.124-3.262,5.938-5.193c1.058-0.65,1.83-1.574,2.078-2.775c-0.724,0.234-1.452,0.431-2.053,0.927   c-0.107,0.578-0.048,1.211-0.025,1.848c-2.386,0.861-4.075,2.813-6.081,4.295c-0.526-0.275-1.089-0.547-1.614-0.824   c1.998-1.281,4.256-2.441,5.213-4.717c-1.064,0.611-2.082,1.254-3.146,1.863c-0.031-0.193-0.049-0.551-0.08-0.746   c0.061-0.131,0.14-0.383,0.198-0.514c1.538-1.406,2.752-3.083,3.79-4.851c-0.803,0.489-1.572,0.934-2.381,1.384   c-0.068-0.67-0.14-1.381-0.168-2.057c0.002-0.48,0.051-0.929,0.06-1.371c1.909-1.345,3.888-2.743,5.452-4.476   c1.967-0.475,3.614-1.698,5.29-2.728c1.346-0.855,2.756,0.201,3.941,0.853c-0.063,0.611-0.119,1.26-0.176,1.91   c0.79-0.566,1.672-1.067,2.224-1.877c0.54-1.128,0.496-2.402,0.745-3.603c0.302-2.371,2.886-3.746,2.934-6.195   c-0.324-1.79-1.784-3.159-2.346-4.911c0.57,0.309,1.141,0.619,1.672,0.934c-0.271-1.198-0.498-2.363-0.77-3.561   c0.932-0.43,1.896-0.663,2.899-0.903c0.459-1.636,0.704-3.356,0.358-5.023c-0.266-1.159-0.112-2.705-1.337-3.351   c-1.197-0.73-2.342-1.628-3.441-2.493c-0.472-0.446-1.154-0.457-1.797-0.474c-2.819,0.411-5.245-1.243-7.629-2.385   c-0.947-0.41-1.385,0.862-1.947,1.353c-0.648-0.297-1.296-0.595-1.945-0.891c0.467-0.596,0.926-1.229,1.341-1.896   c-2.111-0.184-4.195-0.692-6.32-0.953c-2.956-0.209-5.74,1.157-8.674,1.105c-3.808-0.032-7.525,0.763-11.253,1.238   c-3.026,0.364-5.803,1.528-8.58,2.692c-2.021,0.883-4.24,1.038-6.299,1.687c0.383,0.14,0.76,0.24,1.142,0.378   c-2.672,0.308-5.144,1.383-7.576,2.452c-2.49,0.958-5.082,1.772-7.502,2.921c-2.199,0.271-4.398,0.542-6.466,1.393   c-1.954,0.793-4.052,1.208-5.931,2.229c2.18-0.147,4.327-0.49,6.487-0.755c-3.045,0.486-6.234,0.835-8.993,2.357   c-0.908,0.586-1.383,1.623-1.921,2.51c-1.087-0.027-2.184-0.132-3.149,0.342c-2.483,0.998-4.93,2.23-7.125,3.782   c-1.058,0.649-0.905,2.106-1.425,3.11c-0.575,1.413-2.164,1.748-3.389,2.344c-1.839,0.774-3.453,1.953-5.355,2.578   c-1.031-0.437-2.121-0.742-3.181-0.854c0.028-0.326,0.099-0.896,0.132-1.183c0.893-0.182,1.816-0.41,2.709-0.593   c-0.066-0.67-0.129-1.302-0.189-1.932c-2.133-0.061-4.336,0.172-6.133,1.46c1.068,0.671,2.203,1.25,3.361,1.746   c-1.482,0.236-2.948,0.591-4.375,0.938c-2.669,0.587-5.362,1.018-8.07,1.37c-0.877,0.02-1.723-0.006-2.605-0.023   c0.713-0.796,1.414-1.668,1.98-2.64c-3.547,0.606-6.326,3.013-9.38,4.702c-0.563,0.73-0.369,1.7-0.349,2.579   c1.05-0.448,2.093-0.937,3.097-1.417c0.319,1.991,0.676,3.978,1,6.008c-2.108,0.336-4.071,1.091-5.75,2.36"/>
	<path fill="#0791A0" stroke="#0791A0" stroke-width="0.0938" stroke-miterlimit="10" d="M159.448,135.119   c0.031,0.195,0.081,0.506,0.106,0.664c0.196,1.73,0.465,3.408,0.739,5.127c-1.983,1.119-3.871,2.34-5.849,3.498   c-0.759-5.006-1.636-9.99-2.552-14.971l-0.056-0.352"/>
	<path fill="#39A186" stroke="#39A186" stroke-width="0.0938" stroke-miterlimit="10" d="M280.99,55.729   c1.759-0.281,3.502-0.64,5.235-1.076c1.217-0.154,2.444-0.231,3.708-0.353c-1.998,1.04-4.147,1.624-6.348,2.136   C282.668,56.702,281.82,56.157,280.99,55.729L280.99,55.729z"/>
	<path fill="#39A186" stroke="#39A186" stroke-width="0.0938" stroke-miterlimit="10" d="M312.629,51.234   c0.774-0.165,1.556-0.289,2.369-0.459c0.664-0.106,1.334-0.173,2.05-0.207c1.281,0.756,2.682,2.254,4.332,1.55   c0.188-0.071,0.533-0.166,0.684-0.229c0.115,0.222,0.313,0.71,0.43,0.932c0.746,0.161,1.484,0.284,2.188,0.411   c-0.178,0.389-0.361,0.74-0.509,1.083c-0.539,0.127-1.041,0.246-1.536,0.406c-1.119,0.259-1.615,1.419-2.574,1.933   c-1.68,0.508-3.532,0.204-5.033-0.678c1.606-0.216,3.464,0.127,4.85-0.974c-0.212-0.328-0.523-0.518-0.861-0.625   c-1.679-0.492-3.41-0.296-5.081-0.229c0.021,0.637,0.01,1.32,0.032,1.958c-1.405,0.224-2.825,0.371-4.212-0.048   c0.446-0.712,0.932-1.431,1.418-2.149c-2.186,0.109-4.347,0.615-6.502,1.159c-1.882,0.502-3.809-0.272-5.74-0.083   c-1.178,0.148-2.284,0.485-3.403,0.744c0.228-0.316,0.503-0.601,0.778-0.885c1.991-0.318,4.026-0.604,6.055-0.447   c2.223,0.125,4.385-0.38,6.526-0.763c0.931-0.188,1.913-0.306,2.812-0.689C312.055,52.407,312.319,51.804,312.629,51.234   L312.629,51.234z"/>
	<path fill="#C5DDE2" stroke="#C5DDE2" stroke-width="0.0938" stroke-miterlimit="10" d="M243.688,62.61   c1.577-0.653,3.374-0.94,4.795,0.195l0.306,0.151c-0.69,0.19-1.342,0.375-2.026,0.604c-0.19-0.45-0.424-0.894-0.621-1.382   C245.322,62.309,244.508,62.479,243.688,62.61L243.688,62.61z"/>
	<path fill="#6BB6BD" stroke="#6BB6BD" stroke-width="0.0938" stroke-miterlimit="10" d="M263.343,59.31   c0.657-0.146,1.27-0.323,1.927-0.468c-0.046,0.208-0.101,0.617-0.142,0.864c1.472-0.315,2.988-0.598,4.522-0.763   c0.188,1.412,0.326,2.791,0.356,4.228c-0.488-1.043-0.78-2.118-1.078-3.231c-0.354,0.537-0.708,1.074-1.069,1.573   c-0.297-0.354-0.593-0.707-0.846-1.027c-0.893,0.423-1.74,0.879-2.646,1.224c-1.284,0.485-2.699,0.151-3.997,0.558   c-1.139,0.383-2.139,1.144-3.336,1.415c-0.873,0.06-1.67-0.173-2.509-0.16c-0.782,0.125-1.474,0.556-2.19,0.831   c-0.872,0.3-1.846,0.215-2.762,0c0.797-0.528,1.632-1.062,2.473-1.556c1.176-0.669,2.389-1.343,3.66-1.906   c0.044,0.273,0.087,0.787,0.124,1.021c2.837-0.293,5.75-0.598,8.342-1.934C263.893,59.742,263.621,59.545,263.343,59.31   L263.343,59.31z"/>
	<path fill="#69AC78" stroke="#69AC78" stroke-width="0.0938" stroke-miterlimit="10" d="M317.048,50.568   c1.11-0.058,2.262-0.122,3.373-0.179c0.336,0.588,0.63,1.181,0.959,1.729C319.729,52.823,318.329,51.325,317.048,50.568   L317.048,50.568z"/>
	<path fill="#39A186" stroke="#39A186" stroke-width="0.0938" stroke-miterlimit="10" d="M236.061,65.75   c2.427-1.349,5.054-2.209,7.628-3.14c0.819-0.131,1.634-0.302,2.453-0.433c0.197,0.489,0.431,0.933,0.621,1.382   c-1.029,0.325-2.04,0.766-3.057,1.168c0.086-0.213,0.265-0.602,0.396-0.784C241.312,64.031,238.825,65.509,236.061,65.75   L236.061,65.75z"/>
	<path fill="#39A186" stroke="#39A186" stroke-width="0.0938" stroke-miterlimit="10" d="M269.65,58.942   c0.521-0.003,1.001,0,1.521-0.003c0.688,0.29,1.381,0.62,2.074,0.95c-0.397,0.264-0.796,0.528-1.188,0.831   c-0.149,0.824-0.253,1.682-0.563,2.492c-1.671,1.068-3.65,1.465-5.489,2.239c-2.972,1.195-6.205,1.512-9.331,2.251   c-0.964,0.234-1.966,0.234-2.979,0.156c1.257-1.403,3.07-2.092,4.847-2.496c-0.031-0.196-0.099-0.625-0.131-0.821   c-1.47,0.316-2.911,0.825-4.426,0.868c-0.603-0.264-1.107-0.664-1.651-1.057c0.717-0.275,1.408-0.706,2.19-0.831   c0.839-0.014,1.636,0.219,2.509,0.16c1.197-0.271,2.197-1.032,3.336-1.415c1.298-0.407,2.713-0.072,3.997-0.558   c0.906-0.345,1.754-0.801,2.646-1.224c0.253,0.32,0.549,0.673,0.846,1.027c0.361-0.499,0.715-1.036,1.069-1.573   c0.298,1.114,0.59,2.188,1.078,3.231C269.977,61.733,269.838,60.354,269.65,58.942L269.65,58.942z"/>
	<path fill="#69AC78" stroke="#69AC78" stroke-width="0.0938" stroke-miterlimit="10" d="M236.061,65.75   c2.765-0.242,5.251-1.72,8.041-1.806c-0.131,0.182-0.31,0.571-0.396,0.784c-2.405,0.986-5.003,1.521-7.351,2.617   c-0.188,0.07-0.594,0.294-0.814,0.411c-1.303-0.633-2.806-0.513-4.199-0.21C232.874,66.86,234.451,66.208,236.061,65.75   L236.061,65.75z"/>
	<path fill="#69AC78" stroke="#69AC78" stroke-width="0.0938" stroke-miterlimit="10" d="M322.063,51.889   c2.989-0.838,6.133-0.459,9.126,0.224c-1.992,0.318-3.882,1.021-5.675,1.827c-0.456,0.154-0.919,0.267-1.343,0.375   c0.147-0.343,0.331-0.694,0.509-1.083c-0.703-0.127-1.441-0.25-2.188-0.411C322.377,52.6,322.179,52.111,322.063,51.889   L322.063,51.889z"/>
	<path fill="#69AC78" stroke="#69AC78" stroke-width="0.0938" stroke-miterlimit="10" d="M313.936,54.149   c1.671-0.067,3.402-0.263,5.081,0.229c0.338,0.106,0.649,0.297,0.861,0.625c-1.386,1.102-3.243,0.758-4.85,0.974   c-0.234,0.038-0.787,0.086-1.061,0.13C313.945,55.469,313.956,54.786,313.936,54.149L313.936,54.149z"/>
	<path fill="#39A186" stroke="#39A186" stroke-width="0.0938" stroke-miterlimit="10" d="M235.541,67.756   c0.221-0.116,0.626-0.34,0.814-0.411c0.125,0.781,0.289,1.556,0.414,2.336c-0.994-0.201-1.948-0.409-2.916-0.695   C234.384,68.542,234.959,68.129,235.541,67.756L235.541,67.756z"/>
	<path fill="#C5DDE2" stroke="#C5DDE2" stroke-width="0.0938" stroke-miterlimit="10" d="M330.422,55.079   c1.329-0.453,2.686-0.99,4.114-0.817c-0.776,0.404-1.535,0.926-2.246,1.48C331.654,55.522,331.056,55.298,330.422,55.079   L330.422,55.079z"/>
	<path fill="#69AC78" stroke="#69AC78" stroke-width="0.0938" stroke-miterlimit="10" d="M284.908,62.711   c4.981-1.917,10.39-1.901,15.635-1.657c3.621-0.138,7.135-1.46,10.8-1.325c2.124,0.261,4.311-0.088,6.38,0.583   c1.39,0.178,2.767,0.279,4.138,0.58c-1.472,0.316-2.943,0.631-4.389,1.102c-2.495-0.322-5.031-0.157-7.567,0.007   c-2.939-0.091-5.918,0.305-8.808,0.767c-1.295,0.167-2.437,0.79-3.579,1.412c-1.934,0.43-4.083,1.013-5.94-0.092   c0.517-0.522,1.073-1.052,1.603-1.498c0.354-0.296,0.712-0.554,1.033-0.805c-2.576,0.171-5.146,0.622-7.667,1.144   C286.013,63.096,285.461,62.903,284.908,62.711L284.908,62.711z"/>
	<path fill="#69AC78" stroke="#69AC78" stroke-width="0.0938" stroke-miterlimit="10" d="M332.29,55.741   c0.711-0.554,1.47-1.076,2.246-1.48c1.902,0.376,4.358,0.465,5.424,2.376C337.351,57.095,334.7,56.797,332.29,55.741L332.29,55.741   z"/>
	<path fill="#39A186" stroke="#39A186" stroke-width="0.0938" stroke-miterlimit="10" d="M290.343,62.883   c0.938-0.15,1.881-0.26,2.837-0.293c-0.529,0.445-1.086,0.975-1.603,1.498c1.857,1.104,4.007,0.522,5.94,0.092   c1.164,0.015,2.34,0.107,3.497,0.082c-2.564,0.491-5.124,1.26-7.733,1.476c-1.612,0.178-3.303,0.128-4.803,0.768   c-0.756,0.281-1.028,1.086-1.369,1.7c-1.721,0.516-3.489,0.718-5.171,1.227c-3.055,0.929-6.379,0.419-9.339,1.693   c-1.345,0.615-2.796,0.807-4.23,0.596c0.433-0.549,0.705-1.354,1.486-1.479c1.783-0.366,3.638-0.541,5.326-1.252   c2.659-1.146,5.777-0.923,8.228-2.636c-1.718-0.727-3.516,0.802-5.192-0.172c2.772-1.684,6.238-1.557,9.287-0.763   c1.006,0.28,2.028,0.157,3.037-0.044C290.488,64.542,290.436,63.71,290.343,62.883L290.343,62.883z"/>
	<path fill="#39A186" stroke="#39A186" stroke-width="0.0938" stroke-miterlimit="10" d="M266.14,67.792   c2.18-0.389,4.713-1.834,6.776-0.442c-1.374,1.421-3.449,1.472-5.275,1.563C266.832,69.123,266.54,68.289,266.14,67.792   L266.14,67.792z"/>
	<path fill="#0791A0" stroke="#0791A0" stroke-width="0.0938" stroke-miterlimit="10" d="M297.518,64.18   c1.143-0.623,2.284-1.245,3.579-1.412c2.89-0.462,5.868-0.858,8.808-0.767c2.536-0.165,5.072-0.33,7.567-0.007   c-1.861,1.138-4.063,0.889-6.164,1.025c-3.429,0.347-6.862,0.656-10.293,1.244C299.857,64.287,298.682,64.195,297.518,64.18   L297.518,64.18z"/>
	<path fill="#39A186" stroke="#39A186" stroke-width="0.0938" stroke-miterlimit="10" d="M317.723,60.311   c0.964-0.234,1.915-0.546,2.91-0.584c1.398-0.023,2.646,0.778,3.8,1.476c-1.84,1.015-3.999,1.038-6.017,1.441   c-0.112,0.298-0.22,0.635-0.332,0.934c0.933,0.572,1.623,1.383,2.064,2.394c-2.435,0.548-5.11,1.096-7.496-0.044   c-1.54-0.875-3.396-0.458-4.991-1.165c1.234-0.558,2.408-1.226,3.646-1.744c2.101-0.136,4.303,0.113,6.164-1.025   c1.445-0.471,2.917-0.786,4.389-1.102C320.489,60.59,319.112,60.489,317.723,60.311L317.723,60.311z"/>
	<path fill="#FFFFFF" stroke="#FFFFFF" stroke-width="0.0938" stroke-miterlimit="10" d="M228.471,75.893   c1.397-0.783,2.965-0.994,4.501-1.16c-1.171,0.948-2.181,2.151-3.621,2.661c-1.771,0.684-3.429,1.589-5.079,2.534   c-1.658,0.906-3.478,1.797-5.432,1.349c1.13-0.942,2.397-1.784,3.672-2.588C224.43,77.661,226.553,76.92,228.471,75.893   L228.471,75.893z"/>
	<path fill="#69AC78" stroke="#69AC78" stroke-width="0.0938" stroke-miterlimit="10" d="M288.479,66.505   c1.5-0.64,3.19-0.589,4.803-0.768c2.609-0.216,5.169-0.985,7.733-1.476c3.431-0.587,6.864-0.896,10.293-1.244   c-1.238,0.518-2.412,1.186-3.646,1.744c-6.212,1.713-12.811,0.766-18.984,2.473c-0.562,0.25-1.06,0.649-1.567,0.971   C287.45,67.591,287.723,66.787,288.479,66.505L288.479,66.505z"/>
	<path fill="#39A186" stroke="#39A186" stroke-width="0.0938" stroke-miterlimit="10" d="M238.533,76.208   c0.939-0.631,1.932-1.19,2.975-1.676c0.088,0.546,0.213,1.087,0.347,1.666c-1.044,0.487-2.093,0.936-3.148,1.344   C238.637,77.112,238.602,76.637,238.533,76.208L238.533,76.208z"/>
	<path fill="#6BB6BD" stroke="#6BB6BD" stroke-width="0.0938" stroke-miterlimit="10" d="M217.416,82.144   c0.873-2.062,2.947-3.113,5.096-3.456c-1.274,0.804-2.542,1.646-3.672,2.588c1.954,0.449,3.773-0.442,5.432-1.349   c-1.255,1.682-3.422,2.148-5.145,3.145C218.557,82.763,217.986,82.454,217.416,82.144L217.416,82.144z"/>
	<path fill="#020304" stroke="#020304" stroke-width="0.0938" stroke-miterlimit="10" d="M343.932,60.689   c1.305-0.609,2.699-0.912,4.109-1.098c1.665,0.896,3.205,2.012,4.608,3.269c-0.139,0.142-0.414,0.426-0.551,0.568   c1.601,1.747,2.781,3.881,4.022,5.885c0.619,0.862,0.223,1.887,0.092,2.829c-1.223-0.886-2.255-2.082-3.092-3.31   c-0.203,0.233-0.563,0.731-0.768,0.963c-1.331-1.068-2.459-2.37-3.621-3.625c-0.976-1.086-2.43-1.414-3.739-1.845   c0.563-0.491,1.262-0.883,1.637-1.543C345.782,61.995,344.844,61.384,343.932,60.689L343.932,60.689z"/>
	<path fill="#39A186" stroke="#39A186" stroke-width="0.0938" stroke-miterlimit="10" d="M304.644,67.166   c0.851-0.176,1.71-0.314,2.563-0.49c0.01,0.559,0.02,1.118,0.027,1.678c0.469-0.075,0.97-0.196,1.433-0.309   c0.042-0.488,0.04-1.007,0.081-1.495c2.111,0.424,4.292,0.796,6.098,2.069c-1.367,0.219-2.745,0.358-4.074,0.57   c-0.197-0.488-0.39-0.938-0.549-1.434c-1.462,0.874-3.083,1.254-4.766,1.002C305.168,68.204,304.885,67.688,304.644,67.166   L304.644,67.166z"/>
	<path fill="#FEE80D" stroke="#FEE80D" stroke-width="0.0938" stroke-miterlimit="10" d="M295.776,77.593   c3.201-1.272,6.751-1.359,10.114-0.855c2.867,2.145,4.47,5.413,6.381,8.351c0.369,1.062,0.893,2.58-0.134,3.425   c-1.957,2.035-10.391,19.552-11.604,22.228c-2.601-1.987-8.104-6.48-11.3-7.173c0.896-0.663,10.389-13.937,11.188-14.705   c-2.363-0.503-4.215,1.435-6.492,1.718c-1.49-0.802-3.23-1.166-4.903-0.857c-2.493,0.438-5.075,0.57-7.429,1.626   c-1.353,0.057-2.691-0.05-4.074-0.189c0.367-0.458,0.767-0.964,1.133-1.423c1.965-0.994,3.723-2.276,5.421-3.668   c4.24-3.281,9.523-4.805,14.598-6.137c0.008-0.202,0.035-0.527,0.011-0.682C297.779,78.594,296.781,78.113,295.776,77.593   L295.776,77.593z"/>
	<path fill="#6BB6BD" stroke="#6BB6BD" stroke-width="0.0938" stroke-miterlimit="10" d="M252.289,86.623   c1.879-1.021,3.976-1.436,5.931-2.229c2.067-0.851,4.267-1.122,6.465-1.394c-1.369,0.7-2.833,1.053-4.306,1.369   c-0.471,0.556-0.764,1.483-1.602,1.498C256.616,86.132,254.468,86.475,252.289,86.623L252.289,86.623z"/>
	<path fill="#39A186" stroke="#39A186" stroke-width="0.0938" stroke-miterlimit="10" d="M176.815,100.205   c1.342-1.616,3.153-3.067,5.351-3.098C181.022,98.971,178.883,99.875,176.815,100.205L176.815,100.205z"/>
	<path fill="#39A186" stroke="#39A186" stroke-width="0.0938" stroke-miterlimit="10" d="M227.451,91.313   c1.541-1.127,3.25-1.961,5.158-2.305C231.523,90.742,229.293,91.059,227.451,91.313L227.451,91.313z"/>
	<path fill="#6BB6BD" stroke="#6BB6BD" stroke-width="0.0938" stroke-miterlimit="10" d="M329.929,75.3   c0.643,0.017,1.325,0.028,1.796,0.473c1.102,0.866,2.246,1.764,3.443,2.494c1.225,0.645,1.07,2.191,1.335,3.35   c0.348,1.667,0.102,3.387-0.358,5.023c-1.002,0.241-1.966,0.474-2.898,0.904c-0.41,0.186-0.783,0.366-1.155,0.544   c0.068,0.67,0.141,1.379,0.254,2.083c0.56,1.752,2.021,3.12,2.346,4.911c-0.049,2.45-2.633,3.824-2.935,6.194   c-0.248,1.201-0.205,2.476-0.745,3.604c-0.552,0.81-1.433,1.311-2.223,1.877c0.056-0.65,0.112-1.299,0.176-1.909   c-1.187-0.653-2.597-1.709-3.941-0.854c-1.678,1.029-3.323,2.254-5.29,2.727c1.407-1.466,2.912-2.827,4.674-3.828   c1.931-0.949,3.624-2.623,3.745-4.884c0.469-0.075,1.239,0.243,1.465-0.354c0.243-0.479,0.396-1.024,0.557-1.53   c-0.626,0.1-1.257,0.161-1.842,0.255c0.624-1.102,1.58-2.135,1.654-3.428c-0.168-1.054-1.382-1.381-2.146-1.899   c-0.394,0.544-0.754,1.041-1.115,1.539c0.598-0.015,1.196-0.031,1.839-0.013c-0.1,0.375-0.167,0.708-0.267,1.083   c-0.648-0.296-1.291-0.554-1.932-0.812c0.382-1.622,0.464-3.357,1.391-4.828c1.2-1.513,3.22-2.156,4.458-3.674   c0.839-1.016,0.297-2.41,0.266-3.606c-0.775,0.164-1.549,0.328-2.323,0.491C329.922,79.265,329.961,77.257,329.929,75.3   L329.929,75.3z"/>
	<path fill="#39A186" stroke="#39A186" stroke-width="0.0938" stroke-miterlimit="10" d="M220.866,95.208   c0.853-1.938,3.181-2.391,5.017-2.684C224.592,93.972,222.759,94.786,220.866,95.208L220.866,95.208z"/>
	<path fill="#6BB6BD" stroke="#6BB6BD" stroke-width="0.0938" stroke-miterlimit="10" d="M220.757,99.792   c1.797-1.288,4.002-1.521,6.134-1.461c0.061,0.63,0.121,1.261,0.188,1.932c-0.892,0.182-1.817,0.41-2.708,0.593   c-0.034,0.286-0.104,0.856-0.133,1.183c-1.521,0.002-3.01,0.201-4.494,0.438c1.426-0.348,2.893-0.702,4.373-0.939   C222.957,101.041,221.825,100.461,220.757,99.792L220.757,99.792z"/>
	<path fill="#C5DDE2" stroke="#C5DDE2" stroke-width="0.0938" stroke-miterlimit="10" d="M276.372,90.984   c0.777-0.403,1.514-0.802,2.283-1.246c-0.366,0.459-0.766,0.965-1.133,1.423c1.383,0.139,2.722,0.246,4.074,0.189   c-0.38,0.381-0.791,0.808-1.172,1.188c-0.391,0.063-0.781,0.125-1.132,0.181C278.349,92.07,277.377,91.505,276.372,90.984   L276.372,90.984z"/>
	<path fill="#69AC78" stroke="#69AC78" stroke-width="0.0938" stroke-miterlimit="10" d="M204.343,106.338   c-0.723,0.234-1.453,0.432-2.136,0.661c-0.121-0.261-0.41-0.815-0.538-1.115l0,0c3.053-1.689,5.832-4.096,9.38-4.703   c-0.567,0.972-1.268,1.845-1.981,2.64c0.883,0.02,1.729,0.044,2.605,0.024"/>
	<path fill="#FFFFFF" stroke="#FFFFFF" stroke-width="0.0938" stroke-miterlimit="10" d="M281.597,91.351   c2.354-1.056,4.936-1.189,7.429-1.626c1.673-0.308,3.413,0.055,4.903,0.857c-4.554,0.327-8.988,1.396-13.504,1.957   C280.806,92.158,281.217,91.732,281.597,91.351L281.597,91.351z"/>
	<path fill="#FFFFFF" stroke="#FFFFFF" stroke-width="0.0938" stroke-miterlimit="10" d="M293.929,90.582   c2.277-0.283,4.129-2.221,6.492-1.718c-0.799,0.769-1.687,1.471-2.581,2.135C296.56,90.762,295.228,90.696,293.929,90.582   L293.929,90.582z"/>
	<path fill="#39A186" stroke="#39A186" stroke-width="0.0938" stroke-miterlimit="10" d="M201.319,108.463   c-0.02-0.88-0.214-1.849,0.35-2.579c0.128,0.3,0.417,0.854,0.538,1.115c0.684-0.229,1.414-0.427,2.136-0.661   c0.025,0.155,0.042,0.514,0.073,0.708C203.412,107.527,202.369,108.014,201.319,108.463L201.319,108.463z"/>
	<path fill="#FEE80D" stroke="#FEE80D" stroke-width="0.0938" stroke-miterlimit="10" d="M268.644,99.749   c1.988-1.84,3.931-3.712,6.436-4.833c0.56,2.754,0.971,5.572,1.375,8.35l0.036,0.233c2.935-0.428,5.819-1.169,8.822-1.168   c0.063,0.39,0.132,0.819,0.2,1.249c-0.45,0.193-0.86,0.378-1.31,0.569c-0.634,0.302-1.312,0.57-1.887,0.982   c-0.148,0.825-0.018,1.645-0.003,2.483c-1.634,0.3-3.313,0.569-4.922,1.027c1.055,6.598,1.881,13.274,3.098,19.887   c-1.888,0.461-3.756,0.801-5.657,1.184c-0.445-0.529-0.929-1.053-1.335-1.588c-0.872-1.705-11.647-0.463-12.48-2.174   c0.153-0.541,0,0-0.519-0.234c-1.411-2.818-0.352-0.205-1.619-3.125c0.14-0.625,0.596,0.225,0,0   c-2.482-4.432,6.117-11.409,3.765-16.28c-0.188-0.931-0.455-1.849-0.403-2.778c0.257-1.402,1.285-2.486,2.156-3.548   c0.466,0.406,0.805,1.032,1.395,1.219C266.968,101.296,267.832,100.437,268.644,99.749L268.644,99.749z"/>
	<path fill="#39A186" stroke="#39A186" stroke-width="0.0938" stroke-miterlimit="10" d="M332.091,88.088   c0.372-0.179,0.745-0.358,1.155-0.544c0.271,1.198,0.498,2.362,0.77,3.561c-0.531-0.315-1.101-0.625-1.671-0.934   C332.231,89.467,332.159,88.759,332.091,88.088L332.091,88.088z"/>
	<path fill="#39A186" stroke="#39A186" stroke-width="0.0938" stroke-miterlimit="10" d="M327.84,91.051   c0.764,0.518,1.978,0.846,2.146,1.899c-0.074,1.293-1.03,2.326-1.654,3.428c0.585-0.094,1.216-0.155,1.842-0.255   c-0.16,0.506-0.313,1.051-0.557,1.53c-0.226,0.598-0.996,0.279-1.465,0.354c-0.65-0.056-1.306-0.151-1.956-0.208   c0.484-1.479,1.268-2.846,2.102-4.141c0.1-0.375,0.167-0.708,0.267-1.083c-0.643-0.018-1.241-0.001-1.839,0.013   C327.086,92.091,327.446,91.595,327.84,91.051L327.84,91.051z"/>
	<path fill="#8AC5E1" stroke="#8AC5E1" stroke-width="0.0938" stroke-miterlimit="10" d="M351.386,93.055   c1.125-0.981,2.249-1.961,3.573-2.692c-1.077,1.773-2.331,3.454-3.86,4.901c0.175,1.093,0.275,2.237-0.334,3.175   c-0.709-0.927-2.141-1.62-2.145-2.899C349.199,94.405,350.477,93.88,351.386,93.055L351.386,93.055z"/>
	<path fill="#FEE80D" stroke="#FEE80D" stroke-width="0.0938" stroke-miterlimit="10" d="M294.088,100.608   c2.002,0,3.942,0.611,5.671,1.656c0.126,0.541,0.489,0.805,1.036,0.717c0.761,0.759,1.562,1.512,2.069,2.431   c0.31,1.433-0.854,2.42-1.518,3.526c-0.979,1.398-0.978,3.16-1.748,4.604c-1.222,1.878-3.2,3.034-4.854,4.458   c-1.648,1.469-12.396,9.389-14.256,10.529c-0.892-4.824-2.206-15.064-3.098-19.887c-0.629-0.181,8.242-1.797,7.567-2.011   c1.076-0.533,2.244-0.999,3.159-1.785l0,0c1.164-0.987,1.726-2.479,2.799-3.532"/>
	<path fill="#0791A0" stroke="#0791A0" stroke-width="0.0938" stroke-miterlimit="10" d="M167.648,121.531   c3.664-0.795,7.913-1.465,12.737-2.236c1.706-0.352,3.379-0.66,5.095-0.693c1.157-0.025,2.42-0.387,3.497,0.082   c0.828,0.668,1.008,1.801,1.399,2.74c-1.648,1.465-3.543,2.889-5.737,3.439c-0.07-0.189-0.257-0.602-0.366-0.783   c-3.22,0.396-6.378,1.18-9.612,1.496c0.379,1.621,0.648,3.299,0.877,4.986c-1.433,2.313-3.963,3.516-5.635,5.584   C169.357,131.229,168.46,126.367,167.648,121.531L167.648,121.531z"/>
	<path fill="#C5DDE2" stroke="#C5DDE2" stroke-width="0.0938" stroke-miterlimit="10" d="M282.316,105.131   c0.575-0.412,1.253-0.681,1.887-0.982c-0.563,0.491-1.126,0.98-1.682,1.51c0.817,0.351,1.595,0.707,2.438,0.973   c0.675,0.214,1.343,0.386,1.974,0.565c-3.194,0.311-6.313,1.09-9.541,1.445c1.609-0.458,3.288-0.728,4.922-1.027   C282.299,106.776,282.168,105.957,282.316,105.131L282.316,105.131z"/>
	<path fill="#69AC78" stroke="#69AC78" stroke-width="0.0938" stroke-miterlimit="10" d="M299.759,102.264   c0.514-0.042,0.87,0.182,1.036,0.717C300.248,103.069,299.885,102.805,299.759,102.264L299.759,102.264z"/>
	<path fill="#FFFFFF" stroke="#FFFFFF" stroke-width="0.0938" stroke-miterlimit="10" d="M302.864,105.412   c0.725,1.526,1.768,3.042,1.69,4.816c-0.056,1.65-0.186,3.353-0.859,4.901c-1.045,2.73-3.477,4.802-6.143,5.908   c-2.675,0.547-5.428,0.867-8.117,1.338c-0.023-0.158-0.075-0.471-0.099-0.625c1.86-1.139,3.76-2.281,5.408-3.75   c1.653-1.424,3.632-2.58,4.854-4.458c0.771-1.444,0.77-3.206,1.748-4.604C302.01,107.832,303.174,106.844,302.864,105.412   L302.864,105.412z"/>
	
		<line fill="#69AC78" stroke="#69AC78" stroke-width="0.0938" stroke-miterlimit="10" x1="265.493" y1="111.864" x2="265.493" y2="111.864"/>
	<path fill="#FEE80D" stroke="#FEE80D" stroke-width="0.0938" stroke-miterlimit="10" d="M257.562,117.855   c1.514,2.963,3.106,5.912,4.516,8.971c-1.328,0.211-2.656,0.424-3.982,0.637c-0.402-2.02-0.857-4.109-0.584-6.156   C257.688,120.158,257.865,119.008,257.562,117.855L257.562,117.855z"/>
	<path fill="#6BB6BD" stroke="#6BB6BD" stroke-width="0.0938" stroke-miterlimit="10" d="M120.061,144.75   c1.447-1.473,2.9-2.904,4.592-4.098c0.114,0.465,0.228,0.928,0.257,1.363c-0.65,0.945-1.72,1.516-2.602,2.256   c-1.901,1.387-3.421,3.15-5.426,4.393C117.329,146.949,118.89,145.939,120.061,144.75L120.061,144.75z"/>
	<path fill="#C5DDE2" stroke="#C5DDE2" stroke-width="0.0938" stroke-miterlimit="10" d="M110.815,148.031   c1.181-1.631,2.634-3.064,4.299-4.17c-1.889,2.461-4.495,4.441-5.706,7.396c-0.68,2.512-3.288,3.729-4.958,5.559   c-0.128-0.299-0.262-0.639-0.396-0.979c0.975-0.916,1.905-1.865,2.885-2.74c-0.214-0.09-0.681-0.254-0.895-0.34   C107.731,151.289,109.418,149.814,110.815,148.031L110.815,148.031z"/>
	<path fill="#C5DDE2" stroke="#C5DDE2" stroke-width="0.0938" stroke-miterlimit="10" d="M337.974,109.614   c0.466-0.595,1.034-1.048,1.59-1.576c0.363,0.264,0.73,0.563,1.094,0.827c-0.336,0.654-0.632,1.302-0.89,1.943   c-0.423,0.868-0.754,1.804-1.357,2.54c-0.802,0.488-1.791,0.566-2.664,0.866c0.757-0.521,1.565-0.971,2.382-1.382   C338.037,111.766,337.745,110.691,337.974,109.614L337.974,109.614z"/>
	<path fill="#FFFFFF" stroke="#FFFFFF" stroke-width="0.0938" stroke-miterlimit="10" d="M312.979,118.092   c0.591-1.814,1.059-3.654,1.24-5.524c0.028,0.676,0.101,1.387,0.168,2.057c0.81-0.45,1.578-0.894,2.382-1.384   C315.73,115.009,314.517,116.686,312.979,118.092L312.979,118.092z"/>
	
		<line fill="#6BB6BD" stroke="#6BB6BD" stroke-width="0.0938" stroke-miterlimit="10" x1="139.189" y1="142.416" x2="139.189" y2="142.416"/>
	<path fill="#6BB6BD" stroke="#6BB6BD" stroke-width="0.0938" stroke-miterlimit="10" d="M139.808,146.281"/>
	<path fill="#C5DDE2" stroke="#C5DDE2" stroke-width="0.0938" stroke-miterlimit="10" d="M318.514,116.887   c0.601-0.496,1.329-0.693,2.054-0.928c-0.248,1.202-1.021,2.125-2.08,2.776C318.466,118.096,318.405,117.465,318.514,116.887   L318.514,116.887z"/>
	<path fill="#C5DDE2" stroke="#C5DDE2" stroke-width="0.0938" stroke-miterlimit="10" d="M312.861,119.352   c1.063-0.611,2.08-1.254,3.146-1.863c-0.959,2.275-3.215,3.436-5.213,4.717c0.826-1.094,1.471-2.316,1.986-3.602   C312.813,118.801,312.83,119.158,312.861,119.352L312.861,119.352z"/>
	<path fill="#6BB6BD" stroke="#6BB6BD" stroke-width="0.0938" stroke-miterlimit="10" d="M101.57,155.834   c1.477-1.035,3.049-1.967,4.474-3.076c0.214,0.086,0.681,0.25,0.895,0.34c-0.98,0.875-1.91,1.824-2.885,2.74   c-0.822,0.371-1.656,0.666-2.49,0.959C101.565,156.557,101.569,156.076,101.57,155.834L101.57,155.834z"/>
	<path fill="#C5DDE2" stroke="#C5DDE2" stroke-width="0.0938" stroke-miterlimit="10" d="M314.931,124.787   c1.96-2.516,4.051-4.971,6.74-6.682c0.29,0.313,0.615,0.584,0.938,0.852c-2.191,1.07-3.493,3.199-5.491,4.48   C316.392,123.914,315.667,124.391,314.931,124.787L314.931,124.787z"/>
	<path fill="#6BB6BD" stroke="#6BB6BD" stroke-width="0.0938" stroke-miterlimit="10" d="M114.721,151.932L114.721,151.932   l0.352-0.057c0.435,2.975,0.909,5.941,1.501,8.891c-2.032,0.564-4.077,1.051-6.116,1.576c-2.516,1.045-4.621,2.902-6.971,4.238   c-0.163-0.012-0.487-0.041-0.656-0.094c1.689-1.713,3.604-3.26,5.57-4.736c1.314-1.049,3.151-0.582,4.604-1.256   c0.939-0.391,2.261-0.641,2.612-1.697"/>
	<path fill="#C5DDE2" stroke="#C5DDE2" stroke-width="0.0938" stroke-miterlimit="10" d="M273.497,128.125   c0.406,0.535,0.89,1.059,1.335,1.588c1.901-0.383,3.77-0.723,5.657-1.184c0.106,0.664,0.258,1.357,0.408,2.057   c-0.315-0.471-0.473-1.205-1.188-1.172c-1.586-0.146-3.137,0.424-4.615,0.938c-0.008,0.203-0.069,0.572-0.076,0.773   C274.497,130.129,274.017,129.123,273.497,128.125L273.497,128.125z"/>
	<path fill="#6BB6BD" stroke="#6BB6BD" stroke-width="0.0938" stroke-miterlimit="10" d="M306.478,126.777   c1.732-1.195,3.109-2.857,4.316-4.572c0.524,0.277,1.088,0.549,1.613,0.822c-1.714,1.559-3.563,3.014-5.192,4.598   C307.021,127.414,306.672,126.988,306.478,126.777L306.478,126.777z"/>
	<path fill="#FFFFFF" stroke="#FFFFFF" stroke-width="0.0938" stroke-miterlimit="10" d="M320.045,123.211   c1.853-0.938,3.382-2.383,5.28-3.287c-0.684,1.229-1.577,2.412-2.616,3.422c-2.078,1.533-4.355,2.816-6.427,4.389   c-1.287,0.967-2.632,1.822-4.145,2.383c0.408-0.705,0.86-1.377,1.354-2.055C315.932,126.791,317.559,124.449,320.045,123.211   L320.045,123.211z"/>
	<path fill="#8AC5E1" stroke="#8AC5E1" stroke-width="0.0938" stroke-miterlimit="10" d="M96.531,158.883   c1.232-0.557,2.49-0.957,3.741-1.4c-0.233,0.799-0.42,1.631-0.647,2.469c0.319-0.012,0.957-0.033,1.274-0.045   c-1.691,1.191-3.653,1.947-5.403,3.025c-0.993-0.199-1.979-0.363-2.973-0.566l-0.382-0.139   C93.546,161.002,94.849,159.633,96.531,158.883L96.531,158.883z"/>
	<path fill="#6BB6BD" stroke="#6BB6BD" stroke-width="0.0938" stroke-miterlimit="10" d="M316.282,127.734   c2.071-1.572,4.349-2.855,6.427-4.389c0.252,0.078,0.765,0.277,1.024,0.396c-2.368,2.221-5.193,3.832-7.757,5.844   c-2.849,2.219-6.134,3.705-9.19,5.633c0.834-2.055,3.062-2.891,4.6-4.301c-0.794,0.047-1.587,0.098-2.382,0.143   c1.366-1.219,2.901-2.146,4.487-2.998c-0.493,0.678-0.945,1.35-1.354,2.055C313.65,129.557,314.995,128.701,316.282,127.734   L316.282,127.734z"/>
	<path fill="#0791A0" stroke="#0791A0" stroke-width="0.0938" stroke-miterlimit="10" d="M303.455,128.904   c1.012-0.684,2.023-1.365,3.022-2.127c0.194,0.211,0.543,0.637,0.737,0.848c-2.355,3.059-5.472,5.357-8.459,7.717   c-1.075,0.531-2.208,0.951-3.311,1.328C298.115,134.08,301.489,132.141,303.455,128.904L303.455,128.904z"/>
	<path fill="#8AC5E1" stroke="#8AC5E1" stroke-width="0.0938" stroke-miterlimit="10" d="M308.455,127.863   c1.69,0.053,2.71-1.834,4.333-1.691c-0.422,1.869-2.441,2.512-3.839,3.535c-0.303-0.391-0.606-0.783-0.909-1.174   C308.203,128.305,308.329,128.086,308.455,127.863L308.455,127.863z"/>
	<path fill="#6BB6BD" stroke="#6BB6BD" stroke-width="0.0938" stroke-miterlimit="10" d="M89.161,166.387   c0.357-1.777,1.672-3.068,2.979-4.16l0.382,0.139c-0.447,0.713-0.933,1.432-1.418,2.148c0.324,0.271,0.646,0.539,0.97,0.809   C91.205,165.898,90.157,166.109,89.161,166.387L89.161,166.387z"/>
	<path fill="#FFFFFF" stroke="#FFFFFF" stroke-width="0.0938" stroke-miterlimit="10" d="M92.522,162.365   c0.994,0.203,1.98,0.367,2.973,0.566c-1.207,0.715-2.317,1.533-3.422,2.391c-0.323-0.27-0.646-0.537-0.97-0.809   C91.59,163.797,92.076,163.078,92.522,162.365L92.522,162.365z"/>
	<path fill="#6BB6BD" stroke="#6BB6BD" stroke-width="0.0938" stroke-miterlimit="10" d="M135.743,158.184   c1.402-0.746,2.656-1.666,3.975-2.436c-0.381,0.619-0.756,1.279-1.137,1.9c0.319-0.01,0.923,0.014,1.249,0.043   c-1.099,0.895-2.352,1.574-3.668,2.105C136.035,159.26,135.908,158.719,135.743,158.184L135.743,158.184z"/>
	<path fill="#C5DDE2" stroke="#C5DDE2" stroke-width="0.0938" stroke-miterlimit="10" d="M290.554,132.125   c1.583-0.373,3.223-0.633,4.83-0.85c-0.472,0.555-0.995,1.039-1.563,1.49c-1.014-0.32-1.83,0.332-2.678,0.787   c-0.012-0.316-0.028-0.674-0.084-1.027C290.924,132.43,290.69,132.225,290.554,132.125L290.554,132.125z"/>
	<path fill="#39A186" stroke="#39A186" stroke-width="0.0938" stroke-miterlimit="10" d="M295.384,131.275   c0.735-0.16,1.511-0.322,2.248-0.479c-1.291,1.445-2.782,2.645-4.17,3.988c-0.692,0.67-1.6,1.018-2.536,1.166   c0.587-1.334,1.711-2.314,2.896-3.186C294.389,132.314,294.912,131.83,295.384,131.275L295.384,131.275z"/>
	<path fill="#8AC5E1" stroke="#8AC5E1" stroke-width="0.0938" stroke-miterlimit="10" d="M110.458,162.342   c2.039-0.525,4.083-1.012,6.116-1.576c4.755-0.561,9.461-1.432,14.205-2.07c-3.831,1.092-7.925,1.025-11.666,2.426   c-2.823,1.131-4.255,4.443-7.443,4.793c0.577-0.65,1.102-1.377,1.633-2.063c-1.826-0.148-3.891-0.541-5.465,0.631   c-1.402,0.746-2.559,2.533-4.35,2.098C105.837,165.244,107.943,163.387,110.458,162.342L110.458,162.342z"/>
	<path fill="#6BB6BD" stroke="#6BB6BD" stroke-width="0.0938" stroke-miterlimit="10" d="M92.242,167.377   c0.283-1.488,1.453-2.436,2.706-3.115c0.037,0.234,0.079,0.748,0.084,1.027C94.149,166.029,93.227,166.781,92.242,167.377   L92.242,167.377z"/>
	<path fill="#C5DDE2" stroke="#C5DDE2" stroke-width="0.0938" stroke-miterlimit="10" d="M305.425,134.717   c0.744-1.602,2.318-2.533,3.579-3.656c0.795-0.045,1.588-0.096,2.382-0.143c-1.538,1.41-3.766,2.246-4.6,4.301   c-0.184,0.111-0.366,0.219-0.549,0.328C306.045,135.338,305.619,134.926,305.425,134.717L305.425,134.717z"/>
	<path fill="#C5DDE2" stroke="#C5DDE2" stroke-width="0.0938" stroke-miterlimit="10" d="M107.837,164.482   c1.575-1.172,3.64-0.779,5.465-0.631c-0.531,0.686-1.056,1.412-1.633,2.063c-2.127,2.221-4.624,4.145-7.485,5.279   c-2.628,1.102-5.069,2.613-7.316,4.334c-2.337,1.414-4.513,3.084-6.965,4.277c0.958-1.273,1.65-2.707,2.257-4.164   c0.741-0.881,1.63-1.584,2.558-2.291c0.519,0.236,1.06,0.869,1.629,0.42c2.605-1.74,4.713-4.078,7.126-6.025   c-0.297-0.352-0.594-0.705-0.851-1.064l0.209-0.193c0.168,0.053,0.493,0.082,0.656,0.094   C105.279,167.016,106.435,165.229,107.837,164.482L107.837,164.482z"/>
	<path fill="#6BB6BD" stroke="#6BB6BD" stroke-width="0.0938" stroke-miterlimit="10" d="M300.604,136.127   c1.22-0.637,2.272-1.564,3.633-1.82c-1.254,1.68-3.234,2.559-4.675,4.068c-0.577,0.652-1.372,0.941-2.213,1.195   C297.59,137.809,299.207,136.91,300.604,136.127L300.604,136.127z"/>
	<path fill="#C5DDE2" stroke="#C5DDE2" stroke-width="0.0938" stroke-miterlimit="10" d="M90.132,171.719   c1.578-1.654,3.279-3.289,5.534-3.969c-1.424,1.869-2.66,3.908-4.315,5.576c-0.247-0.041-0.729-0.045-0.974-0.084   C90.295,172.734,90.213,172.225,90.132,171.719L90.132,171.719z"/>
	<path fill="#8AC5E1" stroke="#8AC5E1" stroke-width="0.0938" stroke-miterlimit="10" d="M94.718,173.35   c2.699-2.154,5.16-4.551,7.905-6.67c0.257,0.359,0.554,0.713,0.851,1.064c-2.413,1.947-4.521,4.285-7.126,6.025   C95.778,174.219,95.236,173.586,94.718,173.35L94.718,173.35z"/>
	<path fill="#6BB6BD" stroke="#6BB6BD" stroke-width="0.0938" stroke-miterlimit="10" d="M126.342,165.012   c1.382-0.621,2.815-1.172,3.747-2.361c0.163,0.014,0.325,0.029,0.442,0.01c0.734,0.084,1.468,0.166,2.202,0.248   c-0.199,0.514-0.39,1.066-0.634,1.543c-0.657,0.146-1.321,0.252-1.985,0.357c-0.056,0.65-0.113,1.301-0.176,1.908   c-0.882,0.744-1.914,1.311-2.892,1.947c-0.161-0.254-0.477-0.725-0.637-0.98c0.303-0.609,0.606-1.217,0.909-1.826   C126.994,165.588,126.671,165.318,126.342,165.012L126.342,165.012z"/>
	<path fill="#8AC5E1" stroke="#8AC5E1" stroke-width="0.0938" stroke-miterlimit="10" d="M295.445,136.67   c1.103-0.377,2.235-0.797,3.311-1.328c-1.981,1.637-3.612,3.701-5.902,4.908C293.345,138.811,294.23,137.584,295.445,136.67   L295.445,136.67z"/>
	<path fill="#8AC5E1" stroke="#8AC5E1" stroke-width="0.0938" stroke-miterlimit="10" d="M114.723,168.23   c1.232-1.561,3.157-2.547,5.139-2.426c-0.545,0.85-1.135,1.664-2.062,2.135C116.81,168.256,115.757,168.184,114.723,168.23   L114.723,168.23z"/>
	<path fill="#8AC5E1" stroke="#8AC5E1" stroke-width="0.0938" stroke-miterlimit="10" d="M119.207,170.477   c2.243-2,4.841-3.537,7.136-5.465c0.329,0.307,0.652,0.576,0.976,0.846c-0.303,0.609-0.606,1.217-0.909,1.826   c0.161,0.256,0.476,0.727,0.637,0.98c-1.307,0.85-2.464,1.875-3.725,2.758c-0.186-0.414-0.521-0.76-0.89-1.061   c1.423-0.867,2.646-1.984,3.682-3.271C123.683,167.92,121.509,169.348,119.207,170.477L119.207,170.477z"/>
	<path fill="#8AC5E1" stroke="#8AC5E1" stroke-width="0.0938" stroke-miterlimit="10" d="M130.114,164.809   c0.664-0.105,1.328-0.211,1.985-0.357c-0.668,0.828-1.389,1.584-2.161,2.266C130.001,166.109,130.058,165.459,130.114,164.809   L130.114,164.809z"/>
	<path fill="#8AC5E1" stroke="#8AC5E1" stroke-width="0.0938" stroke-miterlimit="10" d="M84.521,176.699   c1.954-1.553,3.753-3.322,5.611-4.98c0.081,0.506,0.163,1.016,0.244,1.523c0.246,0.039,0.727,0.043,0.974,0.084   c-0.909,0.826-1.767,1.723-2.579,2.652c-0.786,0.848-1.811,1.453-2.815,1.934c-1.708,0.592-2.592,2.576-4.498,2.68   C82.088,179.012,83.208,177.75,84.521,176.699L84.521,176.699z"/>
	<path fill="#6BB6BD" stroke="#6BB6BD" stroke-width="0.0938" stroke-miterlimit="10" d="M106.262,172.664   c1.426-2.348,4.027-3.365,6.465-4.396c-0.143,0.865-0.33,1.695-0.518,2.525c0.239,0.242,0.472,0.447,0.711,0.688   c-0.195,0.031-0.612,0.178-0.841,0.252c-1.23,0.32-2.224,1.119-3.127,1.984c0.057-1.65,1.313-2.813,2.276-4.049   c-1.348,0.336-2.277,1.285-3.071,2.332C107.744,172.668,106.931,172.598,106.262,172.664L106.262,172.664z"/>
	<path fill="#FFFFFF" stroke="#FFFFFF" stroke-width="0.0938" stroke-miterlimit="10" d="M119.207,170.477   c2.303-1.129,4.477-2.557,6.907-3.387c-1.036,1.287-2.259,2.404-3.682,3.271c-3.107,1.857-6.144,3.904-9.038,6.088   c-1.123,0.74-2.359,1.779-3.819,1.412l0.327-0.213c2.737-1.918,5.421-3.908,7.997-6.082   C118.323,171.217,118.782,170.824,119.207,170.477L119.207,170.477z"/>
	<path fill="#8AC5E1" stroke="#8AC5E1" stroke-width="0.0938" stroke-miterlimit="10" d="M108.157,172   c0.794-1.047,1.724-1.996,3.071-2.332c-0.963,1.236-2.219,2.398-2.276,4.049c-0.516,1.283-1.574,2.174-2.698,2.912   c-0.805-0.27-1.646-0.777-2.486-0.521c-1.328,0.211-1.954,1.553-3.057,2.17c-0.84,0.254-1.77,0.201-2.647,0.223   c2.84-1.777,5.307-4.133,8.198-5.836C106.931,172.598,107.744,172.668,108.157,172L108.157,172z"/>
	<path fill="#6BB6BD" stroke="#6BB6BD" stroke-width="0.0938" stroke-miterlimit="10" d="M80.814,175.809   c-0.114-1.225,1.261-0.881,2.076-1.051C82.243,175.221,81.532,175.535,80.814,175.809L80.814,175.809z"/>
	<path fill="#6BB6BD" stroke="#6BB6BD" stroke-width="0.0938" stroke-miterlimit="10" d="M116.781,169.582   c0.066-0.09,0.275-0.283,0.341-0.375c0.248,0.803,0.535,1.598,0.776,2.359c-2.576,2.174-5.26,4.164-7.997,6.082   c-0.069-0.43-0.138-0.859-0.207-1.287c1.764-1.242,3.482-2.518,5.291-3.729C116.03,171.904,116.397,170.686,116.781,169.582   L116.781,169.582z"/>
	<path fill="#C5DDE2" stroke="#C5DDE2" stroke-width="0.0938" stroke-miterlimit="10" d="M112.92,171.48   c1.419-0.389,2.614-1.176,3.86-1.898c-0.384,1.104-0.75,2.322-1.795,3.051c-0.966-0.287-1.934-0.574-2.907-0.9   C112.308,171.658,112.725,171.512,112.92,171.48L112.92,171.48z"/>
	<path fill="#6BB6BD" stroke="#6BB6BD" stroke-width="0.0938" stroke-miterlimit="10" d="M74.091,179.086   c2.07-1.334,4.486-1.998,6.568-3.252c0.125,0.781,0.25,1.561,0.375,2.344c-2.52,1.523-4.763,3.523-7.668,4.387   c0.036,0.477,0.072,0.951,0.069,1.434c0.979,0.361,1.926,0.773,2.905,1.137c-0.408,0.705-0.816,1.414-1.179,2.15   c1.108-0.338,2.242-0.76,3.331-1.211c0.123,1.02,0.24,2.002,0.357,2.984c0.58-0.133,1.192-0.313,1.771-0.445   c-0.381,0.623-0.762,1.246-1.183,1.871c-1.055,1.17-2.354,2.061-3.609,2.982c0.095-1.418,0.398-3.027-0.445-4.297   c-0.679-0.49-1.478-0.725-2.288-1.035c0.015-0.402-0.014-0.838-0.038-1.234c-0.061-0.631-0.115-1.223-0.17-1.816   c-2.211,1.195-4.207,2.996-6.771,3.486c0.849-1.457,1.833-2.814,2.771-4.207C70.325,182.33,72.182,180.672,74.091,179.086   L74.091,179.086z"/>
	<path fill="#FFFFFF" stroke="#FFFFFF" stroke-width="0.0938" stroke-miterlimit="10" d="M108.952,173.717   c0.903-0.865,1.896-1.664,3.127-1.984c0.973,0.326,1.94,0.613,2.907,0.9c-1.809,1.211-3.527,2.486-5.291,3.729   c-0.392,0.301-0.79,0.566-1.194,0.793c-0.78-0.117-1.526-0.279-2.246-0.525C107.378,175.891,108.437,175,108.952,173.717   L108.952,173.717z"/>
	<path fill="#6BB6BD" stroke="#6BB6BD" stroke-width="0.0938" stroke-miterlimit="10" d="M85.957,177.912   c1.004-0.48,2.029-1.086,2.815-1.934c1.105-0.096,2.25-0.199,3.389-0.338c-0.607,1.457-1.3,2.891-2.257,4.164   c2.452-1.193,4.628-2.863,6.965-4.277c-1.373,1.18-2.604,2.496-3.926,3.752c-1.361,1.258-3.352,1.574-4.764,2.762   c-1.164,0.988-1.681,2.512-2.748,3.604c-0.804,0.729-1.989,0.838-3.018,1.162c0.116-0.779,0.05-1.689,0.814-2.172   c1.999-1.52,4.044-3.01,5.565-5.014c0.187-0.59,0.373-1.182,0.519-1.768C88.193,177.875,87.068,177.854,85.957,177.912   L85.957,177.912z"/>
	<path fill="#6BB6BD" stroke="#6BB6BD" stroke-width="0.0938" stroke-miterlimit="10" d="M113.394,176.449   c2.895-2.184,5.931-4.23,9.038-6.088c0.369,0.301,0.705,0.646,0.89,1.061c-1.835,1.293-3.98,2.156-5.622,3.66   c-2.198,2.033-5.039,3.047-7.501,4.682c-2.031,1.324-3.856,2.938-5.893,4.225c-0.024-0.156-0.048-0.553-0.041-0.754   c-0.212-0.326-0.463-0.646-0.715-0.967c2.012-1.443,4.018-2.924,6.023-4.406C111.034,178.229,112.271,177.189,113.394,176.449   L113.394,176.449z"/>
	<path fill="#39A186" stroke="#39A186" stroke-width="0.0938" stroke-miterlimit="10" d="M81.459,180.592   c1.906-0.104,2.79-2.088,4.498-2.68c1.112-0.059,2.236-0.037,3.354-0.059c-0.146,0.586-0.333,1.178-0.519,1.768   c-0.088-0.309-0.267-0.92-0.356-1.227c-1.275,0.285-2.314,1.053-3.023,2.127c-0.389-0.178-0.732-0.324-1.083-0.508   c-0.562,0.49-1.131,0.939-1.687,1.471C82.235,181.188,81.867,180.887,81.459,180.592L81.459,180.592z"/>
	<path fill="#C5DDE2" stroke="#C5DDE2" stroke-width="0.0938" stroke-miterlimit="10" d="M64.931,185.916   c1.344-1.617,2.687-3.232,4.463-4.398c-0.571,0.693-1.095,1.416-1.659,2.15c0.311,0.188,0.848,0.543,1.152,0.695   c-0.938,1.393-1.923,2.75-2.771,4.207l-0.232-0.203C65.518,187.584,65.264,186.744,64.931,185.916L64.931,185.916z"/>
	<path fill="#C5DDE2" stroke="#C5DDE2" stroke-width="0.0938" stroke-miterlimit="10" d="M100.711,178.277   c1.103-0.617,1.729-1.959,3.057-2.17c0.84-0.256,1.682,0.252,2.486,0.521c0.72,0.246,1.466,0.408,2.246,0.525   c-2.113,1.816-4.833,2.332-7.424,2.908c0.087-0.457,0.175-0.91,0.262-1.365c-1.333,0.174-2.681,0.266-4.026,0.363   c0.177-0.148,0.574-0.414,0.751-0.561C98.941,178.479,99.871,178.531,100.711,178.277L100.711,178.277z"/>
	<path fill="#6BB6BD" stroke="#6BB6BD" stroke-width="0.0938" stroke-miterlimit="10" d="M82.643,181.484   c0.556-0.531,1.125-0.98,1.687-1.471c0.351,0.184,0.694,0.33,1.083,0.508c-1.372,1.939-3.288,3.488-5.619,4.182   C80.646,183.525,81.597,182.451,82.643,181.484L82.643,181.484z"/>
	<path fill="#6BB6BD" stroke="#6BB6BD" stroke-width="0.0938" stroke-miterlimit="10" d="M77.079,181.494   C78.156,180.719,77.33,182.814,77.079,181.494L77.079,181.494z"/>
	<path fill="#0791A0" stroke="#0791A0" stroke-width="0.0938" stroke-miterlimit="10" d="M108.5,177.154   c0.405-0.227,0.802-0.492,1.194-0.793c0.069,0.428,0.137,0.857,0.207,1.287l-0.327,0.213c-2.005,1.482-4.011,2.963-6.023,4.406   c-1.535,1.168-3.07,2.334-4.406,3.748c0.252,0.078,0.753,0.199,1.006,0.279c-1.209,0.955-2.425,1.869-3.543,2.891   c-1.131,0.939-2.056,2.168-3.393,2.822c-0.563-0.27-1.101-0.625-1.632-0.939c-1.979,1.396-3.656,3.186-5.641,4.545   c0.103-0.857,0.317-1.773,1.023-2.367c1.223-1.115,1.683-2.752,2.193-4.314c1.197-0.029,2.566,0.271,3.651-0.463   c1.39-0.822,2.432-2.07,3.305-3.371c0.742-0.119,1.484-0.238,2.232-0.316c-0.438-0.734-0.841-1.508-1.272-2.201   c1.351-0.814,2.644-1.74,4.002-2.518C103.667,179.486,106.388,178.971,108.5,177.154L108.5,177.154z"/>
	<path fill="#FFFFFF" stroke="#FFFFFF" stroke-width="0.0938" stroke-miterlimit="10" d="M90.425,185.328   c2.315-2.055,4.328-4.498,6.888-6.268c1.346-0.098,2.693-0.189,4.026-0.363c-0.087,0.455-0.175,0.908-0.262,1.365   c-1.358,0.777-2.651,1.703-4.002,2.518c-2.784,1.127-4.396,4.068-7.366,4.781C89.922,186.688,90.128,185.975,90.425,185.328   L90.425,185.328z"/>
	<path fill="#6BB6BD" stroke="#6BB6BD" stroke-width="0.0938" stroke-miterlimit="10" d="M89.708,187.361   c2.97-0.713,4.582-3.654,7.366-4.781c0.431,0.693,0.834,1.467,1.272,2.201c-0.748,0.078-1.49,0.197-2.232,0.316   c-0.873,1.301-1.915,2.549-3.305,3.371c-1.084,0.734-2.454,0.434-3.651,0.463c-0.511,1.563-0.97,3.199-2.193,4.314   c0.008-0.199,0.056-0.65,0.063-0.85c-0.611,0.178-1.269,0.322-1.888,0.463c0.429-0.83,0.85-1.699,1.272-2.568   c-1.22-0.363-2.482-0.242-3.527,0.484l-0.331-0.068c0.886-1.221,2.01-2.203,3.141-3.145c-0.102,0.617-0.164,1.229-0.22,1.879   c1.667-1.348,3.185-2.873,4.949-4.113C90.128,185.975,89.922,186.688,89.708,187.361L89.708,187.361z"/>
	<path fill="#8AC5E1" stroke="#8AC5E1" stroke-width="0.0938" stroke-miterlimit="10" d="M67.644,192.369   c2.026-1.605,3.342-3.896,5.413-5.469c0.023,0.396,0.053,0.832,0.038,1.234c0.81,0.311,1.608,0.545,2.288,1.035   c0.843,1.27,0.54,2.879,0.445,4.297c-0.535,0.404-1.026,0.844-1.419,1.387c0.225,0.404,0.489,0.801,0.752,1.201   c-1.49,1.199-2.741,2.641-3.987,4.119c0.322,0.51,0.644,1.02,0.965,1.529c-1.428,1.588-2.901,3.148-4.768,4.244   c-0.429-0.932-0.74-2.123-1.783-2.637c-1.313,0.049-2.275,1.045-3.282,1.766c-1.239,0.518-2.58,0.891-3.883,1.26   c0.85-1.695,2.192-3.072,3.695-4.191c0.85-0.699,1.744-1.363,2.323-2.254c0.142-0.865-0.151-1.697-0.282-2.518   c-2.064,1.369-4.052,2.967-6.449,3.754c1.24-1.762,2.695-3.436,4.343-4.9C63.734,194.717,65.931,193.924,67.644,192.369   L67.644,192.369z"/>
	<path fill="#FFFFFF" stroke="#FFFFFF" stroke-width="0.0938" stroke-miterlimit="10" d="M99.145,186.016   c1.336-1.414,2.871-2.58,4.406-3.748c0.252,0.32,0.503,0.641,0.715,0.967c-1.45,0.953-2.802,2.01-4.116,3.061   C99.897,186.215,99.397,186.094,99.145,186.016L99.145,186.016z"/>
	<path fill="#8AC5E1" stroke="#8AC5E1" stroke-width="0.0938" stroke-miterlimit="10" d="M100.15,186.295   c1.314-1.051,2.666-2.107,4.116-3.061c-0.008,0.201,0.016,0.598,0.041,0.754c-1.211,1.195-2.273,2.566-3.671,3.592   c-1.183,0.869-2.653,1.184-4.028,1.605C97.726,188.164,98.941,187.25,100.15,186.295L100.15,186.295z"/>
	<path fill="#FFFFFF" stroke="#FFFFFF" stroke-width="0.0938" stroke-miterlimit="10" d="M67.582,193.982   c1.727-1.719,3.43-3.592,5.673-4.592c0.413,0.574,0.825,1.148,1.237,1.725c-0.19,0.311-0.42,0.629-0.656,0.906   C71.993,193.277,69.735,193.678,67.582,193.982L67.582,193.982z"/>
	<path fill="#69AC78" stroke="#69AC78" stroke-width="0.0938" stroke-miterlimit="10" d="M75.827,193.467   c1.255-0.922,2.554-1.813,3.609-2.982c1.052,0.072,2.1,0.107,3.119,0.223l0.331,0.068c-2.721,1.516-5.217,3.438-7.726,5.279   c-0.264-0.4-0.528-0.797-0.752-1.201C74.801,194.311,75.292,193.871,75.827,193.467L75.827,193.467z"/>
	<path fill="#C5DDE2" stroke="#C5DDE2" stroke-width="0.0938" stroke-miterlimit="10" d="M67.582,193.982   c2.153-0.305,4.412-0.705,6.253-1.961c-0.153,0.547-0.113,1.299-0.706,1.594c-1.313,0.811-2.942,0.391-4.388,0.861   c-0.909,0.826-1.896,1.666-3.133,1.943C65.881,195.373,66.371,194.176,67.582,193.982L67.582,193.982z"/>
	<path fill="#C5DDE2" stroke="#C5DDE2" stroke-width="0.0938" stroke-miterlimit="10" d="M78.646,197.82   c0.233-0.799,1.098-0.898,1.801-1.008c0.042,0.516,0.078,0.988,0.113,1.463c0.953-0.555,1.906-1.105,2.904-1.625   c-0.141,1.621-1.733,2.438-2.818,3.414c-0.446,0.471-1.128,0.459-1.758,0.52c0.12-0.502,0.247-0.961,0.373-1.422   C79.03,198.719,78.799,198.277,78.646,197.82L78.646,197.82z"/>
	<path fill="#C5DDE2" stroke="#C5DDE2" stroke-width="0.0938" stroke-miterlimit="10" d="M56.796,204.676   c1.27-1.324,2.773-2.445,4.397-3.305c0.232,0.201,0.691,0.568,0.924,0.773c-1.503,1.119-2.845,2.496-3.695,4.191   c1.303-0.369,2.644-0.742,3.883-1.26c-1.13,0.941-2.422,1.629-3.772,2.205C57.955,206.412,57.375,205.543,56.796,204.676   L56.796,204.676z"/>
</g>
<g>
	<g>
		<path fill="#010202" stroke="#FFFFFF" stroke-width="2" stroke-miterlimit="10" d="M69.593,89.933    c-0.423,1.822-0.635,3.236-0.635,4.245c0,1.431,0.423,2.911,1.27,4.44c0.846,1.529,2.344,3.496,4.492,5.903    c4.329,4.945,7.332,8.482,9.009,10.612c1.676,2.131,3.035,4.14,4.077,6.026c1.237,2.245,2.124,4.334,2.661,6.27    s0.806,4.01,0.806,6.221c0,2.766-0.472,5.457-1.416,8.075c-0.944,2.618-2.263,4.92-3.955,6.904    c-4.492,5.271-11.377,7.904-20.654,7.904H46.79v-15.771h16.357c3.483,0,5.973-0.862,7.471-2.588    c1.204-1.433,1.807-2.979,1.807-4.639c0-1.921-0.684-3.897-2.051-5.933c-1.367-2.034-4.736-6.111-10.107-12.231    c-2.474-2.864-4.37-5.216-5.688-7.056c-1.318-1.839-2.287-3.523-2.905-5.054c-1.042-2.571-1.563-4.915-1.563-7.031    c0-1.563,0.228-3.662,0.684-6.299H69.593z"/>
		<path fill="#010202" stroke="#FFFFFF" stroke-width="2" stroke-miterlimit="10" d="M114.759,89.933v15.82H96.595v-15.82H114.759z     M114.759,115.567v40.967H96.595v-40.967H114.759z"/>
		<path fill="#010202" stroke="#FFFFFF" stroke-width="2" stroke-miterlimit="10" d="M122.767,89.933h47.266    c5.501,0,9.847,0.391,13.037,1.172c3.092,0.749,5.811,2.572,8.154,5.469c1.497,1.855,2.571,4.061,3.223,6.615    c0.651,2.555,0.977,5.833,0.977,9.833v43.513h-18.164v-42.781c0-1.821-0.122-3.187-0.366-4.098    c-0.244-0.91-0.692-1.675-1.343-2.292c-0.619-0.585-1.408-1-2.368-1.244c-0.96-0.244-2.222-0.366-3.784-0.366h-28.467v50.781    h-18.164V89.933z M167.542,115.567v40.967h-16.846v-40.967H167.542z"/>
		<path fill="#010202" stroke="#FFFFFF" stroke-width="2" stroke-miterlimit="10" d="M203.431,89.933h22.021    c3.972,0,7.243,0.114,9.814,0.342c3.938,0.326,7.292,1.579,10.059,3.76c1.855,1.498,3.304,3.442,4.346,5.835    s1.563,4.973,1.563,7.739c0,3.386-0.716,6.348-2.148,8.887c-0.749,1.335-1.652,2.482-2.71,3.442    c-1.059,0.96-2.547,1.945-4.468,2.954c1.53,0.618,2.751,1.22,3.662,1.804c0.911,0.586,1.79,1.365,2.637,2.341    c2.539,2.86,3.809,6.534,3.809,11.019c0,2.438-0.439,4.812-1.318,7.119c-0.879,2.309-2.1,4.258-3.662,5.851    c-1.399,1.431-3.085,2.601-5.054,3.511c-1.97,0.91-4.045,1.463-6.226,1.658c-2.214,0.227-4.851,0.341-7.91,0.341h-24.414v-15.771    h21.729c2.409,0,4.069-0.472,4.98-1.416c0.911-0.977,1.367-2.181,1.367-3.613c0-1.367-0.423-2.49-1.27-3.369    c-0.879-0.879-2.588-1.318-5.127-1.318h-21.68v-15.82h21.729c1.628,0,2.921-0.13,3.882-0.391c0.96-0.26,1.701-0.7,2.222-1.318    c0.749-0.879,1.123-1.953,1.123-3.223c0-1.53-0.513-2.669-1.538-3.418c-1.025-0.749-2.58-1.123-4.663-1.123h-22.754V89.933z"/>
		<path fill="#010202" stroke="#FFFFFF" stroke-width="2" stroke-miterlimit="10" d="M294.544,89.933l20.85,66.602h-62.695    l13.525-40.967h16.602l-7.129,25.195h17.139l-18.066-50.83H294.544z"/>
		<path fill="#010202" stroke="#FFFFFF" stroke-width="2" stroke-miterlimit="10" d="M318.03,89.933h21.875    c4.752,0,9.017,0.578,12.793,1.732c3.775,1.155,7.129,2.903,10.059,5.245c3.906,3.124,6.958,7.018,9.155,11.686    c2.197,4.667,3.296,9.604,3.296,14.809c0,7.384-2.197,14.02-6.592,19.907c-1.953,2.603-4.208,4.872-6.763,6.806    c-2.556,1.936-5.185,3.359-7.886,4.27c-4.167,1.432-9.115,2.147-14.844,2.147H318.03v-40.967h18.164v25.312    c3.385,0,6.29-0.406,8.716-1.219c2.425-0.814,4.517-2.082,6.274-3.807c1.595-1.594,2.856-3.521,3.784-5.781    c0.928-2.26,1.392-4.545,1.392-6.854c0-2.277-0.473-4.554-1.416-6.831c-0.944-2.276-2.214-4.211-3.809-5.805    c-1.758-1.756-3.769-3-6.03-3.732c-2.263-0.731-5.249-1.098-8.96-1.098H318.03V89.933z"/>
	</g>
</g>
</svg>